<?xml version="1.0" encoding="utf-8"?>
<!-- Generator: Adobe Illustrator 21.1.0, SVG Export Plug-In . SVG Version: 6.00 Build 0)  -->
<svg version="1.1" id="Calque_1" xmlns="http://www.w3.org/2000/svg" xmlns:xlink="http://www.w3.org/1999/xlink" x="0px" y="0px"
	 viewBox="0 0 432 432" style="enable-background:new 0 0 432 432;" xml:space="preserve">
<style type="text/css">
	.st0{fill:#E37176;}
	.st1{fill:#333333;}
	.st2{fill:#F4A57F;}
	.st3{fill:#CF8FC4;}
	.st4{fill:#CCCCCC;}
	.st5{fill:#13A1B0;}
	.st6{fill:#4D4D4D;}
	.st7{fill:#14B5A5;}
	.st8{fill:#B3B3B3;}
	.st9{fill:#F4C1C1;}
	.st10{fill:#C4DA6D;}
	.st11{fill:#DF5376;}
	.st12{fill:#6BAE3D;}
	.st13{fill:#456F01;}
	.st14{fill:#E7D3D5;}
	.st15{fill:#BA61BB;}
	.st16{fill:#ED5F7D;}
	.st17{fill:#F486A1;}
	.st18{fill:#D3B1AF;}
	.st19{fill:#808080;}
	.st20{fill:#BC4662;}
	.st21{fill:#FBC571;}
	.st22{fill:#FFFFFF;}
	.st23{fill:#ED7203;}
	.st24{fill:#E5445E;}
	.st25{fill:#5A9100;}
	.st26{fill:#1A1A1A;}
	.st27{fill:#E38BA4;}
	.st28{fill:#7FA384;}
	.st29{fill:#F58E8E;}
	.st30{fill:#F5CECE;}
	.st31{fill:#A67C52;}
	.st32{fill:#42210B;}
	.st33{fill:#EF8B07;}
	.st34{fill:#FBB03B;}
	.st35{fill:#F8982A;}
	.st36{fill:#C4B4AD;}
	.st37{fill:#936D94;}
	.st38{fill:#221F20;}
	.st39{fill:#EEAC42;}
	.st40{fill:#58595B;}
	.st41{fill:#945B79;}
	.st42{fill:#404041;}
	.st43{fill:#BA9453;}
	.st44{fill:#B36C77;}
	.st45{fill:#E07175;}
	.st46{fill:#D13F4A;}
	.st47{fill:#3E904D;}
	.st48{fill:#CD98A3;}
	.st49{fill:#C75580;}
	.st50{fill:#3C3C3B;}
	.st51{fill:#E4AEAE;}
	.st52{fill:#B16E6E;}
	.st53{fill:#DEAEB3;}
	.st54{fill:#87A37C;}
	.st55{fill:#942B28;}
	.st56{fill:#449250;}
	.st57{fill:#DD5E7C;}
</style>
<g>
	<g>
		<path class="st31" d="M164.8,295.1c-1.3,4.5-4.8,10.2-10.3,9.2c-5.4-1-7.7-7.5-8.7-12.2c-1.8-8.6-1.9-18.8,0.8-27.2
			c1.4-4.3,4.3-9.6,9.5-9.3c4.8,0.3,7.6,5.2,8.7,9.3c0.8,2.8-3.6,4-4.4,1.2c-0.5-1.8-1.2-3.6-2.6-4.9c-0.4-0.4-1.1-0.8-1.4-0.9
			c-0.6-0.2-0.8-0.2-1.3-0.1c-3.2,0.9-4.6,6.6-5.2,9.8c-1.4,7.2-1.3,15.4,0.5,22.5c0.5,2,1.2,4.1,2.6,5.8c0.9,1.1,1.9,1.7,2.7,1.6
			c0.7,0,1.6-0.5,2.5-1.4c1.1-1.3,1.8-2.9,2.2-4.5C161.2,291.1,165.6,292.3,164.8,295.1z"/>
		<path class="st31" d="M192.4,290.3c-0.6,4.5-1.6,10.2-5.9,12.7c-3.7,2.2-9.2,1.5-12.5-1.2c-4.1-3.4-5-9.5-5.5-14.4
			c-1.1-9.8-0.8-19.8-0.8-29.6c0-2.9,4.5-2.9,4.5,0c0,10-0.4,20.2,0.8,30.1c0.4,3.7,1.3,8.9,4.3,10.9c2.4,1.5,6.2,1.4,7.7-0.3
			c2.6-2.8,2.9-8.8,3.2-12.8c0.6-9.3,0.4-18.6,0.4-27.9c0-2.9,4.5-2.9,4.5,0C193.3,268.5,193.8,279.6,192.4,290.3z"/>
		<path class="st31" d="M214.5,272.4c-1.9,0-3.7,0-5.6,0c0,9.9,0,19.8,0,29.7c0,2.9-4.5,2.9-4.5,0c0-1.9,0-3.8,0-5.6
			c0-8,0-16.1,0-24.1c-1.9,0-3.7,0-5.6,0c-2.9,0-2.9-4.5,0-4.5c1.9,0,3.7,0,5.6,0c0-3.4,0-6.7,0-10.1c0-2.9,4.5-2.9,4.5,0
			c0,1.9,0,3.8,0,5.6c0,1.5,0,3,0,4.5c1.9,0,3.7,0,5.6,0C217.4,267.9,217.4,272.4,214.5,272.4z"/>
		<path class="st31" d="M244,288.3c-0.1,6.4-2.9,14.7-10.1,15.9c-6.8,1.2-11.1-5.3-12.8-10.9c-1.6-5.3-1.9-11.1-1.6-16.6
			c0.3-5.2,1.1-10.7,3.7-15.3c2.9-5.1,8.9-8.1,14.1-4.4c2.6,1.9,4,4.9,4.9,7.8c1.6,5.3,1.8,11.1,1.8,16.6c0,1.2-1,2.3-2.3,2.3
			c-5.9,0-11.8,0-17.7,0.1c0.2,3.4,0.7,6.7,1.9,9.8c0.8,2.1,2.1,4.3,4,5.5c1.4,0.8,2.7,0.9,4.1,0.3c3.9-1.6,5.3-7.1,5.3-11.2
			C239.6,285.4,244.1,285.4,244,288.3z M224,279.3c5.2,0,10.3,0,15.5-0.1c-0.1-4.4-0.4-8.9-1.6-13.2c-0.7-2.2-1.8-4.6-3.6-5.7
			c-0.4-0.2-1.3-0.5-1.6-0.5c-0.8-0.1-1.4-0.1-2.1,0.3c-2.5,1.1-3.9,4.2-4.7,6.6C224.5,270.8,224,275.1,224,279.3z"/>
		<path class="st31" d="M266.3,293.9c-0.2,5.6-4.5,12.1-10.9,10.3c-5.7-1.6-7.2-8.5-7.3-13.6c0-2.9,4.5-2.9,4.5,0
			c0,2.9,0.4,7.2,3.2,8.9c2.8,1.7,5.1-1.5,5.6-3.9c1.5-6.5-4.7-11.2-8.3-15.7c-4.2-5.2-7.7-12.4-4.7-19c1.9-4.2,6.5-6.5,10.9-4.7
			c5.3,2.1,6.7,8.2,6.8,13.4c0,2.9-4.5,2.9-4.5,0c0-2.9-0.4-6.6-2.8-8.6c-1.4-1.1-3.4-1.3-4.8-0.2c-2.1,1.6-2.4,4.9-2,7.3
			c0.7,3.9,3.1,7.2,5.6,10.1C261.6,282.7,266.5,287.4,266.3,293.9z"/>
		<path class="st31" d="M285.4,272.4c-1.9,0-3.7,0-5.6,0c0,9.9,0,19.8,0,29.7c0,2.9-4.5,2.9-4.5,0c0-1.9,0-3.8,0-5.6
			c0-8,0-16.1,0-24.1c-1.9,0-3.7,0-5.6,0c-2.9,0-2.9-4.5,0-4.5c1.9,0,3.7,0,5.6,0c0-3.4,0-6.7,0-10.1c0-2.9,4.5-2.9,4.5,0
			c0,1.9,0,3.8,0,5.6c0,1.5,0,3,0,4.5c1.9,0,3.7,0,5.6,0C288.3,267.9,288.3,272.4,285.4,272.4z"/>
	</g>
	<g>
		<path class="st32" d="M171.7,352.5c-0.1,4.7-1.4,9.7-5.4,12.6c-3.3,2.4-7.6,2.7-11,0.9c-0.9,1.9-4.3,1.5-4.3-1c0-1.9,0-3.8,0-5.6
			c0-12.9,0-25.8,0-38.7c0-2.9,4.5-2.9,4.5,0c0,1.9,0,3.8,0,5.6c0,4,0,8,0,12c3.7-1.9,8.4-1.4,11.7,1.5
			C170.7,342.9,171.8,348,171.7,352.5z M164.8,343.8c-2.5-3-6.8-2.7-9.3,0.2c0,5.4,0,10.9,0,16.3c2.4,2.8,6.1,3.1,8.8,0.5
			c2.2-2.1,2.7-5.5,2.8-8.3C167.3,349.6,166.8,346.2,164.8,343.8z"/>
		<path class="st32" d="M199.8,353.2c-0.6,4.5-1.6,10.2-5.9,12.7c-3.7,2.2-9.2,1.5-12.5-1.2c-4.1-3.4-5-9.5-5.5-14.4
			c-1.1-9.8-0.8-19.8-0.8-29.6c0-2.9,4.5-2.9,4.5,0c0,10-0.4,20.2,0.8,30.1c0.4,3.7,1.3,8.9,4.3,10.9c2.4,1.5,6.2,1.4,7.7-0.3
			c2.6-2.8,2.9-8.8,3.2-12.8c0.6-9.3,0.4-18.6,0.4-27.9c0-2.9,4.5-2.9,4.5,0C200.7,331.4,201.2,342.5,199.8,353.2z"/>
		<path class="st32" d="M229,364.9c0,2.9-4.5,2.9-4.5,0c0-10,0.3-20.1-0.7-30c-0.3-2.5-0.6-5-1.4-7.3c-0.3-0.9-0.7-1.7-1.2-2.5
			c-0.3-0.4-0.8-1-1.1-1.2c-2.1-1.5-5.4-1.2-7,0.4c-2.8,2.9-3.3,8.7-3.6,12.8c-0.6,6.6-0.7,13.3-0.7,20c0,2.6,0,5.2,0,7.8
			c0,1.5-1.3,2.3-2.5,2.2c-1.1-0.1-2-0.8-2-2.2c0-4.4,0-8.9,0-13.4c0-10.3,0-20.5,0-30.8c0-2.9,4.5-2.9,4.5,0c0,0.6,0,1.2,0,1.8
			c0.8-1.1,1.8-2.1,3-2.9c3.5-2,8.6-1.6,11.6,1.1c3.8,3.4,4.5,9.4,5,14.2C229.3,344.9,229,355,229,364.9z"/>
		<path class="st32" d="M257.4,364.9c0,2.9-4.5,2.9-4.5,0c0-10,0.3-20.1-0.7-30c-0.3-2.5-0.6-5-1.4-7.3c-0.3-0.9-0.7-1.7-1.2-2.5
			c-0.3-0.4-0.8-1-1.1-1.2c-2.1-1.5-5.4-1.2-7,0.4c-2.8,2.9-3.3,8.7-3.6,12.8c-0.6,6.6-0.7,13.3-0.7,20c0,2.6,0,5.2,0,7.8
			c0,1.5-1.3,2.3-2.5,2.2c-1.1-0.1-2-0.8-2-2.2c0-4.4,0-8.9,0-13.4c0-10.3,0-20.5,0-30.8c0-2.9,4.5-2.9,4.5,0c0,0.6,0,1.2,0,1.8
			c0.8-1.1,1.8-2.1,3-2.9c3.5-2,8.6-1.6,11.6,1.1c3.8,3.4,4.5,9.4,5,14.2C257.7,344.9,257.4,355,257.4,364.9z"/>
		<path class="st32" d="M280.6,321.8c-3.2,4.8-6.3,9.6-9.5,14.5c0,9.6,0,19.2,0,28.8c0,2.9-4.5,2.9-4.5,0c0-9.6,0-19.2,0-28.8
			c-3.2-4.8-6.3-9.6-9.5-14.5c-1.6-2.4,2.3-4.7,3.9-2.3c2.6,3.9,5.2,7.9,7.8,11.8c0.1,0,0.1,0,0.2,0c2.6-3.9,5.2-7.9,7.8-11.8
			C278.3,317.1,282.2,319.3,280.6,321.8z"/>
	</g>
	<g>
		<path class="st32" d="M235.3,166.6c11.4-21.9,36.9-74,23.4-94.7c-16.9-26-51.7,22.7-43.7,89.6c-3.3,0.1-6.5,0.2-9.7,0.2
			c-0.4-0.9,1-12.7-2.2-28.6c-11.2-55.1-38.1-49.3-39.7-22.8c-1.8,30.3,22.6,58.6,22.6,58.7c-17.4,14.7-16.8,36.6-5.1,53.9
			C218.1,277.5,299.9,200.1,235.3,166.6z M188.3,214.2c-0.8,1.6-2.8,1.8-3.8,0.3c-0.5-0.6-0.7-1.3-0.8-2.1c-0.1-1-0.1-2,0.2-3
			c0.2-0.4,0.4-0.9,0.7-1.3c0.8-0.9,2.1-0.9,2.9,0c0.3,0.3,0.5,0.8,0.7,1.2c0.4,0.9,0.5,1.9,0.5,3
			C188.7,212.9,188.6,213.6,188.3,214.2z M194.7,163.8c-3.5,0-9.5-9-15.3-27.8c-6.4-20.9-5.7-31.9-1.9-31.9c3.5,0,9.5,9,15.3,27.8
			C199.2,152.8,198.5,163.8,194.7,163.8z M220.4,217c-0.1,0.8-0.4,1.5-0.8,2.1c-0.6,0.9-1.3,1.7-2,2.6c-0.5,0.7-1.2,1.3-1.7,1.9
			c-0.8,1-1.2,2.2-1.3,3.4c-0.1,0.4-0.1,0.7-0.2,1.1c-0.1,0.5-0.5,0.8-0.9,0.8c-0.4,0-0.7-0.2-0.9-0.7c-0.2-0.4-0.3-0.8-0.4-1.2
			c-0.1-0.4-0.2-0.8-0.4-1.1c-0.4-0.9-0.8-1.7-1.6-2.4c-0.3-0.3-0.6-0.6-0.9-0.9c-1.2-1.1-2.1-2.5-2.8-3.9c-0.2-0.5-0.4-1-0.4-1.6
			c0.1-1.6,1.6-2.6,3.2-2.1c0.6,0.2,1.2,0.4,1.7,0.8c0.7,0.5,1.3,1.2,1.9,1.9c0.2,0.2,0.3,0.3,0.5,0.6c0.2-0.2,0.3-0.3,0.4-0.5
			c0.8-0.9,1.6-1.6,2.6-2.3c0.5-0.3,1-0.6,1.6-0.7C219.4,214.6,220.5,215.6,220.4,217z M225.7,162.4c-4.9,0-5.9-15.3,1.9-44.3
			c7.2-26.8,14.9-39.6,19.4-39.6c4.9,0,5.9,15.3-1.9,44.3C237.9,149.6,230.2,162.4,225.7,162.4z M248.4,214.2
			c-0.8,1.6-2.8,1.8-3.8,0.3c-0.5-0.6-0.7-1.3-0.8-2.1c-0.1-1-0.1-2,0.2-3c0.2-0.4,0.4-0.9,0.7-1.3c0.8-0.9,2.1-0.9,2.9,0
			c0.3,0.3,0.5,0.8,0.7,1.2c0.4,0.9,0.5,1.9,0.5,3C248.8,212.9,248.8,213.6,248.4,214.2z"/>
		<path class="st18" d="M247,81c-1.5,0.2-8.8,7.2-17.1,37.8c-3.3,12.2-5.2,22.7-5.6,30.6c-0.4,7.6,0.9,10.3,1.4,10.7
			c1.5-0.2,8.8-7.2,17.1-37.8c3.3-12.2,5.2-22.7,5.6-30.6C248.8,84.1,247.5,81.4,247,81z"/>
		<path class="st18" d="M177.7,106.5c-0.8,1.4-2.1,8.9,4,28.8c6.1,19.9,11.3,25.4,12.8,26.1c0.8-1.4,2.1-8.9-4-28.8
			C184.5,112.7,179.2,107.2,177.7,106.5z"/>
	</g>
	<g>
		<g>
			<path class="st18" d="M166.8,203.9c1.2-10.5,1.6-23.5-5.2-32.3c-5.1-6.6-16.4-11.3-23.2-4.2c-6,6.3-1.8,14.5,1.9,21.6
				c-12.6-12.1-21.5-2.8-18.4,6.2c4.6,13.5,35.4,19.2,31.2,39.8C151.9,240.9,163.3,235.7,166.8,203.9z"/>
			<path class="st18" d="M178.1,241.3c3.9-5,1.1-8.9-3.5-8.1c-7.5,1.3-6.8,10.4-10.7,15.1c-0.6,0.7-0.4,1.9,0.7,2
				c4.8,0.4,15.3,2.7,17.7-3.3C183.4,244.1,181.5,241.2,178.1,241.3z"/>
		</g>
		<g>
			<path class="st18" d="M265.2,203.9c-1.2-10.5-1.6-23.5,5.2-32.3c5.1-6.6,16.4-11.3,23.2-4.2c6,6.3,1.8,14.5-1.9,21.6
				c12.6-12.1,21.5-2.8,18.4,6.2c-4.6,13.5-35.4,19.2-31.2,39.8C280.1,240.9,268.7,235.7,265.2,203.9z"/>
			<path class="st18" d="M253.9,241.3c-3.9-5-1.1-8.9,3.5-8.1c7.5,1.3,6.8,10.4,10.7,15.1c0.6,0.7,0.4,1.9-0.7,2
				c-4.8,0.4-15.3,2.7-17.7-3.3C248.6,244.1,250.5,241.2,253.9,241.3z"/>
		</g>
	</g>
</g>
</svg>
