<?xml version="1.0" encoding="utf-8"?>
<!-- Generator: Adobe Illustrator 21.1.0, SVG Export Plug-In . SVG Version: 6.00 Build 0)  -->
<svg version="1.1" id="Calque_1" xmlns="http://www.w3.org/2000/svg" xmlns:xlink="http://www.w3.org/1999/xlink" x="0px" y="0px"
	 viewBox="0 0 432 432" style="enable-background:new 0 0 432 432;" xml:space="preserve">
<style type="text/css">
	.st0{fill:#CCCCCC;}
	.st1{fill:#B3B3B3;}
	.st2{fill:#D06C5D;}
	.st3{fill:#961F21;}
	.st4{fill:#8AC640;}
	.st5{fill:#CCA1CC;}
	.st6{fill:#BCD601;}
	.st7{fill:#FFCB39;}
	.st8{fill:#FC8792;}
	.st9{fill:#F5CED3;}
	.st10{fill:#1A1A1A;}
	.st11{fill:#F9F1DA;}
	.st12{fill:#E6E6E6;}
	.st13{fill:#DDC2A8;}
	.st14{fill:#97B87F;}
	.st15{fill:#FAA821;}
	.st16{fill:#333333;}
	.st17{fill:#4EBEB8;}
	.st18{fill:#ABDFEC;}
	.st19{fill:#FAA74B;}
	.st20{fill:#8C6239;}
	.st21{fill:#F06386;}
	.st22{fill:#F8E7D6;}
	.st23{fill:#D3C7BE;}
	.st24{fill:#E2D2C3;}
	.st25{fill:#9294CD;}
	.st26{fill:#E66667;}
	.st27{fill:#FFD602;}
	.st28{fill:#B776BA;}
	.st29{fill:#C69C6D;}
	.st30{fill:#E49F90;}
	.st31{fill:#EAC0B4;}
	.st32{fill:#D3B1AF;}
	.st33{fill:#F2F2F2;}
	.st34{fill:#9CCCB2;}
	.st35{fill:#CDB48C;}
	.st36{fill:#73C977;}
	.st37{fill:none;}
	.st38{fill:#EFB156;}
	.st39{fill:#D7F5F3;}
	.st40{fill:#DA407B;}
	.st41{fill:#DA4147;}
	.st42{fill:#912D61;}
	.st43{fill:#BFB49D;}
	.st44{fill:#FFFFFF;}
	.st45{fill:#23B6DB;}
	.st46{fill:#D7DD50;}
	.st47{fill:#DA444C;}
	.st48{fill:#4D4D4D;}
	.st49{fill:#97857A;}
	.st50{fill:#84735F;}
	.st51{fill:#6E2521;}
	.st52{fill:#3F3C35;}
	.st53{fill:#A1B099;}
	.st54{fill:#D4CEB9;}
	.st55{fill:#854E4C;}
	.st56{fill:#B9986D;}
	.st57{fill:#BAAC91;}
	.st58{fill:#3F4650;}
	.st59{fill:#7B7B73;}
	.st60{fill:#5A5B60;}
	.st61{fill:#984831;}
	.st62{fill:#B1885C;}
	.st63{fill:#653F34;}
	.st64{fill:#DCC69D;}
	.st65{fill:#727D6D;}
	.st66{fill:#9B7455;}
	.st67{fill:#826D56;}
	.st68{fill:#C3A88B;}
	.st69{fill:#96967A;}
	.st70{fill:#9F6B56;}
</style>
<g>
	<path class="st21" d="M250.3,219.4c-0.9-1.6-1.8-3.2-2.7-4.8C248.5,216.2,249.4,217.8,250.3,219.4z"/>
	<path class="st21" d="M256.5,228.6c-2.3-2.9-4.3-6-6.2-9.2C252.2,222.6,254.2,225.7,256.5,228.6z"/>
	<path class="st21" d="M123.9,221.5c0.4-1.4,1-2.8,1.5-4.2C124.9,218.7,124.4,220.1,123.9,221.5z"/>
	<path class="st21" d="M122.7,227.5L122.7,227.5c0-0.3,0.1-0.5,0.1-0.7C122.7,227,122.7,227.2,122.7,227.5z"/>
	<path class="st21" d="M261.3,233.7c-0.3-0.2-0.5-0.5-0.8-0.7C260.7,233.2,261,233.4,261.3,233.7c0.6,0.5,1.1,0.6,1.5,0.4
		C262.4,234.3,261.9,234.2,261.3,233.7z"/>
	<path class="st21" d="M285.2,214.5c-0.1-0.4-0.2-0.7-0.3-1.1C285,213.8,285.1,214.2,285.2,214.5z"/>
	<path class="st21" d="M130.6,224.5c0.6-0.3,1.1-0.6,1.6-1c1.2-0.8,2.4-1.6,3.6-2.4c-1.2,0.8-2.4,1.7-3.6,2.4
		C131.7,223.9,131.1,224.3,130.6,224.5z"/>
	<path class="st21" d="M286.8,225c0,0.5-0.1,1-0.2,1.5C286.7,226,286.7,225.5,286.8,225z"/>
	<path class="st21" d="M124.9,227.2c0.2,0,0.4-0.1,0.6-0.2c1.1-0.5,2.3-1,3.4-1.6c-1.1,0.5-2.3,1.1-3.4,1.6
		C125.3,227.1,125.1,227.1,124.9,227.2z"/>
	<g>
		<path class="st37" d="M265.4,324.6c-0.6,0.1-1.2,0.2-1.8,0.4c-4.3,1.6-7.6,4.6-10.7,8.3c4.4-0.9,8.3-2.1,11.8-4.3
			c0.8-0.5,1.5-1.1,2-1.8c0.3-0.4,0.6-1.1,0.5-1.6C267,324.9,266.2,324.5,265.4,324.6z"/>
		<path class="st37" d="M222.7,329.2c-0.6-2.4-1.5-4.3-2.9-5.8c-1.4-1.5-3.1-1.7-5.5-0.6C216.7,325.5,219.4,327.4,222.7,329.2z"/>
		<g>
			<path class="st37" d="M246.3,277.5c0.9-0.8,1.3-1.8,1.1-3c-1.3-0.8-2.6-0.4-3.8,0.1c-4.7,1.8-8.4,5-11.2,9.1
				c-0.6,0.9-0.6,1.7-0.2,2.7c3.8-2,7.6-3.9,11.1-6.4C244.3,279.3,245.3,278.4,246.3,277.5z"/>
			<path class="st37" d="M215.6,262.3c0.8-0.6,1.4-1.3,2.3-2.3c-0.7-0.1-0.9-0.1-1.1-0.1c-0.4,0.1-0.8,0.2-1.2,0.3
				c-3.5,0.9-6.7,2.5-9.7,4.4c-1.3,0.8-2.4,1.9-3.6,2.9c-0.8,0.7-0.9,1.5-0.4,2.6c3.1-1.6,6.2-3.1,9.2-4.8
				C212.7,264.5,214.2,263.4,215.6,262.3z"/>
			<path d="M172.4,258.4c-2.4,0.1-4.2,1.9-4.1,4.4c0,2.3,2,4.1,4.5,4c2.4-0.1,4.2-1.9,4.2-4.1C176.8,260.1,175,258.3,172.4,258.4z"
				/>
			<path d="M265.5,258.4c-2.4,0.1-4.2,1.9-4.1,4.4c0,2.3,2,4.1,4.5,4c2.4-0.1,4.2-1.9,4.2-4.1C270,260.1,268.1,258.3,265.5,258.4z"
				/>
			<path d="M138.5,282.9c-0.1-0.9-0.2-1.7-0.4-2.7c3.4-0.3,6.5-0.6,9.5-0.9c0.2,0.5,0.3,0.7,0.3,0.9c0.6,4.7,1.2,9.3,1.8,14
				c0.3,2.4,0.6,4.7,1,7.1c0.5,2.6,2.6,3.9,4.9,3.5c2.2-0.5,3.5-2.5,3.2-5c-0.7-5.7-1.5-11.4-2.3-17.1c-0.2-1.4-0.3-2.9-0.5-4.4
				c1.5-0.2,2.8-0.4,4.1-0.6c1-0.2,2.1-0.3,3.1-0.6c1.9-0.7,2.9-2.4,2.6-4.3c-0.3-2-1.8-3.4-3.9-3.5c-0.9,0-1.8,0.1-2.7,0.2
				c-1.4,0.2-2.9,0.4-4.4,0.6c-0.1-0.4-0.3-0.7-0.3-1.1c-1.2-7.6-3-15-3.5-22.7c-0.2-2.7-1.9-4.3-4.3-4.2c-2.3,0.1-3.8,1.9-3.8,4.4
				c0,1.5,0.1,3,0.3,4.4c0.8,5.3,1.7,10.5,2.6,15.8c0.2,1.4,0.4,2.7,0.7,4.4c-3.4,0.3-6.7,0.6-10,0.9c-0.8-4-1.6-7.8-2.4-11.6
				c-0.9-4.4-1.8-8.8-2.8-13.2c-0.7-2.8-2.7-4.2-5-3.7c-2.4,0.5-3.6,2.7-3.1,5.6c0,0.1,0,0.1,0,0.2c1.2,5.5,2.4,11,3.5,16.5
				c0.5,2.3,0.9,4.6,1.3,6.8c-0.3,0.2-0.3,0.2-0.4,0.2c-6.5,0.9-12.9,1.7-19.4,2.6c-2.1,0.3-3.7,1.9-3.7,3.9
				c-0.1,2.1,1.5,3.9,3.7,4.1c0.6,0.1,1.3,0.1,1.9,0c3-0.4,6-0.7,9-1.1c3.5-0.5,6.9-1,10.5-1.5c0.1,0.5,0.2,0.7,0.3,0.9
				c1.1,6.9,2.2,13.7,3.4,20.6c0.1,0.7,0.2,1.4,0.5,2c0.6,1.7,2.3,2.7,4,2.6c1.7-0.1,3.2-1.3,3.6-3c0.2-0.9,0.2-1.8,0.1-2.7
				C140.5,295.2,139.5,289.1,138.5,282.9z"/>
			<path d="M204.9,296.5c-0.3-2.6-0.7-5.3-1-7.9c-0.4-3.1-0.8-6.1-1.1-9.3c0.8-0.5,1.3-0.8,1.8-1.1c3.2-1.7,6.4-3.5,9.6-5.2
				c3.1-1.7,6.1-3.5,8.6-6c1.7-1.7,2.9-3.6,3.5-5.9c1.1-4.4-1.1-8.1-5.5-9.1c-1.5-0.3-3.2-0.4-4.8-0.2c-5,0.7-9.5,2.9-13.8,5.5
				c-0.5,0.3-1.1,0.6-2,1c0-1.6,0-2.7,0-3.9c0-0.6,0-1.1-0.2-1.7c-0.4-1.9-1.9-3.1-3.7-3.2c-1.8-0.1-3.4,0.9-4.1,2.7
				c-0.3,0.8-0.4,1.8-0.4,2.7c3.7,49.8,5.8,48.4,9.8,47.7c1.8-0.3,3.1-1.8,3.3-3.6C205.1,298.1,205,297.3,204.9,296.5z M202.3,267.5
				c1.2-1,2.3-2,3.6-2.9c3-2,6.2-3.6,9.7-4.4c0.4-0.1,0.8-0.2,1.2-0.3c0.2,0,0.4,0,1.1,0.1c-1,1-1.6,1.7-2.3,2.3
				c-1.5,1.1-3,2.1-4.6,3c-3,1.6-6,3.2-9.2,4.8C201.4,269,201.5,268.2,202.3,267.5z"/>
			<path d="M232.9,295.5c3.7-2,7.2-3.9,10.7-5.9c3.1-1.7,6-3.7,8.5-6.2c1.6-1.6,2.8-3.5,3.3-5.8c1.6-6.6-2.3-11.7-9.1-11.8
				c-3.5-0.1-6.6,1.3-9.5,2.9c-1.9,1.1-3.6,2.3-5.5,3.6c-0.1-0.3-0.2-0.7-0.4-1c-0.9-2-2.5-2.9-4.5-2.6c-1.9,0.3-3.2,1.8-3.3,4
				c-0.1,0.8,0,1.5,0,2.3c0.1,9.6,1.3,19,2.7,28.5c0.1,0.8,0.3,1.5,0.6,2.2c0.7,1.7,2.6,2.7,4.2,2.4c2-0.3,3.4-1.9,3.5-3.9
				c0-0.7-0.1-1.4-0.2-2.1C233.6,300,233.3,297.8,232.9,295.5z M232.3,283.7c2.9-4.1,6.5-7.3,11.2-9.1c1.2-0.5,2.5-1,3.8-0.1
				c0.1,1.3-0.3,2.3-1.1,3c-1,0.9-2,1.8-3.1,2.6c-3.5,2.5-7.3,4.4-11.1,6.4C231.8,285.4,231.7,284.6,232.3,283.7z"/>
			<path d="M330,252.5c-1.7,0.7-2.4,2.2-2.8,4c-0.4,2.3-0.9,4.5-1.3,6.8c-0.5,2.5-1.1,5.1-1.6,7.6c-0.2,0-0.3,0-0.5,0
				c-2.9-4.5-6.8-8.4-8-13.9c-0.4-1.9-2.1-2.9-3.9-2.9c-1.8,0-3.4,1.1-3.8,3c-0.2,0.8-0.2,1.8-0.1,2.7c0.5,2.9,1.8,5.5,3.5,7.8
				c3.2,4.5,6.5,9,9.8,13.5c0.6,0.9,1,1.6,0.7,2.7c-1.2,5.2-2.3,10.4-3.4,15.6c-0.2,0.7-0.3,1.5-0.2,2.3c0.3,2.7,3.2,4.3,5.7,3.1
				c1.2-0.6,2-1.5,2.3-2.8c0.6-2.2,1.2-4.3,1.7-6.5c1.9-9.4,3.6-18.9,5.5-28.3c0.6-3.3,1.4-6.6,2-9.9
				C336.1,253.8,333.1,251.2,330,252.5z"/>
			<path d="M299.9,264.5c-1.8,0.1-3.6,0-5.7,0c0-0.2-0.2-0.4-0.2-0.7c-0.5-3.3-0.9-6.7-1.4-10c-0.3-1.7-0.6-3.5-1.1-5.1
				c-0.5-1.6-2.2-2.6-3.8-2.6c-1.7,0-3.2,1.2-3.7,2.9c-0.2,0.8-0.3,1.7-0.2,2.5c0.3,2.2,0.7,4.3,1,6.5c0.3,2.4,0.6,4.8,0.9,7.3
				c-2.4,0.2-4.5,0.4-6.7,0.6c-2.6,0.3-4.3,2.3-4.1,4.5c0.3,2.4,2.4,3.9,5,3.6c2.1-0.2,4.3-0.3,6.5-0.4c0.1,0.7,0.3,1.2,0.4,1.8
				c0.9,6.5,1.8,12.9,2.7,19.4c0.2,1.5,0.4,2.9,0.8,4.3c0.6,2.1,2.6,3.3,4.5,2.9c2-0.4,3.4-2.2,3.4-4.2c0-0.4-0.1-0.8-0.1-1.3
				c-1-6.9-2-13.9-3-20.8c-0.1-0.8-0.1-1.6-0.2-2.5c1.9-0.2,3.5-0.3,5.2-0.5c2.5-0.3,4.2-2.1,4-4.3
				C304.3,266.3,302.7,264.4,299.9,264.5z"/>
			<path d="M262.3,276.1c-0.1,0.7,0,1.4,0,2.4c0.1,1.8,0.3,3.9,0.5,6c0.5,5.1,1.1,10.2,1.7,15.2c0.2,1.5,0.8,2.8,2,3.8
				c1.4,1.1,3.2,1.3,4.7,0.4c1.5-0.9,2.1-2.5,1.9-4.3c-0.7-4.7-1.3-9.4-1.9-14.1c-0.4-3.1-0.5-6.3-0.8-9.4c-0.2-2.2-2-3.8-4.1-3.8
				C264.3,272.3,262.6,273.9,262.3,276.1z"/>
			<path d="M170.6,274.1c-0.2,0.8-0.2,1.7-0.1,2.5c0.4,4.5,0.8,9.1,1.3,13.6c0.2,1.7,0.3,3.5,0.6,5.2c0.5,2.4,2.3,3.6,4.6,3.3
				c2-0.3,3.5-2.1,3.5-4.5c0-0.2,0-0.5-0.1-0.9c-0.5-5.7-1.1-11.4-1.6-17.2c-0.1-0.8-0.2-1.5-0.4-2.3c-0.5-1.8-2.2-3-3.9-2.9
				C172.7,271,171,272.3,170.6,274.1z"/>
		</g>
		<g>
			<path class="st37" d="M212.5,347.3c0.2,2.2,0.9,4.4,1.8,6.4c1.1,2.4,2.9,2.5,4.6,0.7c0.4-0.5,0.8-1,1.2-1.5
				c2.7-4,3.5-8.6,3.9-13.4c-3.4-2-6.7-3.9-10.2-6C212.4,338.2,212,342.8,212.5,347.3z"/>
			<path class="st21" d="M190.8,334c-1.4,0.2-2.8,0.3-4.3,0.5c-0.1-0.6-0.3-1.2-0.3-1.7c-0.3-5.5-0.6-10.9-0.9-16.4
				c-0.1-2.5-1.6-4.3-3.8-4.5c-2.1-0.2-3.9,1.3-4.3,3.8c-0.2,1.4-0.3,2.8-0.2,4.2c0.2,3.4,0.4,6.7,0.7,10.1c0.1,1.7,0.3,3.5,0.4,5.4
				c-2.7,0.2-5.2,0.3-7.7,0.5c-0.1-0.5-0.2-0.8-0.2-1.1c-0.3-4.4-0.6-8.8-0.9-13.2c-0.1-1.2-0.2-2.4-0.5-3.5
				c-0.5-2.2-2.5-3.6-4.5-3.3c-2.1,0.3-3.5,2-3.6,4.3c0,0.4,0.1,0.8,0.1,1.3c0.3,3.6,0.5,7.1,0.8,10.7c0.1,1.8,0.2,3.6,0.3,5.6
				c-1.9,0-3.6,0-5.3,0c-2,0.1-4.1,0.2-6.1,0.4c-2.8,0.3-4.5,2.3-4.2,4.8c0.4,2.4,2.5,3.6,5.2,3.4c3.6-0.3,7.3-0.3,11-0.5
				c0.1,0.4,0.3,0.7,0.3,1.1c0.3,3.1,0.7,6.3,1,9.4c0.1,1.3,0.2,2.7,0.4,4c0.3,2.5,1.9,3.9,4.2,3.9c2.2-0.1,3.8-1.7,3.9-4.1
				c0-0.5,0-1,0-1.5c-0.2-2.5-0.4-5-0.7-7.6c-0.2-1.9-0.4-3.7-0.6-5.7c2.7-0.2,5.3-0.3,7.9-0.5c0.5,5.1,0.9,10,1.4,14.9
				c0.1,0.8,0.2,1.7,0.5,2.5c0.5,1.3,1.5,2.2,2.9,2.5c2.9,0.6,5.1-1.7,4.8-4.8c-0.4-3.8-0.7-7.5-1-11.3c-0.1-1.4-0.2-2.9-0.3-4.4
				c2-0.3,3.7-0.4,5.3-0.8c2.6-0.6,3.9-2.7,3.3-5C195.4,334.9,193.3,333.7,190.8,334z"/>
			<path class="st21" d="M223.8,316c-5-3.5-12-2.9-16,1.4c-1.5,1.6-2.2,3.6-1.9,5.8c0.2,1.1,0.5,2.2,1,3.2c0.3,0.7,0.3,1.3,0,2
				c-2.2,5.5-3,11.2-2.9,17.1c0.1,4.3,0.9,8.6,3,12.4c3.3,5.9,11.5,9.6,18.2,2c0.1-0.1,0.2-0.2,0.3-0.3c2-2.5,3.6-5.2,4.6-8.2
				c1.5-4.4,2.3-8.8,2.2-13.2c0.1-6.1-1.1-11.6-3.9-16.7C227.3,319.2,225.8,317.4,223.8,316z M219.8,323.3c1.5,1.6,2.3,3.4,2.9,5.8
				c-3.3-1.8-6-3.7-8.4-6.5C216.7,321.6,218.4,321.8,219.8,323.3z M220.1,352.9c-0.4,0.5-0.7,1-1.2,1.5c-1.7,1.9-3.6,1.7-4.6-0.7
				c-0.9-2-1.6-4.2-1.8-6.4c-0.5-4.6,0-9.1,1.4-13.8c3.5,2.1,6.8,4,10.2,6C223.6,344.3,222.8,348.9,220.1,352.9z"/>
			<path class="st21" d="M262.6,316.8c-3.9,0.8-7.3,2.9-10.3,5.5c-0.9,0.7-1.8,1.5-2.9,2.5c-0.2-1-0.3-1.8-0.4-2.5
				c-0.2-1.3-0.2-2.7-0.4-4c-0.3-2.1-2-3.6-4-3.7c-2,0-3.8,1.6-4.1,3.8c-0.1,0.6-0.1,1.3,0,1.9c0.5,5.2,1,10.5,1.6,15.7
				c0.6,5.2,1.3,10.4,1.9,15.7c0.4,2.9,0.7,5.7,1.2,8.6c0.4,2.5,2.3,3.9,4.6,3.6c2.1-0.3,3.5-2,3.4-4.5c-0.1-1.9-0.4-3.8-0.6-5.6
				c-0.4-3.7-0.9-7.4-1.4-11.2c0.7-0.2,1.4-0.4,2-0.6c4.2-0.9,8.3-2,12.2-3.8c2.9-1.3,5.4-3,7.5-5.3c3.3-3.6,3.6-8.2,0.8-12.1
				C271.2,316.9,267.8,315.7,262.6,316.8z M266.7,327.3c-0.6,0.7-1.3,1.3-2,1.8c-3.5,2.2-7.4,3.4-11.8,4.3c3.2-3.7,6.4-6.7,10.7-8.3
				c0.6-0.2,1.2-0.4,1.8-0.4c0.8-0.1,1.6,0.3,1.8,1.1C267.3,326.2,267.1,326.9,266.7,327.3z"/>
			<path class="st21" d="M292.9,309.9c-0.5-1.6-1.9-2.7-3.6-2.8c-1.7-0.1-3.3,0.8-3.9,2.4c-0.3,0.8-0.5,1.8-0.5,2.7
				c0,2.6,0.2,5.2,0.2,7.8c0.1,6.8,0.1,13.6,0.3,20.4c0,1.3,0.1,2.5,0.4,3.8c0.4,2,2.1,3.2,4.1,3.2c2.3-0.1,3.8-1.8,3.8-4.4
				c0-15.7-0.3,2.5-0.5-30.3C293.2,311.7,293.1,310.7,292.9,309.9z"/>
			<path class="st21" d="M288.2,358.7c-2.2,0-4.1,1.9-4.1,4.2c-0.1,2.4,1.7,4.3,4.2,4.3c2.4,0,4.2-1.7,4.3-4
				C292.5,360.8,290.5,358.7,288.2,358.7z"/>
		</g>
	</g>
	<path class="st49" d="M286.7,222.1c0,0.5,0.1,0.9,0.1,1.4C286.8,223.1,286.7,222.6,286.7,222.1z"/>
	<path class="st49" d="M286.1,218.5c0.1,0.7,0.3,1.4,0.4,1.9C286.4,219.9,286.3,219.3,286.1,218.5z"/>
	<path class="st49" d="M285.2,214.5c0.3,1.2,0.5,2.2,0.7,3.2C285.8,216.8,285.5,215.7,285.2,214.5z"/>
	<path class="st49" d="M262.8,234.1c0.3-0.1,0.5-0.4,0.7-0.8c1.6-2.6,2.3-5.4,2.5-8.3c-0.2,2.9-0.9,5.7-2.5,8.3
		C263.3,233.7,263,233.9,262.8,234.1z"/>
	<path class="st49" d="M258.2,230.7c0.7,0.8,1.4,1.5,2.2,2.2C259.7,232.3,258.9,231.5,258.2,230.7z"/>
	<path class="st49" d="M275.3,215.5c2.5,3.6,5.4,7.2,8.6,9.9C280.6,222.7,277.8,219.1,275.3,215.5z"/>
	<path class="st49" d="M286.7,222.1c0-0.2-0.1-0.5-0.1-0.7c0-0.3-0.1-0.6-0.1-1c0.1,0.4,0.1,0.7,0.1,1
		C286.6,221.7,286.7,221.9,286.7,222.1z"/>
	<path class="st49" d="M283.8,225.4c0.8,0.7,1.6,1.3,2.5,1.9c0.1-0.3,0.2-0.5,0.2-0.8c-0.1,0.3-0.1,0.5-0.2,0.8
		C285.5,226.7,284.6,226.1,283.8,225.4z"/>
	<path class="st49" d="M123.9,221.5c-0.3,1-0.6,2.1-0.9,3.1c0,0.2-0.1,0.4-0.1,0.6c0-0.2,0.1-0.4,0.1-0.6
		C123.3,223.6,123.6,222.5,123.9,221.5z"/>
	<path class="st49" d="M122.8,226.8c0-0.3,0-0.5,0.1-0.8C122.8,226.2,122.8,226.5,122.8,226.8z"/>
	<path class="st49" d="M122.7,227.5c0.6-0.1,1.1-0.2,1.5-0.2C123.8,227.3,123.3,227.4,122.7,227.5L122.7,227.5z"/>
	<path class="st49" d="M142.5,215.7c-2.1,1.9-4.4,3.7-6.7,5.4C138.1,219.5,140.3,217.6,142.5,215.7z"/>
	<g>
		<path class="st9" d="M175.6,198.9c-0.7-0.1-1.4-0.2-2.1-0.3C174.2,198.8,174.9,198.8,175.6,198.9z"/>
		<path class="st9" d="M233.6,171.7c-0.1-1.2,1.4-2.3,2.9-3.6C235,169.4,233.5,170.4,233.6,171.7z"/>
		<path class="st9" d="M241.9,170.7c-0.2-0.4-0.4-0.8-0.6-1.2c-1.1,1.1-2.1,2.1-3,2.9c0.9-0.8,1.9-1.8,3-2.9
			C241.4,169.9,241.7,170.3,241.9,170.7z"/>
		<path class="st9" d="M236.5,168c0.8-0.7,1.5-1.4,2.1-2.2C238.1,166.6,237.3,167.4,236.5,168z"/>
		<path class="st9" d="M164.7,197.1c-0.1,0-0.2-0.1-0.3-0.1C164.5,197,164.6,197,164.7,197.1z"/>
		<path class="st9" d="M239.5,162.2c-0.1-0.6-0.3-1.3-0.6-2c-3.4,1.5-5.7,2.8-7.3,3.4c1.6-0.6,3.9-1.9,7.3-3.4
			C239.2,161,239.4,161.6,239.5,162.2z"/>
		<path class="st9" d="M170.5,198.3c-0.2,0-0.3,0-0.5-0.1C170.2,198.2,170.3,198.2,170.5,198.3z"/>
		<path class="st9" d="M164.1,196.8c-0.1,0-0.2-0.1-0.3-0.1C163.9,196.7,164,196.7,164.1,196.8z"/>
		<path class="st9" d="M243.2,179.7c-0.5,0.1-0.9-0.1-1.2-0.3C242.3,179.7,242.7,179.8,243.2,179.7z"/>
		<path class="st9" d="M144.8,161.2c-0.9,2.4-2,4.8-3.5,7c-0.7,1.1-1.5,2.1-2.3,3.2c0.8-1,1.5-2.1,2.3-3.2
			C142.7,166,143.9,163.6,144.8,161.2z"/>
		<path class="st9" d="M162.3,196.3c-0.2,0.1-0.4,0.2-0.6,0.3C162,196.5,162.2,196.4,162.3,196.3z"/>
		<path class="st9" d="M221,200.8c-2.1,0.2-4.2,0.3-6.5,0.4C216.8,201.1,219,201,221,200.8z"/>
		<path class="st9" d="M130.3,179.1c0.9-0.5,1.8-1.1,2.7-1.7C132.1,178,131.3,178.6,130.3,179.1c-0.4,0.2-0.6,0.5-1,0.8
			C129.7,179.6,129.9,179.3,130.3,179.1z"/>
		<path class="st9" d="M228.1,161.8C228.1,161.8,228.2,161.7,228.1,161.8C228.2,161.7,228.1,161.8,228.1,161.8z"/>
		<path class="st9" d="M228.2,161.3c0.2-0.5,0.5-0.9,1-1.3c0.5-0.3,1-0.6,1.5-0.8c-0.5,0.3-1,0.5-1.5,0.8
			C228.7,160.4,228.4,160.8,228.2,161.3z"/>
		<path class="st9" d="M238.8,155.2c0.1-0.1,0.2-0.2,0.3-0.3C239,155,238.9,155.1,238.8,155.2z"/>
		<path class="st9" d="M241.3,198.9c-0.1-0.5-0.2-0.9-0.3-1.2C241.1,198.1,241.2,198.5,241.3,198.9z"/>
		<path class="st9" d="M241.4,148.4c-0.4,1-0.7,1.8-0.9,2.5C240.7,150.2,241,149.4,241.4,148.4z"/>
		<path class="st9" d="M161.8,196.6c-0.3,0.2-0.7,0.5-1.2,1C161.1,197.2,161.4,196.8,161.8,196.6z"/>
		<path class="st9" d="M146.8,147.7c0-0.3,0.1-0.7,0.2-1C146.9,147,146.8,147.3,146.8,147.7z"/>
		<path class="st9" d="M262.8,208.1c0.3,0.7,0.5,1.5,0.8,2.3C263.3,209.6,263,208.8,262.8,208.1z"/>
		<path class="st9" d="M127.8,181.2c0.2-0.1,0.3-0.2,0.5-0.4C128.1,180.9,128,181,127.8,181.2z"/>
		<path class="st9" d="M180.6,129.5c1.5-0.5,3-0.9,4.6-1.3C183.6,128.6,182.1,129,180.6,129.5z"/>
		<path class="st9" d="M240.4,151.2c-0.3,0.9-0.4,1.6-0.6,2.1C239.9,152.8,240.1,152.1,240.4,151.2z"/>
		<path class="st9" d="M164.2,135.7c1.5-0.7,3-1.4,4.5-2C167.2,134.4,165.7,135.1,164.2,135.7z"/>
		<path class="st9" d="M175.2,131.2c1.3-0.4,2.5-0.9,3.8-1.3C177.7,130.4,176.5,130.8,175.2,131.2z"/>
		<path class="st9" d="M153.4,141.4c1.1-0.7,2.3-1.3,3.5-2C155.7,140.1,154.6,140.8,153.4,141.4z"/>
		<path class="st9" d="M243.1,144.5c-0.7,1.5-1.3,2.8-1.7,3.8C241.8,147.3,242.4,146,243.1,144.5z"/>
		<path class="st9" d="M239.8,153.3c-0.2,0.6-0.3,1-0.5,1.4C239.5,154.3,239.6,153.9,239.8,153.3z"/>
		<path class="st9" d="M243.6,174c-0.2-0.4-0.4-0.7-0.6-1.1C243.2,173.3,243.4,173.6,243.6,174L243.6,174z"/>
		<path class="st9" d="M253.4,185.8c0.5,0.5,1,1,1.5,1.4C254.4,186.8,253.9,186.3,253.4,185.8z"/>
		<path class="st9" d="M111.7,202.9c-2.2,0.7-4.6,1.4-7.2,2.1C107.1,204.4,109.5,203.6,111.7,202.9z"/>
		<path class="st9" d="M107.5,192.7c6.7-4.3,9.8-3.9,17.7-9.5C117.3,188.8,114.2,188.4,107.5,192.7z"/>
		<path class="st9" d="M239.5,162.8c0,0.8-0.1,1.5-0.4,2.1C239.4,164.3,239.5,163.6,239.5,162.8z"/>
		<path class="st9" d="M134,200.5c0.3-0.7,0.6-1.3,0.7-1.8C134.5,199.2,134.3,199.9,134,200.5z"/>
		<path class="st9" d="M248.4,134.9c-1.9-0.9-3.7-1.7-5.6-2.5C244.6,133.2,246.5,134.1,248.4,134.9L248.4,134.9z"/>
		<path class="st9" d="M260.5,196.5c-1,0.6-0.8,2.3-0.1,4.6C259.7,198.8,259.5,197.1,260.5,196.5c0.4-0.3,0.8-0.3,1.3-0.2
			C261.3,196.2,260.9,196.2,260.5,196.5z"/>
		<path class="st9" d="M175.6,198.9c11,1.3,26.2,2.7,38.9,2.3C201.8,201.6,186.7,200.3,175.6,198.9z"/>
		<path class="st9" d="M240.4,195.9c0.1,0.2,0.3,0.4,0.4,0.8C240.6,196.4,240.5,196.1,240.4,195.9z"/>
		<path class="st9" d="M301.5,154.9c-0.4,0.2-0.8,0.3-1.1,0.5c-0.1,0.1-0.2,0.1-0.3,0.2c-0.2,0.1-0.4,0.2-0.5,0.2c0,0-0.1,0-0.1,0
			c-0.4,0.2-0.6,0.3-0.9,0.4c-0.3,0.1-0.6,0.3-1,0.5c-0.3,0.1-0.6,0.3-1,0.5c-0.1,0.1-0.2,0.1-0.4,0.2c-0.4,0.2-0.8,0.4-1.4,0.6
			c1.7,1.8,6.6,5.3,8.4,5.9c0-3.1-0.1-6.1-0.9-9.3C302,154.7,301.7,154.8,301.5,154.9z"/>
		<path class="st9" d="M260.5,201.7c0.5,1.5,1.1,3.2,1.8,5.1C261.6,204.9,261,203.2,260.5,201.7z"/>
		<path class="st9" d="M145.6,212.7c-1,1-2.1,2-3.1,3C143.5,214.8,144.6,213.8,145.6,212.7c7.5-7.5,11.6-11.8,13.9-14.1
			C157.1,201,153.1,205.2,145.6,212.7z"/>
		<path class="st9" d="M90.3,205.9c-0.3,0.3-0.6,0.6-0.9,1c0.7,0.1,1.3,0.2,1.9,0.2c-0.5-0.1-1.1-0.2-1.9-0.2
			C89.8,206.6,90,206.2,90.3,205.9z"/>
		<path d="M342.6,152.1c-1.2-4.1-0.9-2.9-1.2-4.4c2.6-1.4,4.6-2.4,4.8-2.6c0.9-0.6,1.1-1.7,0.7-2.6c-1.2-2.6-4.4-0.3-7.3,1.1
			c-3.3-6.1-5.4-11-11.8-14.6c-16.9-9.6-13.6-3.2-14.1-20.5c-1-31.9-13.3-55.4-27.8-37.6c-6.5,8-8.2,24-8.4,34.2
			c-2.8-5.6-7.8-25.1-20.9-29.4c-11.1-3.6-15.6,9.9-14.6,21.6c2.9,33.9,7.2,29.8,6.1,32.6c-9.1-4-23.7-8.6-37.8-9.7
			c-19.7-1.5-44.1,8.1-61,18.5c-1.2,0.7-2.3,1.5-3.3,2.1c-2.2-0.3-3.4-1.6-4.7-2.9c-1-1-2.3-1.8-3.6-2.6c-4.4-2.5-9.1-3-14.1-2.1
			c-25.1,4.4-23.4,41.3-2.4,45.9c0.4,0.1,0.8,0.3,1.6,0.7c-13.9,6.5-13.2,5.9-15.3,7.4c-3.3,2.3-6.7,4.4-9.9,6.8
			c-3.3,2.5-6.5,5.1-9.7,7.8c-1,0.8-1.9,1.9-2.5,3.1c-1.1,2-0.5,4.1,1.3,5.4c1.3,0.9,2.8,1.4,4.4,1.3c2.4-0.1,4.9-0.2,7.3-0.6
			c16.3-3.2,28.6-9.3,29.7-8.8c-4,7.1-8.4,14.5-10,23.1c-0.8,4.5,2,7.3,6.5,6.3c2.9-0.6,5.7-1.7,8.1-3.4c4-2.8,8-5.5,11.6-8.8
			c30.4-27.8-0.6-14.9,72.8-13.9c7.5,0.1,15.4-2.7,19.6-3.8c0.2,0.5,0.6,1.2,0.9,1.9c2.2,5.7,4.8,11.1,7.8,16.3
			c2.9,4.9,5.9,9.8,9.7,14c1.2,1.3,2.6,2.6,4.1,3.6c2.5,1.6,5.1,1.2,7-1.1c4.8-6,4-14,3.2-21c1.4,1.4,14.6,21.7,19.8,14.6
			c4.7-6.4-1.5-22.5-4.3-29.9c2.6,0,8.4,2.8,19.6,0.8c25.8-4.5,35.2-17.4,38.8-34.8c2.2,0.5,5.3,1.5,5.8-1c0.5-2.4-2.6-2.8-5.5-3.7
			c-0.2-1.8-0.3-3.4-0.5-5.2c3.6-0.3,7.1-0.3,6.9-3C350,150.8,346.6,151.8,342.6,152.1z M112.4,146c2.1-4.4,5.8-7,10.5-8
			c1.7-0.4,3.5-0.5,5.2-0.7c6,0.4,10.7,2.6,13.4,8.3c0.8,1.6,0.9,3.2,0.9,4.9c-0.4,8.1-3.5,15.1-9.2,20.9
			C122.2,182.6,102.6,166.4,112.4,146z M286,217.8c0.1,0.3,0.1,0.5,0.2,0.8c0.1,0.7,0.3,1.4,0.4,1.9c0.1,0.4,0.1,0.7,0.1,1
			c0,0.2,0.1,0.5,0.1,0.7c0,0.5,0.1,0.9,0.1,1.4s0,1,0,1.4c0,0.5-0.1,1-0.2,1.5c-0.1,0.3-0.1,0.5-0.2,0.8c-0.8-0.6-1.7-1.2-2.5-1.9
			c-3.2-2.7-6-6.2-8.6-9.9c-1-1.4-1.9-2.8-2.7-4.1c-0.9-1.4-1.7-2.7-2.5-4c-0.5-0.9-1-1.7-1.5-2.5c-0.2-0.4-0.5-0.8-0.7-1.2
			c-0.5-0.8-0.9-1.5-1.4-2.2c-1.1-1.7-2.1-3.1-3-4c-0.2-0.2-0.4-0.3-0.5-0.5c-0.4-0.3-0.8-0.5-1.1-0.6c-0.4-0.1-0.9-0.1-1.3,0.2
			c-1,0.6-0.8,2.3-0.1,4.6c0.1,0.2,0.1,0.4,0.2,0.6c0.5,1.5,1.1,3.2,1.8,5.1c0.1,0.4,0.3,0.8,0.4,1.2c0.3,0.7,0.5,1.5,0.8,2.3
			c0.2,0.6,0.4,1.1,0.5,1.7c1.3,4.1,2.2,8.6,2,12.9c-0.2,2.9-0.9,5.7-2.5,8.3c-0.2,0.4-0.5,0.7-0.7,0.8c-0.4,0.2-0.9,0.1-1.5-0.4
			c-0.3-0.2-0.5-0.5-0.8-0.7c-0.8-0.7-1.6-1.4-2.2-2.2c-0.6-0.7-1.2-1.4-1.7-2.2c-2.3-2.9-4.3-6-6.2-9.2c-0.9-1.6-1.8-3.2-2.7-4.8
			c-0.4-0.8-0.8-1.6-1.3-2.5c-3.2-6.4-4.4-10.6-5-13.2c-0.1-0.5-0.2-0.9-0.3-1.2c0-0.2-0.1-0.3-0.1-0.5c-0.1-0.2-0.1-0.4-0.2-0.5
			c-0.1-0.3-0.2-0.6-0.4-0.8c-0.1-0.1-0.2-0.2-0.4-0.2c-0.8-0.3-2.5,0.9-6.9,2.6c-3.1,1.3-7.3,2-12.1,2.5c-2.1,0.2-4.2,0.3-6.5,0.4
			c-12.7,0.4-27.9-0.9-38.9-2.3c-0.7-0.1-1.4-0.2-2.1-0.3c-1.1-0.1-2.1-0.3-3-0.4c-0.2,0-0.3,0-0.5-0.1c-1-0.1-2-0.3-2.8-0.4
			c-1.1-0.2-1.9-0.4-2.5-0.7c-0.1,0-0.2-0.1-0.3-0.1c-0.1-0.1-0.2-0.1-0.3-0.2c-0.1,0-0.2-0.1-0.3-0.1c-0.2-0.1-0.4-0.2-0.6-0.3
			c-0.1-0.1-0.3-0.1-0.4-0.1c-0.1,0-0.3,0-0.5,0.1c-0.2,0.1-0.4,0.2-0.6,0.3c-0.3,0.2-0.7,0.5-1.2,1c-0.3,0.3-0.7,0.6-1.1,1.1
			c-2.3,2.3-6.3,6.5-13.9,14.1c-1,1-2.1,2-3.1,3c-2.1,1.9-4.4,3.7-6.7,5.4c-1.2,0.8-2.4,1.7-3.6,2.4c-0.5,0.3-1.1,0.7-1.6,1
			c-0.6,0.3-1.1,0.6-1.7,0.9c-1.1,0.5-2.3,1.1-3.4,1.6c-0.2,0.1-0.4,0.1-0.6,0.2c-0.2,0-0.4,0.1-0.6,0.1c-0.5,0.1-1,0.1-1.5,0.2l0,0
			l0,0c0-0.3,0.1-0.5,0.1-0.7c0-0.3,0-0.5,0.1-0.8c0-0.2,0-0.5,0.1-0.7c0-0.2,0.1-0.4,0.1-0.6c0.2-1.1,0.5-2.1,0.9-3.1
			c0.4-1.4,1-2.8,1.5-4.2c0.5-1.2,1-2.3,1.6-3.5c0.6-1.1,1.2-2.3,1.8-3.4c2.4-4.4,4.1-7.6,5.2-9.9c0.3-0.7,0.6-1.3,0.7-1.8
			c0.5-1.3,0.6-2.2,0.3-2.7c-0.1-0.2-0.4-0.4-0.7-0.5c-0.5-0.1-1.2,0-2.1,0.2c-0.3,0.1-0.6,0.2-1,0.3c-3.8,1.1-10.3,4-19.5,6.9
			c-2.2,0.7-4.6,1.4-7.2,2.1c-1.7,0.5-3.5,0.9-5.4,1.4c-0.5,0.1-1.1,0.2-1.6,0.3c-1.1,0.2-2.2,0.3-3.2,0.4c-0.5,0.1-1.1,0.1-1.6,0.1
			c-0.5,0-0.9,0-1.5-0.1c-0.5-0.1-1.1-0.2-1.9-0.2c0.4-0.4,0.6-0.7,0.9-1c0.4-0.5,0.8-0.9,1.2-1.2c4.1-3.2,8.2-6.4,12.4-9.5
			c1.3-1,2.5-1.8,3.6-2.5c6.7-4.3,9.8-3.9,17.7-9.5c0.8-0.6,1.7-1.2,2.6-2c0.2-0.1,0.3-0.2,0.5-0.4c0.3-0.2,0.6-0.5,0.9-0.7
			c0,0,0.1-0.1,0.1-0.1c0.3-0.3,0.6-0.6,1-0.8c0.9-0.5,1.8-1.1,2.7-1.7c0.7-0.5,1.5-1.1,2.1-1.7c0.5-0.4,0.9-0.9,1.4-1.4
			c0.9-0.9,1.7-1.9,2.5-3c0.8-1,1.5-2.1,2.3-3.2c1.5-2.2,2.7-4.6,3.5-7c0.9-2.4,1.4-4.9,1.7-7.5c0.2-1.7,0.3-3.5,0.3-5.2
			c0-0.3,0-0.5,0-0.8c0-0.3,0.1-0.7,0.2-1c0.1-0.4,0.3-0.8,0.6-1.1c0.3-0.5,0.8-0.9,1.4-1.3c1.5-1,3-1.9,4.6-2.9
			c1.1-0.7,2.3-1.3,3.5-2c1.3-0.7,2.6-1.4,3.9-2.1c1.1-0.6,2.3-1.1,3.4-1.7c1.5-0.7,3-1.4,4.5-2c0.9-0.4,1.8-0.8,2.7-1.1
			c1.2-0.5,2.5-0.9,3.8-1.4c1.3-0.4,2.5-0.9,3.8-1.3c0.5-0.2,1.1-0.3,1.6-0.5c1.5-0.5,3-0.9,4.6-1.3c1.2-0.3,2.4-0.6,3.6-0.9
			c2-0.4,4-0.8,6-1.2c1-0.2,2-0.3,3-0.4c14.1-1.9,28.7-0.7,41.9,5.2c1.1,0.5,2.1,1,3.2,1.4c1.8,0.8,3.7,1.7,5.6,2.5l0,0l0,0
			c-1.4,2.4-2.6,4.5-3.6,6.3c-0.6,1.2-1.2,2.3-1.7,3.3c-0.7,1.5-1.3,2.8-1.7,3.8c-0.4,1-0.7,1.8-0.9,2.5c0,0.1-0.1,0.2-0.1,0.4
			c-0.3,0.9-0.4,1.6-0.6,2.1c-0.2,0.6-0.3,1-0.5,1.4c0,0.1-0.1,0.1-0.2,0.2c-0.1,0.1-0.2,0.2-0.3,0.3c-0.9,0.7-2.8,1.4-7.5,3.8
			c-0.2,0.1-0.3,0.2-0.5,0.3c-0.5,0.3-1,0.5-1.5,0.8c-0.5,0.4-0.9,0.8-1,1.3c0,0.1-0.1,0.3-0.1,0.4c0,0,0,0.1,0,0.1
			c0,0.4,0,0.8,0.2,1.2c0.5,1,1.2,1.2,2.1,1c0.3-0.1,0.7-0.2,1.1-0.3c1.6-0.6,3.9-1.9,7.3-3.4c0.3,0.7,0.5,1.4,0.6,2
			c0,0.2,0,0.4,0,0.6c0,0.8-0.1,1.5-0.4,2.1c-0.1,0.3-0.3,0.6-0.5,0.9c-0.6,0.8-1.3,1.6-2.1,2.2c-1.5,1.3-3,2.4-2.9,3.6
			c0,0.4,0.2,0.9,0.7,1.3c0.6,0.6,1.2,0.8,1.8,0.7c0.6-0.1,1.3-0.6,2.1-1.3c0.9-0.8,1.9-1.8,3-2.9c0.2,0.4,0.4,0.8,0.6,1.2
			c0.4,0.8,0.8,1.5,1.2,2.2c0.2,0.4,0.4,0.7,0.6,1.1l0,0l0,0c-0.3,0.3-0.6,0.6-0.9,1c-0.3,0.3-0.6,0.7-0.9,1c-0.4,0.5-0.6,1-0.6,1.5
			c0,0.3,0,0.6,0.1,0.9c0.1,0.3,0.2,0.6,0.4,0.8c0.1,0.1,0.2,0.2,0.3,0.3c0.3,0.2,0.8,0.4,1.2,0.3c0.8-0.1,1.7-0.7,2.7-2.1
			c2.9,3.3,5.3,6,7.5,8.2c0.5,0.5,1,1,1.5,1.4c1,0.9,2,1.7,3.1,2.5c0.8,0.6,1.6,1.1,2.5,1.7c0.3,0.2,0.6,0.4,0.9,0.5
			c0.6,0.3,1.3,0.7,1.9,1c0.7,0.3,1.4,0.7,2.1,1c0.8,0.3,1.5,0.7,2.4,1c2.9,1.1,6.4,2.3,10.8,3.6c2.1,0.6,4.7,8.4,6.3,14.9
			c0.1,0.4,0.2,0.7,0.3,1.1C285.5,215.7,285.8,216.8,286,217.8z M245.2,167.4c-7.8-17.4,12.3-32.1,9.2-36.6
			c-7.9-11.4-13.3-55.7,0.9-50.8c12.7,4.4,18,28.5,21.8,40.9c1.4,4.5,5.4,4.3,5.3-2.2c-0.1-4.5-2.4-32.6,6.7-44.7
			c14-18.5,20.7,21.8,20.5,45.9c-0.1,11.8,28.7,6.9,29.6,40.6C340.4,207.1,263.8,208.7,245.2,167.4z"/>
		<path d="M84.4,124.4c-1.1-0.7-2.5-0.5-3.4,0.6c-0.4,0.5-0.7,1-1.1,1.6c-2.5,4.1-3.8,8.7-4.9,13.3c-0.2,0.7-0.3,1.5-0.3,1.8
			c0,0.7,0,0.9,0,1.1c0.3,2.1,1.8,3.4,3.7,3.1c2.5,0.1,1.9-4.5,2.3-5.9c1.1-3.8,2.1-7.6,4.2-10.9c0.3-0.4,0.5-0.8,0.7-1.3
			C86,126.4,85.5,125,84.4,124.4z"/>
		<path d="M88.2,133.2c-0.1,0.1-0.2,0.2-0.3,0.4c-0.7,1.1-1,2.4-2.8,9.6c-0.7,2.7,1.1,4.5,2.8,4.2c1.1-0.2,2.1-1.1,2.7-3.1
			c0.7-2.6,1.3-5.2,2-7.7C93.8,131.9,89.6,131.3,88.2,133.2z"/>
		<path d="M357,129c-1.1-4.6-2.5-9.2-4.9-13.3c-0.3-0.5-0.6-1.1-1.1-1.6c-1-1-2.3-1.2-3.4-0.6c-1.1,0.6-1.6,2-1.1,3.3
			c0.2,0.5,0.4,0.9,0.7,1.3c2.1,3.4,3.1,7.2,4.2,10.9c0.4,1.4-0.2,5.9,2.3,5.9c1.9,0.3,3.5-0.9,3.7-3.1c0-0.2,0-0.4,0-1.1
			C357.3,130.5,357.2,129.8,357,129z"/>
		<path d="M341.4,133.5c1.4,5.3,6.6,3.2,5.5-1.1c-2.1-8-2.1-8.8-3.1-10c-1.5-2-5.6-1.3-4.4,3.4C340.1,128.4,340.8,131,341.4,133.5z"
			/>
		<g>
			<path class="st9" d="M294.4,121.9c1-0.1,2.1-0.3,3.3-0.5c-0.6-10.2-0.5-20.5-2.2-31c-2.3,4-3.8,25.7-2.3,31.5
				C293.6,121.9,294,121.9,294.4,121.9z"/>
			<path class="st9" d="M264.2,115.6c-2-5.7-4.4-10.9-7.7-15.9c-0.2-0.4-0.4-0.7-0.6-1c-0.2,0.1-0.3,0.2-0.5,0.2
				c0.1,11,3.8,21,8.3,31.3c3.7-2.9,4.3-2.6,3.4-5.7C266.7,122.3,265.6,119.1,264.2,115.6z"/>
			<path d="M324.7,166.6c-1,0-1.7,0.5-2,1.5c-0.1,0.4-0.1,0.8-0.2,1.2c-0.5,2.4-1.4,4.5-2.8,6.5c-1.2,1.8-2.9,2.7-5,2.4
				c-7-0.9-7.1-5.7-7.8-10.9c-0.5-4.1,1.1-9.2-0.2-13.9c-0.9-3.2-3.3-4.3-6.4-3c-13.2,5.6-17,5,1.3,18c1.1,1.7,1.4,3.1,1.6,5.4
				c0.4,7.3-8.8,13-12.9,6.7c-5.1-8-7.2-3.1-6.1-1.3c3.1,5.1,5.7,8.7,11.2,8.2c8.4-0.8,10.5-5.6,12.1-7.5c1.2,0.7,2.3,1.3,3.4,1.8
				c3.8,1.9,9.9,1.3,12.8-3.9c1.3-2.2,2.2-4.7,3.1-7.1c0.3-0.7,0.2-1.7,0.1-2.5C326.7,167.3,325.7,166.6,324.7,166.6z M294.8,157.9
				c0.5-0.2,1-0.4,1.4-0.6c0.1-0.1,0.2-0.1,0.4-0.2c0.4-0.2,0.7-0.3,1-0.5c0.4-0.2,0.7-0.3,1-0.5c0.3-0.1,0.5-0.2,0.9-0.4
				c0,0,0.1,0,0.1,0c0.2-0.1,0.3-0.1,0.5-0.2c0.1,0,0.2-0.1,0.3-0.2c0.3-0.1,0.7-0.3,1.1-0.5c0.3-0.1,0.5-0.2,0.9-0.4
				c0.8,3.2,0.9,6.2,0.9,9.3C301.4,163.2,296.4,159.7,294.8,157.9z"/>
		</g>
		<path d="M297.5,156.6c0.4-0.2,0.7-0.3,1-0.5C298.2,156.3,297.9,156.4,297.5,156.6z"/>
		<path d="M250.8,100c0.7,6.6,1.2,14.1,7.3,28.5c3.8,9,6.8,6.3,12.1,2.2C276.5,125.9,254.5,74.5,250.8,100z M263.8,130.3
			c-4.6-10.2-8.2-20.3-8.3-31.3c0.2-0.1,0.3-0.2,0.5-0.2c0.2,0.3,0.4,0.6,0.6,1c3.3,5,5.7,10.2,7.7,15.9c1.4,3.4,2.4,6.6,2.9,8.9
			C268.1,127.7,267.5,127.3,263.8,130.3z"/>
		<path d="M290.9,125.4c0.5,0.1,0.9,0.3,1.3,0.4c0.8,0.2,1.6,0.4,2.4,0.4c1.3-0.1,2.6-0.3,4-0.5c5.5-1,4.1-50.4-5.7-40.1
			c-0.6,0.6-1.1,1.3-1.4,2.1c-0.7,2-1.5,4-1.8,6c-0.7,6.1-1.3,12.1-1.6,18.2c-0.2,3.6,0.2,7.3,0.3,10.9
			C288.6,124.6,289.3,125.2,290.9,125.4z M295.5,90.4c1.7,10.5,1.6,20.7,2.2,31c-1.2,0.2-2.3,0.4-3.3,0.5c-0.4,0.1-0.8,0-1.2,0
			C291.7,116,293.2,94.3,295.5,90.4z"/>
		<path d="M321.4,152.6c2.2,0,4.4-1.4,5.1-3.1c1.7-4.1-4.4-7.7-7.8-3.2c-1,1.3-1.2,2.7-0.4,4.1C319,151.9,320.2,152.6,321.4,152.6z"
			/>
		<path d="M259.3,161.7c-1,1.3-1.2,2.7-0.4,4.1c0.7,1.4,2,2.1,3.1,2.2c2.2,0,4.4-1.4,5.1-3.1C268.7,160.8,262.6,157.2,259.3,161.7z"
			/>
		<path d="M325.3,158.2c-1.1,0-2.2,1-2.1,2.1c0,1.2,1,2.1,2.2,2.1c1.2,0,2-0.8,2-2C327.4,159.2,326.4,158.2,325.3,158.2z"/>
		<path d="M270.4,178.4c0.1,2.6,4.1,2.8,4.2,0C274.7,175.5,270.3,175.7,270.4,178.4z"/>
		<path d="M316.6,163.3c1.1-0.1,1.9-0.9,1.9-2.1c0-1.2-1-2.2-2.1-2.1c-1.1,0-2.1,1.1-2.1,2.2C314.4,162.5,315.4,163.4,316.6,163.3z"
			/>
		<path d="M281.5,167.4c-2.7,0-2.8,4-0.1,4.2C284.2,171.7,284.3,167.4,281.5,167.4z"/>
		<path class="st9" d="M133.2,171.4c5.7-5.8,8.8-12.8,9.2-20.9c0.1-1.7-0.1-3.2-0.9-4.9c-2.7-5.7-7.4-7.9-13.4-8.3
			c-1.7,0.2-3.5,0.4-5.2,0.7c-4.7,1-8.4,3.6-10.5,8C102.6,166.4,122.2,182.6,133.2,171.4z"/>
		<g>
			<path class="st49" d="M309.6,120c0.3-24.1-6.5-64.4-20.5-45.9c-9.1,12-6.8,40.2-6.7,44.7c0.1,6.4-3.9,6.7-5.3,2.2
				c-3.8-12.4-9.1-36.5-21.8-40.9c-14.3-4.9-8.9,39.4-0.9,50.8c3.1,4.5-17,19.2-9.2,36.6c18.5,41.2,95.2,39.7,93.9-6.8
				C338.3,126.9,309.5,131.8,309.6,120z M267,164.9c-0.7,1.7-2.8,3.1-5.1,3.1c-1.2,0-2.4-0.8-3.1-2.2c-0.8-1.4-0.5-2.8,0.4-4.1
				C262.6,157.2,268.7,160.8,267,164.9z M258.1,128.6c-6.1-14.5-6.6-22-7.3-28.5c3.7-25.6,25.7,25.9,19.4,30.8
				C264.9,134.9,261.9,137.5,258.1,128.6z M270.4,178.4c-0.1-2.7,4.3-2.9,4.2,0C274.5,181.2,270.5,181,270.4,178.4z M318.7,146.3
				c3.4-4.5,9.5-0.9,7.8,3.2c-0.7,1.7-2.8,3.1-5.1,3.1c-1.2,0-2.4-0.8-3.1-2.2C317.5,149,317.7,147.6,318.7,146.3z M316.4,159.1
				c1.2,0,2.1,0.9,2.1,2.1c0,1.2-0.8,2-1.9,2.1c-1.2,0.1-2.2-0.8-2.3-2C314.2,160.2,315.2,159.2,316.4,159.1z M288.2,111.9
				c0.3-6.1,0.9-12.2,1.6-18.2c0.2-2.1,1.1-4,1.8-6c0.3-0.8,0.8-1.5,1.4-2.1c9.8-10.3,11.2,39.1,5.7,40.1c-1.3,0.2-2.6,0.5-4,0.5
				c-0.8,0-1.6-0.2-2.4-0.4c-0.5-0.1-0.9-0.3-1.3-0.4c-1.7-0.2-2.3-0.8-2.4-2.6C288.4,119.2,288,115.6,288.2,111.9z M281.4,171.6
				c-2.7-0.1-2.7-4.2,0.1-4.2C284.3,167.4,284.2,171.7,281.4,171.6z M326.7,170.8c-0.9,2.4-1.8,4.9-3.1,7.1c-2.9,5.2-9,5.8-12.8,3.9
				c-1.1-0.6-2.2-1.2-3.4-1.8c-1.6,2-3.7,6.8-12.1,7.5c-5.5,0.5-8.1-3.1-11.2-8.2c-1.1-1.8,1-6.7,6.1,1.3c4.1,6.4,13.3,0.7,12.9-6.7
				c-0.1-2.3-0.5-3.7-1.6-5.4c-18.3-13-14.6-12.4-1.3-18c3.1-1.3,5.5-0.3,6.4,3c1.3,4.7-0.3,9.8,0.2,13.9c0.7,5.2,0.8,10,7.8,10.9
				c2.1,0.3,3.8-0.6,5-2.4c1.3-2,2.3-4.2,2.8-6.5c0.1-0.4,0.1-0.8,0.2-1.2c0.3-1,1-1.5,2-1.5c1,0,1.9,0.7,2.1,1.7
				C326.9,169.2,326.9,170.1,326.7,170.8z M325.3,162.4c-1.2,0-2.2-0.9-2.2-2.1c0-1.1,1-2.2,2.1-2.1c1.2,0,2.1,1,2,2.2
				C327.3,161.6,326.5,162.4,325.3,162.4z"/>
			<path class="st49" d="M278.6,198.5c-4.3-1.3-7.8-2.5-10.8-3.6c-0.8-0.3-1.6-0.7-2.4-1c-0.8-0.3-1.5-0.7-2.1-1
				c-0.7-0.3-1.3-0.7-1.9-1c-0.3-0.2-0.6-0.3-0.9-0.5c-0.9-0.5-1.7-1.1-2.5-1.7c-1.1-0.8-2.1-1.6-3.1-2.5c-0.5-0.4-1-0.9-1.5-1.4
				c-2.2-2.2-4.6-4.8-7.5-8.2c-0.9,1.4-1.9,2-2.7,2.1c-0.5,0.1-0.9-0.1-1.2-0.3c-0.1-0.1-0.2-0.2-0.3-0.3c-0.2-0.2-0.3-0.5-0.4-0.8
				c-0.1-0.3-0.1-0.6-0.1-0.9c0.1-0.5,0.3-1,0.6-1.5c0.3-0.3,0.6-0.7,0.9-1c0.3-0.3,0.6-0.6,0.9-1c-0.2-0.4-0.4-0.7-0.6-1.1
				c-0.4-0.7-0.8-1.4-1.2-2.2c-0.2-0.4-0.4-0.8-0.6-1.2c-1.1,1.1-2.1,2.1-3,2.9c-0.7,0.6-1.4,1.1-2.1,1.3c-0.6,0.1-1.2,0-1.8-0.7
				c-0.4-0.5-0.7-0.9-0.7-1.3c-0.1-1.2,1.4-2.3,2.9-3.6c0.8-0.7,1.5-1.4,2.1-2.2c0.2-0.3,0.4-0.6,0.5-0.9c0.3-0.6,0.4-1.3,0.4-2.1
				c0-0.2,0-0.4,0-0.6c-0.1-0.6-0.3-1.3-0.6-2c-3.4,1.5-5.7,2.8-7.3,3.4c-0.4,0.2-0.8,0.3-1.1,0.3c-1,0.2-1.6-0.1-2.1-1
				c-0.2-0.4-0.3-0.8-0.2-1.2c0,0,0-0.1,0-0.1c0-0.1,0-0.3,0.1-0.4c0.2-0.5,0.5-0.9,1-1.3c0.5-0.3,1-0.6,1.5-0.8
				c0.2-0.1,0.3-0.2,0.5-0.3c4.6-2.4,6.5-3.1,7.5-3.8c0.1-0.1,0.2-0.2,0.3-0.3c0.1-0.1,0.1-0.1,0.2-0.2c0.2-0.3,0.4-0.7,0.5-1.4
				c0.1-0.5,0.3-1.2,0.6-2.1c0-0.1,0.1-0.2,0.1-0.4c0.2-0.7,0.5-1.5,0.9-2.5c0.4-1.1,1-2.3,1.7-3.8c0.5-1,1-2.1,1.7-3.3
				c1-1.8,2.1-3.9,3.6-6.3c-1.9-0.9-3.7-1.7-5.6-2.5c-1.1-0.5-2.1-1-3.2-1.4c-13.2-5.9-27.7-7.1-41.9-5.2c-1,0.1-2,0.3-3,0.4
				c-2,0.3-4,0.7-6,1.2c-1.2,0.3-2.4,0.6-3.6,0.9c-1.5,0.4-3.1,0.8-4.6,1.3c-0.5,0.2-1.1,0.3-1.6,0.5c-1.3,0.4-2.5,0.8-3.8,1.3
				c-1.3,0.4-2.5,0.9-3.8,1.4c-0.9,0.4-1.8,0.7-2.7,1.1c-1.5,0.6-3,1.3-4.5,2c-1.2,0.5-2.3,1.1-3.4,1.7c-1.3,0.7-2.6,1.4-3.9,2.1
				c-1.2,0.7-2.4,1.3-3.5,2c-1.6,0.9-3.1,1.9-4.6,2.9c-0.6,0.4-1,0.8-1.4,1.3c-0.3,0.3-0.4,0.7-0.6,1.1c-0.1,0.3-0.2,0.6-0.2,1
				c0,0.2,0,0.5,0,0.8c0,1.8-0.1,3.5-0.3,5.2c-0.3,2.6-0.9,5.1-1.7,7.5c-0.9,2.4-2,4.8-3.5,7c-0.7,1.1-1.5,2.1-2.3,3.2
				c-0.8,1-1.6,2-2.5,3c-0.4,0.5-0.9,0.9-1.4,1.4c-0.7,0.6-1.4,1.2-2.1,1.7c-0.8,0.6-1.7,1.2-2.7,1.7c-0.4,0.2-0.6,0.5-1,0.8
				c0,0-0.1,0.1-0.1,0.1c-0.3,0.3-0.6,0.5-0.9,0.7c-0.2,0.1-0.3,0.3-0.5,0.4c-0.9,0.7-1.8,1.4-2.6,2c-7.9,5.7-11,5.3-17.7,9.5
				c-1.1,0.7-2.3,1.5-3.6,2.5c-4.1,3.1-8.3,6.3-12.4,9.5c-0.4,0.3-0.8,0.7-1.2,1.2c-0.3,0.3-0.6,0.6-0.9,1c0.7,0.1,1.3,0.2,1.9,0.2
				c0.5,0.1,1,0.1,1.5,0.1c0.5,0,1.1-0.1,1.6-0.1c1.1-0.1,2.2-0.2,3.2-0.4c0.5-0.1,1.1-0.2,1.6-0.3c1.9-0.4,3.6-0.9,5.4-1.4
				c2.6-0.7,4.9-1.4,7.2-2.1c9.2-2.9,15.7-5.8,19.5-6.9c0.4-0.1,0.7-0.2,1-0.3c0.9-0.2,1.6-0.3,2.1-0.2c0.3,0.1,0.6,0.2,0.7,0.5
				c0.3,0.5,0.2,1.4-0.3,2.7c-0.2,0.5-0.4,1.1-0.7,1.8c-1,2.3-2.7,5.5-5.2,9.9c-0.6,1.1-1.2,2.3-1.8,3.4c-0.6,1.1-1.1,2.3-1.6,3.5
				c-0.6,1.4-1.1,2.7-1.5,4.2c-0.3,1-0.6,2.1-0.9,3.1c0,0.2-0.1,0.4-0.1,0.6c0,0.2-0.1,0.4-0.1,0.7c0,0.3,0,0.5-0.1,0.8
				c0,0.2,0,0.5-0.1,0.7c0.6-0.1,1.1-0.2,1.5-0.2c0.2,0,0.4-0.1,0.6-0.1c0.2,0,0.4-0.1,0.6-0.2c1.1-0.5,2.3-1,3.4-1.6
				c0.6-0.3,1.1-0.6,1.7-0.9c0.6-0.3,1.1-0.6,1.6-1c1.2-0.8,2.4-1.6,3.6-2.4c2.3-1.7,4.6-3.5,6.7-5.4c1.1-1,2.1-2,3.1-3
				c7.5-7.5,11.6-11.8,13.9-14.1c0.4-0.4,0.8-0.8,1.1-1.1c0.5-0.4,0.9-0.8,1.2-1c0.2-0.1,0.4-0.2,0.6-0.3c0.2-0.1,0.3-0.1,0.5-0.1
				c0.1,0,0.3,0,0.4,0.1c0.2,0.1,0.4,0.2,0.6,0.3c0.1,0,0.2,0.1,0.3,0.1c0.1,0.1,0.2,0.1,0.3,0.2c0.1,0,0.2,0.1,0.3,0.1
				c0.6,0.3,1.4,0.5,2.5,0.7c0.9,0.1,1.8,0.3,2.8,0.4c0.2,0,0.3,0,0.5,0.1c1,0.1,2,0.3,3,0.4c0.7,0.1,1.4,0.2,2.1,0.3
				c11,1.3,26.2,2.7,38.9,2.3c2.2-0.1,4.4-0.2,6.5-0.4c4.8-0.4,9-1.2,12.1-2.5c4.4-1.8,6.1-2.9,6.9-2.6c0.1,0,0.3,0.1,0.4,0.2
				c0.1,0.2,0.3,0.4,0.4,0.8c0.1,0.2,0.1,0.3,0.2,0.5c0,0.2,0.1,0.3,0.1,0.5c0.1,0.4,0.2,0.8,0.3,1.2c0.6,2.5,1.8,6.7,5,13.2
				c0.4,0.8,0.8,1.6,1.3,2.5c0.9,1.6,1.8,3.2,2.7,4.8c1.9,3.2,3.9,6.2,6.2,9.2c0.6,0.7,1.1,1.5,1.7,2.2c0.7,0.8,1.4,1.5,2.2,2.2
				c0.3,0.2,0.5,0.5,0.8,0.7c0.6,0.5,1.1,0.6,1.5,0.4c0.3-0.1,0.5-0.4,0.7-0.8c1.6-2.6,2.3-5.4,2.5-8.3c0.3-4.3-0.7-8.8-2-12.9
				c-0.2-0.6-0.4-1.1-0.5-1.7c-0.3-0.8-0.5-1.5-0.8-2.3c-0.1-0.4-0.3-0.8-0.4-1.2c-0.7-1.9-1.3-3.6-1.8-5.1
				c-0.1-0.2-0.1-0.4-0.2-0.6c-0.7-2.4-0.9-4,0.1-4.6c0.4-0.3,0.8-0.3,1.3-0.2c0.4,0.1,0.7,0.3,1.1,0.6c0.2,0.1,0.4,0.3,0.5,0.5
				c0.9,0.9,1.9,2.3,3,4c0.4,0.7,0.9,1.4,1.4,2.2c0.2,0.4,0.5,0.8,0.7,1.2c0.5,0.8,1,1.6,1.5,2.5c0.8,1.3,1.6,2.6,2.5,4
				c0.9,1.4,1.8,2.8,2.7,4.1c2.5,3.6,5.4,7.2,8.6,9.9c0.8,0.7,1.6,1.3,2.5,1.9c0.1-0.3,0.2-0.5,0.2-0.8c0.1-0.5,0.2-1,0.2-1.5
				c0-0.5,0-1,0-1.4s-0.1-0.9-0.1-1.4c0-0.2-0.1-0.5-0.1-0.7c0-0.3-0.1-0.6-0.1-1c-0.1-0.6-0.2-1.2-0.4-1.9c0-0.2-0.1-0.5-0.2-0.8
				c-0.2-1-0.5-2.1-0.7-3.2c-0.1-0.4-0.2-0.7-0.3-1.1C283.3,206.9,280.7,199.1,278.6,198.5z M209.1,135.6
				c-15.1,0.1-29.9,3.1-43.8,9.1c-2.9,1.3-5.5-3.1-2.5-4.3c14.8-6.3,30.2-9.7,46.3-9.8C212.3,130.6,212.3,135.6,209.1,135.6z
				 M225.4,132.5c3.8,0.4,7.5,1,11.1,1.9c3.1,0.8,1.8,5.6-1.3,4.9c-3.2-0.8-6.5-1.4-9.8-1.7C222.2,137.2,222.2,132.1,225.4,132.5z"
				/>
		</g>
		<path class="st49" d="M91.3,207.2c0.5,0.1,1,0.1,1.5,0.1c0.5,0,1.1-0.1,1.6-0.1c-0.5,0.1-1.1,0.1-1.6,0.1
			C92.3,207.3,91.8,207.3,91.3,207.2z"/>
		<path class="st49" d="M275.3,215.5c-1-1.4-1.9-2.8-2.7-4.1C273.4,212.7,274.3,214.1,275.3,215.5z"/>
		<path class="st49" d="M91.5,204.7c4.1-3.2,8.2-6.4,12.4-9.5C99.7,198.3,95.6,201.5,91.5,204.7c-0.4,0.3-0.8,0.7-1.2,1.2
			C90.7,205.4,91.1,205,91.5,204.7z"/>
		<path class="st49" d="M260.4,201.2c0.1,0.2,0.1,0.4,0.2,0.6C260.5,201.5,260.4,201.3,260.4,201.2z"/>
		<path class="st49" d="M262.9,197c-0.4-0.3-0.8-0.5-1.1-0.6C262.1,196.4,262.5,196.7,262.9,197z"/>
		<path class="st49" d="M272.5,211.4c-0.9-1.4-1.7-2.7-2.5-4C270.8,208.7,271.7,210,272.5,211.4z"/>
		<path class="st49" d="M97.6,206.7c0.5-0.1,1.1-0.2,1.6-0.3c1.9-0.4,3.6-0.9,5.4-1.4c-1.7,0.5-3.5,0.9-5.4,1.4
			C98.7,206.5,98.1,206.6,97.6,206.7z"/>
		<path class="st49" d="M266.4,201.5c-1.1-1.7-2.1-3.1-3-4C264.3,198.4,265.3,199.8,266.4,201.5z"/>
		<path class="st49" d="M270.1,207.4c-0.5-0.9-1-1.7-1.5-2.5C269,205.7,269.5,206.5,270.1,207.4z"/>
		<path class="st49" d="M267.8,203.7c-0.5-0.8-0.9-1.5-1.4-2.2C266.9,202.2,267.3,202.9,267.8,203.7z"/>
		<path class="st49" d="M129.3,179.9c0,0-0.1,0.1-0.1,0.1c-0.3,0.3-0.6,0.5-0.9,0.7c0.3-0.2,0.6-0.5,0.9-0.7
			C129.3,180,129.3,180,129.3,179.9z"/>
		<path class="st49" d="M134.3,195.5c0.3,0.1,0.6,0.2,0.7,0.5C134.9,195.8,134.6,195.6,134.3,195.5z"/>
		<path class="st49" d="M134,200.5c-1,2.3-2.7,5.5-5.2,9.9c-0.6,1.1-1.2,2.3-1.8,3.4c0.6-1.1,1.2-2.3,1.8-3.4
			C131.2,206.1,132.9,202.8,134,200.5z"/>
		<path class="st49" d="M132.2,195.7c0.9-0.2,1.6-0.3,2.1-0.2C133.8,195.4,133.1,195.5,132.2,195.7z"/>
		<path class="st49" d="M164.7,197.1c0.6,0.3,1.4,0.5,2.5,0.7c0.9,0.1,1.8,0.3,2.8,0.4c-1-0.1-2-0.3-2.8-0.4
			C166.1,197.6,165.3,197.3,164.7,197.1z"/>
		<path class="st49" d="M179,130c0.5-0.2,1.1-0.3,1.6-0.5C180.1,129.6,179.5,129.8,179,130z"/>
		<path class="st49" d="M240,195.7c0.1,0,0.3,0.1,0.4,0.2C240.3,195.8,240.2,195.7,240,195.7z"/>
		<path class="st49" d="M233.1,198.3c-3.1,1.3-7.3,2-12.1,2.5C225.8,200.4,230,199.6,233.1,198.3c4.4-1.8,6.1-2.9,6.9-2.6
			C239.2,195.4,237.6,196.6,233.1,198.3z"/>
		<path class="st49" d="M125.2,183.1c0.8-0.6,1.7-1.2,2.6-2C126.9,181.9,126,182.5,125.2,183.1z"/>
		<path class="st49" d="M239.3,154.7c0,0.1-0.1,0.1-0.2,0.2C239.2,154.8,239.2,154.7,239.3,154.7z"/>
		<path class="st49" d="M240.5,150.9c0,0.1-0.1,0.2-0.1,0.4C240.4,151.1,240.4,151,240.5,150.9z"/>
		<path class="st49" d="M228.2,161.3c0,0.1-0.1,0.3-0.1,0.4C228.2,161.6,228.2,161.4,228.2,161.3z"/>
		<path class="st49" d="M241.2,178.4c0.1,0.3,0.2,0.6,0.4,0.8C241.4,178.9,241.3,178.7,241.2,178.4z"/>
		<path class="st49" d="M263.6,210.4c0.2,0.6,0.4,1.1,0.5,1.7C263.9,211.5,263.7,210.9,263.6,210.4z"/>
		<path class="st49" d="M133,177.4c0.7-0.5,1.5-1.1,2.1-1.7C134.4,176.3,133.7,176.9,133,177.4z"/>
		<path class="st49" d="M241.9,170.7c0.4,0.8,0.8,1.5,1.2,2.2C242.6,172.2,242.3,171.5,241.9,170.7z"/>
		<path class="st49" d="M131.2,196c-3.8,1.1-10.3,4-19.5,6.9C121,200,127.4,197.2,131.2,196z"/>
		<path class="st49" d="M185.2,128.2c1.2-0.3,2.4-0.6,3.6-0.9C187.5,127.6,186.3,127.9,185.2,128.2z"/>
		<path class="st49" d="M160.8,137.4c1.1-0.6,2.3-1.1,3.4-1.7C163.1,136.3,161.9,136.8,160.8,137.4z"/>
		<path class="st49" d="M156.9,139.4c1.3-0.7,2.6-1.4,3.9-2.1C159.5,138.1,158.2,138.7,156.9,139.4z"/>
		<path class="st49" d="M171.5,132.6c1.2-0.5,2.5-0.9,3.8-1.4C174,131.7,172.7,132.1,171.5,132.6z"/>
		<path class="st49" d="M248.4,134.9L248.4,134.9c-1.4,2.4-2.6,4.5-3.6,6.3C245.8,139.4,246.9,137.3,248.4,134.9z"/>
		<path class="st49" d="M136.5,174.3c0.9-0.9,1.7-1.9,2.5-3C138.2,172.4,137.4,173.4,136.5,174.3z"/>
		<path class="st49" d="M188.7,127.3c2-0.4,4-0.8,6-1.2C192.7,126.5,190.7,126.9,188.7,127.3z"/>
		<path class="st49" d="M147,146.7c0.1-0.4,0.3-0.8,0.6-1.1C147.3,145.9,147.1,146.3,147,146.7z"/>
		<path class="st49" d="M243.6,174L243.6,174c-0.3,0.3-0.6,0.6-0.9,1C243,174.6,243.3,174.3,243.6,174z"/>
		<path class="st49" d="M234.3,173c0.6,0.6,1.2,0.8,1.8,0.7C235.5,173.8,234.9,173.6,234.3,173c-0.4-0.5-0.7-0.9-0.7-1.3
			C233.7,172.1,233.9,172.5,234.3,173z"/>
		<path class="st49" d="M241.1,177.5c0.1-0.5,0.3-1,0.6-1.5c0.3-0.3,0.6-0.7,0.9-1c-0.3,0.3-0.6,0.7-0.9,1
			C241.4,176.4,241.2,177,241.1,177.5z"/>
		<path class="st49" d="M240.9,197.2c-0.1-0.2-0.1-0.4-0.2-0.5C240.8,196.8,240.9,197,240.9,197.2z"/>
		<path class="st49" d="M173.5,198.7c-1.1-0.1-2.1-0.3-3-0.4C171.4,198.4,172.5,198.5,173.5,198.7z"/>
		<path class="st49" d="M228.4,163c0.5,1,1.2,1.2,2.1,1C229.6,164.2,228.9,163.9,228.4,163c-0.2-0.4-0.3-0.8-0.2-1.2
			C228.1,162.2,228.2,162.6,228.4,163z"/>
		<path class="st49" d="M146.8,147.7c0,0.2,0,0.5,0,0.8c0,1.8-0.1,3.5-0.3,5.2c0.2-1.7,0.3-3.5,0.3-5.2
			C146.7,148.2,146.8,147.9,146.8,147.7z"/>
		<path class="st49" d="M230.8,159.2c0.2-0.1,0.3-0.2,0.5-0.3c4.6-2.4,6.5-3.1,7.5-3.8c-0.9,0.7-2.8,1.4-7.5,3.8
			C231.1,159,231,159.1,230.8,159.2z"/>
		<path class="st49" d="M239.6,131c1.1,0.5,2.1,1,3.2,1.4C241.7,131.9,240.7,131.4,239.6,131c-13.2-5.9-27.7-7.1-41.9-5.2
			C211.9,123.9,226.4,125,239.6,131z"/>
		<path class="st49" d="M261.4,191.9c0.6,0.3,1.3,0.7,1.9,1C262.6,192.6,262,192.2,261.4,191.9z"/>
		<path class="st49" d="M257.9,189.7c0.8,0.6,1.6,1.1,2.5,1.7C259.6,190.8,258.7,190.3,257.9,189.7z"/>
		<path class="st49" d="M163.2,196.3c-0.1-0.1-0.3-0.1-0.4-0.1C162.9,196.3,163.1,196.3,163.2,196.3z"/>
		<path class="st49" d="M284.9,213.4c-1.7-6.5-4.3-14.3-6.3-14.9c-4.3-1.3-7.8-2.5-10.8-3.6c2.9,1.1,6.4,2.3,10.8,3.6
			C280.7,199.1,283.3,206.9,284.9,213.4z"/>
		<path class="st49" d="M164.4,196.9c-0.1-0.1-0.2-0.1-0.3-0.2C164.2,196.8,164.3,196.9,164.4,196.9z"/>
		<path class="st49" d="M263.3,192.9c0.7,0.3,1.4,0.7,2.1,1C264.7,193.6,264,193.2,263.3,192.9z"/>
		<path class="st49" d="M163.9,196.7c-0.2-0.1-0.4-0.2-0.6-0.3C163.4,196.4,163.6,196.5,163.9,196.7z"/>
	</g>
</g>
</svg>
