<?xml version="1.0" encoding="utf-8"?>
<!-- Generator: Adobe Illustrator 21.0.1, SVG Export Plug-In . SVG Version: 6.00 Build 0)  -->
<svg version="1.1" id="Calque_1" xmlns="http://www.w3.org/2000/svg" xmlns:xlink="http://www.w3.org/1999/xlink" x="0px" y="0px"
	 viewBox="0 0 432 432" style="enable-background:new 0 0 432 432;" xml:space="preserve">
<style type="text/css">
	.st0{fill:#414042;}
	.st1{fill:#3C54A5;}
	.st2{fill:#60B046;}
	.st3{fill:#22B5B0;}
	.st4{fill:#F9A01B;}
	.st5{fill:#E33D25;}
	.st6{fill:#282967;}
	.st7{fill:#8DC63F;}
	.st8{fill:#3FA1C7;}
	.st9{fill:#808285;}
	.st10{fill:#C49A6C;}
	.st11{fill:#A97C50;}
	.st12{fill:none;}
	.st13{fill:#52C4CC;}
	.st14{fill:#39B54A;}
	.st15{fill:#262262;}
	.st16{fill:#2BB673;}
	.st17{fill:#9B8579;}
	.st18{fill:#F8B2B4;}
	.st19{fill:#C49548;}
	.st20{fill:#FBB040;}
	.st21{fill:#A3B1C0;}
	.st22{fill:#537BA6;}
	.st23{fill:#875EA8;}
	.st24{fill:#EF4684;}
</style>
<g>
	<g>
		<path d="M110.5,305.6c0.3-1,0.6-1.8,0.9-2.5c2.2-6.4,6-11.7,11-16.2c2.3-2.1,4.9-3.8,8-4.8c3.2-1.1,6.4-1.2,9.6,0
			c4,1.5,6.8,4.2,8.8,7.9c0.6,1.1,1.2,2.3,1.8,3.5c0.2-0.1,0.4-0.1,0.6-0.2c1.6-0.9,3.2-1.9,4.8-2.7c0.6-0.3,0.7-0.7,0.7-1.3
			c0.1-1.9,0.3-3.8,0.5-5.7c0.1-0.5,0.3-1.1,0.5-1.6c0.6-1.1,1.5-1.8,2.7-1.7c1.2,0,2,0.8,2.4,1.9c0.4,1,0.7,2.1,0.8,3.2
			c0.4,2.9,0.7,5.9,1,8.8c0.5,4.4,1.2,8.8,2.1,13.1c0.6,2.7,1.4,5.4,2.7,7.9c0.1,0.3,0.3,0.6,0.5,0.8c2,2.3,3.9,2.4,5.9,0.1
			c1.2-1.4,2.2-3,3-4.6c2-4.1,3.9-8.2,5.9-12.3c1.7-3.7,3.4-7.4,5.1-11.1c0.4-0.9,0.6-1.8,1-2.7c0.9-2,3.1-2.3,4.4-0.5
			c0.4,0.6,0.7,1.3,0.9,2c0.6,2.4,0.8,4.8,0.7,7.2c0,1.6,0.1,3.3,0,4.9c0,3.7-0.2,7.4-0.1,11.1c0,2.1,0.2,4.1,0.4,6.2
			c0.2,2.1,0.5,4.3,0.7,6.4c0.1,0.5,0.2,0.9,0.3,1.4c0.7-0.1,1.1-0.6,1.5-1c1.5-1.6,2.5-3.4,3.6-5.2c2.2-3.8,4.1-7.7,5.8-11.8
			c1.2-3.1,1.2-3.1,0.7-6.3c-0.4-3-0.8-5.9-1.1-8.9c-0.2-2.5-0.1-4.9,0.9-7.3c0.6-1.5,2.1-2.3,3.4-1.8c1,0.4,1.6,1.2,1.7,2.3
			c0.3,1.8,0.6,3.7,0.9,5.6c0.7,4.2,1.5,8.3,2.3,12.5c0.2,1.2,0.4,2.4,0.7,3.8c0.2-0.3,0.3-0.5,0.4-0.7c1.7-4.8,3.9-9.3,6.8-13.4
			c2.3-3.2,4.9-6.2,8.4-8.2c0.8-0.5,1.8-0.8,2.8-1.1c2.3-0.6,4.1,0.3,5.6,2.1c1.2,1.5,1.7,3.2,2.1,5c0.6,2.7,0.6,5.5,0.7,8.2
			c0,4,0,7.9,0.1,11.9c0.1,3.8,0.4,7.5,1.4,11.1c0.2,0.9,0.7,1.7,1.2,2.5c0.4,0.6,0.8,0.7,1.4,0.2c0.4-0.3,0.7-0.6,1-1
			c1.6-1.9,2.8-4,3.9-6.2c3.4-7.5,6.5-15.1,9.1-22.9c0.5-1.6,0.6-3.2,0.5-4.8c-0.2-2.3-0.3-4.6-0.2-6.9c0-1.1,0.3-2.3,0.7-3.4
			c0.4-1.1,1.2-1.8,2.4-1.8c1.2,0,2.1,0.6,2.5,1.7c0.4,1.1,0.9,2.3,1,3.4c0.5,3,0.8,5.9,1.2,8.9c0.3,2.4,0.6,4.9,1.1,7.4
			c0.5-1.2,1-2.4,1.5-3.6c2.2-5.1,4.9-9.9,8.5-14.1c2.5-2.9,5.4-5.5,8.8-7.3c1.6-0.9,3.3-1.4,5.2-1c2.6,0.5,4,2.3,4.9,4.6
			c1.4,3.3,1.5,6.7,1.4,10.1c-0.2,5.2-0.5,10.4-0.7,15.6c-0.2,3.3-0.4,6.6-0.4,9.9c0,1.2,0.2,2.5,0.5,3.7c0.2,1,0.7,1.2,1.7,0.8
			c1.1-0.5,2-1.3,2.7-2.3c1.3-1.8,2.5-3.6,3.6-5.5c3.1-5.4,5.9-11,8.4-16.7c0.2-0.5,0.4-1,0.6-1.4c0.5-0.9,0.5-1.9,0.4-2.9
			c-0.4-4.2-0.5-8.5-0.4-12.7c0.1-2,0.6-3.9,1.4-5.7c0.4-0.9,1.1-1.7,2.2-1.8c1.6-0.2,2.8,0.8,3,2.5c0.3,2.1,0.4,4.2,0.6,6.3
			c0.4,4.8,0.8,9.6,1.2,14.4c0.4,4.6,1.6,9.1,3.1,13.5c0.6,1.7,1.4,3.4,2.6,4.8c1.8,2.2,3.8,2.3,5.9,1.1c2.1-1.2,3.6-2.9,5.1-4.7
			c3.3-4,5.6-8.5,7.6-13.2c1.8-4.1,3.2-8.3,4.3-12.7c0.3-1.1,0.4-2.2,0.6-3.3c0-0.2,0.1-0.5,0.1-0.7c0.2-2.3,2.7-3.6,4.8-1.8
			c0.7,0.6,1.2,1.4,1.6,2.2c1.1,2.1,1.7,4.3,2.3,6.5c0.5,2.2,1.1,4.5,1.6,6.7c0.5,2.2,1,4.4,1.4,6.7c0.6,3,1.2,6,1.6,9.1
			c0.7,4.8,1.2,9.6,1.3,14.4c0.1,3.8-0.1,7.6-0.9,11.3c-0.6,2.8-1.5,5.6-2.9,8.1c-1.2,2.1-2.6,4-4.3,5.7c-2.4,2.4-5.2,4.3-8.4,5.3
			c-5.3,1.6-10,0.5-14.2-3.1c-2.2-1.9-3.9-4.3-4.6-7.3c-0.8-3.7,0-7.2,1.5-10.6c1.8-3.8,4.4-7.1,8-9.3c2.1-1.3,4.5-2.1,6.7-3.1
			c0.6-0.3,1.2-0.5,1.8-0.6c0.4-0.1,1,0,1.3,0.2c0.3,0.2,0.4,0.6,0.5,1c0,0.4-0.3,0.7-0.7,0.8c-3.5,1-6.8,2.6-9.7,4.7
			c-4.2,3-6.7,7.1-7.1,12.4c-0.4,5,2.9,9.8,7.7,11.1c3.2,0.9,6.1,0,8.7-1.9c3.1-2.3,5-5.4,6.3-9c1.7-4.7,2.4-9.5,2.3-14.5
			c-0.1-3.6-0.3-7.3-0.7-10.9c-0.4-3.4-1-6.7-1.6-10.1c-0.8-4.2-1.6-8.5-2.5-12.7c-0.3-1.4-0.5-2.8-0.8-4.2c0-0.2-0.1-0.4-0.2-0.8
			c-0.2,0.5-0.4,0.8-0.5,1.1c-1.5,3.9-2.9,7.9-4.6,11.8c-2.7,6.3-6.3,12-11.2,16.7c-1.3,1.2-2.7,2.2-4.4,2.7
			c-1.8,0.5-3.7,0.4-5.4-0.3c-2.7-1.1-4.8-2.9-6.4-5.2c-2.7-3.9-4.1-8.3-4.9-12.9c-0.1-0.5-0.2-1-0.4-1.7c-0.5,1.1-0.9,1.9-1.3,2.8
			c-2.8,6.1-5.9,12.1-9.4,17.9c-0.7,1.2-1.6,2.3-2.6,3.3c-0.8,0.8-1.8,1.5-2.8,2c-2.3,1.2-5.2,0.4-6.6-1.4c-1.2-1.4-1.9-3-2.3-4.8
			c-1.2-5.5-1.1-11.1-0.7-16.7c0.3-3.9,0.5-7.8,0.7-11.7c0.1-2.2,0.2-4.4,0.2-6.6c0-0.6-0.1-1.3-0.2-1.9c-0.2-0.9-0.7-1.2-1.6-1.3
			c-1.4,0-2.6,0.5-3.8,1.1c-2.5,1.3-4.5,3.3-6.3,5.5c-4.1,4.8-6.7,10.4-8.6,16.3c-0.2,0.5-0.3,1-0.5,1.5c-0.9,2.7-1,5.4-0.4,8.1
			c0.4,1.9,0.5,3.8,0.7,5.7c0.1,0.9,0,1.8-0.4,2.6c-1,1.9-3,2.3-4.8,1c-0.8-0.6-1.2-1.4-1.5-2.3c-1.1-3.3-1.8-6.6-2.4-10
			c-0.4-2.4-0.7-4.8-1-7.2c0-0.1-0.1-0.2-0.2-0.4c-0.2,0.6-0.5,1.2-0.6,1.7c-2.3,6.5-4.9,12.9-7.7,19.3c-0.8,1.8-1.6,3.6-2.6,5.4
			c-0.7,1.2-1.5,2.3-2.7,3.2c-1.6,1.1-3.3,1.3-5.1,0.5c-1.5-0.7-2.7-1.8-3.7-3.1c-2.8-3.9-3.6-8.3-4.2-12.9
			c-0.5-4.2-0.4-8.4-0.2-12.6c0.1-2.8,0.2-5.5,0.4-8.3c0.1-1.7-0.2-3.1-0.8-4.2c-0.7-0.2-1.3,0.1-1.9,0.4c-1.5,0.6-2.8,1.5-4,2.6
			c-3,2.7-5.3,6-7.2,9.6c-2.1,4-3.7,8.1-4.3,12.5c-0.1,0.7-0.1,1.5,0,2.3c0.1,1.8,0.3,3.6,0.4,5.4c0,0.5,0,1-0.2,1.5
			c-0.5,1.8-2.5,2.4-3.9,1.1c-1.1-1-1.7-2.3-2.1-3.7c-0.9-3-1.7-6-2.5-9c-0.1-0.3-0.2-0.5-0.3-0.9c-2,4.9-4.4,9.4-6.9,13.8
			c-0.9,1.6-1.9,3.2-3.2,4.5c-1,1-2.1,1.7-3.6,1.8c-2,0.1-3.4-0.8-4.5-2.3c-0.9-1.1-1.6-2.4-2.1-3.8c-1.1-2.9-1.7-5.9-1.8-9
			c-0.1-3.5-0.2-7-0.1-10.5c0.1-3.1,0.3-6.3,0.5-9.7c-0.3,0.6-0.6,0.9-0.7,1.3c-2.2,4.5-4.3,9.1-6.5,13.6c-1.2,2.4-2.3,4.7-3.6,7
			c-0.6,1.1-1.5,2.1-2.3,3c-2.7,2.8-6.2,2.6-9.2,0.8c-3.1-1.8-5-4.6-6.5-7.8c-2.2-4.8-3.1-9.9-3.5-15.2c-0.1-1.3-0.3-2.5-0.4-4
			c-1.9,1.1-3.7,2.2-5.5,3.2c0,0.3,0,0.5,0,0.7c1,3.9,1.4,7.9,0.8,11.9c-0.7,5.3-2.7,9.9-6.7,13.5c-3.3,2.9-7.1,4.2-11.4,3.2
			c-4.1-0.9-6.3-4.4-5.6-8.6c0.5-3.2,2.1-6,4.1-8.4c3.1-3.7,6.6-6.9,10.6-9.6c0.2-0.1,0.4-0.3,0.7-0.6c-0.5-1.3-0.8-2.7-1.4-4
			c-0.8-1.6-1.7-3.2-3-4.6c-2.5-2.6-5.4-3.5-8.9-2.8c-3.2,0.6-5.8,2.3-8.1,4.4c-5.8,5.2-9.1,11.8-10.4,19.4
			c-0.2,1.3,0.2,2.6,0.4,3.9c0.1,1,0.2,1.9,0.2,2.9c0,0.9-0.4,1.6-1.3,1.8c-0.9,0.3-1.7,0-2.2-0.8c-0.8-1.3-1.7-2.5-2.3-3.9
			c-1.4-3.1-2.8-6.2-4-9.3c-1.2-3.1-2-6.3-3.1-9.5c-0.1-0.3-0.2-0.6-0.3-1.1c-0.9,1-1.7,1.9-2.4,2.8c-1.7,2-3.4,4.1-4.5,6.5
			c-0.5,1-0.7,2-1.1,3c-0.1,0.2-0.1,0.4-0.2,0.6c-0.2,0.6-0.7,0.8-1.3,0.7c-0.5-0.1-0.9-0.4-1-0.9c0-0.5,0-1.1,0.1-1.7
			c0.6-2.9,2.2-5.4,3.9-7.7c1.5-1.9,3.1-3.8,4.7-5.6c0.6-0.7,0.8-1.3,0.6-2.2c-0.9-3.9-1.8-7.8-2.2-11.8c-0.2-3-0.6-6-0.6-9
			c0-4.7,0.7-9.4,2.4-13.8c0.9-2.2,2-4.3,3.8-6c2.8-2.6,5.8-2.2,8.3,0.4c1.8,1.9,3,4.2,3.8,6.7c1.4,4.5,1.3,9.1,0.4,13.6
			c-1.2,6.1-4.1,11.5-8,16.3c-0.5,0.6-0.6,1.1-0.4,1.8c0.9,3.2,1.8,6.5,2.6,9.7C109,300.1,109.7,302.7,110.5,305.6z M104.6,283.3
			c0.3-0.2,0.4-0.3,0.4-0.4c4.2-5.7,6.8-12,7.2-19.1c0.2-4.1-0.7-7.9-3.1-11.2c-0.4-0.6-1-1.2-1.6-1.6c-1.1-0.8-1.9-0.7-2.6,0.4
			c-0.4,0.6-0.8,1.2-1,1.9c-1.2,3.5-1.5,7.2-1.4,10.9c0.1,4.1,0.3,8.2,0.9,12.3C103.7,278.6,104.2,280.9,104.6,283.3z M144.3,300
			c-0.4,0.2-0.6,0.3-0.8,0.4c-2,1.4-4,2.8-5.8,4.4c-2.6,2.2-4.8,4.8-6.3,7.9c-0.6,1.3-1,2.7-0.9,4.2c0.1,2.5,2.4,4.5,4.9,4.2
			c1.1-0.1,2.1-0.5,3-1.1c2-1.3,3.3-3.2,4.2-5.3c1.3-3,1.8-6.2,1.9-9.4C144.4,303.5,144.3,301.8,144.3,300z"/>
		<path d="M277,162.2c-1.4,0.7-2.4,1.4-3.3,2.2c-2.8,2.5-5.2,5.4-7.3,8.6c-4.7,7-8.2,14.4-10.3,22.6c-0.4,1.6-0.2,3.1-0.2,4.6
			c0,1.8-0.1,3.7-0.2,5.5c0,0.8-0.4,1.5-0.9,2c-0.9,1-2.2,1-3.2,0.1c-0.6-0.5-0.9-1.2-1.1-2c-0.9-3.2-1.4-6.4-1.9-9.6
			c-0.6-3.7-0.9-7.5-2-11.1c-0.3-1-0.7-2-1.2-2.9c-0.4-0.8-0.8-0.8-1.6-0.6c-1.1,0.3-1.9,1-2.7,1.7c-1.6,1.4-2.8,3.1-3.9,4.8
			c-2.2,3.5-3.7,7.3-4.6,11.4c-0.2,0.8-0.2,1.7-0.2,2.6c0,0.9,0.1,1.8,0.2,2.7c0,0.4,0,0.9,0,1.3c-0.1,1.5-0.8,2.6-2.1,2.9
			c-1.1,0.3-2.5-0.4-3.1-1.6c-0.6-1.2-1.1-2.5-1.5-3.8c-1.4-4.3-2.3-8.6-2.9-13.1c0-0.2-0.1-0.3-0.3-0.7c-0.7,2.1-1.4,4-2.1,5.8
			c-2,5.4-4,10.7-6,16c-0.9,2.2-1.8,4.4-3.2,6.3c-0.3,0.5-0.7,1-1.1,1.4c-1.4,1.5-3.4,1.7-5.1,0.4c-1.9-1.4-3.4-3.2-4.6-5.3
			c-2-3.5-2.7-7.4-3.1-11.4c-0.1-1.2-0.4-2.4-0.5-3.7c-0.4,0.2-0.6,0.3-0.9,0.4c-2.4,1.4-4.3,3.3-6.3,5.2c-3.2,2.9-6.3,5.9-9.8,8.5
			c-1.9,1.4-3.9,2.3-6.3,2.1c-2.3-0.2-4.2-1.2-5.6-3c-1.6-2-2.7-4.3-3.4-6.8c-1.2-4.5-1.6-9.1-1.2-13.8c0.4-4.4,1.3-8.6,3-12.6
			c1.5-3.4,3.3-6.6,5.7-9.4c2.8-3.3,6.3-5.6,10.7-6.4c3.3-0.6,6.4,0,9.5,1.3c5.2,2.3,8.1,6.4,9.5,11.8c0.4,1.7,0.1,3.4-0.5,5.1
			c-0.2,0.7-0.7,1-1.2,0.9c-0.6-0.1-0.9-0.6-0.8-1.4c0.2-5-2.2-8.7-5.9-11.6c-3.3-2.5-8.5-3.3-12.8,0.2c-1.7,1.3-2.9,3.1-4,4.9
			c-1.8,3.1-3.1,6.4-4.1,9.8c-1.5,5.2-1.7,10.5-1,15.9c0.4,2.6,1,5.2,2.1,7.6c0.2,0.5,0.5,0.9,0.8,1.4c0.6,0.9,1.5,1.2,2.6,1.1
			c1.2-0.2,2.3-0.6,3.3-1.3c5.2-3.4,9.8-7.5,14.1-12c0.7-0.7,1.2-1.5,1.9-2.1c2-1.9,4.8-1.5,6.5,0.7c1,1.3,1.5,2.8,1.8,4.4
			c0.6,3.1,1.2,6.1,1.7,9.2c0.4,2,0.8,4.1,1.2,6.1c0.1,0.5,0.4,1,0.6,1.8c0.5-0.6,1-1,1.3-1.5c1.3-2.5,2.8-5,3.8-7.6
			c2.7-6.7,5.2-13.6,7.9-20.3c0.7-1.7,0.8-3.3,0.6-5.1c-0.2-1.6-0.3-3.3-0.4-4.9c0-1.3,0.2-2.6,0.3-3.9c0-0.4,0.2-0.8,0.4-1.1
			c0.5-1,1.3-1.6,2.5-1.6c1.1,0,1.9,0.7,2.3,1.7c0.4,1,0.7,2,0.9,3.1c1,5.3,2,10.5,2.9,15.8c0.1,0.5,0.2,0.9,0.4,1.6
			c0.3-0.7,0.5-1.2,0.7-1.7c1.7-4.1,3.9-8,6.9-11.3c1.1-1.1,2.2-2.2,3.6-2.9c2.9-1.5,5.9-0.6,7.7,1.5c1.3,1.4,2.2,3.1,2.9,4.9
			c0.9,2.5,1.5,5.2,2,8.1c0.2-0.4,0.3-0.6,0.4-0.8c3.6-10.1,9-19.2,15.7-27.6c1.2-1.5,2.5-3,3.9-4.4c0.8-0.8,1.7-1.5,2.8-1.7
			c2.1-0.4,3.6,0.6,4.7,2.7c0.8,1.4,1,3,1.1,4.5c0.2,3.7-0.1,7.3-0.8,11c-0.4,2.4-0.8,4.9-1.2,7.3c-0.5,3-1,6-1.5,9
			c-1.2,7.2-2.1,14.4-2.3,21.7c-0.1,3.3-0.1,6.6,0.8,9.9c0.1,0.4,0.2,0.8,0.4,1.1c0.5,1.2,1,1.4,2.1,0.7c0.8-0.4,1.5-1,2.1-1.6
			c1.8-1.8,3.2-4,4.5-6.2c2.1-3.6,3.7-7.4,5.3-11.3c0.5-1.1,0.9-2.3,1.3-3.5c0.3-1,0.6-2.1,0.8-3.1c0.1-0.5,0.3-0.9,0.8-0.9
			c0.6-0.1,0.9,0.3,1,0.8c0.1,0.7,0.2,1.4,0,2c-0.5,1.7-0.9,3.5-1.6,5.1c-1.8,4.4-3.6,8.7-5.5,13c-1.3,3-3.4,5.5-5.7,7.8
			c-1.1,1-2.3,1.9-3.8,2.1c-2.1,0.3-3.7-0.5-5.1-2c-1.3-1.4-2-3.1-2.6-4.8c-1.5-4.4-1.9-9-2-13.6c-0.1-3.3,0.2-6.5,0.5-9.8
			c0.2-1.9,0.6-3.9,0.9-5.8c0.3-1.8,0.5-3.5,0.8-5.3c0.3-1.7,0.5-3.3,0.8-5c0.4-2.3,0.9-4.6,1.3-6.9c0.5-2.9,0.9-5.8,1.3-8.8
			C276.7,166.1,276.9,164.3,277,162.2z"/>
		<path d="M140.1,154.9c-0.7,0.6-1.3,1.1-1.9,1.6c-2.8,2.2-6.1,3.4-9.5,4c-2.4,0.4-4.8,0.5-7.1,0.8c-3.2,0.4-6.6,0.3-9.7,1.4
			c-4.2,1.5-7.2,4.4-8.8,8.5c-0.3,0.8-0.4,1.8-0.5,2.7c0,0.3,0,0.6-0.1,0.8c-0.1,0.5-0.4,0.8-0.9,0.9c-0.5,0.1-1-0.2-1.1-0.7
			c-0.2-0.6-0.2-1.2-0.2-1.8c0-2.6,1.1-4.8,2.6-6.8c3.2-4.2,7.4-6.8,12.6-7.5c2.6-0.3,5.3-0.5,8-0.7c3.2-0.2,6.3-0.6,9.3-1.7
			c2.5-0.9,4.7-2.2,6.2-4.5c0.5-0.7,0.9-1.6,1.1-2.5c0.3-1.4,0.9-2.5,2.4-2.8c1.6-0.3,2.8,0.4,3.7,1.7c0.9,1.2,1.2,2.7,1.4,4.2
			c0.5,3.6,0.9,7.1,1.2,10.7c0.3,3.5,0.5,6.9,0.6,10.4c0.1,5,0,10.1-0.5,15.1c-0.3,3.3-0.7,6.7-1.5,9.9c-0.6,2.6-1.4,5.3-2.5,7.7
			c-1.9,4.4-4.5,8.3-8.1,11.4c-2.9,2.5-6.1,4.3-9.9,4.8c-4.4,0.6-8.3-0.5-11.6-3.6c-4.1-4-6.5-8.8-7.1-14.5
			c-0.5-6,0.6-11.6,3.4-16.9c1.7-3.3,4.1-6.1,7.3-8.1c1-0.6,2.2-1.1,3.3-1.3c3.7-0.8,7,1.5,8.3,5.2c0.7,2,0.9,4,0.3,6.1
			c-0.5,1.7-0.8,3.3-1.3,5c-0.2,0.8-0.7,1.3-1.4,1.7c-0.5,0.2-0.9,0.3-1.3-0.1c-0.4-0.4-0.2-0.8,0-1.2c0.3-0.5,0.5-1.1,0.6-1.6
			c0.2-1.3,0.5-2.6,0.5-3.9c0-2.4-0.5-4.7-2.2-6.5c-1.2-1.3-2.5-1.6-4.1-1.1c-3.4,1.1-5.8,3.3-7.6,6.2c-3.2,5.2-4.3,11-3.4,17
			c0.6,4.5,2.5,8.4,5.8,11.5c2.3,2.2,5.1,3.1,8.3,2.7c2.7-0.4,4.9-1.8,6.8-3.6c3.5-3.4,5.6-7.5,6.9-12.1c1-3.4,1.6-6.9,2.1-10.4
			c0.7-4.9,1-9.8,1.1-14.7c0-3.7-0.2-7.3-0.3-11c-0.1-1.8-0.2-3.5-0.3-5.3c-0.1-2-0.3-4-0.5-6C140.3,155.6,140.2,155.3,140.1,154.9z
			"/>
		<g>
			<path d="M189.1,237.7c-4.1-7.7-11.9-10.6-18.9-7.2c-6.9,3.4-11.7,11.8-11.8,20.5c0,7.1,3.3,15.8,10.7,19.5c2.4,1.2,5,1.8,7.5,1.8
				c4,0,7.9-1.5,10.6-4.3C194.8,259.9,193.6,247,189.1,237.7C189.1,237.7,189.1,237.7,189.1,237.7z M188.2,255.2
				c-0.6,3.5-1.8,8.4-5.6,11.1c-5.3,3.7-12.6,1.3-16-3.3c-5.4-7.2-5.1-17.8,0.6-24.7c1.9-2.3,5-5,9-5.1c0.1,0,0.2,0,0.3,0
				c4.5,0,7.4,3.5,8.9,6.5C188.1,245.3,189,250.3,188.2,255.2z"/>
			<path d="M276.6,257.5c-0.4-0.6-1-0.9-1.7-0.8l-5.2,0.3c-0.8,0-1.4,0.5-1.8,1.2c-0.4,0.7-0.3,1.6,0.1,2.2c0.4,0.5,1,0.9,1.7,0.8
				c-1.4,3.9-4.5,6.3-8.6,6.7c-5.5,0.5-11.2-2.7-13.6-7.7c-1.5-3.2-2.2-7.7-1.7-12.1c9.1-0.9,18.8-0.4,27.3,0c0.6,0,1.1-0.2,1.5-0.6
				c0.5-0.5,0.7-1.3,0.6-2c-1.2-8.7-6-14.9-12.7-16.6c-6-1.5-11.8,0.7-16,5.9c-5.4,6.7-6.8,17.3-3.5,25.6
				c2.7,6.6,7.8,10.8,14.5,11.7c0.9,0.1,1.7,0.2,2.5,0.2c7,0,12.5-4.3,14.1-11.3l0.8-0.1c0.8,0,1.4-0.5,1.8-1.2
				C277,259,277,258.2,276.6,257.5z M246.4,243.8c1.9-7.2,6.2-11.2,11.9-11.2c0.5,0,1.1,0,1.6,0.1c6.7,0.9,9.4,7,10.4,11.1
				C262.3,243.4,254.4,243.1,246.4,243.8z"/>
			<path d="M240.2,267.7l-0.7,0c0-1.9,0.1-3.7,0.1-5.6c0.1-3.9,0.2-7.9,0.1-11.9l0-0.2c-0.2-5.3-0.6-12.6-4.4-16.9
				c-1.6-1.8-3.5-2.7-5.6-2.6c-4.6,0.1-8.4,4.5-9.4,5.8c-0.7,0.9-1.4,1.8-1.9,2.6c-0.3-0.8-0.5-1.6-0.8-2.3
				c-1.6-3.8-5.3-7.6-10.6-5.7c-2.6,0.9-5,2.9-7.1,5.7l0-3.5l0.5,0c1.4-0.1,2.1-1.3,2-2.3c-0.1-1.2-0.9-1.9-2.1-1.9l-5.2,0.3
				c-1.4,0.1-2.1,1.3-2,2.3c0.1,1.2,0.9,2,2.1,1.9l0.5,0l0.2,34.5l-0.8,0c-0.8,0-1.4,0.5-1.8,1.2c-0.4,0.7-0.3,1.6,0.1,2.2
				c0.4,0.6,1,0.9,1.7,0.8l5.2-0.3c0.8,0,1.4-0.5,1.8-1.2c0.4-0.7,0.3-1.6-0.1-2.2c-0.4-0.6-1-0.9-1.7-0.8l-0.2,0l-0.2-22.3
				c1.4-3.8,4.9-10.2,9.4-10.7c3.6-0.4,4.9,4.6,5.6,8.5c0.3,2,0.6,4,0.7,6.3c0,0.5,0,0.9,0,1.4c0,0.2,0,0.4,0.1,0.6
				c0.1,3.5,0,7.1-0.1,10.6c-0.1,2-0.1,4-0.2,6l-0.3,0c-0.8,0-1.4,0.5-1.8,1.2c-0.4,0.7-0.3,1.6,0.1,2.2c0.4,0.6,1,0.9,1.7,0.8
				l5.2-0.3c0.8,0,1.4-0.5,1.8-1.2c0.4-0.7,0.3-1.6-0.1-2.2c-0.4-0.6-1-0.9-1.7-0.8l-0.7,0c0-2,0.1-4.1,0.2-6.2
				c0.2-4.9,0.5-9.9,0-14.7c0-0.3,0-0.5,0-0.8c0.2-2.1,1.6-4.3,2.9-6.2c2.4-3.5,4.7-5.2,6.8-5.2c0,0,0,0,0,0c1.8,0,3.1,1.4,4.2,4.3
				c2.6,7,2.2,15,1.8,22.7c-0.1,2.1-0.2,4.3-0.2,6.5l-0.3,0c-0.8,0-1.4,0.5-1.8,1.2c-0.4,0.7-0.3,1.6,0.1,2.2
				c0.3,0.5,0.9,0.8,1.6,0.8c0,0,0.1,0,0.1,0l5.2-0.3c0.8,0,1.4-0.5,1.8-1.2c0.4-0.7,0.3-1.6-0.1-2.2
				C241.5,268,240.9,267.7,240.2,267.7z"/>
			<path d="M145.2,247.2c-5.5-1.7-11.2-3.5-11-8.1c0.2-3.2,2.4-5.5,5.9-6.1c3.2-0.6,7.3,0.5,9.1,3.6l-0.3,0
				c-0.8,0.1-1.4,0.5-1.8,1.2c-0.4,0.8-0.3,1.7,0.1,2.4c0.4,0.6,1,0.9,1.7,0.8l5.2-0.3c0.8-0.1,1.4-0.5,1.8-1.2
				c0.4-0.8,0.3-1.7-0.1-2.4c-0.4-0.6-1-0.9-1.7-0.8l-0.4,0c-1.7-4.7-6.2-7.8-11.8-7.8c0,0,0,0,0,0c-5.4,0-9.9,3.1-11.5,8
				c-1.7,5.5,1.3,10.2,8.5,13.1c1.1,0.5,2.4,0.8,3.7,1.3c5.3,1.7,10.8,3.4,8.9,10.3c-1.1,4-4.3,7.6-9,6.7c-2.9-0.6-5.5-2.7-7.3-5.8
				c0.7-0.1,1.3-0.5,1.6-1.2c0.4-0.8,0.3-1.7-0.1-2.4c-0.4-0.6-1-0.9-1.7-0.8l-5.2,0.3c-1.4,0.1-2.1,1.3-2,2.5
				c0.1,1.2,0.9,2,2.1,1.9l0.8-0.1c1.8,4.3,5.3,7.9,9.3,9.4c1.4,0.5,2.8,0.8,4.1,0.8c1.7,0,3.4-0.4,5-1.2c3.6-1.8,6.4-6.2,7-10.8
				c0.5-3.9-0.5-7.3-3-9.6C151.5,249.1,148.4,248.2,145.2,247.2z M131.2,261.7L131.2,261.7L131.2,261.7L131.2,261.7z"/>
		</g>
		<g>
			<path d="M314.9,369.5l-1.2,0.4c-2.8-3.3-2.7-8.4-2.5-12.4l0-0.2c0-1.3,0.1-2.7,0.2-4c0.2-3.7,0.5-7.5-0.1-11.2
				c-0.5-3.4-2.3-7.8-7.3-9.3c-6-1.8-12,0.7-15.1,6.1l-0.8-0.2c-0.8-0.2-1.5,0-2,0.6c-0.5,0.5-0.7,1.3-0.5,2
				c0.2,0.6,0.7,1.1,1.5,1.3l5,1.2c1.4,0.3,2.3-0.5,2.6-1.5c0.1-0.5,0.1-1-0.2-1.4c-0.2-0.3-0.6-0.7-1.3-0.9l0,0
				c1.7-2.6,4.3-3.9,7.4-3.7c2.2,0.1,3.9,0.8,4.9,2c2.3,2.6,2.2,6.9,2.1,10.4l0,0.6c-5.9-4.5-14.3-7-20.1-0.2c-3.4,4-4.9,9.9-3.8,15
				c0.9,4.3,3.6,7.6,7.5,9.4c4.8,2.2,10.9,1.7,18.1-1.5c-0.4,0.5-0.4,1.2-0.3,1.8c0.2,0.7,0.9,1.4,1.8,1.4c0.2,0,0.5,0,0.7-0.1
				l4.8-1.6c1.3-0.4,1.6-1.6,1.3-2.6C317.1,369.8,316.1,369.1,314.9,369.5z M307.8,368c-7.2,3.4-12.8,3.7-16.7,0.9
				c-3.9-2.8-4.4-7.9-3.7-11.4c0.7-3.4,2.7-6.4,5.1-7.8c1.2-0.7,2.4-1,3.8-1c0.8,0,1.6,0.1,2.5,0.4c2.7,0.8,5.6,2.7,8.1,5.2
				C306.7,358.3,306.3,363.6,307.8,368z"/>
			<path d="M263,359.3l-5.2,0.7c-0.5,0.1-0.9,0.4-1.2,0.8c-0.4,0.5-0.5,1.2-0.3,1.8c0.2,0.9,1,1.5,2,1.5c-1.8,5-6.6,7.5-12.2,6.4
				c-6.1-1.2-10.2-5.6-11.5-12.5c-1.5-8,2.3-16.8,8.8-20.3c2.7-1.5,5.6-1.7,8.3-0.8c2.5,0.9,4.5,2.8,5.8,5.4l-0.3,0
				c-0.7-0.1-1.4,0.3-1.7,0.8c-0.4,0.6-0.5,1.5-0.1,2.2c0.3,0.7,1,1.1,1.8,1.2l5.2,0.3c1.1,0.1,2-0.7,2.1-1.9c0.1-1.1-0.6-2.3-2-2.3
				l-0.3,0c-2.1-6.6-7.6-10.7-14.1-10.4c-7.8,0.4-13.3,6.6-15.8,12.3c-3.1,7.1-2.6,15.8,1.4,22.1c3.3,5.2,8.6,8.2,14.9,8.3
				c0.1,0,0.3,0,0.4,0c7,0,12.5-4.5,14.1-11.5l1.1-0.2c0.5-0.1,0.9-0.4,1.2-0.8c0.4-0.5,0.5-1.2,0.3-1.8
				C265.2,359.7,264.2,359.1,263,359.3z"/>
			<path d="M226.7,360.5l-5.2,0.3c-0.8,0-1.4,0.5-1.8,1.2c-0.4,0.7-0.3,1.6,0.1,2.2c0.3,0.5,0.9,0.8,1.6,0.8c0,0,0,0,0,0
				c-1.4,3.9-4.5,6.3-8.6,6.7c-5.5,0.5-11.2-2.7-13.6-7.7c-1.5-3.2-2.2-7.7-1.7-12.1c9.1-0.9,18.8-0.4,27.3,0c0.6,0,1.1-0.2,1.5-0.6
				c0.5-0.5,0.7-1.3,0.6-2c-1.2-8.7-6-14.9-12.7-16.6c-6-1.5-11.8,0.7-16,5.9c-5.4,6.7-6.8,17.3-3.5,25.6
				c2.7,6.6,7.8,10.8,14.5,11.7c0.9,0.1,1.7,0.2,2.5,0.2c7,0,12.5-4.3,14.1-11.3l0.8-0.1c0.8,0,1.4-0.5,1.8-1.2
				c0.4-0.7,0.3-1.6-0.1-2.2C228.1,360.7,227.4,360.4,226.7,360.5z M198.3,347.6c1.9-7.2,6.2-11.2,11.9-11.2c0.5,0,1.1,0,1.6,0.1
				c6.7,0.9,9.4,7,10.4,11.1C214.2,347.2,206.2,346.9,198.3,347.6z"/>
			<path d="M328,371.4c-0.4-0.6-1-0.9-1.8-0.9l-1,0c-2.4-8.6-2.5-18.1-2.5-26.5c0-4.9,0.1-9.9,0.2-14.8c0.1-3.9,0.2-8,0.2-12.1
				l0.5,0c0.8,0,1.4-0.5,1.8-1.2c0.4-0.7,0.3-1.6-0.1-2.2c-0.4-0.6-1-0.9-1.7-0.8l-5.2,0.3c-0.8,0-1.4,0.5-1.8,1.2
				c-0.4,0.7-0.3,1.6,0.1,2.2c0.4,0.6,1,0.9,1.7,0.8l0.5,0c0,3.9-0.1,7.9-0.2,11.8c-0.1,5.1-0.3,10.4-0.2,15.7
				c0.1,7.6,0.1,17.1,2.4,25.7c-1.3,0.1-2,1.2-1.9,2.3c0,1,0.7,2,2,2c0,0,0.1,0,0.1,0l5.2-0.2c0.8,0,1.4-0.4,1.8-1.1
				C328.4,373,328.4,372.1,328,371.4z"/>
			<path d="M183.5,335c-5.5-2.8-12.4-1.8-21.2,3.1v-1.6l0.5,0c0.8,0,1.4-0.5,1.8-1.2c0.4-0.7,0.3-1.6-0.1-2.2
				c-0.4-0.6-1-0.9-1.7-0.8l-5.2,0.3c-1.4,0.1-2.1,1.3-2,2.3c0.1,1.2,0.9,2,2.1,1.9l0.5,0v52.5c-1.2-0.3-2.1,0.5-2.3,1.4
				c-0.3,1,0.1,2.3,1.4,2.7l5,1.5c0.2,0.1,0.4,0.1,0.6,0.1c0.9,0,1.6-0.7,1.9-1.5c0.3-1-0.1-2.3-1.4-2.7l-1-0.3v-23.2
				c3.6,2.3,11,6.3,17.6,4.7c3.5-0.8,6.2-3,8.1-6.6c3-5.5,5-14.4,2.7-21.6C189.4,339.6,187,336.7,183.5,335z M185.4,361.1
				c-1,2.4-2.4,5.2-5,6.4c-1.9,0.9-4.4,0.9-7.5,0.1c-3.4-1-7.4-3-10.6-5.5v-19.2c5.6-3.3,12-6.4,17.8-4.7c3.6,1.1,6.2,4.4,7,9.1
				C187.9,351.5,187.3,356.5,185.4,361.1z"/>
			<path d="M277.7,368.3l-0.5,0v-31.8l0.4,0c0.7,0,1.4-0.3,1.8-0.9c0.4-0.7,0.4-1.5,0.1-2.2c-0.4-0.7-1-1-1.8-1.1l-5.1-0.2
				c-1.4-0.1-2,1-2.1,2c0,1,0.7,2.2,2,2.2l0.5,0v32.1l-0.5,0c0,0,0,0,0,0c-1.4,0.1-2.1,1.2-2,2.3c0,1,0.7,2,2,2c0,0,0.1,0,0.1,0
				l5.2-0.2c0.8,0,1.4-0.4,1.8-1.1c0.4-0.7,0.3-1.6-0.1-2.2C279.1,368.6,278.5,368.3,277.7,368.3z"/>
			<path d="M143.1,351c-5.5-1.7-11.2-3.5-11-8.2c0.2-3.2,2.4-5.5,5.9-6.1c3.2-0.6,7.3,0.5,9.1,3.6l-0.3,0c-1.4,0.1-2.1,1.3-2,2.5
				c0.1,1.2,0.9,2,2.1,1.9l5.2-0.3c0.8-0.1,1.4-0.5,1.8-1.2c0.4-0.8,0.3-1.7-0.1-2.4c-0.4-0.6-1-0.9-1.7-0.8l-0.4,0
				c-1.7-4.7-6.2-7.8-11.8-7.8c0,0,0,0,0,0c-5.4,0-9.9,3.1-11.5,8c-1.7,5.5,1.3,10.2,8.5,13.1c1.1,0.5,2.4,0.8,3.7,1.3
				c5.3,1.7,10.8,3.4,8.9,10.3c-1.1,4-4.3,7.6-9,6.7c-2.9-0.6-5.5-2.7-7.3-5.8c1.3-0.2,1.9-1.4,1.8-2.5c-0.1-1.2-0.9-2-2.1-1.9
				l-5.2,0.3c-0.8,0.1-1.4,0.5-1.8,1.2c-0.4,0.8-0.3,1.7,0.1,2.4c0.4,0.6,1,0.9,1.7,0.8l0.8-0.1c1.8,4.3,5.3,7.9,9.3,9.4
				c1.4,0.5,2.8,0.8,4.1,0.8c1.7,0,3.4-0.4,5-1.2c3.6-1.8,6.4-6.2,7-10.8c0.5-3.9-0.5-7.3-3-9.6C149.4,352.9,146.4,352,143.1,351z
				 M129.1,365.5L129.1,365.5L129.1,365.5L129.1,365.5z"/>
		</g>
	</g>
	<g>
		<path class="st17" d="M263,108.5c-4.9-8.7-20.1-14.5-31.1-16c-13.8-1.9-29.7,1.7-43.8,3.1c-0.2,0-0.3-0.3-0.1-0.4
			c9-2.5,17.5-9,21.5-14.1c3.4-4.2,5.4-9,7.2-13.8c1.8-4.8,3.4-9.7,6-13.9c-3.4,1-6.9,2-10.3,3c-6.3,2-12.7,4.3-18.3,7.8
			c-2.8,1.7-5.4,3.8-7.6,6.1c-1.2,1.2-2.2,2.5-3.2,3.9c-0.5,0.7-1,1.4-1.4,2.2c-0.2,0.4-0.5,0.8-0.7,1.2c0,0-0.6,0.9-0.6,0.7
			c-0.1-0.5,0.2-1.1,0.3-1.6c0.1-0.5,0.2-1.1,0.3-1.6c1.7-12.4-6.6-25.2-11.1-37.9c-4,17.6-13,31.4-2.9,48.4
			c-12.2-1.7-29.7,17.1-22.2,30.6c5,8.5,18.4,13,27.6,13.7c1.3,0.1,2.5,0.4,3.5,0.8c-2.6,7.8-5.7,16.4-6.8,16.9
			c-2.1,0.9-7.6,5.7-2.2,5.3c1.1-0.1,2.3,0,3.4,0c-1.5,1.3-2.1,2.7,1,2.8c5.5,0.2,10.5,3.5,12.6-3.5c0.7-2.5,3.8-9.9,5.9-14.6
			c1.7,1.3,10.3,5.2,13.1,6.1c9.9,3.2,16.1,2.3,26.9,1.8c-12.3,5.3-9.8,11.6-2.5,11.1c0,0,13.9-0.1,22-3.3
			C260.9,148.7,277.6,133.1,263,108.5z"/>
		<g>
			<path class="st18" d="M210.4,65.1c-9.3,3.4-22.8,11.1-26.6,19.1c-1.4,3-2.2,6.3-2.2,6.3C198.6,86.5,205.3,72.1,210.4,65.1z"/>
			<path class="st18" d="M171.1,51.4c-1.2,8.8-5.8,23.4,1.7,30.3C181.4,68.9,172.9,57.3,171.1,51.4z"/>
		</g>
		<path d="M169.3,103.6c0,0-0.9-0.9-2.1-2.1c0.6-0.6,1.2-1.2,1.5-1.9c0.2-0.4,0-0.9-0.4-1c-0.4-0.2-0.9,0-1,0.4
			c-0.6,1.2-1.8,2.2-3.4,2.7c-2.2,0.7-4.6,0.5-6.5-0.6c-0.4-0.2-0.9-0.1-1.1,0.3c-0.2,0.4-0.1,0.8,0.3,1.1c0.7,0.4,1.4,0.7,2.1,0.9
			l-1.1,2.3l1.4,0.7l1.3-2.7c0.3,0,0.6,0.1,1,0.1c0.3,0,0.7,0,1-0.1c0.5,1.6,0.7,2.8,0.7,2.8c0.1,0.4,0.4,0.6,0.8,0.6
			c0,0,0.1,0,0.2,0c0.4-0.1,0.7-0.5,0.6-0.9c0-0.1-0.2-1.2-0.7-2.8c0.2,0,0.3-0.1,0.5-0.1c0.6-0.2,1.1-0.4,1.6-0.7
			c1.3,1.3,2.2,2.3,2.2,2.3c0.2,0.2,0.4,0.2,0.6,0.2c0.2,0,0.4-0.1,0.5-0.2C169.6,104.4,169.7,103.9,169.3,103.6z"/>
		<path class="st18" d="M262.1,127c2.8,9.6,14,9.1,16-2C281.6,105.2,256.6,108.1,262.1,127z"/>
		<path d="M143.4,109.9c0.1,2.1,0.7,4.3,1.8,6.2c0.6,1,1.3,2,2.2,2.9c0.6-1.4,1-3,1.1-4.2C148.6,112.9,145.4,111,143.4,109.9z"/>
	</g>
	<path class="st18" d="M361,171.1c0-2-0.8-3.4-2.2-4.3c0.1-0.9,0.1-1.7,0.1-2.5c0-1.3-0.1-2.5-0.3-3.7c1.2-1.3,1.8-3.1,1.8-4.7
		c0-3.3-2.3-5-5.2-5.1c-1.1-2-2.5-3.9-4.1-5.5c0.1-0.5,0.2-1.1,0.2-1.6c0-3.4-2.4-5.1-5.5-5.1c-1,0-1.9,0.3-2.7,0.8
		c-0.6-0.3-1.1-0.5-1.7-0.8c-2.2-0.9-4.6-1.6-7.1-1.9c-6.5-11.1-20.4-15-32.2-9.8c-2.4,1-0.3,4.5,2,3.5c8.9-3.9,19.1-1.5,25,6
		c-7.3,0.2-14.4,3.1-17.8,9.8c-4.9,9.5,1.7,20.2,12.5,19.1c11.8-1.2,15.6-14.2,12.5-24.1c1.5,0.4,2.9,0.9,4.3,1.6
		c-0.1,0.4-0.2,0.8-0.2,1.2c0,3.2,2.7,5.9,5.8,5.9c1,0,1.9-0.4,2.7-1c0.9,1,1.7,2.2,2.4,3.3c-1.1,1-1.8,2.5-1.8,4
		c0,2.9,2.3,5.5,5,5.9c0.1,1.3,0.2,2.7,0.1,4c-2.6,0.4-4.6,2.8-4.6,5.3c0,1.7,0.8,3.3,2.1,4.4c-0.8,1.7-1.9,3.3-3.1,4.7
		c-4.4-3.2-10.1-4.7-15.7-3.3c-3.6,0.9-7.6,3.3-5.7,7.5c2.1,4.9,10.3,4.7,14.6,4.1c2.6-0.4,4.9-1.4,6.9-2.9c1.6,1.8,2.8,3.9,3.6,6.3
		c2.8,9.1-1.5,18.6-9,23.9c-8.4,6-18.6,4.6-27.6,8.9c-4.9,2.3-8.5,6.8-9.4,12c-1.6,8.9-6.9-12-10.7-6.1c-1.3,2,1,6.3,1.6,7.9
		c2,5.2,4.8,9.9,7.7,14.6c0,0,0,0.1,0.1,0.1c0,0,0,0,0,0.1c3,4,6.3-2.4,8.5-5.4c2.5-3.4,4.9-6.9,6.8-10.6c0.6-1.2,2.4-3.8,2.2-5.2
		c-0.3-1.9-2.4-1.9-3.8-1c-1.6,1-3,3.3-4.2,4.8c-1,1.2-4.2,4.4-4.1,2.1c0.1-8.4,9.5-10.8,15.7-12c6.5-1.2,12.7-2.3,18.3-5.9
		c9.6-6.2,15.5-17.9,12-29.3c-0.9-3-2.5-5.6-4.5-7.9c1.6-1.7,2.8-3.8,3.9-6C359.1,177.3,361,173.8,361,171.1z M324.2,161.1
		c-4.9,0.9-9.6-1.6-10.3-6.8c-0.8-5.8,3.4-10.5,8.6-12.5c3-1.2,6.1-1.6,9.2-1.4C335.1,147.9,333.8,159.3,324.2,161.1z M340.6,184.9
		c-1.1,0.1-10.5,0.1-8.6-3c0.7-1.2,4.9-1.2,6.2-1.2c2.1,0.1,4.3,0.7,6.2,1.5c0.6,0.3,1.1,0.6,1.6,0.9
		C344.3,184.2,342.6,184.8,340.6,184.9z"/>
	<path class="st18" d="M83.7,243.5c-1.3-3.4-2.7-6.7-4.4-9.8c-0.6-1-1.6-3.5-2.7-4c-1.5-0.7-2.5,0.8-2.5,2.3c0,1.6,1,3.7,1.5,5.3
		c0.3,0.9,1,2.7,0.6,3.6c-4.3-1.8-6.8-5.3-8.1-9.5c0.6-0.7,1.1-1.5,1.4-2.3c0.8-2.5-0.4-4.4-2.5-5.4c0-1.9,0.1-3.8,0.3-5.7
		c1.4-0.7,2.6-2.1,3-3.5c0.7-2.1,0-3.8-1.5-4.8c0.5-1.9,1-3.6,1.6-5.1c0.3-0.9,0.7-1.9,1.1-2.8c2,1.8,4.5,3,7.5,3.5
		c8.6,1.2,21.1-8.9,14.4-17.8c-5.7-7.6-15.1-3.1-19.8,2.7c-1,1.2-1.9,2.6-2.8,4c-0.5-1-0.8-2.1-1.1-3.1c0.6-0.7,1.1-1.5,1.3-2.2
		c0.8-2.6-0.4-4.4-2.5-5.4C68.2,176,70.2,169,74,163c0,0,0-0.1,0.1-0.1c3.5,6,9.9,10.5,16.5,6.7c10.4-6,0.7-19.6-9-17.7
		c-2.2,0.4-4.3,1.5-6,2.9c0-0.1,0-0.1,0-0.2c-0.4-8.1,5.3-15.9,12-20c8.4-5.1,17.7-4,25.1,2.3c2,1.7,4.2-1.7,2.2-3.4
		c-8.4-7.1-19.7-8.3-29.2-2.5c-7.9,4.8-14.5,13.8-14.2,23.4c0,1.2,0.3,2.5,0.6,3.8c-4,5.2-6.4,12.4-7.2,17.8
		c-0.3,2.2-0.5,4.6-0.4,7.1c-1.1,0.6-2,1.5-2.4,2.7c-0.8,2.6,0.6,5.6,3.2,6.4c0.2,0.1,0.5,0.1,0.7,0.1c0.6,2,1.5,4,2.5,5.7
		c-1.6,3.3-2.8,6.9-3.7,10.6c-1.6,0.4-2.9,1.6-3.4,3.1c-0.7,2.1,0.2,4.5,1.9,5.7c-0.1,1.2-0.2,2.5-0.2,3.7c0,0.8,0,1.6,0,2.3
		c-1.2,0.5-2.1,1.6-2.5,2.8c-0.8,2.6,0.6,5.6,3.2,6.4c0.3,0.1,0.5,0.1,0.8,0.2c1.2,3.9,3.4,7.5,6.8,10.2c6.2,5-10.8-0.3-8.3,5.2
		c0.8,1.9,5,2.2,6.4,2.5c4.7,1,9.4,1.2,14.1,1.3c0,0,0.1,0,0.1,0c0,0,0,0,0.1,0C88,251.8,84.9,246.5,83.7,243.5z M80.7,188.6
		c2.4-1.5,5.1-1.8,7.6-0.4c3.7,2.1,2.8,6.4,0.5,9.3c-3,3.6-8.1,4.7-12.3,2.7c-1.3-0.6-2.4-1.5-3.3-2.5
		C75.1,194.1,77.5,190.7,80.7,188.6z M83.2,155.7c3.9-0.2,9.3,3.8,7.4,8.1c-2.1,4.8-8.1,2.8-10.9,0.1c-1.3-1.3-2.4-2.8-3.1-4.4
		C78.4,157.4,80.6,155.8,83.2,155.7z"/>
	<path class="st19" d="M107.2,336.9c-6.4,0-10.4,7.3-10.4,12.9c0,7.1,5,10.6,11.5,10.6c6.2,0,10.9-5.5,10.9-11.2
		C119.2,342.6,113.6,336.9,107.2,336.9z"/>
	<path class="st19" d="M335.9,245.8c-3.5,4.5-0.5,11.1,3.3,14.1c4.9,3.8,10.1,2.2,13.5-2.2c3.3-4.3,2.1-10.5-1.9-13.6
		C346.3,240.5,339.4,241.3,335.9,245.8z"/>
	<path class="st19" d="M297.2,175.9c-3.5,4.5-0.5,11.1,3.3,14.1c4.9,3.8,10.1,2.2,13.5-2.2c3.3-4.3,2.1-10.5-1.9-13.6
		C307.6,170.6,300.6,171.4,297.2,175.9z"/>
	<path class="st19" d="M91.6,222.6c-2.5,3.2-0.4,7.9,2.4,10.1c3.5,2.7,7.2,1.6,9.7-1.6c2.4-3,1.5-7.5-1.3-9.7
		C99.1,218.9,94.1,219.4,91.6,222.6z"/>
	<path class="st19" d="M112,90.1c-4.1,1-5.5,6.3-4.6,9.9c1.1,4.6,4.9,6,9,5c3.9-1,6.1-5.2,5.2-8.9C120.6,91.8,116.1,89,112,90.1z"/>
	<path class="st19" d="M342.8,361.3c-4.3,1.1-5.7,6.5-4.8,10.3c1.2,4.7,5.1,6.2,9.4,5.2c4.1-1,6.4-5.4,5.4-9.2
		C351.8,363.1,347.1,360.3,342.8,361.3z"/>
	<path class="st19" d="M67.7,264.8c-6.3,1.6-8.3,9.6-7,15c1.7,6.9,7.5,9.1,13.7,7.6c6-1.5,9.3-7.9,7.9-13.5
		C80.8,267.5,73.9,263.2,67.7,264.8z"/>
	<path class="st19" d="M298.7,91.9c-3.4,0.8-4.5,5.2-3.8,8.1c0.9,3.7,4,4.9,7.4,4.1c3.2-0.8,5-4.3,4.3-7.3
		C305.7,93.4,302,91.1,298.7,91.9z"/>
</g>
</svg>
