<?xml version="1.0" encoding="utf-8"?>
<!-- Generator: Adobe Illustrator 21.0.1, SVG Export Plug-In . SVG Version: 6.00 Build 0)  -->
<svg version="1.1" id="Calque_1" xmlns="http://www.w3.org/2000/svg" xmlns:xlink="http://www.w3.org/1999/xlink" x="0px" y="0px"
	 viewBox="0 0 432 432" style="enable-background:new 0 0 432 432;" xml:space="preserve">
<style type="text/css">
	.st0{fill:#C49548;}
	.st1{fill:#EE314C;}
	.st2{fill:#F9A01B;}
	.st3{fill:#F2663F;}
	.st4{fill:#875EA8;}
	.st5{fill:#F16883;}
	.st6{fill:#EF4684;}
	.st7{fill:#BC8BBE;}
	.st8{fill:#C49A6C;}
</style>
<g>
	<path d="M146.3,117.2c-3.7-1.6-7.4-3-11.3-4c-1.3-0.3-4-1.4-5.3-0.9c-1.7,0.6-1.3,2.6-0.2,3.7c1.3,1.3,3.7,2,5.3,2.8
		c1.3,0.6,4.7,2.7,3,3.2c-2.3-0.5-4.7-0.7-7.2-0.6c-10.7,0.6-21.1,7.5-23.9,18.5c-0.7,2.9-0.8,5.8-0.3,8.6c-2.1,0.7-4.1,1.8-6,3.1
		c-2.5-1.4-5.7,0.6-7,2.8c-1,1.7-1,3.2-0.4,4.5c-0.5,0.7-0.9,1.4-1.3,2.1c-0.6,1.1-1.1,2.1-1.6,3.2c-1.6,0.5-3,1.7-3.8,3
		c-1.6,2.7-0.7,5.2,1.6,6.7c-0.1,2.2,0.1,4.4,0.5,6.5c-0.4,0.4-0.7,0.8-1,1.2c-1.7,2.8-0.6,5.4,1.9,6.8c0.8,0.5,1.7,0.7,2.5,0.6
		c0.3,0.5,0.6,1,1,1.4c1.3,1.8,2.9,3.4,4.7,4.9c5.3,28.2,30,23.9,41.9,25.2c2.4,0.3,2.5-3.6,0.1-3.9c-9-1-32.1,2.9-38.1-18.7
		c5.9,3.3,12.9,4.2,18.9,0.3c8.5-5.5,8.6-17.5-0.5-21.7c-10-4.5-19.4,4.3-21.7,14c-1-1-1.9-2.2-2.7-3.3c0.3-0.3,0.5-0.6,0.7-0.9
		c1.6-2.6,0.8-6.2-1.7-7.6c-0.8-0.5-1.7-0.6-2.6-0.4c-0.2-1.3-0.3-2.6-0.3-3.9c1.4-0.3,2.7-1.2,3.4-2.5c1.4-2.4,0.9-5.6-1.1-7.2
		c0.5-1.2,1.2-2.3,1.9-3.4c2.3,1,5-0.1,6.3-2.2c0.9-1.4,1-3.1,0.6-4.6c1.5-1,3.1-1.8,4.8-2.4c1.9,4.8,5.7,8.7,10.9,10.2
		c3.3,1,7.6,0.9,8.2-3.5c0.7-5-5.9-8.7-9.6-10.3c-2.3-0.9-4.6-1.2-6.9-0.9c-0.4-2.2-0.3-4.6,0.2-6.9c2.2-8.8,10.3-14.6,18.9-15.5
		c2.8-0.3,5.3,0,7.8,0.6c4.7,1.6-9.4,8.7-3.5,10.9c2.1,0.8,5.7-2.1,7.1-3c4.5-2.9,8.3-6.4,12.2-9.9c0,0,0-0.1,0.1-0.1c0,0,0,0,0,0
		C156.2,120.2,149.6,118.5,146.3,117.2z M117.8,180.1c4.3,1.6,6.8,5.9,4.8,10.5c-2.2,5.2-7.9,7.1-13,6.3c-2.9-0.4-5.6-1.6-8-3.2
		C102.8,185.8,109.4,177,117.8,180.1z M116.6,152.7c0.9,0.4,8.4,4.9,5.4,6.5c-1.2,0.6-4.5-1.4-5.5-2c-1.6-1.1-3.1-2.6-4.1-4.2
		c-0.3-0.5-0.6-1-0.8-1.5C113.2,151.5,114.9,151.8,116.6,152.7z"/>
	<path d="M290.4,120.3C290.4,120.4,290.4,120.4,290.4,120.3c0.1,0.1,0.1,0.1,0.1,0.1c3,4.3,6,8.5,9.7,12.3c1.2,1.2,4,4.8,6.3,4.5
		c6.2-0.8-6-10.8-1.1-11.4c2.6,0,5.1,0.3,7.8,1.1c8.2,2.7,14.8,10.1,15.1,19.2c0.1,2.4-0.4,4.7-1.3,6.7c-2.2-0.7-4.5-1-7-0.6
		c-4,0.7-11.2,2.9-11.6,8c-0.4,4.4,3.8,5.5,7.3,5.2c5.4-0.4,9.9-3.4,12.8-7.6c1.5,0.9,2.9,2.1,4.2,3.4c-0.8,1.4-1,3.1-0.5,4.7
		c0.8,2.3,3.2,4,5.6,3.5c0.5,1.2,0.9,2.5,1.1,3.7c-2.3,1.2-3.5,4.2-2.6,6.8c0.5,1.4,1.5,2.5,2.8,3.1c-0.3,1.3-0.6,2.5-1.1,3.7
		c-0.8-0.3-1.7-0.4-2.6-0.1c-2.7,0.9-4.3,4.2-3.3,7.1c0.1,0.4,0.3,0.7,0.5,1.1c-1,1-2.1,1.9-3.3,2.7c-0.2-10-7.5-20.7-18.2-18.4
		c-9.8,2.1-12.3,13.8-5.2,21c5,5.1,12.1,5.7,18.6,3.8c-10.5,19.8-32.3,11-41.2,10.1c-2.4-0.3-3.1,3.5-0.7,3.8
		c11.9,1.3,35.1,10.8,46.4-15.6c2.1-1,4-2.3,5.6-3.8c0.4-0.4,0.8-0.8,1.3-1.2c0.8,0.2,1.7,0.2,2.6,0c2.7-0.9,4.3-3.1,3.3-6.3
		c-0.2-0.5-0.4-1-0.7-1.4c0.9-2,1.5-4.1,1.9-6.2c2.5-1,4-3.2,3-6.2c-0.5-1.4-1.6-3-3-3.8c-0.2-1.2-0.5-2.3-0.9-3.5
		c-0.2-0.8-0.5-1.5-0.9-2.3c0.9-1.1,1.2-2.7,0.6-4.5c-0.8-2.4-3.5-5.1-6.2-4.2c-1.6-1.7-3.3-3.2-5.2-4.3c1.1-2.6,1.7-5.5,1.6-8.5
		c-0.4-11.4-9-20.3-19.4-23.2c-2.4-0.7-4.8-0.9-7.1-1c-1.5-0.9,2.3-2.2,3.7-2.5c1.8-0.4,4.3-0.6,5.8-1.6c1.3-0.8,2.1-2.6,0.6-3.6
		c-1.2-0.7-4-0.3-5.3-0.3c-4,0.1-7.9,0.7-11.8,1.5C294.9,116,288.1,116.2,290.4,120.3z M325.4,199.7c-2.7,1.1-5.6,1.6-8.5,1.4
		c-5.1-0.3-10.3-3.4-11.3-8.9c-0.9-4.9,2.4-8.6,7-9.2C321.6,181.8,326.1,191.8,325.4,199.7z M325,156.5c-0.4,0.4-0.7,0.9-1.1,1.3
		c-1.4,1.4-3.1,2.5-4.9,3.2c-1.1,0.4-4.7,1.6-5.8,0.7c-2.6-2.3,5.7-5,6.6-5.2C321.6,156,323.3,156,325,156.5z"/>
	<g>
		<g>
			<path class="st0" d="M227.5,211.9c0.1,2,0.1,4,0.2,6c0.1,1.8,0.2,3.7,0.3,5.5c0.2,3.2,0.5,6.5,0.5,9.7c0.1,4.3,0.6,8.6,1.1,12.9
				c0.3,2.6,0.6,5.2,0.9,7.8c0.1,0.8-0.2,1.5-0.8,2.1c-0.6,0.6-1.7,0.7-2.4,0.2c-0.6-0.4-1-1-1.2-1.7c-0.3-2.1-0.7-4.3-1-6.4
				c-0.6-3.8-1-7.7-1.7-11.5c-1-5.7-1.7-11.4-1.8-17.1c-0.1-4.2,0-8.4,0.1-12.5c0-1.2,0.2-2.4,0.8-3.5c0.1-0.3,0.3-0.6,0.5-0.8
				c0.5-0.4,0.9-0.9,1.3-1.4c0.5-0.7,1.5-0.8,2.2-0.2c0.4,0.3,0.7,0.8,1,1.2c1.6,2.7,3.2,5.4,4.8,8.1c1.1,2,2.1,4,3.1,6
				c2.6,4.8,5.3,9.6,7.9,14.4c1.9,3.5,3.9,7,5.9,10.5c0.3,0.5,0.5,1,1,1.5c0-0.2,0-0.4,0-0.6c-0.1-5.9,0.1-11.7,0.4-17.5
				c0.3-5.9,0.6-11.8,0.8-17.7c0.1-1.2,0.2-2.3,0.3-3.5c0-0.4,0.2-0.8,0.4-1.1c0.2-0.2,0.6-0.4,0.8-0.3c0.4,0,0.4,0.4,0.4,0.8
				c-0.1,1.7-0.2,3.3-0.3,5c-0.4,8.6-0.9,17.2-0.6,25.8c0.2,4.7,0.3,9.5,1.1,14.2c0.2,1.1,0.4,2.3,0.5,3.4c0.1,0.4,0.1,0.8,0.1,1.2
				c-0.2,1.2-1.6,1.9-2.7,1.3c-0.9-0.4-1.5-1.2-2-2c-1-1.6-2-3.2-3-4.8c-1.3-2.2-2.6-4.4-3.9-6.7c-1.2-2-2.3-4-3.4-5.9
				c-1.3-2.3-2.7-4.6-4-7c-1.2-2.2-2.4-4.4-3.5-6.6c-1.1-2.1-2.1-4.3-3.1-6.4c-0.3-0.6-0.5-1.3-0.8-1.9
				C227.6,211.9,227.6,211.9,227.5,211.9z"/>
			<path class="st0" d="M161.4,236.3c5.9-0.8,11.8-1.6,17.6-2.4c0.2,0,0.4-0.1,0.6-0.2c-0.1-1.1-0.1-2.2-0.3-3.2
				c-0.6-4.5-1-9.1-1.2-13.6c-0.1-3.1-0.1-6.3-0.1-9.4c0-0.9,0.1-1.9,0.3-2.8c0.1-0.4,0.2-0.9,0.5-1.3c0.6-1,1.8-1.2,2.7-0.3
				c0.4,0.5,0.7,1.1,0.9,1.7c0.6,2,0.8,4.1,1,6.2c0.2,2,0.4,4.1,0.6,6.1c0.2,2,0.3,3.9,0.5,5.9c0.2,1.9,0.3,3.8,0.5,5.6
				c0.2,1.8,0.4,3.6,0.6,5.3c0.2,2.7,0.4,5.5,0.6,8.2c0.1,1.7,0.1,3.4,0.2,5.1c0.1,2.5,0.4,5,0.5,7.5c0,0.5-0.1,1-0.3,1.5
				c-0.3,0.7-0.9,1-1.7,0.9c-0.7-0.1-1.1-0.5-1.3-1.3c-0.3-1.7-0.6-3.3-0.9-5c-0.4-2.2-0.8-4.4-1.2-6.5c-0.4-2.4-0.8-4.8-1.2-7.1
				c0-0.2-0.1-0.4-0.1-0.6c-3.1,0.6-6.1,1.2-9.2,1.7c-3,0.4-6.1,0.7-9.2,1c0,1,0,1.9,0,2.8c0,1.4,0,2.7,0.1,4.1c0,2.3,0,4.6,0,6.9
				c0,0.3,0,0.7-0.1,1c-0.1,0.7-0.5,1.1-1.1,1.2c-0.6,0.1-1.1-0.2-1.4-0.8c-0.2-0.4-0.3-0.8-0.4-1.2c-0.6-3.3-1.2-6.7-1.7-10
				c-0.4-2.6-0.6-5.3-0.8-7.9c-0.2-2.2-0.5-4.4-0.7-6.6c-0.2-2.6-0.4-5.2-0.6-7.8c-0.3-3.3-0.6-6.6-0.8-10c-0.1-2.3-0.2-4.6-0.2-6.9
				c0-0.9,0.1-1.8,0.3-2.7c0.2-0.9,0.8-1.5,1.8-1.6c0.9-0.1,1.6,0.4,2,1.2c0.2,0.4,0.3,0.8,0.4,1.2c0.2,0.9,0.4,1.9,0.5,2.8
				c0.5,4.8,1,9.7,1.4,14.5c0.4,5,0.6,10.1,1,15.1C161.2,235,161.3,235.6,161.4,236.3z"/>
			<path class="st0" d="M266.8,202.8c-1.1-0.1-6.4,0-7.3-0.1c-0.7-0.1-1.3-0.1-1.9-0.2c-0.3,0-0.6-0.2-0.8-0.3
				c-0.5-0.2-0.9-0.6-0.9-1.2c0-0.6,0.4-1,0.9-1.3c1-0.4,2-0.4,3-0.4c5.2-0.1,11.6,0.6,16.8,1c1.7,0.1,3.5,0.2,5.2,0.3
				c0.7,0,1.1,0.3,1.2,0.8c0.1,0.6-0.2,1.2-0.8,1.4c-0.4,0.1-0.8,0.2-1.1,0.2c-2.2,0-4.4-0.1-6.6-0.2c-2-0.1-0.6-0.1-2.7-0.1
				c0.1,0.7,0.2,1.3,0.2,1.9c0,2.1,0,4.1,0,6.2c0,2.3,0,4.7-0.1,7c0,3.5-0.1,7-0.2,10.6c0,2.2,0,4.3,0,6.5c-0.1,2.7-0.2,5.5-0.2,8.2
				c0,3.4,0,6.9,0,10.3c0,0.7,0,1.4-0.1,2c-0.1,1.1-0.9,1.8-1.9,1.8c-1.1,0-1.8-0.6-1.9-1.8c-0.2-1.5-0.2-3-0.3-4.5
				c-0.3-3.2-0.7-6.4-0.9-9.6c-0.3-3.7-0.5-7.4-0.6-11c-0.1-2.3,0-4.6,0.1-6.9c0.1-3.2,0.1-6.4,0.2-9.6c0.1-3.1,0.4-6.1,0.6-9.2
				C266.5,204.1,266.7,203.5,266.8,202.8z"/>
			<path class="st0" d="M217,204.9c-0.1-1.6-0.2-3.1-0.3-4.7c0-0.6-0.4-1-1-1.1c-0.7-0.1-1.2,0.2-1.4,0.7c-0.2,0.4-0.3,0.9-0.4,1.4
				c-0.1,1-0.1,2-0.1,3c-0.3,7.1-0.5,14.1-0.9,21.2c-0.3,6.3-0.9,12.6-2.1,18.9c-0.5,2.4-1.1,4.8-2.2,7.1c-0.3,0.7-0.8,1.4-1.3,1.9
				c-0.7,0.8-1.5,0.7-2.1-0.1c-0.5-0.5-0.9-1.1-1.1-1.8c-1.7-4.3-2.6-8.8-3.5-13.3c-0.6-3.5-1.1-7-1.6-10.5c0,0-0.1,0-0.1,0
				c-0.2-1.5-0.4-3-0.6-4.5c-0.6-4.8-1.4-9.6-2.8-14.3c-0.4-1.4-0.9-2.8-1.9-4c-0.7-0.8-1.5-1.4-2.7-1.3c-1.5,0.1-2.7,1.1-2.7,2.7
				c-0.1,1.4,0.1,2.7,0.2,4.1c0.3,3.2,0.7,6.3,1.1,9.4c0.2,1.6,0.5,3.3,0.7,4.9c0.4,2.5,0.7,4.9,1.2,7.4c0.7,3.6,1.5,7.2,2.6,10.7
				c1,3.2,2.2,6.4,3.9,9.5c0.9,1.5,2,2.9,3.5,3.9c3.7,2.6,7.9,1.7,9.8-1.5c0.9-1.4,1.7-2.9,2.2-4.4c1.5-4.1,2.2-8.4,2.8-12.7
				c0.5-3.5,0.8-7,1-10.5c0.2-3.6,0.3-7.1,0.3-10.7C217.4,212.5,217.2,208.7,217,204.9z"/>
		</g>
		<g>
			<path class="st1" d="M266.1,336.8c-0.1-3.3-0.6-6.6-2.2-9.7c-0.7-1.4-1.6-2.6-2.9-3.5c-0.2-0.1-0.3-0.2-0.5-0.3
				c-0.9-0.5-1.5-0.3-1.9,0.6c-0.3,0.8-0.6,1.7-0.7,2.6c-0.2,1.8,0,3.6,0.4,5.3c0.9,4.4,3,8.3,5.2,12.1c1.2,2,2.4,3.9,3.4,5.9
				c1.5,2.9,2.7,5.9,3.1,9.1c0.6,5-1.9,10.4-7.1,12.4c-3.1,1.2-7.1,0.2-8.7-2.7c-0.4-0.7-0.7-1.5-0.9-2.4c-0.3-1.1-0.5-2.2-0.6-3.3
				c-0.1-0.6,0-1.2,0.1-1.7c0.1-0.6,0.5-1.1,1-1.4c0.2-0.1,0.6-0.1,0.8,0c0.2,0.1,0.3,0.5,0.3,0.7c-0.9,1.8-0.1,3.4,0.6,5
				c0.3,0.7,0.8,1.4,1.3,1.9c1.4,1.6,3.5,1.6,5.2,0.3c1.7-1.4,2.7-3.2,3-5.3c0-0.3,0-0.7,0-1c-0.3-2.9-1.3-5.6-2.8-8.2
				c-1.7-3-3.4-6-5.2-8.9c-1.6-2.7-2.8-5.5-3.7-8.5c-0.7-2.2-1.2-4.5-1.2-6.8c-0.1-3.4,0.8-6.5,3.3-9c1.6-1.5,4.3-2,6.4-0.5
				c1.6,1,2.7,2.5,3.6,4c2.1,3.6,3.2,7.6,3.2,11.8c0,1.1-0.3,2.1-0.6,3.2c-0.1,0.3-0.3,0.7-0.6,0.9c-0.6,0.5-1.2,0.3-1.4-0.5
				c-0.1-0.3-0.1-0.6,0-0.9C266,337.7,266.1,337.3,266.1,336.8z"/>
			<path class="st1" d="M217.9,367.7c0.4-0.5,0.8-0.8,1.1-1.2c0.6-1,1.1-2,1.5-3.1c1.1-2.8,2.1-5.7,2.8-8.6c0-0.1,0-0.3,0-0.5
				c-0.3,0-0.5,0.1-0.8,0.1c-0.7,0-1.4,0-2.1-0.2c-0.5-0.1-0.9-0.5-1-1.1c-0.1-0.5,0.3-1.1,0.9-1.4c0.4-0.2,0.9-0.3,1.3-0.3
				c2,0,4.1,0,6.1,0c0.4,0,0.8,0.2,1.2,0.4c0.4,0.3,0.5,0.9,0.3,1.3c-0.2,0.4-0.6,0.5-1,0.5c-1,0-1.9,0.1-2.9,0.1
				c-0.1,0.5-0.2,0.8-0.3,1.2c-0.6,4.1-1.9,8-3.2,11.8c-0.4,1.2-1.1,2.2-2,3c-1.1,0.9-2.4,1.1-3.7,0.5c-1.7-0.8-2.9-2.2-3.8-3.8
				c-1.7-2.9-2.8-6-3.6-9.2c-1.5-6.6-1.4-13.3-0.7-20c0.4-3.6,1.2-7.1,2.8-10.4c1-2,2.1-3.8,3.8-5.2c2.8-2.3,6.4-2.3,8.6,0.8
				c1.8,2.5,2.9,5.4,2.6,8.7c-0.1,0.6-0.2,1.3-0.5,1.9c-0.2,0.6-0.7,0.8-1.3,0.7c-0.5-0.1-0.8-0.5-0.8-1.1c0-0.4,0-0.8,0-1.2
				c0.1-2.5-0.8-4.6-2.3-6.4c-0.8-1-1.9-1-2.8,0c-1,1-1.5,2.2-2,3.5c-1.2,3.2-1.8,6.6-2.1,10c-0.2,2.5-0.3,5.1-0.3,7.6
				c0,2.3,0.2,4.7,0.4,7c0.3,3.1,0.7,6.2,1.5,9.2c0.4,1.5,0.9,2.9,1.5,4.3C217.2,366.9,217.6,367.2,217.9,367.7z"/>
			<path class="st1" d="M187.6,323.9c0.6,2.7,0.8,5.3,0.9,8c0.1,3.8,0.3,7.7,0.4,11.5c0.1,3.4,0.3,6.8,0.4,10.2c0,0.1,0,0.3,0.1,0.5
				c0.6,0.1,1.2,0.1,1.7,0.2c1.5,0.2,3,0.4,4.6,0.5c0.8,0.1,1.1,0.3,1.1,0.8c0,0.5-0.4,0.7-1.2,0.8c-1.8,0.1-3.5,0.1-5.3,0.2
				c-0.3,0-0.6,0.1-0.8,0.1c-0.1,0.1-0.1,0.2-0.1,0.2c0,2.7,0.1,5.4,0.1,8c0,1.2,0.7,1.9,1.7,2.3c1.2,0.5,2.5,0.7,3.7,0.6
				c2-0.2,3.9-0.5,5.9-0.8c1.2-0.2,2.3-0.4,3.5-0.6c0.4-0.1,0.8,0,1,0.4c0.2,0.4,0.2,0.9-0.2,1.2c-0.3,0.2-0.6,0.4-0.9,0.5
				c-2.9,0.8-5.8,1.6-8.8,1.9c-3,0.3-5.8-0.4-8-2.6c-0.9-0.8-1.4-1.9-1.8-3c-1.1-2.7-1.5-5.5-1.9-8.4c-0.5-3.9-0.8-7.9-0.9-11.9
				c-0.1-4.9-0.2-9.9-0.2-14.8c0-2.3,0.4-4.5,0.6-6.8c0.1-0.9,0.8-1.4,1.6-1.7c1.2-0.6,2.5-0.9,3.8-1c3.7-0.3,7.4,0,11.2,0.2
				c0.7,0,1.4,0.1,2.1,0.2c0.4,0.1,0.9,0.2,1.3,0.4c0.5,0.2,0.8,0.7,0.7,1.2c-0.1,0.5-0.4,0.9-1,0.9c-1.1,0.1-2.3,0.2-3.4,0.2
				c-3.5,0.1-7.1,0.1-10.6,0.2c-0.3,0-0.7,0-1,0.1C187.8,323.7,187.7,323.8,187.6,323.9z"/>
			<path class="st1" d="M245,353.3c-0.4,0-0.7,0-1-0.1c-0.4-0.1-0.7-0.1-1.1-0.2c-0.5-0.2-0.8-0.6-0.9-1.2c0-0.6,0.3-1,1-1.3
				c0.3-0.1,0.7-0.2,1.1-0.2c1.6,0,3.3,0.1,4.9,0.1c0.4,0,0.7,0.2,0.8,0.7c0.1,0.5-0.1,1-0.5,1.2c-0.4,0.2-0.9,0.3-1.4,0.4
				c-0.8,0.2-0.8,0.1-1,1.1c-0.6,3.6-1.4,7.3-2.4,10.8c-0.6,1.9-1.5,3.5-2.9,4.8c-1.7,1.7-3.6,1.4-5.3-0.1c-1.1-1-1.8-2.3-2.4-3.7
				c-1.5-3.3-2.4-6.7-3-10.3c-0.3-2.3-0.4-4.6-0.7-6.8c-0.4-3.3-0.3-6.6-0.2-9.9c0.2-4,0.8-7.9,2.1-11.6c0.6-1.7,1.5-3.2,2.6-4.6
				c1.3-1.6,2.9-2.4,4.8-2.4c1,0,1.9,0.6,2.8,1.3c1.6,1.3,2.7,3.1,3.6,5.1c1.1,2.4,1.9,4.9,2.1,7.6c0,0.9,0,1.8-0.1,2.7
				c-0.1,0.5-0.3,0.9-0.5,1.3c-0.5,0.7-1.3,0.7-1.7-0.1c-0.3-0.5-0.4-1.1-0.5-1.7c-0.2-1.8-0.4-3.6-1-5.3c-0.6-1.8-1.4-3.3-2.5-4.8
				c-0.3-0.4-0.6-0.7-1-1c-0.7-0.6-1.2-0.6-1.6,0.3c-0.5,0.9-1,1.8-1.3,2.7c-1.1,3.7-1.5,7.5-1.5,11.3c0,2.4,0.1,4.9,0.1,7.4
				c-0.1,3.8,0.4,7.5,0.7,11.2c0.3,2.7,0.7,5.4,1.7,7.9c0.1,0.2,0.1,0.3,0.2,0.5c0.4,0.8,0.7,0.9,1.3,0.3c0.6-0.8,1.3-1.7,1.7-2.7
				c0.8-1.9,1.4-3.8,2-5.7c0.4-1.3,0.7-2.6,1.1-3.9C244.9,354,244.9,353.7,245,353.3z"/>
		</g>
		<g>
			<path d="M250.3,278.7c5.2,0.2,10.4,0.8,15.5,0.6c0-2.4,0-4.7,0-7c0-2.7-0.1-5.3,0.4-8c0.1-0.8,0.4-1.6,0.6-2.3
				c0.1-0.3,0.3-0.6,0.5-0.9c1.1-1.4,2.9-1.3,3.7,0.4c0.4,0.9,0.6,1.8,0.7,2.8c0.6,3.9,0.9,7.9,1,11.9c0,0.8,0.1,1.7,0.2,2.6
				c0.3,0,0.5,0,0.7,0c1.2-0.2,2.5-0.4,3.7-0.7c0.9-0.2,1.3,0,1.5,0.5c0.2,0.5-0.2,1.1-1,1.4c-1.3,0.4-2.6,0.8-3.9,1.2
				c-0.3,0.1-0.6,0.2-0.9,0.3c-0.2,6.1,2.2,29.5,3.3,31.9c0.9-0.3,1.5-1,2.1-1.7c2.3-2.4,4.3-5,6.1-7.9c0.2-0.4,0.5-0.8,0.8-1.1
				c0.5-0.6,0.9-0.7,1.3-0.5c0.4,0.2,0.5,0.7,0.2,1.4c-0.5,1.1-0.9,2.2-1.6,3.2c-1.8,2.6-3.6,5.1-5.5,7.5c-0.7,0.9-1.6,1.6-2.7,1.9
				c-1.2,0.3-2.3,0.1-3.3-0.8c-1.2-1.2-1.9-2.7-2.5-4.2c-1.5-3.8-2.7-7.8-3.6-11.9c-0.3-1.4-0.5-2.8-0.8-4.5
				c-0.2,0.4-0.4,0.6-0.5,0.8c-2.4,4.9-4.8,9.8-7.3,14.7c-0.8,1.5-1.8,3-2.9,4.3c-1.8,2.1-4.3,1.9-6.1-0.3c-1.2-1.5-1.9-3.2-2.5-4.9
				c-1.2-3.3-2-6.6-2.7-10.1c-1-5.3-1.3-10.8-1.5-16.2c0-0.1,0-0.3-0.1-0.5c-1-0.2-1.9,0-2.8,0.2c-2.5,0.5-5,1.1-7.6,1.6
				c-0.6,0.1-1.2,0.3-1.6-0.2c-0.4-0.5-0.3-1.2,0.1-1.9c0.5-0.7,1.3-1.2,2.1-1.6c2.1-1,4.3-1.4,6.5-1.7c1.1-0.2,2.1-0.3,3.3-0.5
				c0-1.4,0-2.7,0-4c0-2.3,0-4.6,0.1-6.9c0-0.7,0.2-1.5,0.4-2.2c0.3-1.1,1.1-1.7,2.1-1.7c1,0,1.7,0.6,2.1,1.5c0.7,1.7,1,3.5,1.3,5.4
				c0.2,2.2,0.4,4.3,0.6,6.5C250.2,277.9,250.2,278.2,250.3,278.7z M250.5,282.4c0,0.4-0.1,0.6-0.1,0.8c0.2,4.2,0.4,8.4,0.6,12.6
				c0.2,4.6,0.6,9.2,1.3,13.8c0.2,1.1,0.5,2.2,0.8,3.2c0.3,0.8,0.8,0.9,1.5,0.5c0.6-0.4,1.1-0.9,1.5-1.4c0.8-1,1.5-2.1,2.1-3.3
				c2.7-5.4,5.4-10.8,8-16.2c0.4-0.8,0.6-1.5,0.4-2.3c-0.2-0.8-0.2-1.7-0.2-2.5c-0.1-1.6-0.2-3.2-0.3-5
				C260.8,283.2,255.7,282.4,250.5,282.4z"/>
			<path d="M318.3,288.6c0,1.4-0.1,2.9-0.1,4.3c-0.1,4.1-0.5,8.2-2.3,12.1c-1.2,2.5-2.8,4.8-5.1,6.7c-1.7,1.4-3.5,2.5-5.5,3.4
				c-2.5,1-5.2,1.5-8,1.3c-3.9-0.3-7.4-2.7-7.7-6.8c-0.2-3.6,1.5-6.7,4.3-9.3c2.2-2.1,4.9-3.6,7.7-5.1c2.8-1.5,5.7-2.8,8.5-4.3
				c0.3-0.2,0.6-0.3,0.9-0.5c0.3-1.6-0.5-15.5-1-17.2c-0.2,0.4-0.3,0.7-0.4,1.1c-1.3,3.4-2.7,6.8-4.6,10c-0.7,1.2-1.5,2.3-2.3,3.4
				c-0.7,1-1.6,1.8-2.7,2.4c-2,1.1-4.1,1.1-6.1,0c-1.5-0.8-2.7-1.9-3.8-3.2c-1.9-2.3-3.1-4.8-3.7-7.5c-0.4-1.7-0.8-3.5-0.8-5.3
				c0-1.7-0.3-3.4-0.3-5.1c0-1.4-0.1-2.8,0.4-4.1c0.2-0.4,0.4-0.9,0.7-1.3c1-1.2,2.8-1.2,3.8-0.1c0.4,0.4,0.7,1,0.8,1.5
				c0.3,1.2,0.6,2.4,0.7,3.7c0.4,2.7,0.7,5.5,1.1,8.2c0.3,2.3,0.7,4.5,1.6,6.7c0.5,1.2,1.1,2.4,1.7,3.5c0.2,0.3,0.5,0.6,0.8,0.9
				c0.6,0.5,1.3,0.6,2.1,0.3c0.5-0.2,1.1-0.5,1.4-0.9c0.9-0.9,1.8-1.9,2.4-3c2.9-4.7,5.1-9.6,6.1-14.8c0.3-1.6,0.7-3.1,0.6-4.7
				c0-0.5,0.1-0.9,0.3-1.4c0.4-1.2,1.8-1.8,3.2-1.5c1.3,0.3,2.2,1,2.7,2.1c0.5,1.4,0.8,2.8,0.9,4.2c0.1,1.4,0.4,2.9,0.5,4.3
				c0.3,3.2,0.5,6.3,0.7,9.5c0.1,1.5,0.2,3.1,0.3,4.7c0.9-0.4,1.6-0.7,2.3-1c1-0.4,2-0.9,2.9-1.4c0.5-0.2,0.8-0.3,1.2,0.1
				c0.3,0.3,0.2,0.8-0.3,1.1c-0.2,0.2-0.5,0.3-0.8,0.4C321.9,286.9,320.1,287.7,318.3,288.6z M311.3,292c-0.3,0.1-0.6,0.2-0.7,0.3
				c-3.6,1.6-7.2,3.3-10.6,5.4c-1.4,0.9-2.7,1.8-4,2.8c-2.4,2-3.9,4.4-4.3,7.3c-0.5,3.6,3.2,6.1,6.2,6.1c1.8,0,3.5-0.4,5-1.2
				c3.5-1.9,5.5-4.8,6.6-8.1c0.9-2.9,1.2-5.8,1.5-8.8C311.2,294.5,311.2,293.3,311.3,292z"/>
			<path d="M146.7,280.9c0.6-2.2,1.1-4.4,1.8-6.6c1.7-5.3,4.4-10.1,8-14.3c0.9-1.1,2.1-2,3.6-2.2c1.9-0.3,3.4,0.3,4.9,1.3
				c1.3,0.9,2.3,2.1,3.2,3.4c2.2,3.2,3.5,6.8,4.4,10.6c1.1,4.6,1.2,9.1,0.6,13.8c-0.4,3.2-1.3,6.3-2.8,9.2c-2.1,4.2-5.4,7.1-10,8.3
				c-3,0.8-5.5,0-7.5-2.5c-0.4-0.5-0.7-1-0.9-1.6c-0.6-2-1.1-4-1.6-6c-0.2-0.6-0.1-1.3,0.3-1.9c0.3-0.3,0.6-0.6,1-0.4
				c0.5,0.2,0.5,0.6,0.4,1c-0.1,0.4-0.1,0.8,0,1.2c0.4,1.5,0.9,3.1,1.4,4.5c0.4,1,1.1,1.7,2,2.3c1.1,0.8,2.3,0.9,3.6,0.3
				c2.2-0.9,3.8-2.6,4.9-4.6c1.2-2.3,1.8-4.7,2.2-7.2c0.7-4.3,0.8-8.7,0.1-13c-0.5-3.3-1.3-6.5-2.6-9.6c-0.5-1.3-1.2-2.6-2.2-3.7
				c-0.2-0.2-0.3-0.4-0.5-0.6c-0.9-0.9-1.6-1-2.6-0.3c-0.8,0.6-1.6,1.2-2.2,2c-2.6,3-4.4,6.4-5.7,10.1c-1.8,4.9-2.6,10-2.8,15.2
				c-0.1,1.5,0.3,3,0.4,4.5c0.4,4.5,0.8,8.9,1.1,13.4c0.2,2.8,0.3,5.7,0.3,8.5c0,0.7-0.1,1.3-0.2,2c0,0.3-0.1,0.6-0.3,0.8
				c-0.5,0.8-1.5,0.8-1.9-0.1c-0.3-0.7-0.5-1.4-0.7-2.1c-1.2-4.4-2.3-8.8-3.1-13.3c-0.6-3.7-1.3-7.4-1.9-11.1
				c-0.6-3.9-1.1-7.9-1.5-11.9c-0.4-3.7-0.6-7.5-0.7-11.3c-0.1-1.9,0.2-3.9,0.3-5.8c0-0.1,0-0.2,0.1-0.3c0.3-0.9,0.7-1.5,1.7-1.7
				c1-0.1,1.7,0.2,2.1,1.1c0.5,1,0.9,2.1,1.2,3.2c0.9,3.7,1.2,7.6,1.6,11.4c0.1,1.4,0.4,2.8,0.6,4.2
				C146.6,280.9,146.7,280.9,146.7,280.9z"/>
			<path d="M190.3,295.8c1.6,1.1,2.9,2.4,3.9,4c0.7,1.1,1.3,2.2,1.8,3.3c1.3,2.7,2.1,5.6,2.9,8.5c0.2,0.6,0.4,1.1,0.6,1.7
				c0.8-0.4,1.1-1,1.4-1.6c1.3-2.4,2.5-4.8,3.7-7.2c0.3-0.5,0.4-1,0.7-1.5c0.2-0.3,0.4-0.7,0.7-0.8c0.2-0.1,0.7-0.2,0.9-0.1
				c0.2,0.1,0.4,0.5,0.5,0.8c0,0.3-0.1,0.7-0.2,1.1c-1.2,3.6-2.9,7-4.8,10.3c-0.3,0.6-0.7,1.1-1.2,1.5c-1.3,1.1-2.7,1.1-4.1,0
				c-1.5-1.2-2.2-2.9-2.9-4.5c-1-2.4-1.8-4.8-2.8-7.2c-0.6-1.3-1.3-2.6-2.1-3.9c-0.8-1.2-1.9-2.1-3.5-2.5c-0.3,1.7-0.4,3.4-0.4,5.1
				c0,2.1,0.1,4.1,0.1,6.2c0,0.4,0,0.9-0.1,1.3c-0.2,1-0.8,1.6-1.6,1.7c-0.8,0.1-1.6-0.5-1.8-1.5c-0.3-1-0.4-2.1-0.5-3.2
				c-0.4-3.1-0.8-6.1-1.4-9.2c-0.5-2.6-0.7-5.2-1-7.8c-0.2-1.9-0.4-3.8-0.5-5.7c-0.4-4.9-0.9-9.9-0.7-14.8c0-0.8,0.2-1.6,0.5-2.4
				c0.6-1.5,1.8-1.9,3.3-1.3c0.1,0,0.2,0.1,0.3,0.1c1.1-1,2.2-2,3.4-2.8c3.2-2.2,6.7-3.5,10.7-3.3c3.8,0.2,6.5,2.1,8.4,5.3
				c1.5,2.5,1.9,5.3,2,8.2c0.1,3.3-0.7,6.5-2.2,9.5c-0.9,1.8-2.1,3.4-3.4,4.9c-2.1,2.3-4.5,4.3-7.1,5.9c-0.8,0.5-1.6,0.9-2.4,1.4
				C190.8,295.5,190.6,295.6,190.3,295.8z M185.8,294.3c0.2-0.2,0.4-0.2,0.5-0.3c2.9-2.5,5.8-5.2,8.2-8.2c1.6-2,2.9-4.2,3.9-6.5
				c1.5-3.6,1.9-7.3,1-11.1c-0.8-3.5-3.6-4.9-6.7-4.6c-3.5,0.3-6.4,2-9,4.3c-0.4,0.3-0.5,0.7-0.4,1.2c0.6,2.3,1,4.6,1.2,7
				c0.4,4.4,0.8,8.9,1.1,13.4C185.7,291,185.7,292.6,185.8,294.3z"/>
			<path d="M219.6,295.6c0.7,0,1.3,0,1.9-0.1c1.3-0.2,2.6-0.4,3.9-0.6c0.7-0.1,1.5-0.4,2.2-0.7c0.5-0.2,0.9-0.3,1.3,0.2
				c0.4,0.4,0.3,0.9,0.1,1.3c-0.3,0.6-0.8,1-1.4,1.2c-1.3,0.4-2.5,0.8-3.8,1.2c-1.3,0.4-2.7,0.7-4.1,1.1c0,0.2-0.1,0.5-0.1,0.7
				c0,2.7-0.1,5.5-0.1,8.2c0,0.8,0.1,1.7,0.3,2.5c0.3,1.1,0.9,1.5,2,1.6c1.5,0.1,3-0.2,4.5-0.7c1.1-0.4,2.2-0.9,3.3-1.3
				c1.1-0.5,2-1.1,2.7-2c0.1-0.1,0.2-0.3,0.4-0.4c0.4-0.3,0.8-0.5,1.3-0.2c0.4,0.3,0.6,0.8,0.4,1.4c-0.3,1.1-0.9,2-1.8,2.5
				c-1.5,0.9-3,1.8-4.5,2.6c-1.4,0.6-2.8,1.1-4.3,1.4c-1.6,0.3-3.3,0.2-4.8-0.6c-0.8-0.5-1.5-1.1-2-1.9c-1.1-1.9-1.6-3.9-2.2-6
				c-1.2-4.5-1.6-9.1-1.9-13.7c-0.5-6.4-0.6-12.8-0.5-19.2c0.1-2.5,0.1-5,0.5-7.5c0.4-2.4,2-3.7,4.1-4.4c0.7-0.2,1.4-0.4,2.2-0.4
				c3.6-0.2,7.2-0.3,10.8-0.5c0.7,0,1.1,0.2,1.3,0.8c0.2,0.6,0,1.2-0.6,1.5c-0.4,0.2-0.9,0.4-1.3,0.5c-2.2,0.3-4.4,0.6-6.6,0.9
				c-1.5,0.2-3.1,0.4-4.6,0.6C219.6,275.5,219.3,285.5,219.6,295.6z"/>
		</g>
		<g>
			<path class="st0" d="M142.7,191.2c-0.3-1.5-0.7-2.8-0.8-4.3c-0.3-2.5-0.5-5.1-0.7-7.6c-0.2-3.1-0.4-6.3-0.6-9.4
				c-0.1-2.6-0.1-5.2-0.1-7.8c0-3.4,0.2-6.8,0.3-10.2c0-0.8,0.2-1.7,0.3-2.6c-0.6,0-1.1,0.1-1.5,0c-0.8-0.1-1.5-0.2-2.3-0.4
				c-0.8-0.2-1.2-0.8-1.2-1.7c0-0.8,0.4-1.4,1.1-1.7c1.1-0.5,2.2-0.7,3.3-0.7c1.3-0.1,2.6,0,3.9,0c1.2,0,2.4-0.1,3.5-0.1
				c0.4,0,0.7,0,1.1,0.1c0.7,0.1,1.1,0.6,1.2,1.3c0.1,0.6-0.2,1.3-0.8,1.6c-0.4,0.2-0.8,0.4-1.2,0.5c-0.9,0.2-1.7,0.4-2.7,0.6
				c0.1,0.3,0.1,0.6,0.2,0.8c0.3,1.6,0.7,3.2,0.8,4.8c0.3,3.5,0.5,7.1,0.6,10.6c0.2,4.2,0.4,8.4,0.6,12.6c0.1,2.9,0.1,5.8,0.1,8.8
				c0,0.8-0.2,1.6-0.2,2.4c-0.1,0.7-0.2,1.4-0.3,2.2c0.6,0,1-0.1,1.5-0.1c0.6,0,1.3,0,1.9,0.1c0.6,0,0.9,0.4,1.1,1
				c0.1,0.5-0.1,1-0.5,1.3c-0.4,0.3-0.9,0.5-1.4,0.6c-3.9,0.8-7.8,1.7-11.8,2c-0.5,0-1,0-1.5-0.2c-0.8-0.3-1-1.3-0.4-1.9
				c0.3-0.3,0.7-0.6,1.1-0.8c1.4-0.8,3-1.1,4.6-1.4C142.2,191.3,142.4,191.3,142.7,191.2z"/>
			<g>
				<path class="st1" d="M194.1,156.9c-1.9,0.2-3.7,0.6-5.4,0.6c-1.2,0.1-2.4-0.1-3.5-0.4c-4.1-1.1-5.8-5.2-4.1-9.4
					c1-2.4,3.2-3.6,5.5-3c0.9,0.2,1.8,0.6,2.7,1.1c2.7,1.5,4.6,4,5.9,6.9c0.2,0.5,0.4,0.9,0.6,1.5c2.4-0.6,4.7-1.3,7.1-2.2
					c0-1-0.1-2.1,0-3.1c0.1-1,0.3-2,0.6-2.9c0.4-1.1,1.5-1.9,2.5-1.8c1,0.1,2,0.9,2.3,2.1c0.5,2.3,1,4.6,1.3,6.9
					c0.6,3.8,1,7.5,1.5,11.3c0.1,0.7,0.2,1.4,0.5,2.1c0.2-0.5,0.3-0.9,0.5-1.4c2.2-7.4,5.9-13.9,10.9-19.6c1.3-1.5,2.8-2.9,4.5-3.8
					c3.4-1.8,6.3-0.4,8.2,2.6c1.1,1.7,1.6,3.7,2,5.7c0.7,4.3,1,8.7,0.8,13c-0.2,3.2-0.3,6.5-0.5,9.7c-0.2,3-0.6,10.5-0.7,13.5
					c-0.1,1.7,0.1,3.5-1.2,4.9c-0.5,0.5-1.3,0.8-2.1,0.6c-0.9-0.2-1.5-1.1-1.8-1.9c-0.4-1.1-0.3-2.7-0.4-3.8
					c-0.2-2.3-0.1-9.1-0.3-11.4c-0.3-3.5,0-7.1,0.1-10.6c0.1-3.7,0.1-7.5,0-11.2c-0.1-1.9-0.3-3.8-0.6-5.7c-0.4-2.1-1.3-2.6-3.2-1.9
					c-1.4,0.5-2.6,1.4-3.7,2.5c-1.8,1.7-3.3,3.8-4.6,6c-3.5,5.8-5.8,12-6.8,18.8c-0.1,0.6-0.1,1.3,0,1.9c0.2,1.8,0.8,8.9,1,10.7
					c0.1,0.9,0,1.9-0.1,2.8c-0.1,1.1-0.7,1.9-1.5,2.1c-0.9,0.2-1.9-0.2-2.4-1.2c-0.9-1.5-1.4-3.2-1.8-4.8
					c-0.7-2.6-1.8-10.7-2.4-13.3c-0.5-2.6-0.9-5.3-1.2-8c-0.4-2.9-0.6-5.8-0.9-8.6c0-0.1-0.1-0.3-0.2-0.5c-2.2,0.7-4.3,1.4-6.4,2.1
					c0.4,2,0.8,4,1.1,6c0.7,5.4,0.5,10.8-1,16c-1,3.7-2.6,7.1-5,10c-2.1,2.5-4.6,4.4-7.8,4.8c-2.9,0.4-5.5-0.5-7.9-2.1
					c-4-2.8-6.5-6.9-8-11.6c-1.8-5.7-2.3-11.6-1.8-17.6c0.3-3.5,1.1-6.8,2.5-9.9c0.5-1.1,1.2-2,1.9-2.9c0.6-0.7,1.5-1.1,2.5-1.1
					c1.5,0.1,2.4,1.3,2.1,2.8c-0.3,1.2-0.7,2.4-1,3.7c-0.4,2-0.8,3.9-1.1,5.9c-0.4,3.4-0.4,6.7,0,10.1c0.4,4,1,7.9,2.7,11.5
					c0.9,1.9,2,3.7,3.6,5.1c2.8,2.4,6.3,2.4,9.1-0.1c1.9-1.7,3.3-3.8,4.4-6.2c3.1-7.4,3.5-15,1.5-22.8
					C194.3,157.3,194.2,157.1,194.1,156.9z M193.4,154.9c-0.9-2.1-1.9-3.9-3.5-5.4c-1-0.9-2-1.6-3.3-2c-1.5-0.5-2.8,0-3.4,1.6
					c-0.9,2.2-0.4,4.6,2.2,5.7c0.7,0.2,1.4,0.3,2.1,0.4C189.5,155.4,191.3,155.3,193.4,154.9z"/>
				<path class="st1" d="M297.7,172.9c-0.3,1.9-0.5,3.8-0.7,5.6c-0.4,2.9-1.1,5.7-2.4,8.4c-1.6,3.4-4,6.2-7.4,7.9
					c-3.1,1.5-6.3,2-9.7,1c-3.3-1-5.2-4-4.6-7.5c0.5-2.9,1.9-5.3,3.8-7.5c3.1-3.5,6.9-5.8,11.2-7.5c0.9-0.4,1.8-0.7,2.6-1
					c0.4-1.9,0.5-18.9,0.1-20.3c-0.4,0.6-0.7,1.1-1.1,1.6c-1.6,2.4-3.1,5-5,7.2c-1.4,1.6-2.9,3.1-4.8,4.2c-2.9,1.7-5.9,1.7-8.9,0.4
					c-1.6-0.7-2.9-1.7-4.1-3c-1.7-1.9-2.8-4.2-3.3-6.7c-0.7-3.1-0.8-6.3-0.3-9.5c0.1-1,0.4-1.9,0.8-2.9c0.6-1.6,2.2-2.5,3.5-2
					c1,0.4,1.7,1.1,1.9,2.2c0.1,0.7,0.2,1.5,0.2,2.2c0,1.2,0,2.4,0.1,3.5c0,2.9,0.6,5.7,1.8,8.4c0.7,1.5,1.7,2.7,3,3.6
					c1.6,1.2,3.3,1.2,5.1,0.4c2-1,3.6-2.5,5-4.3c2.2-2.7,3.8-5.8,5.1-9.1c0.3-0.8,0.7-1.6,1-2.5c0.9-1.9,3.1-2.3,4.6-0.8
					c0.5,0.6,1,1.3,1.3,2c0.4,1.2,0.8,2.5,0.8,3.8c0.2,3.9,0.4,7.8,0.5,11.7c0.1,2.4,0,4.9,0,7.3c0,0.2,0,0.4,0,0.6
					c1.6-0.3,3.1-0.6,4.6-0.8c0.6-0.1,1.2-0.2,1.7-0.4c0.4-0.1,0.7,0,1,0.4c0.3,0.4,0.1,0.9-0.2,1.1c-0.4,0.3-0.9,0.6-1.5,0.7
					c-1.6,0.4-3.3,0.8-5,1.1C298.3,172.7,298,172.8,297.7,172.9z M290.5,175c-0.1-0.1-0.2-0.1-0.2-0.2c-1,0.4-2.1,0.7-3.1,1.2
					c-4.3,1.9-7.7,4.7-10.1,8.8c-0.7,1.3-1.3,2.6-1.3,4.1c-0.1,2.1,1.3,3.5,3.3,3.6c0.9,0,1.8-0.2,2.7-0.6c3-1.3,4.8-3.9,6-6.8
					c0.7-1.7,1.2-3.5,1.7-5.4C289.9,178.2,290.2,176.6,290.5,175z"/>
				<path class="st1" d="M251.4,166.8c-0.1,4.2-0.1,7.7-0.2,11.2c0,2,0,4,0,5.9c0,1.2,0.3,1.6,1.4,1.8c0.9,0.2,1.8,0.3,2.6,0.3
					c2.1-0.1,4.1-0.5,6.2-0.6c1.6-0.1,3.2-0.3,4.7-0.7c0.5-0.1,0.8,0.1,1,0.6c0.2,0.4,0,0.8-0.3,1.1c-0.2,0.1-0.4,0.3-0.6,0.3
					c-2,0.8-4,1.7-6,2.5c-2.6,0.9-5.3,1.4-8,1.1c-3.8-0.4-5.2-2.3-6-5.3c-0.5-2.1-0.9-4.3-1-6.4c-0.3-5.2-0.6-10.3-0.7-15.5
					c-0.1-4.9-0.1-9.8-0.1-14.7c0-1.3,0.1-2.5,0.2-3.7c0.1-0.6,0.2-1.2,0.4-1.7c0.7-1.7,2.8-2,3.8-0.4c0.5,0.8,0.8,1.7,1,2.5
					c0.8,4,1.2,8.1,1.3,12.2C251.2,160.5,251.3,164,251.4,166.8z"/>
			</g>
		</g>
	</g>
	<path d="M160.8,334.8c-5.8,1.4-7.7,8.8-6.4,13.9c1.6,6.4,6.9,8.4,12.7,7c5.5-1.4,8.6-7.3,7.3-12.5
		C172.9,337.3,166.6,333.4,160.8,334.8z"/>
	<path class="st0" d="M136.8,334.8c-5.8,1.4-7.7,8.8-6.4,13.9c1.6,6.4,6.9,8.4,12.7,7c5.5-1.4,8.6-7.3,7.3-12.5
		C148.8,337.3,142.5,333.4,136.8,334.8z"/>
	<path class="st0" d="M322.6,343.2c-1.5-5.9-7.8-9.8-13.5-8.4c-5.8,1.4-7.7,8.8-6.4,13.9c1.6,6.4,6.9,8.4,12.7,7
		C320.8,354.3,323.9,348.3,322.6,343.2z"/>
	<path d="M285,334.8c-5.8,1.4-7.7,8.8-6.4,13.9c1.6,6.4,6.9,8.4,12.7,7c5.5-1.4,8.6-7.3,7.3-12.5C297.1,337.3,290.8,333.4,285,334.8
		z"/>
	<g>
		<path class="st1" d="M180.8,70.2c-14.8,3.1-21,33.2-17.9,48c3.1,14.8,17.3,22.5,32.2,19.4c14.8-3.1,24.7-15.9,21.6-30.7
			C213.5,92.1,195.6,67.1,180.8,70.2z M204.6,109.7c0,2.2-2.9,3.9-6.6,4.2c2,3.1,2.3,6.4,0.6,7.8c-1.7,1.3-4.9,0.2-7.4-2.5
			c-1.2,3.5-3.6,5.8-5.7,5.3c-2.1-0.5-3.2-3.7-2.7-7.3c-3.5,1.2-6.8,0.8-7.7-1.2c-0.9-2,0.9-4.8,4.1-6.7c-3.1-1.9-4.9-4.8-3.9-6.8
			c1-2,4.3-2.3,7.7-1c-0.4-3.7,0.7-6.8,2.9-7.3c2.1-0.5,4.5,1.9,5.6,5.5c2.6-2.6,5.8-3.7,7.5-2.3c1.7,1.4,1.3,4.7-0.8,7.8
			C201.8,105.7,204.6,107.5,204.6,109.7z"/>
		<path class="st0" d="M270,71.4c-14.3-4.9-35.1,17.7-40,32s3.3,28.2,17.7,33.1c14.3,4.9,29.4-0.9,34.3-15.3
			C286.8,106.9,284.3,76.3,270,71.4z M270.1,117.4c-1.1,1.9-4.5,1.9-7.8,0.3c0.1,3.7-1.4,6.7-3.5,7c-2.2,0.3-4.3-2.3-5.1-5.9
			c-2.8,2.4-6.1,3.1-7.6,1.6c-1.6-1.5-0.9-4.8,1.5-7.7c-3.6-0.7-6.2-2.8-6-5c0.2-2.2,3.2-3.7,6.9-3.6c-1.7-3.3-1.7-6.6,0.2-7.8
			c1.8-1.2,4.9,0.2,7.1,3.1c1.5-3.4,4.1-5.5,6.2-4.7s2.9,4,2,7.5c3.6-0.9,6.8-0.2,7.6,1.9c0.7,2.1-1.3,4.7-4.7,6.3
			C269.8,112.5,271.3,115.6,270.1,117.4z"/>
	</g>
	<path class="st1" d="M308.4,243.9c3.5-1.3,5.7-3.8,5.1-5.9c-0.6-2.1-3.8-3.1-7.4-2.4c1.1-3.5,0.6-6.8-1.4-7.7c-2-0.9-4.8,1-6.5,4.3
		c-2.1-3.1-5-4.7-6.9-3.7c-1.9,1-2.2,4.4-0.7,7.8c-3.7-0.3-6.8,1-7.2,3.1c-0.4,2.1,2.1,4.4,5.6,5.4c-2.5,2.7-3.5,5.9-2,7.5
		c1.4,1.6,4.7,1.1,7.7-1c0.5,3.7,2.5,6.4,4.6,6.3c2.2-0.1,3.9-3,4-6.7c3.2,1.9,6.5,2.1,7.8,0.3C312.4,249.4,311.2,246.3,308.4,243.9
		z"/>
	<path d="M233.1,76.3c3.5-1.3,5.7-3.8,5.1-5.9c-0.6-2.1-3.8-3.1-7.4-2.4c1.1-3.5,0.6-6.8-1.4-7.7c-2-0.9-4.8,1-6.5,4.3
		c-2.1-3.1-5-4.7-6.9-3.7c-1.9,1-2.2,4.4-0.7,7.8c-3.7-0.3-6.8,1-7.2,3.1c-0.4,2.1,2.1,4.4,5.6,5.4c-2.5,2.7-3.5,5.9-2,7.5
		c1.4,1.6,4.7,1.1,7.7-1c0.5,3.7,2.5,6.4,4.6,6.3c2.2-0.1,3.9-3,4-6.7c3.2,1.9,6.5,2.1,7.8,0.3C237.1,81.9,235.9,78.8,233.1,76.3z"
		/>
	<path class="st1" d="M140.4,234.1c0.4-3.7-0.8-6.8-2.9-7.2c-2.1-0.4-4.5,2-5.5,5.5c-2.6-2.6-5.8-3.6-7.5-2.2s-1.3,4.7,0.9,7.8
		c-3.7,0.4-6.4,2.3-6.4,4.5c0.1,2.2,2.9,3.9,6.6,4.2c-2,3.1-2.2,6.5-0.5,7.8c1.7,1.3,4.9,0.2,7.4-2.6c1.2,3.5,3.7,5.8,5.8,5.2
		c2.1-0.5,3.2-3.7,2.6-7.4c3.5,1.2,6.8,0.7,7.7-1.3c0.9-2-0.9-4.8-4.1-6.6c3.1-2,4.8-4.9,3.8-6.8C147.2,233,143.8,232.7,140.4,234.1
		z"/>
</g>
</svg>
