<?xml version="1.0" encoding="utf-8"?>
<!-- Generator: Adobe Illustrator 21.0.1, SVG Export Plug-In . SVG Version: 6.00 Build 0)  -->
<svg version="1.1" id="Calque_1" xmlns="http://www.w3.org/2000/svg" xmlns:xlink="http://www.w3.org/1999/xlink" x="0px" y="0px"
	 viewBox="0 0 432 432" style="enable-background:new 0 0 432 432;" xml:space="preserve">
<style type="text/css">
	.st0{fill:#C49548;}
	.st1{fill:#EE314C;}
	.st2{fill:#F9A01B;}
	.st3{fill:#F2663F;}
	.st4{fill:#875EA8;}
	.st5{fill:#F16883;}
	.st6{fill:#EF4684;}
	.st7{fill:#BC8BBE;}
	.st8{fill:#C49A6C;}
</style>
<g>
	<g>
		<g>
			<path class="st7" d="M219.5,359.7c0.8-0.7,1.1-1.4,1.4-2.2c1-2.6,1.9-5.1,2.8-7.7c1.4-4.1,2.8-8.2,4.1-12.3
				c0.5-1.6,0.9-3.3,1.3-4.9c0-0.2,0.1-0.4,0.1-0.5c0.2-0.8,0.7-1.4,1.5-1.5c0.9-0.1,1.8,0.1,2.4,0.9c0.4,0.5,0.7,1.1,0.9,1.7
				c0.7,2.2,0.8,4.4,1.1,6.7c0.3,2.2,0.4,4.5,0.8,6.7c0.6,3.9,1.3,7.8,2,11.7c0.3,1.5,0.4,3.1,0.7,4.7c0,0.3,0.2,0.6,0.3,1.1
				c0.4-0.3,0.8-0.5,1.1-0.9c0.7-0.9,1.4-1.7,1.9-2.7c2.9-5.6,4.8-11.5,5.7-17.7c0.1-1,0.2-1.9,0.3-2.9c-0.2-0.1-0.4-0.2-0.6-0.3
				c-3-1.1-4.7-3.5-5.5-6.5c-0.4-1.3-0.7-2.6-0.3-4c0.2-0.7,0.4-1.5,0.8-2.1c1-1.8,3-2.1,4.5-0.8c0.9,0.8,1.3,1.8,1.6,2.8
				c0.8,2.5,1.1,5.1,1.2,7.7c0,0.6,0,1.2,0,1.8c1.8,0.3,3.5,0.3,5.2,0c0.3-0.1,0.5-0.3,0.8-0.4c0.3-0.1,0.5-0.2,0.8,0.1
				c0.2,0.3,0.1,0.5-0.1,0.8c-0.5,0.6-1.1,0.8-1.8,0.9c-1.3,0.1-2.6,0.1-3.9,0.2c-0.3,0-0.6,0-1,0c-0.1,0.9-0.2,1.7-0.3,2.5
				c-0.4,3.7-1.3,7.4-2.7,10.9c-1.1,2.8-2.3,5.6-3.5,8.3c-0.6,1.3-1.5,2.4-2.5,3.4c-1.7,1.8-3.5,1.5-4.9-0.3c-1.5-1.9-2.6-4-3.3-6.3
				c-0.8-2.5-1.3-5.1-1.6-7.7c-0.3-2.6-0.7-5.2-1-7.8c-0.2-1.3-0.2-2.6-0.3-3.9c0-0.3-0.1-0.5-0.3-0.8c-0.1,0.4-0.3,0.8-0.4,1.2
				c-1.6,5.1-3.3,10.2-4.9,15.4c-0.5,1.6-1.1,3.1-1.7,4.7c-0.2,0.5-0.5,1-0.8,1.5c-0.9,1.2-2.2,1.5-3.5,0.7c-1-0.5-1.7-1.3-2.3-2.2
				c-1.4-2.2-2.5-4.5-3.3-6.9c-1.2-3.6-1.8-7.2-2.3-11c-0.3-2.2-0.4-4.4-0.6-6.7c-0.1-1.8-0.2-3.6-0.2-5.4c0-0.8,0.2-1.5,0.5-2.3
				c0.3-0.9,0.9-1.4,1.9-1.4c1,0,1.6,0.5,2,1.4c0.7,1.5,1,3.2,1.2,4.8c0.5,4,0.8,7.9,1.4,11.9c0.5,3.5,1.1,7,1.7,10.4
				c0.3,1.3,0.8,2.6,1.2,3.9C219,359,219.2,359.3,219.5,359.7z M244.6,328.1c-0.4,0.5-0.6,1-0.7,1.6c-0.3,2.9,0.5,5.4,2.5,7.5
				c0.3,0.3,0.6,0.6,1.2,0.7c-0.1-1-0.2-2-0.4-2.9c-0.3-1.6-0.7-3.2-1.2-4.8C245.9,329.3,245.6,328.5,244.6,328.1z"/>
			<path class="st7" d="M165.1,348.3c0.9,0.5,1.8,1,2.6,1.6c1.8,1.4,3.2,3.1,3.8,5.3c0.6,2.3,0.1,4.5-1.2,6.5
				c-1.7,2.5-4.2,3.9-7,4.8c-3,0.9-5.9,0.8-8.8-0.3c-1.5-0.5-2.5-1.5-2.8-3.1c-0.1-1-0.3-2-0.5-3.1c-0.6-3.5-0.9-7.1-1.2-10.7
				c-0.2-3.1-0.4-6.2-0.6-9.3c-0.3-4-0.6-7.9-0.9-11.8c-0.1-1.2-0.1-2.3-0.1-3.5c0-1.4,0.8-2.4,1.9-3.1c1.3-0.8,2.7-1.2,4.2-1.4
				c2.6-0.4,5.3-0.3,7.9,0.2c2.9,0.6,5.2,2.1,7.2,4.3c2,2.3,3.3,4.9,4.2,7.7c0.7,2.2,0.5,4.5-0.3,6.7c-1.1,3.2-3,5.8-6,7.7
				C166.8,347.4,165.9,347.8,165.1,348.3z M152,323.6c0.2,0.7,0.5,1.3,0.6,1.8c0.4,2.3,0.9,4.6,1.2,6.9c0.5,4.2,0.8,8.4,0.9,12.6
				c0,0.9,0.1,1.8,0.2,2.8c0.6-0.1,1.1-0.1,1.6-0.3c1.7-0.4,3.3-1.2,4.9-2c3.9-2,6.7-5,8.2-9.2c0.5-1.4,0.5-2.8,0.2-4.3
				c-0.5-2.1-1.4-3.9-2.8-5.5c-1.5-1.6-3.3-2.8-5.5-3.2c-2.3-0.5-4.6-0.4-6.9-0.1C153.7,323.3,152.9,323.4,152,323.6z M155.4,363.1
				c3.7,0.6,6.4-0.1,9-1.9c0.6-0.4,1.1-0.9,1.6-1.5c0.9-1.1,1.4-2.3,1.2-3.7c-0.2-1.2-0.7-2.2-1.5-3.1c-1.2-1.5-2.8-2.3-4.7-2.8
				c-0.8-0.2-1.5-0.2-2.3-0.1c-0.9,0.1-1.7,0.2-2.6,0.3c-0.4,0-0.7,0.1-1.2,0.2C155.1,354.7,155.2,358.9,155.4,363.1z"/>
			<path class="st7" d="M203.7,345.6c-0.2,1.9-0.4,3.9-0.6,5.9c-0.3,2.8-1.2,5.5-2.5,8.1c-0.6,1.2-1.4,2.4-2.4,3.3
				c-2,1.9-4.4,2.3-7,1.4c-1.6-0.6-2.9-1.8-3.9-3.1c-1.3-1.7-2.2-3.7-2.8-5.7c-0.8-2.7-1.3-5.4-1.5-8.2c-0.2-3.6,0.1-7.2,0.8-10.7
				c0.5-2.2,1-4.4,2-6.4c0.8-1.6,1.7-3.2,3.1-4.5c0.9-0.7,1.8-1.3,3-1.3c0.1,0,0.1,0,0.2,0c1.6-0.7,2.9,0.2,4.1,0.9
				c1.8,1.1,3,2.8,4,4.7c1.4,2.7,2.1,5.7,2.6,8.6C203.2,340.9,203.4,343.2,203.7,345.6z M193.9,326.2c-1.2,1.7-2.2,3.5-2.8,5.4
				c-0.6,1.9-1.1,3.8-1.5,5.7c-0.5,2.4-0.8,4.8-0.8,7.3c0,3.6,0.3,7.1,1.1,10.6c0.4,1.8,1,3.4,2,4.9c1.2,1.8,3.2,2.1,4.8,0.6
				c0.8-0.7,1.5-1.6,2-2.6c1.8-3.4,2.5-7.1,2.7-10.9c0.2-4.1-0.4-8.1-1.6-12c-0.8-2.7-2-5.3-4.1-7.3
				C195.2,327.3,194.6,326.8,193.9,326.2z"/>
			<path class="st7" d="M271.7,357.5c0.2,1.5-0.3,2.9-0.8,4.2c-1,2.5-3,3.8-5.5,4.4c-1.6,0.4-3.3,0.5-4.9-0.2c-2.8-1.1-4.4-3.2-5-6
				c-0.5-2.3-0.1-4.6,0.6-6.8c0.2-0.6,0.5-1.2,1.1-1.5c0.3-0.2,0.7-0.3,0.9,0.1c0.2,0.3,0.1,0.6-0.1,0.8c-0.5,0.5-0.7,1.2-0.8,1.9
				c-0.3,1.6-0.5,3.2-0.2,4.9c0.4,1.9,1.4,3.4,3,4.5c1.7,1.2,4.6,1.1,5.9-1.1c0.6-1,0.8-2.1,0.7-3.3c-0.4-3.8-1.7-7.2-3.8-10.3
				c-1.8-2.7-3.9-5.1-5.9-7.6c-1.7-2.1-3.4-4.2-4.3-6.7c-1-2.7-1-5.4,0.5-8c1.3-2.3,3.2-3.4,5.9-3.2c1.1,0.1,2,0.6,2.9,1.3
				c2.1,1.7,3.6,3.8,3.9,6.6c0,0.5,0,0.9,0,1.4c0,0.4-0.3,0.6-0.7,0.7c-0.4,0-0.7-0.1-0.8-0.5c-0.2-0.5-0.4-0.9-0.5-1.4
				c-0.6-1.8-1.6-3.3-3.4-4.3c-1.5-0.9-2.7-0.4-3.2,1.3c-0.3,1.1-0.1,2.2,0.4,3.2c0.8,1.9,2.1,3.6,3.4,5.2c2.1,2.6,4.3,5.2,6.3,7.9
				c1.9,2.6,3.4,5.5,4.2,8.7C271.7,355,271.9,356.2,271.7,357.5z"/>
		</g>
		<g>
			<path class="st8" d="M174.3,277c0.3-0.5,0.7-0.9,0.9-1.4c0.7-1.7,1.5-3.3,2.1-5c1.6-4.1,3.1-8.3,4.6-12.5
				c0.9-2.6,1.7-5.2,2.5-7.8c0.2-0.6,0.3-1.3,0.5-1.9c0.3-1.1,1-1.9,2.1-2.1c1.1-0.2,2,0.3,2.6,1.2c0.8,1.1,1.2,2.4,1.5,3.8
				c0.5,2.1,0.8,4.3,1.2,6.5c0.4,2.2,0.9,4.5,1.4,6.7c0.7,3.3,1.5,6.6,2.2,9.8c0.2,1,0.5,2,0.9,3c0.1-0.3,0.3-0.5,0.3-0.8
				c0.5-1.9,1.1-3.8,1.5-5.7c1-5,2.1-10.1,3-15.2c0.8-4.2,1.4-8.4,2.1-12.6c0.1-0.4,0.1-0.8,0.2-1.2c0.1-0.4,0.3-0.8,0.5-1.1
				c0.2-0.3,0.5-0.5,0.9-0.3c0.4,0.1,0.5,0.4,0.5,0.8c-0.1,0.8-0.1,1.6-0.3,2.4c-0.4,2.5-0.8,5-1.2,7.5c-0.8,5.1-1.6,10.1-2.6,15.2
				c-0.7,3.8-1.6,7.5-2.5,11.2c-0.2,0.9-0.6,1.7-1,2.5c-0.9,2-3,1.6-4.1,0.7c-1.2-1.1-1.9-2.4-2.6-3.8c-1.4-2.8-2.4-5.7-3.2-8.8
				c-0.6-2.3-1-4.7-1.5-7.1c-0.3-1.5-0.6-3-0.8-4.5c-0.2-0.9-0.3-1.8-0.5-3c-0.2,0.4-0.4,0.6-0.4,0.8c-1.1,2.6-2.1,5.2-3.1,7.8
				c-1.4,3.5-2.6,7-4,10.5c-0.6,1.5-1.4,3-2.1,4.4c-0.1,0.3-0.3,0.6-0.6,0.9c-0.9,1.1-1.9,1.2-2.9,0.2c-0.7-0.8-1.4-1.7-1.9-2.7
				c-1-2-1.9-4.1-2.7-6.2c-0.7-1.8-1.2-3.7-1.7-5.6c-0.7-2.6-1.3-5.3-1.8-7.9c-0.4-2.1-0.8-4.2-1-6.3c-0.3-2.4-0.6-4.8-0.4-7.2
				c0-0.3,0-0.6,0.1-0.8c0.2-1.1,0.9-1.9,1.9-2c1.1-0.1,2.1,0.5,2.5,1.6c0.4,1.2,0.8,2.4,1,3.6c0.4,2.5,0.7,5,1.1,7.5
				c0.4,2.6,0.8,5.1,1.3,7.7c0.7,3.8,1.4,7.5,2.1,11.3c0.3,1.5,0.5,3.1,0.8,4.6c0.1,0.4,0.2,0.8,0.4,1.2
				C174.1,276.9,174.2,277,174.3,277z"/>
			<path class="st8" d="M269.5,267.9c2.7,2.1,4.2,5,5.9,7.7c0.5,0.8,1.1,1.6,1.6,2.4c0.5,0.7,1.4,0.7,1.9,0.3
				c0.5-0.4,1.1-0.8,1.5-1.3c1-1.4,1.9-2.8,2.8-4.2c0.1-0.2,0.2-0.3,0.3-0.5c0.2-0.4,0.4-0.7,0.9-0.5c0.4,0.1,0.6,0.6,0.4,1.1
				c0,0.1-0.1,0.2-0.1,0.4c-1.1,1.8-2.1,3.7-3.2,5.5c-0.3,0.5-0.8,1-1.3,1.4c-1.6,1.3-4,1.2-5.8-0.1c-1.8-1.3-3-3.1-4.2-4.9
				c-0.8-1.4-1.7-2.7-2.6-4.1c-0.2-0.3-0.4-0.5-0.6-0.8c-0.1,0-0.1,0-0.2,0.1c0,1.3-0.1,2.6-0.1,3.9c0,0.8,0,1.5,0,2.3
				c0,0.8-0.5,1.3-1.2,1.4c-0.7,0.1-1.3-0.3-1.5-1.1c-0.2-0.9-0.3-1.9-0.5-2.8c-0.4-1.9-0.8-3.8-1.1-5.6c-0.4-2.5-0.8-5.1-1.1-7.7
				c-0.4-3.7-0.6-7.3-0.9-11c-0.1-2-0.2-4.1-0.3-6.2c-0.6,0.1-1.2,0.2-1.7,0.3c-0.7,0.1-1.4,0.3-2,0.3c-0.7,0.1-1.1-0.1-1.2-0.5
				c-0.1-0.5,0.1-0.9,0.8-1.1c1-0.3,2-0.6,3.1-0.9c3.3-0.8,6.6-1.3,10-1.4c3.2-0.2,6.3,0,9.3,1.1c2,0.7,3.7,1.7,4.9,3.5
				c0.6,0.8,0.9,1.7,1.1,2.7c0.3,1.6,0.1,3.1-0.2,4.7c-0.8,3.4-2.5,6.3-4.9,8.9c-2.3,2.5-4.9,4.5-7.9,6
				C270.7,267.4,270.2,267.6,269.5,267.9z M263.9,242.9c0.2,0.5,0.4,0.8,0.5,1.1c0.7,1.4,0.9,3,1.1,4.5c0.7,5.2,1.1,10.4,1.3,15.7
				c0,0.3,0.1,0.5,0.1,0.9c0.3-0.2,0.4-0.3,0.6-0.4c2.6-1.8,5.1-3.8,7.3-6.1c2.7-2.9,4.7-6.2,5.5-10.1c0.2-1,0-1.9-0.4-2.7
				c-0.6-1.2-1.8-1.9-2.9-2.4c-2.1-1-4.4-1.1-6.6-1.1c-1.8,0-3.6,0.3-5.3,0.5C264.6,242.8,264.3,242.9,263.9,242.9z"/>
			<path class="st8" d="M249.9,271c-4.9,0.6-9.8,1.2-14.7,1c-0.5,1.2-0.8,2.3-1.3,3.4c-0.4,0.9-0.9,1.8-1.5,2.7
				c-0.2,0.4-0.6,0.7-1,0.9c-0.7,0.4-1.5-0.1-1.6-0.9c0-0.4,0.1-0.9,0.2-1.3c2-4.5,3.4-9.1,4.9-13.8c1.5-4.5,3-8.9,4.4-13.4
				c1.1-3.4,2-6.8,2.6-10.2c0.1-0.5,0.2-1.1,0.4-1.5c0.7-1.6,2.3-2.1,3.8-1.2c0.7,0.4,1.2,1,1.4,1.7c0.4,1.3,0.8,2.7,1.2,4.1
				c0.6,2.7,1.1,5.4,1.8,8.1c1.1,4.4,2.3,8.8,3.4,13.2c0.7,2.6,1.1,5.2,1.3,7.9c0.1,1.7,0.6,3.3,0.8,4.9c0.1,0.6,0.1,1.1,0.1,1.7
				c-0.1,0.8-0.6,1.4-1.3,1.5c-0.8,0.1-1.4-0.2-1.7-1.1c-0.6-1.6-1.1-3.2-1.7-4.7C250.9,273,250.4,272,249.9,271z M235.9,269.5
				c4.5-0.2,8.8-0.2,13.2-0.5c-2.4-7.9-4.2-15.7-5.9-23.7c-0.1,0-0.1,0-0.2,0C240.6,253.4,238.3,261.4,235.9,269.5z"/>
			<path class="st8" d="M214.4,240c0.7,3.4,0.9,6.7,1,10c0.1,3.5,0.2,7,0.3,10.6c0,1,0,1.9,0,3c0.4,0,0.7,0,1,0
				c1.7-0.1,3.4-0.3,5.1-0.5c0.4,0,0.6,0.1,0.7,0.4c0.1,0.4-0.1,0.6-0.4,0.8c-0.3,0.1-0.6,0.2-0.9,0.2c-1.6,0.3-3.2,0.5-4.8,0.8
				c-0.2,0-0.4,0.1-0.7,0.2c0,2-0.1,3.9,0,5.9c0.1,1.6,0.8,2.1,2.4,2.3c1.6,0.1,3.2-0.2,4.8-0.5c1-0.2,1.9-0.4,2.8-0.7
				c0.6-0.1,1,0.2,1,0.8c0,0.7-0.4,1-1,1.2c-1,0.3-2,0.6-3,0.8c-1.4,0.3-2.9,0.7-4.3,0.9c-2.3,0.4-4.6-0.9-5.6-2.8
				c-0.5-1-0.9-2.2-1.2-3.3c-0.6-2.6-0.9-5.3-1-8c-0.1-2.1-0.3-4.2-0.4-6.3c-0.2-3.7-0.4-7.5-0.2-11.2c0.1-1,0-2,0.1-3
				c0-0.6,0.2-1.1,0.3-1.7c0.3-0.8,0.8-1.4,1.7-1.5c0.2,0,0.4-0.1,0.5-0.2c1.2-0.7,2.5-1,3.9-1.2c2-0.2,4.1-0.5,6.1-0.7
				c0.4,0,0.8,0,1.1,0.1c0.4,0.1,0.7,0.4,0.6,0.9c-0.1,0.4-0.3,0.6-0.7,0.6c-1.8,0.3-3.6,0.7-5.4,1.1
				C217,239.2,215.7,239.6,214.4,240z"/>
		</g>
		<g>
			<path d="M235.9,176.7c0.4-0.7,0.7-1.3,1.1-1.9c2.4-4.6,4.7-9.2,7-13.8c0.7-1.3,1.1-2.8,1.6-4.2c0.4-1,0.9-1.6,1.8-1.6
				c1,0,1.7,0.4,2,1.3c0.3,0.7,0.5,1.5,0.6,2.3c0.5,2.6,0.4,5.2,0.4,7.8c0,2.4,0.1,4.8,0.2,7.3c0.2,3.5,0.4,7,0.6,10.5
				c0,0.8,0,1.6,0,2.4c0,2.9,0.1,5.8,0.2,8.7c0,0.6,0,1.1-0.1,1.7c-0.1,0.9-0.8,1.6-1.7,1.7c-0.8,0.1-1.7-0.4-1.9-1.2
				c-0.3-1-0.5-2.1-0.7-3.1c-0.5-2.8-1-5.6-1.4-8.5c-0.3-2.5-0.6-4.9-0.8-7.4c-0.1-1.6-0.2-3.3-0.2-4.9c0-3.2,0-6.4,0-9.5
				c0-0.2,0-0.3,0-0.7c-0.2,0.3-0.4,0.5-0.5,0.7c-2.3,4.4-4.5,8.7-6.8,13.1c-0.2,0.4-0.5,0.9-0.7,1.3c-0.5,0.7-1.1,0.9-2,0.8
				c-0.9-0.1-1.7-0.6-2.3-1.2c-1.9-1.7-3.6-3.6-5.3-5.5c-1.8-2.2-3.4-4.6-5.1-6.9c-0.2-0.2-0.4-0.5-0.7-0.7c0.1,1,0.1,1.9,0.2,2.9
				c0.2,3.3,0.5,6.6,0.6,9.9c0.1,5.7,0.1,11.4,0.5,17.1c0,0.4,0,0.8,0,1.2c-0.1,0.8-0.6,1.3-1.3,1.4c-0.7,0.1-1.4-0.2-1.7-1
				c-0.1-0.3-0.2-0.7-0.3-1.1c-0.4-3.1-0.8-6.2-1.3-9.3c-0.3-2.1-0.8-4.2-1-6.3c-0.3-3.3-0.6-6.6-0.7-9.9c-0.1-2.2,0-4.3,0-6.5
				c0-1.1,0.1-2.2,0.2-3.3c0.2-1.7,0.7-2.2,2.3-2.6c0.5-0.1,1,0,1.4,0.3c1.3,0.7,2.3,1.7,3.2,2.9c2.2,2.8,4.3,5.6,6.4,8.4
				c1.8,2.5,3.6,5,5.4,7.5C235.7,176.6,235.7,176.6,235.9,176.7z"/>
			<path d="M280.7,164.8c-0.8,1.3-1.6,2.7-2.4,4c-1.3,2.2-2.8,4.4-4.7,6.1c-1.4,1.3-3,2.4-4.8,3.1c-3.2,1.2-6.7,0.3-8.9-2.4
				c-1.3-1.6-2.2-3.4-2.8-5.3c-0.8-2.7-1.2-5.4-1.3-8.2c-0.1-2.1-0.1-4.1,0-6.2c0-0.6,0.2-1.2,0.4-1.7c0.2-0.7,0.8-1.1,1.5-1.1
				c0.8-0.1,1.3,0.3,1.7,0.9c0.6,1.1,0.8,2.2,1,3.4c0.6,4.1,1.1,8.2,1.6,12.2c0.2,1.7,0.6,3.2,1.6,4.7c1.3,1.9,3.2,2.1,5,1.5
				c1.9-0.7,3.4-1.9,4.7-3.3c1.5-1.6,2.7-3.4,3.7-5.3c1.6-2.9,2.9-5.9,4-9.1c0.3-0.9,0.9-1.6,1.9-1.7c1-0.1,1.7,0.4,2.2,1.2
				c0.4,0.7,0.7,1.5,0.9,2.2c0.5,2.2,0.6,4.4,0.6,6.6c0,1.4,0.1,2.9,0.1,4.3c0,2,0,4,0,5.9c0,0.7,0.1,1.4,0,2.2
				c-0.1,3-0.3,5.9-1,8.8c-0.6,2.8-1.6,5.5-3.3,7.9c-1.7,2.5-3.9,4.6-6.8,5.5c-2.1,0.7-4.3,0.8-6.4-0.2c-1.7-0.8-2.8-2.1-3.5-3.8
				c-0.6-1.4-1-2.9-1-4.5c0-1.1,0-2.2,0-3.3c0-0.5,0.1-1.1,0.2-1.6c0.1-0.5,0.4-0.9,0.9-1c0.2,0,0.5,0,0.7,0.2
				c0.1,0.1,0.1,0.4,0.1,0.7c0,0.5-0.2,1-0.2,1.5c0,1.7,0.2,3.4,0.8,5c0.3,1,0.8,1.9,1.4,2.6c1.6,2,4.1,2.3,6.2,0.8
				c1.2-0.9,2.3-2,3-3.4c1.3-2.4,2.1-5,2.4-7.7c0.2-2.6,0.5-5.1,0.6-7.7c0.1-3.1,0-6.3,0-9.4c0-1.5,0-3,0-4.5
				C280.9,164.8,280.8,164.8,280.7,164.8z"/>
			<path d="M152.8,189.5c-5.3,0.9-10.5,1.9-15.8,2.8c0,0.4-0.1,0.8-0.1,1.3c-0.2,1.7-0.3,3.4-0.5,5.2c-0.1,1.1-0.7,1.6-1.5,1.6
				c-0.8,0-1.4-0.7-1.4-1.7c0-2,0.1-4.1,0.3-6.1c0.3-5.3,1.6-10.4,3-15.4c1-3.6,2.1-7.3,3.1-10.9c0.4-1.5,1.1-2.9,2-4.2
				c1-1.6,3.2-2.4,4.9-1.6c1,0.5,1.8,1.1,2.5,2c1.7,2.2,2.9,4.7,3.9,7.3c1.7,4.2,2.9,8.6,4,13.1c0.6,2.5,1.1,5.1,1.6,7.6
				c0.2,1.3,0.3,2.7,0.5,4c0.3,1.8,0.6,3.7,0.9,5.5c0.1,0.5,0.1,0.9,0.1,1.4c0,0.8-0.6,1.4-1.3,1.5c-0.7,0.1-1.4-0.2-1.7-1.1
				c-0.3-0.8-0.5-1.5-0.7-2.3c-0.6-2.4-1.5-4.8-2.5-7.1C153.3,191.4,153.1,190.4,152.8,189.5z M152.3,187.9
				c-0.3-0.8-0.5-1.5-0.7-2.2c-0.7-2.4-1.4-4.9-2-7.3c-1.1-3.8-2.3-7.6-3.9-11.2c-0.4-0.8-0.6-1.7-1.4-2.3c-0.7,0.8-1.2,1.7-1.5,2.6
				c-0.8,2.4-1.6,4.8-2.3,7.2c-1.1,3.9-2.1,7.8-2.7,11.8c-0.2,1-0.3,2-0.4,3C142.2,188.5,147.2,188.4,152.3,187.9z"/>
			<path d="M174.9,196.6c-1.4-0.1-2.8-0.1-4.1-0.2c-2-0.2-3.5-1.2-4.4-2.9c-0.7-1.4-1.3-2.9-1.8-4.5c-0.6-2.2-1.1-4.4-1.5-6.6
				c-0.5-2.6-0.9-5.3-1.2-7.9c-0.3-2.5-0.6-4.9-0.7-7.4c-0.1-1.7,0.1-3.3,0.3-5c0-0.4,0.3-0.9,0.5-1.3c0.7-1,2.1-1.1,2.9-0.2
				c0.3,0.3,0.6,0.8,0.7,1.2c0.4,1.7,0.8,3.4,1.1,5.1c0.3,1.6,0.5,3.3,0.7,5c0.3,2.3,0.6,4.6,0.9,6.9c0.3,2.4,0.5,4.8,0.8,7.2
				c0.1,1.5,0.2,3,0.3,4.5c0.1,0.7,0.1,1.4,0.3,2.1c0.1,0.8,0.6,1.3,1.4,1.4c1.5,0.2,3,0.3,4.5,0.4c1.3,0.1,2.5,0,3.8,0
				c0.3,0,0.6,0,0.8-0.1c0.6-0.1,0.9,0,1.1,0.4c0.2,0.4,0,1-0.4,1.2c-0.3,0.2-0.6,0.3-1,0.3c-1.2,0.1-2.4,0.2-3.7,0.2
				c-0.4,0-0.8,0-1.2,0C174.9,196.6,174.9,196.6,174.9,196.6z"/>
			<path d="M193.3,196.9c-1.3,0-2.5-0.2-3.6-0.6c-1.2-0.4-2.2-1.2-2.8-2.3c-0.9-1.5-1.3-3.1-1.6-4.8c-0.9-4.3-1.3-8.7-1.7-13.1
				c-0.3-3.3-0.6-6.6-0.8-9.9c-0.1-1.2,0.1-2.5,0.2-3.8c0-0.4,0.2-0.7,0.4-1.1c0.3-0.7,0.8-1.1,1.6-1.1c0.8,0,1.3,0.4,1.6,1.1
				c0.2,0.6,0.5,1.2,0.5,1.8c0.6,4.3,1.2,8.7,1.7,13c0.4,3.9,0.7,7.9,1,11.8c0.1,1.3,0.3,2.7,0.4,4c0.1,1,0.6,1.7,1.6,2
				c1.2,0.5,2.5,0.5,3.8,0.5c1.1,0,2.3-0.1,3.4-0.2c0.6,0,1.1-0.2,1.7-0.3c0.3,0,0.6,0,0.7,0.2c0.1,0.2,0.2,0.6,0.1,0.9
				c-0.1,0.4-0.5,0.7-1,0.8c-0.7,0.2-1.3,0.3-2,0.4C196.7,196.6,195,196.8,193.3,196.9z"/>
		</g>
		<g>
			<path class="st5" d="M169.4,207.5c-3-1.5-7.1-1.2-11.9,1c0.1-0.1,0.1-0.2,0.2-0.2c0.1-0.3,0.2-0.5,0.2-0.8c0-0.3-0.1-0.6-0.3-1
				c-0.3-0.5-0.7-0.7-1.3-0.7l-3.5,0.2c-0.7,0.1-1.1,0.4-1.4,1c-0.1,0.3-0.2,0.6-0.2,0.8c0,0.3,0.1,0.6,0.3,1l0,0
				c0.2,0.3,0.6,0.7,1.4,0.7v32.2c-0.4,0-0.7,0.2-1,0.5c-0.4,0.4-0.6,0.8-0.6,1.4l0.1,0.4c0.1,0.6,0.5,1,1.2,1.2l3.1,0.9
				c0.1,0.1,0.3,0.1,0.6,0.1c0.4,0,0.8-0.2,1-0.4c0.4-0.3,0.7-0.8,0.7-1.5l-0.1-0.3c-0.1-0.6-0.5-1-1.2-1.3l-0.3-0.1V229
				c1.1,0.7,2.3,1.3,3.7,1.8c1.6,0.7,3.3,1,4.9,1c0.8,0,1.6-0.1,2.2-0.2c2.3-0.6,4.1-2,5.4-4.4c0.7-1.3,1.3-2.8,1.7-4.5
				c0.4-1.7,0.7-3.4,0.7-5.1c0-1.7-0.2-3.2-0.6-4.5C173.2,210.6,171.6,208.7,169.4,207.5z M171.3,218.1c0,2-0.4,4.1-1.3,6.1
				c-0.8,2-1.8,3.3-3,3.8c-0.6,0.3-1.3,0.4-1.9,0.4c-0.5,0-1.4-0.1-2.5-0.4c-2.1-0.6-4.2-1.7-6.4-3.3v-11.7c1.6-1,3.1-1.7,4.5-2.3
				c1.4-0.6,2.8-0.9,4.2-0.9c0.6,0,1.3,0.1,2,0.3c1,0.3,1.9,1,2.6,1.9c0.7,1,1.2,2.1,1.5,3.6C171.2,216.4,171.3,217.2,171.3,218.1z"
				/>
			<path class="st5" d="M200.6,221.3c-0.4-0.4-0.9-0.6-1.4-0.5l-3.4,0.7c-0.4,0.1-1,0.3-1.4,1.1c-0.1,0.3-0.1,0.6-0.1,0.8
				c0,0.3,0.2,0.6,0.4,1c0.2,0.2,0.5,0.4,0.9,0.5c-0.3,1.1-0.9,2-1.7,2.7c-0.9,0.8-2,1.3-3.4,1.5c-1.5,0.2-3.1,0-4.6-0.7
				c-1.5-0.7-2.7-1.6-3.5-2.9c-1-1.5-1.6-3.3-1.9-5.4c0-0.3-0.1-0.8-0.1-1.5c1.9-0.4,4.1-0.8,6.7-1.2c1.9-0.2,4.5-0.5,7.9-0.8l2-0.2
				c0.5,0,0.9-0.3,1.2-0.7c0.3-0.4,0.4-0.8,0.4-1.4l0-0.3c-0.8-2.8-2-5-3.7-6.7c-1.7-1.7-3.7-2.7-6-2.9c-0.7-0.1-1.6-0.1-2.5,0
				c-1.5,0.2-2.9,0.8-4.2,1.6c-1.3,0.9-2.4,2.1-3.2,3.5c-0.9,1.5-1.5,3.2-1.9,5.1c-0.4,1.9-0.4,3.8-0.2,5.6c0.3,2.1,0.9,4.1,2,6
				c1.2,2,2.7,3.6,4.5,4.7c1.8,1.1,3.8,1.7,6,1.6c0.7,0,1.2,0,1.6-0.1c2.3-0.3,4.2-1.2,5.7-2.8c1.4-1.5,2.3-3.3,2.5-5.5l0.2,0
				c0.7-0.1,1.1-0.5,1.4-1.1c0.1-0.3,0.1-0.6,0.1-0.8C201,222,200.8,221.7,200.6,221.3L200.6,221.3z M180.8,215.1
				c0.3-1.5,0.8-3,1.6-4.4c0.9-1.5,2.3-2.4,4.4-2.7c0.4-0.1,0.8-0.1,1-0.1c1.8,0,3.2,0.6,4.3,1.7c1,1,1.9,2.2,2.5,3.5
				c-3.3,0.3-5.7,0.6-7.4,0.8C185.4,214.2,183.2,214.6,180.8,215.1z"/>
			<path class="st5" d="M224.1,223.4c-0.3-0.4-0.8-0.7-1.3-0.7l-3.4,0.1c-0.4,0-1.1,0.1-1.5,0.9c-0.2,0.3-0.2,0.5-0.2,0.8
				c0,0.3,0.1,0.6,0.2,1c0.1,0.2,0.4,0.5,0.8,0.7c-0.5,1-1.2,1.8-2.1,2.3c-1,0.6-2.2,0.9-3.6,0.9c-1.6-0.1-3-0.6-4.4-1.5
				c-1.4-0.9-2.3-2.1-2.9-3.5c-0.7-1.6-1-3.6-0.9-5.7c0-0.3,0.1-0.8,0.1-1.5c1.9-0.1,4.2-0.1,6.8,0c1.9,0.1,4.5,0.3,7.9,0.6l2,0.1
				c0.5,0.1,1-0.1,1.3-0.4c0.4-0.3,0.6-0.7,0.6-1.3l0-0.3c-0.3-2.8-1.1-5.3-2.5-7.2c-1.4-2-3.2-3.3-5.4-3.9
				c-0.7-0.2-1.5-0.4-2.4-0.4c-1.5-0.1-3,0.2-4.4,0.9c-1.4,0.6-2.7,1.6-3.8,2.9c-1.1,1.3-2.1,2.9-2.8,4.7c-0.7,1.8-1.1,3.6-1.1,5.5
				c-0.1,2.1,0.2,4.2,0.9,6.2c0.8,2.2,2,4,3.6,5.4c1.6,1.4,3.5,2.3,5.7,2.7c0.7,0.1,1.2,0.2,1.6,0.2c2.3,0.1,4.4-0.5,6.1-1.7
				c1.7-1.2,2.8-2.9,3.5-5l0.2,0c0.7,0,1.2-0.3,1.5-0.9c0.2-0.3,0.2-0.5,0.2-0.8C224.4,224.2,224.3,223.8,224.1,223.4L224.1,223.4z
				 M205.8,213.7c0.5-1.4,1.3-2.8,2.4-4c1.1-1.3,2.7-2,4.8-1.9c0.4,0,0.8,0.1,1,0.1c1.7,0.3,3.1,1.1,4,2.4c0.8,1.2,1.4,2.5,1.8,3.9
				c-3.3-0.3-5.8-0.5-7.4-0.5C210.4,213.7,208.2,213.7,205.8,213.7z"/>
			<path class="st5" d="M243.5,207.5c-3-1.5-7.1-1.2-11.9,1c0.1-0.1,0.1-0.2,0.1-0.2c0.1-0.3,0.2-0.6,0.2-0.8c0-0.3-0.1-0.6-0.3-1
				c-0.3-0.5-0.7-0.7-1.3-0.7l-3.5,0.2c-0.7,0.1-1.1,0.4-1.4,1c-0.1,0.3-0.2,0.6-0.2,0.8c0,0.3,0.1,0.6,0.3,1l0,0
				c0.2,0.3,0.6,0.7,1.4,0.7v32.2c-0.4,0-0.7,0.2-1,0.5c-0.4,0.4-0.6,0.8-0.6,1.4l0.1,0.4c0.1,0.6,0.5,1,1.2,1.2l3.1,0.9
				c0.1,0.1,0.3,0.1,0.6,0.1c0.4,0,0.8-0.2,1-0.4c0.4-0.3,0.7-0.8,0.7-1.5l-0.1-0.3c-0.1-0.6-0.5-1-1.2-1.3l-0.3-0.1V229
				c1.1,0.7,2.3,1.3,3.7,1.8c1.6,0.7,3.3,1,4.9,1c0.8,0,1.6-0.1,2.2-0.2c2.3-0.6,4.1-2,5.4-4.4c0.7-1.3,1.3-2.8,1.7-4.5
				c0.4-1.7,0.7-3.4,0.7-5.1c0-1.7-0.2-3.2-0.6-4.5C247.4,210.6,245.8,208.7,243.5,207.5z M245.4,218.1c0,2-0.4,4.1-1.3,6.1
				c-0.8,2-1.8,3.3-3,3.8c-0.6,0.3-1.3,0.4-1.9,0.4c-0.5,0-1.4-0.1-2.5-0.4c-2.1-0.6-4.2-1.7-6.4-3.3v-11.7c1.6-1,3.1-1.7,4.5-2.3
				c1.4-0.6,2.8-0.9,4.2-0.9c0.6,0,1.3,0.1,2,0.3c1,0.3,1.9,1,2.6,1.9c0.7,1,1.2,2.2,1.5,3.6C245.4,216.4,245.4,217.2,245.4,218.1z"
				/>
			<path class="st5" d="M266.1,218.3c-0.6-0.3-1.3-0.6-2.2-0.8c-0.8-0.2-2-0.3-3.3-0.4c-2.4-0.2-4.2-0.6-5.4-0.9
				c-1.1-0.3-1.7-1-1.9-2c-0.2-1,0-1.9,0.7-2.7c0.7-0.8,1.7-1.3,2.9-1.5c0.9-0.2,1.8-0.1,2.6,0c0.6,0.1,1.1,0.4,1.6,0.7
				c-0.3,0.2-0.6,0.5-0.8,1c-0.1,0.3-0.1,0.6-0.1,0.9c0.1,0.4,0.2,0.7,0.5,0.9c0.4,0.4,0.9,0.5,1.4,0.4l3.4-0.8
				c0.6-0.2,1.1-0.6,1.2-1.3c0.1-0.3,0.1-0.6,0.1-0.8c-0.1-0.3-0.2-0.6-0.5-1c-0.4-0.4-0.9-0.5-1.5-0.4l0,0c-0.8-1.2-2-2.2-3.4-2.7
				c-1.5-0.6-3.2-0.7-5-0.4c-1.8,0.3-3.3,1.1-4.5,2.2c-1.2,1.1-1.9,2.5-2.2,4.1c-0.1,0.7-0.1,1.4,0,1.9c0.2,1.3,1,2.5,2.2,3.4
				c1.2,0.9,2.8,1.5,4.8,1.9c0.7,0.1,1.6,0.2,2.5,0.3c2,0.2,3.5,0.5,4.5,0.9c1,0.4,1.5,1.1,1.7,2.1c0.1,0.3,0.1,0.8,0,1.5
				c-0.1,1.1-0.5,2.1-1.1,3c-0.6,0.8-1.4,1.3-2.4,1.5c-0.1,0-0.4,0-0.9,0.1c-1.6-0.1-3.1-0.8-4.5-2.1c0.3-0.2,0.5-0.5,0.6-0.9
				c0.1-0.3,0.1-0.6,0.1-0.9c-0.1-0.4-0.2-0.7-0.5-0.9c-0.3-0.3-0.7-0.6-1.5-0.4c0,0,0,0,0,0l-3.2,0.8c-0.5,0.1-0.9,0.4-1.1,0.8
				c-0.2,0.4-0.3,0.8-0.2,1.2c0.1,0.5,0.3,0.9,0.7,1.1c0.4,0.3,0.9,0.4,1.3,0.2l0.2,0c0.8,1,1.8,2,2.9,2.7c1.2,0.8,2.5,1.3,3.8,1.6
				c1.1,0.2,2.1,0.2,3,0c1.2-0.2,2.2-0.7,3.1-1.4c1.3-0.9,2.2-2.1,2.8-3.7c0.6-1.6,0.8-3.2,0.5-4.8
				C268.7,220.7,267.7,219.2,266.1,218.3z"/>
		</g>
		<g>
			<path d="M198.9,304c-1.1-0.6-2.3-1.2-3.6-1.6c3.3-1.5,5.3-3.7,6.1-6.7c0.2-0.6,0.2-1.3,0.2-2c0-2.1-0.8-4.1-2.2-5.8
				c-1.5-1.7-3.3-2.9-5.3-3.4c-1.1-0.3-2.2-0.5-3.2-0.5c-1.1,0-2.2,0.2-3.4,0.5c0-0.1,0-0.1,0-0.2c0-0.3,0-0.4-0.1-0.5
				c-0.1-0.3-0.3-0.6-0.6-0.8c-0.3-0.2-0.6-0.3-1-0.3c-0.2,0-0.4,0-0.6,0.1l-3.1,1c-0.4,0.1-0.7,0.3-0.9,0.6c-0.2,0.3-0.3,0.7-0.3,1
				c0,0.3,0,0.4,0.1,0.5c0.1,0.3,0.3,0.6,0.6,0.9c0.3,0.2,0.5,0.3,0.9,0.4v32.2c-0.4,0-0.8,0.2-1.1,0.5c-0.3,0.3-0.5,0.8-0.5,1.2
				c0,0.4,0.1,0.8,0.4,1.2c0.3,0.3,0.7,0.5,1.2,0.6l3.3,0.2l0.1,0c0.6,0,1.1-0.2,1.3-0.7c0.2-0.3,0.3-0.6,0.3-1c0-0.1,0-0.2,0-0.2
				c1.6,0.3,3,0.5,4.4,0.5c4.5,0,7.9-1.4,10.2-4.3c1.3-1.6,1.9-3.3,1.9-5.1c0-1.6-0.5-3.1-1.4-4.5
				C201.7,306.1,200.4,304.9,198.9,304z M192.5,299.6L192.5,299.6c-2.1,0.7-4.3,1.1-6.6,1.2v-12.2c1.6-0.7,3.3-1,5-1
				c1.5,0,2.8,0.3,3.9,0.8c1.7,0.8,2.7,2.1,3.2,4.1c0.1,0.5,0.2,0.9,0.2,1.3c0,1.1-0.3,2.1-0.9,2.9
				C196.2,297.9,194.6,298.9,192.5,299.6z M200.5,312c0,0.7-0.2,1.3-0.5,1.9c-0.4,0.9-1.1,1.6-2.1,2.3c-1,0.7-2,1.2-3.2,1.5
				c-0.9,0.2-1.9,0.3-3,0.3c-1.9,0-3.9-0.3-5.9-1v-12.6c4.1,0.1,7.4,0.7,9.7,1.7c2.4,1,3.9,2.4,4.7,4.3
				C200.4,310.9,200.5,311.5,200.5,312z"/>
			<path d="M211.4,319.8c-0.3-0.3-0.7-0.5-1.1-0.5v-32.8c0.6,0,0.9-0.3,1.1-0.5c0.3-0.3,0.4-0.7,0.4-1.1c0-0.5-0.1-0.9-0.4-1.3
				c-0.3-0.4-0.8-0.6-1.3-0.6h0l-3.2-0.1c-0.6,0-1.1,0.3-1.5,0.8c-0.1,0.3-0.2,0.6-0.2,1c0,0.3,0.1,0.6,0.2,0.9
				c0.3,0.4,0.7,0.7,1.3,0.8v33c-0.5,0.1-0.9,0.3-1.2,0.6c-0.3,0.4-0.5,0.8-0.4,1.3c0,0.4,0.2,0.8,0.4,1.1c0.3,0.3,0.7,0.5,1.3,0.5
				c0,0,0,0,0,0l3.3-0.1c0.5,0,0.9-0.3,1.3-0.6c0.3-0.4,0.5-0.8,0.4-1.3C211.9,320.5,211.7,320.1,211.4,319.8z"/>
			<path d="M233.1,293c-0.2,0.4-0.3,0.7-0.3,1c0,0.3,0.1,0.5,0.2,0.8c0.3,0.6,0.8,0.9,1.5,1l3.3,0.2c0.7,0.1,1.1-0.2,1.3-0.4
				c0.3-0.3,0.5-0.7,0.5-1.2c0-0.5-0.1-0.9-0.4-1.2c-0.3-0.4-0.7-0.6-1.2-0.6l-0.1,0c-0.3-1.3-0.7-2.5-1.3-3.7
				c-0.6-1.2-1.4-2.3-2.3-3.3c-1.9-1.9-4.2-2.9-6.7-2.9c-3.2,0-5.9,1.2-7.9,3.7c-2,2.4-3.5,5-4.5,7.6c-1.1,3-1.6,6.4-1.6,9.9
				c0,2.4,0.3,4.8,0.8,7c0.6,2.3,1.4,4.3,2.5,6c1.2,1.8,2.6,3.3,4.3,4.3c1.7,1,3.6,1.6,5.6,1.8c0.2,0,0.5,0.1,0.9,0.1
				c2.9,0,5.3-1.1,7.2-3.2c1.8-2,3-4.7,3.6-8l0-0.4c0-0.4-0.2-0.8-0.5-1.1c-0.3-0.4-0.8-0.5-1.2-0.5l-9,0.2c-0.4,0-0.8,0.2-1.2,0.5
				c-0.3,0.3-0.5,0.7-0.6,1.2l-0.2,2.2c-0.1,0.4,0.1,0.8,0.4,1.2c0.8,0.8,1.9,0.7,2.5,0.1c0.3-0.3,0.5-0.7,0.5-1.2l0.1-0.6l5.2-0.1
				c-0.5,1.6-1.2,2.9-2.2,4.2c-1.1,1.3-2.6,1.9-4.6,1.9c-1.5,0-3-0.4-4.4-1.2c-1.4-0.8-2.6-1.8-3.4-3.1c-1-1.6-1.7-3.3-2.2-5.3
				c-0.5-1.9-0.8-4-0.8-6.1c0-1.6,0.2-3.3,0.6-5.3c0.5-2.6,1.5-5.1,2.8-7.4c1.3-2.2,3-3.8,4.9-4.6c1.7-0.7,3.3-0.6,4.8,0.1
				c1,0.5,1.8,1.2,2.6,2.3c0.7,1,1.3,2.1,1.7,3.3C233.8,292.4,233.4,292.6,233.1,293z"/>
		</g>
	</g>
	<g>
		<g>
			<path class="st5" d="M267.6,304c3.5-1.3,5.7-3.8,5.1-5.9c-0.6-2.1-3.8-3.1-7.4-2.4c1.1-3.5,0.6-6.8-1.4-7.7c-2-0.9-4.8,1-6.5,4.3
				c-2.1-3.1-5-4.7-6.9-3.7c-1.9,1-2.2,4.4-0.7,7.8c-3.7-0.3-6.8,1-7.2,3.1c-0.4,2.1,2.1,4.4,5.6,5.4c-2.5,2.7-3.5,5.9-2,7.5
				c1.4,1.6,4.7,1.1,7.7-1c0.5,3.7,2.5,6.4,4.6,6.3c2.2-0.1,3.9-3,4-6.7c3.2,1.9,6.5,2.1,7.8,0.3C271.6,309.5,270.4,306.4,267.6,304
				z"/>
			<path class="st5" d="M169.1,292.1c0.4-3.7-0.8-6.8-2.9-7.2c-2.1-0.4-4.5,2-5.5,5.5c-2.6-2.6-5.8-3.6-7.5-2.2
				c-1.7,1.4-1.3,4.7,0.9,7.8c-3.7,0.4-6.4,2.3-6.4,4.5c0.1,2.2,2.9,3.9,6.6,4.2c-2,3.1-2.2,6.5-0.5,7.8c1.7,1.3,4.9,0.2,7.4-2.6
				c1.2,3.5,3.7,5.8,5.8,5.2c2.1-0.5,3.2-3.7,2.6-7.4c3.5,1.2,6.8,0.7,7.7-1.3c0.9-2-0.9-4.8-4.1-6.6c3.1-2,4.8-4.9,3.8-6.8
				C175.8,291,172.5,290.7,169.1,292.1z"/>
		</g>
		<g>
			<path d="M160.8,271.3c-0.7,0.3-1.4,0.6-2.3,1.1c-4.3,2.2-10.9,5.4-16.5-0.2c3.3-0.1,6-1.5,7.4-4c1.2-2.1,1.2-4.6,0-6.6
				c-1.1-1.8-2.9-2.7-5.1-2.6c-2,0.1-3.6,1-4.8,2.5c-1.5,2-2.1,4.9-1.6,7.6c-0.4-0.1-0.7-0.3-1.1-0.5c0-0.1,0-0.3,0.1-0.4
				c0-0.7-0.2-1.5-0.7-2.1c-0.5-0.6-1.2-1-1.9-1c-0.4,0-0.8,0.1-1.1,0.3c-0.2-0.3-0.5-0.7-0.7-1.1c0.5-0.5,0.8-1.1,0.8-1.8
				c0.1-1.3-0.8-2.6-2-3c0-0.4,0-0.9,0-1.3c1.1-0.2,2-1.3,2.1-2.5c0-0.7-0.2-1.5-0.7-2.1c0.3-0.6,0.7-1.1,1.1-1.6
				c1.9,1.6,4.3,2.2,6.6,1.8c0.6-0.1,2.1-0.5,2.7-1.6c0.3-0.6,0.4-1.2,0.1-2c-0.9-2.6-5.1-2.5-6.4-2.4c-1,0.1-2,0.4-2.9,1
				c-0.5-0.8-0.9-1.6-1.1-2.5c-0.9-3.7,0.9-7.8,4.3-10c0.9-0.6,2-1.1,3.2-1.4c0.1,0,0.2,0,0.3,0c0.2,0.2-0.1,1.2-0.3,2
				c-0.4,1.2-0.7,2.3-0.2,2.9c0.2,0.3,0.6,0.4,1.1,0.3c1-0.1,1.8-1.5,2.3-2.5c0.1-0.2,0.2-0.3,0.2-0.4c1.2-2.1,2.1-4.4,2.9-6.7
				c0,0,0,0,0-0.1l0,0c0.1-0.6,0.1-1-0.2-1.3c-0.6-0.7-2.1-0.5-3.5-0.4c-0.3,0-0.5,0.1-0.8,0.1c-1.5,0.1-3.5,0.3-5.5,0.7
				c-0.1,0-0.3,0.1-0.4,0.1c-0.7,0.1-1.7,0.3-2.1,0.8c-0.3,0.3-0.4,0.7-0.3,1c0.1,0.4,0.6,0.8,1.1,1c0.7,0.2,1.5,0.1,2.2,0.1
				c0.2,0,0.4,0,0.6,0c0.6,0,1.3,0.1,1.6,0.2c-1.1,0.3-2.1,0.7-2.9,1.2c-4.7,2.7-7.1,8-6,12.9c0.3,1.3,0.8,2.5,1.6,3.5
				c-0.6,0.6-1.1,1.4-1.6,2.3c-1.3,0.1-2.3,1.5-2.4,2.9c-0.1,1.1,0.4,1.7,0.8,2.1c0,0.3-0.1,0.7-0.1,1c0,0.5,0,1,0,1.6
				c-0.5,0.6-0.9,1.4-0.9,2.1c-0.1,1.4,0.7,2.5,2.2,2.7c0.4,0.8,0.9,1.6,1.5,2.4c-0.1,0.2-0.1,0.4-0.1,0.6c0,0.8,0.2,1.5,0.7,2
				c0.4,0.4,1.1,0.7,1.8,0.8c0.4,0,0.8-0.1,1.2-0.2c0.2,0.1,0.4,0.2,0.6,0.3c0.9,0.5,1.9,0.8,2.9,1c3.3,4.3,6.9,5.6,10.2,5.6
				c3.7,0,7.1-1.6,9.9-2.9c1-0.5,1.8-0.9,2.6-1.2c0.6-0.2,0.8-0.8,0.6-1.4C162.1,271.4,161.5,271,160.8,271.3z M144.3,269.4
				c-1.1,0.4-2.4,0.5-3.7,0.4c-0.7-2.2-0.5-4.8,0.5-6.4c0.7-1.1,1.7-1.8,3.1-2c1-0.1,2,0.1,2.7,0.7c0.7,0.5,1.1,1.3,1.1,2.3
				C148.2,266.9,146.3,268.7,144.3,269.4z M136.1,250.8c0.5-0.2,1.1-0.4,1.7-0.4c0.8,0,3.1,0.2,3.4,0.8c0,0,0.1,0.1-0.1,0.3
				c-0.2,0.2-1.2,0.3-2.4,0.2c-0.8-0.1-1.7-0.4-2.5-0.8C136.2,250.9,136.2,250.8,136.1,250.8z"/>
			<path d="M301.8,212.4c-0.3-0.9-0.7-1.8-1.2-2.5c0.9-0.9,1.7-2,2.2-3.2c1.9-4.6,0.3-10.3-3.9-13.7c-0.8-0.6-1.7-1.2-2.7-1.7
				c0.3-0.1,1.1,0,1.6,0.1c0.2,0,0.4,0.1,0.6,0.1c0.7,0.2,1.5,0.4,2.2,0.3c0.6-0.1,1.1-0.4,1.2-0.8c0.1-0.3,0.1-0.7-0.1-1
				c-0.3-0.5-1.3-0.8-1.9-1.1c-0.1-0.1-0.3-0.1-0.4-0.1c-1.9-0.7-3.8-1.3-5.3-1.6c-0.2-0.1-0.5-0.1-0.8-0.2
				c-1.3-0.4-2.7-0.8-3.5-0.2c-0.3,0.3-0.5,0.7-0.4,1.3c0,0,0,0,0,0l0,0.1c0.5,2.4,0.9,4.7,1.8,7c0,0.1,0.1,0.3,0.1,0.4
				c0.3,1,0.8,2.5,1.8,2.8c0.5,0.1,0.9,0.1,1.1-0.1c0.6-0.5,0.4-1.7,0.2-2.9c-0.1-0.8-0.3-1.8,0-2c0.1-0.1,0.2,0,0.3,0
				c1.2,0.5,2.1,1.1,3,1.9c3.1,2.8,4.1,7,2.7,10.6c-0.4,0.9-0.9,1.7-1.5,2.3c-0.8-0.7-1.7-1.2-2.7-1.4c-1.2-0.3-5.4-1.1-6.7,1.3
				c-0.4,0.7-0.4,1.3-0.2,2c0.4,1.2,1.9,1.8,2.4,2c2.2,0.8,4.7,0.5,6.8-0.7c0.3,0.5,0.6,1.1,0.9,1.7c-0.6,0.5-0.9,1.2-1,1.9
				c-0.1,1.2,0.6,2.4,1.7,2.8c0,0.4-0.1,0.9-0.2,1.3c-1.3,0.2-2.3,1.3-2.4,2.6c-0.1,0.7,0.1,1.3,0.5,1.9c-0.2,0.3-0.5,0.7-0.8,1
				c-0.3-0.3-0.7-0.4-1-0.4c-0.7-0.1-1.4,0.2-2,0.7c-0.6,0.5-0.9,1.2-1,1.9c0,0.1,0,0.2,0,0.4c-0.4,0.1-0.8,0.2-1.1,0.3
				c0.9-2.6,0.8-5.6-0.3-7.8c-0.9-1.7-2.4-2.9-4.3-3.3c-2.1-0.4-4.1,0.2-5.4,1.8c-1.5,1.7-1.9,4.2-1,6.5c1,2.7,3.4,4.5,6.7,5.1
				c-6.2,4.6-9.7,1.9-12.8-0.4c-0.7-0.5-1.4-1-2-1.4c-0.4-0.2-0.8-0.2-1.2,0c-0.4,0.2-0.7,0.7-0.7,1.1c0,0.4,0.2,0.7,0.5,0.9
				c0.8,0.4,1.5,1,2.3,1.5c2.2,1.5,4.5,3.2,7.5,3.2c2.5,0,5.6-1.2,9.3-4.7c1.1-0.1,2.1-0.2,3-0.6c0.2-0.1,0.4-0.1,0.6-0.2
				c0.3,0.2,0.7,0.4,1.1,0.4c0.7,0.1,1.4-0.1,1.9-0.4c0.6-0.4,0.9-1,1-1.8c0-0.2,0-0.4,0-0.6c0.7-0.6,1.3-1.3,1.8-2.1
				c1.4,0,2.4-0.9,2.6-2.3c0.1-0.8-0.1-1.6-0.5-2.2c0.1-0.5,0.2-1,0.3-1.5c0-0.3,0.1-0.6,0.1-1c0.5-0.3,1-0.9,1.1-1.9
				C303.8,214.4,303.2,212.7,301.8,212.4z M297,209.6c-0.1,0-0.2,0.1-0.3,0.1c-0.8,0.3-1.8,0.5-2.6,0.4c-1.2-0.1-2.2-0.3-2.3-0.6
				c-0.1-0.2,0-0.3,0-0.3c0.2-0.3,1-0.4,1.9-0.4c0.6,0,1.3,0.1,1.6,0.1C295.9,209.1,296.5,209.3,297,209.6z M289.5,227.7
				c-1.3-0.1-2.5-0.4-3.5-0.9c-1.9-1-3.5-3.1-2.9-5.6c0.2-0.9,0.7-1.6,1.5-2.1c0.5-0.3,1.1-0.4,1.7-0.4c0.4,0,0.8,0.1,1.1,0.2
				c1.3,0.4,2.2,1.2,2.7,2.4C290.8,223,290.5,225.6,289.5,227.7z"/>
		</g>
		<g>
			<g>
				<g>
					<path class="st5" d="M196.1,87.4c1.6-0.4,3.5,0.9,4.8,2c0.4-0.3,0.9-0.5,1.5-0.7c0.6-0.2,1.1-0.3,1.6-0.4
						c0.4-1.6,1.1-3.8,2.6-4.4c0.6-0.3,1.3-0.2,2,0.1c-2.2-8.7-5.7-17.9-10.9-18.8c-5.9-1.1-4.6,11.8-2.5,22.6
						C195.5,87.6,195.8,87.5,196.1,87.4z"/>
					<path class="st5" d="M224.5,118.8c3-2.4,4.8-5.8,4.8-10.1c-0.1-4.9-2.5-9.2-6.4-12.2c2.3-10.5,6.4-33.2-1.3-31.6
						c-5.5,1.2-8.8,11.7-10.8,20.9c1.1,1.5,0.9,2.9,0.6,3.7c0.4,0.2,0.8,0.5,1.1,1.1c0.6,0.9,0.6,2.2,0.2,3.7
						c-0.4,1.3-1.1,2.1-2,2.4c-0.2,0.1-0.4,0.1-0.6,0.1c-1.5,0-3.2-1.2-4.2-2.1c-0.3,0.2-0.8,0.4-1.3,0.6c-0.6,0.2-1,0.3-1.5,0.3
						c-0.3,1.5-1.1,3.9-2.7,4.5c-0.3,0.1-0.6,0.2-0.9,0.2c-0.7,0-1.4-0.3-2.1-0.9c-0.6-0.4-1-0.9-1.3-1.4c-3,3-4.8,6.9-4.8,11.2
						c0.1,4.3,1.9,7.6,5,10c-4.9,4.1-7.9,10.3-7.8,17.2c0.2,12.3,10.2,17.4,22.4,17.3s22.1-5.6,22-17.8
						C232.7,128.9,229.5,122.8,224.5,118.8z M217,140.8c-0.2,0.8-1.1,1.1-2.1,1.1c0.2,0.7,0.1,1.5-0.3,2.3c-0.7,0.5-1.5,0.2-2.3-0.4
						c-0.2,0.7-0.8,1.3-1.6,1.7c-0.8,0-1.4-0.7-1.7-1.7c-0.6,0.5-1.4,0.6-2.3,0.4c-0.7-0.5-0.7-1.4-0.4-2.3c-0.8,0-1.5-0.3-2.1-1
						c-0.3-0.8,0.2-1.5,1.1-2.1c-0.6-0.5-1-1.1-1.1-2.1c0.2-0.8,1.1-1.1,2.1-1.1c-0.2-0.7-0.1-1.5,0.3-2.3c0.7-0.5,1.5-0.2,2.3,0.4
						c0.2-0.7,0.8-1.3,1.6-1.7c0.8,0,1.4,0.7,1.7,1.7c0.6-0.5,1.4-0.6,2.3-0.4c0.7,0.5,0.7,1.4,0.4,2.3c0.8,0,1.5,0.3,2.1,1
						c0.3,0.8-0.2,1.5-1.1,2.1C216.5,139.3,216.9,139.9,217,140.8z"/>
				</g>
				<g>
					<path class="st8" d="M211.5,91.2c-0.4-0.7-1.1-0.8-1.1-0.8c-0.2,0-0.3-0.2-0.4-0.4c-0.1-0.2,0-0.4,0.1-0.5c0.1-0.2,1.3-2-1.3-4
						c-0.7-0.6-1.3-0.7-1.8-0.5c-1,0.4-1.6,2.2-2,3.6c0.5,0.3,0.9,1,1.3,2.2c0.4,1.3,0.5,2.3,0.2,3c1.1,0.9,2.7,2,3.8,1.7
						c0.6-0.1,1-0.7,1.2-1.6C212,92.8,211.9,91.8,211.5,91.2z"/>
					<path class="st8" d="M200.3,92.8c-0.4-1.2-0.4-1.9-0.2-2.5c-1.1-1-2.7-2-3.8-1.8c-0.5,0.1-0.9,0.6-1.2,1.5
						c-0.9,3.2,1.3,3.9,1.3,3.9c0.2,0.1,0.3,0.2,0.4,0.4c0.1,0.2,0,0.4-0.1,0.5c0,0-0.4,0.5-0.4,1.3c0.1,0.8,0.6,1.5,1.6,2.3
						c0.7,0.6,1.4,0.8,1.9,0.5c1.1-0.4,1.7-2.3,2.1-3.7C201.3,94.9,200.8,94.1,200.3,92.8z"/>
					<path class="st8" d="M204.8,90c-0.2-0.3-0.3-0.4-0.5-0.5c-0.1,0-0.1,0-0.2,0c-0.1,0-0.2,0-0.4,0c-0.3,0.1-0.6,0.2-1,0.3
						c-0.4,0.1-0.7,0.2-1,0.4c-0.2,0.1-0.4,0.2-0.5,0.4c-0.1,0.2-0.2,0.4-0.1,0.7c0,0.3,0.1,0.7,0.3,1.2c0.2,0.5,0.3,0.9,0.5,1.2
						c0.2,0.4,0.5,0.6,0.8,0.7c0.2,0,0.4,0.1,0.6,0c0.3,0,0.5-0.1,0.9-0.2c0.3-0.1,0.6-0.2,0.8-0.3c0.2-0.1,0.4-0.2,0.5-0.4
						c0.2-0.2,0.3-0.5,0.2-1c0-0.3-0.2-0.8-0.3-1.3C205.1,90.6,205,90.3,204.8,90z"/>
				</g>
			</g>
			<g>
				<g>
					<path class="st8" d="M174.4,94.3c-1.4-0.3-3.2,0.8-4.3,1.8c-0.3-0.2-0.8-0.4-1.3-0.6c-0.5-0.2-1-0.3-1.4-0.3
						c-0.3-1.4-1-3.4-2.4-4c-0.6-0.2-1.2-0.2-1.8,0.1c2-7.8,5.1-16,9.7-16.9c5.3-1,4.1,10.5,2.2,20.2
						C174.9,94.5,174.7,94.4,174.4,94.3z"/>
					<path class="st8" d="M141.5,137.7c-0.1,11,8.7,15.8,19.7,16s20-4.5,20.1-15.5c0.1-6.2-2.7-11.7-7-15.4c2.7-2.1,4.4-5.1,4.5-8.9
						c0-3.8-1.6-7.4-4.3-10c-0.3,0.4-0.7,0.8-1.2,1.2c-0.7,0.5-1.3,0.8-1.9,0.8c-0.3,0-0.5-0.1-0.8-0.2c-1.4-0.6-2.1-2.7-2.5-4
						c-0.4,0-0.8-0.1-1.3-0.3c-0.5-0.2-0.9-0.3-1.2-0.5c-0.9,0.8-2.4,1.8-3.8,1.8c-0.2,0-0.4,0-0.6-0.1c-0.9-0.2-1.5-0.9-1.8-2.1
						c-0.4-1.3-0.3-2.4,0.2-3.3c0.3-0.5,0.7-0.8,1-1c-0.3-0.7-0.5-2,0.5-3.3c-1.7-8.3-4.7-17.7-9.6-18.8c-6.9-1.5-3.2,18.9-1.2,28.3
						c-3.5,2.7-5.7,6.6-5.8,11c0,3.8,1.6,6.9,4.3,9.1C144.5,126,141.6,131.5,141.5,137.7z M156.7,140.3c-0.7-0.5-1.2-1.2-1-1.9
						c0.6-0.6,1.2-0.9,1.9-0.9c-0.3-0.9-0.3-1.7,0.3-2.1c0.8-0.1,1.5,0,2.1,0.4c0.3-0.9,0.8-1.5,1.5-1.5c0.7,0.4,1.2,0.9,1.4,1.5
						c0.7-0.6,1.5-0.8,2.1-0.3c0.4,0.7,0.5,1.4,0.3,2.1c0.9,0,1.7,0.3,1.9,1c-0.1,0.8-0.5,1.4-1,1.8c0.7,0.5,1.2,1.2,1,1.9
						c-0.6,0.6-1.2,0.9-1.9,0.9c0.3,0.9,0.3,1.7-0.3,2.1c-0.8,0.1-1.5,0-2.1-0.4c-0.3,0.9-0.8,1.5-1.5,1.5c-0.7-0.4-1.2-0.9-1.4-1.5
						c-0.7,0.6-1.5,0.8-2.1,0.3c-0.4-0.7-0.5-1.4-0.3-2.1c-0.9,0-1.7-0.3-1.9-1C155.8,141.4,156.1,140.8,156.7,140.3z"/>
				</g>
				<g>
					<path class="st7" d="M160.6,97.7c0.4-0.6,0.9-0.7,1-0.7c0.2,0,0.3-0.2,0.4-0.3c0.1-0.2,0-0.3-0.1-0.5c-0.1-0.2-1.1-1.8,1.1-3.6
						c0.6-0.5,1.2-0.6,1.6-0.5c0.9,0.4,1.5,2,1.8,3.3c-0.5,0.3-0.8,0.9-1.2,2c-0.4,1.2-0.5,2-0.2,2.6c-1,0.8-2.4,1.8-3.4,1.6
						c-0.5-0.1-0.9-0.6-1.1-1.4C160.2,99.1,160.2,98.3,160.6,97.7z"/>
					<path class="st7" d="M170.6,99.1c0.3-1.1,0.4-1.7,0.2-2.3c1-0.9,2.4-1.8,3.4-1.6c0.5,0.1,0.8,0.6,1,1.3
						c0.8,2.8-1.1,3.5-1.2,3.5c-0.2,0.1-0.3,0.2-0.3,0.4c0,0.2,0,0.3,0.1,0.5c0,0,0.4,0.5,0.3,1.2c-0.1,0.7-0.5,1.4-1.4,2
						c-0.7,0.5-1.2,0.7-1.7,0.5c-1-0.4-1.5-2.1-1.8-3.3C169.8,101,170.2,100.3,170.6,99.1z"/>
					<path class="st7" d="M166.6,96.6c0.1-0.2,0.3-0.4,0.5-0.4c0.1,0,0.1,0,0.2,0c0.1,0,0.2,0,0.3,0c0.2,0,0.5,0.1,0.9,0.3
						c0.4,0.1,0.7,0.2,0.9,0.3c0.2,0.1,0.3,0.2,0.4,0.3c0.1,0.1,0.2,0.3,0.1,0.6c0,0.3-0.1,0.6-0.3,1.1c-0.2,0.5-0.3,0.8-0.5,1.1
						c-0.2,0.4-0.4,0.5-0.7,0.6c-0.2,0-0.3,0-0.5,0c-0.2,0-0.5-0.1-0.8-0.2c-0.3-0.1-0.5-0.2-0.7-0.3c-0.2-0.1-0.3-0.2-0.4-0.3
						c-0.2-0.2-0.2-0.5-0.2-0.9c0-0.3,0.1-0.7,0.3-1.2C166.3,97.2,166.5,96.8,166.6,96.6z"/>
				</g>
			</g>
			<g>
				<g>
					<path class="st7" d="M272.2,91.2c-1.4-0.3-3,0.8-4.1,1.7c-0.3-0.2-0.8-0.4-1.3-0.6c-0.5-0.2-1-0.3-1.3-0.3
						c-0.3-1.4-1-3.3-2.3-3.8c-0.5-0.2-1.1-0.2-1.8,0.1c1.9-7.5,4.9-15.4,9.3-16.2c5-0.9,3.9,10.1,2.1,19.4
						C272.6,91.4,272.4,91.3,272.2,91.2z"/>
					<path class="st7" d="M240.7,132.8c-0.1,10.5,8.3,15.2,18.9,15.3s19.1-4.3,19.3-14.8c0.1-5.9-2.5-11.2-6.7-14.8
						c2.6-2,4.3-4.9,4.3-8.6c0-3.7-1.5-7.1-4.1-9.6c-0.3,0.4-0.7,0.8-1.1,1.2c-0.6,0.5-1.3,0.7-1.8,0.7c-0.3,0-0.5-0.1-0.8-0.2
						c-1.4-0.6-2.1-2.6-2.4-3.9c-0.4,0-0.8-0.1-1.2-0.2c-0.5-0.2-0.8-0.3-1.1-0.5c-0.9,0.7-2.3,1.8-3.6,1.8c-0.2,0-0.4,0-0.6-0.1
						c-0.8-0.2-1.4-0.9-1.7-2c-0.4-1.3-0.3-2.3,0.2-3.1c0.3-0.5,0.7-0.8,1-0.9c-0.3-0.7-0.5-1.9,0.5-3.2c-1.6-7.9-4.5-17-9.2-18
						c-6.6-1.4-3.1,18.1-1.1,27.1c-3.3,2.6-5.5,6.3-5.5,10.5c0,3.7,1.5,6.6,4.1,8.7C243.5,121.6,240.8,126.9,240.7,132.8z
						 M255.2,135.4c-0.7-0.5-1.2-1.1-0.9-1.8c0.5-0.6,1.2-0.8,1.8-0.9c-0.3-0.8-0.3-1.6,0.3-2c0.8-0.1,1.4,0,2,0.4
						c0.3-0.8,0.7-1.5,1.4-1.4c0.7,0.3,1.2,0.8,1.4,1.5c0.7-0.5,1.4-0.7,2-0.3c0.4,0.7,0.4,1.4,0.2,2c0.9,0,1.6,0.2,1.8,0.9
						c-0.1,0.8-0.4,1.4-1,1.8c0.7,0.5,1.2,1.1,0.9,1.8c-0.5,0.6-1.2,0.8-1.8,0.9c0.3,0.8,0.3,1.6-0.3,2c-0.8,0.1-1.4,0-2-0.4
						c-0.3,0.8-0.7,1.5-1.4,1.4c-0.7-0.3-1.2-0.8-1.4-1.5c-0.7,0.5-1.4,0.7-2,0.3c-0.4-0.7-0.4-1.4-0.2-2c-0.9,0-1.6-0.2-1.8-0.9
						C254.3,136.3,254.6,135.8,255.2,135.4z"/>
				</g>
				<g>
					<path class="st5" d="M258.9,94.5c0.3-0.6,0.9-0.7,0.9-0.7c0.2,0,0.3-0.1,0.4-0.3c0.1-0.2,0-0.3-0.1-0.5
						c-0.1-0.2-1.1-1.7,1.1-3.4c0.6-0.5,1.1-0.6,1.6-0.4c0.9,0.4,1.4,1.9,1.7,3.1c-0.4,0.3-0.8,0.9-1.1,1.9
						c-0.4,1.1-0.4,1.9-0.2,2.5c-0.9,0.8-2.3,1.7-3.3,1.5c-0.5-0.1-0.8-0.6-1-1.3C258.5,95.8,258.6,95,258.9,94.5z"/>
					<path class="st5" d="M268.5,95.9c0.3-1,0.4-1.7,0.2-2.2c1-0.8,2.3-1.7,3.2-1.5c0.5,0.1,0.8,0.5,1,1.3c0.8,2.7-1.1,3.4-1.2,3.4
						c-0.2,0.1-0.3,0.2-0.3,0.3c0,0.2,0,0.3,0.1,0.5c0,0,0.4,0.5,0.3,1.1c-0.1,0.6-0.5,1.3-1.3,1.9c-0.6,0.5-1.2,0.6-1.6,0.5
						c-0.9-0.4-1.5-2-1.8-3.2C267.7,97.7,268.2,97,268.5,95.9z"/>
					<path class="st5" d="M264.7,93.5c0.1-0.2,0.3-0.3,0.4-0.4c0.1,0,0.1,0,0.2,0c0.1,0,0.2,0,0.3,0c0.2,0,0.5,0.1,0.8,0.2
						c0.4,0.1,0.6,0.2,0.9,0.3c0.2,0.1,0.3,0.2,0.4,0.3c0.1,0.1,0.1,0.3,0.1,0.6c0,0.3-0.1,0.6-0.3,1c-0.2,0.5-0.3,0.8-0.4,1.1
						c-0.2,0.3-0.4,0.5-0.7,0.6c-0.1,0-0.3,0-0.5,0c-0.2,0-0.5-0.1-0.7-0.2c-0.3-0.1-0.5-0.2-0.7-0.3c-0.2-0.1-0.3-0.2-0.4-0.3
						c-0.2-0.2-0.2-0.5-0.2-0.8c0-0.3,0.1-0.7,0.3-1.1C264.4,94,264.6,93.7,264.7,93.5z"/>
				</g>
			</g>
		</g>
	</g>
</g>
</svg>
