<?xml version="1.0" encoding="utf-8"?>
<!-- Generator: Adobe Illustrator 21.0.1, SVG Export Plug-In . SVG Version: 6.00 Build 0)  -->
<svg version="1.1" id="Calque_1" xmlns="http://www.w3.org/2000/svg" xmlns:xlink="http://www.w3.org/1999/xlink" x="0px" y="0px"
	 viewBox="0 0 432 432" style="enable-background:new 0 0 432 432;" xml:space="preserve">
<style type="text/css">
	.st0{fill:#F9A01B;}
	.st1{fill:#BC8BBE;}
	.st2{fill:#F16883;}
	.st3{fill:#C49A6C;}
	.st4{fill:#C37B3B;}
	.st5{fill:#010101;}
	.st6{fill:#DA1A5D;}
	.st7{fill:#C2B59B;}
	.st8{fill:#F2663F;}
	.st9{fill:#FFFFFF;}
	.st10{fill:#9B8579;}
	.st11{fill:#F8B2B4;}
</style>
<g>
	<g>
		<g>
			<path class="st0" d="M333,186.6c-0.3,0.6-0.6,1.3-0.9,1.9c-2.5,5.5-4.8,11-7.4,16.5c-2.3,4.9-5.1,9.6-8.5,13.9
				c-2.1,2.6-4.3,5.2-7.2,7.1c-4.3,2.8-10.5,3.3-15.6-0.7c-3.4-2.6-5.8-6-7.6-9.8c-2-4.2-3.1-8.6-4.2-13c-0.1-0.3-0.2-0.6-0.3-1.3
				c-1.3,2.8-2.4,5.3-3.6,7.8c-2.1,4.5-4,9-6.2,13.4c-1.1,2.3-2.5,4.3-4.3,6.2c-2.6,2.9-6.1,2.5-8.8,0.3c-1.8-1.5-3.1-3.3-4.3-5.3
				c-3.1-5.2-5.1-10.9-6.6-16.7c-0.5-2-0.9-4-1.4-6.4c-0.3,0.7-0.5,1-0.7,1.3c-2.1,6.2-4.2,12.4-6.4,18.5c-1.4,3.9-3,7.8-4.5,11.7
				c-0.3,0.7-0.8,1.3-1.2,1.8c-1.8,2.1-4.7,2.2-6.6,0.2c-1.9-2-2.7-4.5-3.4-7c-2.1-7.4-2.1-14.9-2-22.5c0.1-7.4,0.2-14.8,0.3-22.2
				c0-1.2-0.3-2.5-0.5-3.7c-0.2-1.2-0.7-1.4-1.8-1.1c-2.3,0.5-4.2,1.8-6,3.2c-6.5,5.2-11.1,11.9-14.6,19.3c-2.2,4.8-3.9,9.8-4.7,15
				c-0.2,1.3,0,2.7-0.1,4.1c0,1.4,0,2.7-0.2,4.1c-0.1,1.4-0.9,2.4-2.3,2.8c-1.3,0.4-2.6,0.2-3.4-1c-0.9-1.2-1.8-2.4-2.3-3.8
				c-1.2-3.6-2.2-7.3-3.2-11c-0.1-0.3-0.1-0.6-0.3-1.3c-0.9,1.9-1.5,3.4-2.2,4.8c-2.1,4.3-4.2,8.5-6.5,12.7
				c-1.8,3.3-4.2,6.3-7.1,8.8c-5,4.3-11.3,4.4-16.3-0.7c-4.3-4.4-7-9.7-9-15.5c-2.2-6.4-3.2-13.1-3.7-19.9
				c-0.3-4.1-0.3-8.2-0.1-12.4c0.3-6.5,1.1-13,3.8-19.1c1.2-2.8,2.8-5.4,5-7.6c1.4-1.5,3.1-2.5,5-3.2c2.7-0.9,5.1-0.4,7.4,1
				c3.8,2.4,6.4,6,8.7,9.8c2.1,3.6,3.3,7.4,3.5,11.6c0.1,1.1-0.2,2.2-0.3,3.2c-0.1,0.7-0.4,1.3-1.2,1.4c-0.6,0.1-1.2-0.5-1.4-1.5
				c-0.3-1.4-0.5-2.8-0.8-4.2c-1-5-3.5-9.3-7-13c-0.9-1-2.2-1.7-3.4-2.3c-1.1-0.6-2-0.4-2.7,0.7c-0.8,1.2-1.6,2.4-2.1,3.7
				c-1.8,4.3-2.5,8.9-3,13.5c-0.6,5.2-0.6,10.5-0.3,15.8c0.3,5,1,10,2.2,14.9c1.3,5.5,2.6,10.9,4.8,16.1c0.5,1.3,1.3,2.6,2.1,3.7
				c1.5,2.1,3.2,2.5,5.5,1.4c0.8-0.4,1.6-0.9,2.3-1.5c2.3-2,4.2-4.4,5.6-7.1c3.3-6.2,6.4-12.6,9.6-18.8c0.6-1.2,0.7-2.3,0.5-3.6
				c-0.6-4.8-1-9.7-1.4-14.5c-0.4-4.9-0.7-9.8-0.9-14.7c-0.2-6-0.1-11.9-0.1-17.9c0-0.3,0-0.7,0-1c-0.2-0.1-0.3-0.2-0.3-0.2
				c-7.2,0.2-14.4-0.5-21.6-0.8c-5.8-0.2-11.7-0.6-17.5-0.4c-8.8,0.3-17,3-24.1,8.4c-1.5,1.2-2.9,2.6-4.1,4.1
				c-0.7,0.8-1.1,2-1.4,3.1c-0.3,0.7-0.6,1.3-1.4,1.2c-0.8,0-1.2-0.5-1.4-1.2c-0.5-1.3-0.1-2.5,0.4-3.7c0.5-1.1,1.1-2.1,1.9-3.1
				c3-3.7,7-6.3,11.3-8.3c6.5-3,13.3-4.5,20.4-4.8c6.1-0.3,12.2,0.1,18.4,0.5c6,0.4,12,0.7,18,1c0.6,0,1.1,0,1.8,0
				c0.3-1.9,0.6-3.7,0.7-5.4c0.3-3.9,1.6-7.5,3.4-10.9c1.4-2.7,3.3-4.9,6.2-6.2c1.7-0.8,3.4-0.9,5.2-0.2c4.3,1.8,7,4.9,7.7,9.6
				c0.7,4.5-1.1,8.2-4.5,11.1c-1.8,1.5-3.9,2.6-6.1,3.5c-0.5,0.2-0.9,0.4-1.6,0.7c-0.1,17.9,0.6,35.7,3.1,53.9
				c0.5-1.2,0.9-2,1.2-2.9c3.8-9.6,9.7-17.6,16.9-24.8c1.2-1.2,2.5-2.4,3.8-3.5c1.3-1,2.7-2,4.2-2.6c3.7-1.4,6.5-0.6,9.2,2.4
				c2,2.3,2.7,5.1,3.4,8c1.3,6,1.1,12.1,1,18.1c-0.1,6.1-0.4,12.1-0.6,18.2c-0.1,2.8,0,5.7,0,8.5c0.1,0,0.2,0.1,0.3,0.1
				c0.5-1.2,1.1-2.3,1.6-3.5c3.6-9.6,7.2-19.2,10.8-28.8c0.4-1.1,0.5-2.1,0.4-3.2c-0.7-6.6-0.6-13.2,0-19.7c0.2-1.9,0.6-3.8,1.6-5.4
				c1.7-2.8,4.5-2.9,6.4-0.3c1.1,1.5,1.7,3.3,1.8,5.1c0.3,3.5,0.3,7.1,0.6,10.6c0.5,5.5,0.9,11.1,1.6,16.6c0.5,4.4,1.2,8.8,2,13.2
				c0.7,3.7,1.8,7.3,2.8,11c0.3,1,0.9,1.8,1.4,2.8c1.6-0.9,2.7-2.1,3.5-3.5c1.6-2.7,3.2-5.4,4.6-8.3c2.9-5.7,5.6-11.5,8.5-17.3
				c0.7-1.4,0.9-2.8,0.7-4.3c-0.4-3,0.1-5.9,0.4-8.9c0.3-3.4,1-6.7,2.1-9.9c1.5-4.4,3.7-8.5,7.5-11.5c5.3-4,10.8-3.9,16.2-0.1
				c2.4,1.7,4.3,4,5.7,6.6c1.7,3.1,2.9,6.3,3.5,9.8c0.1,0.8,0.1,1.7,0.1,2.6c0,0.6-0.4,1.1-0.9,1c-0.4,0-1-0.3-1.2-0.7
				c-0.3-0.4-0.4-1-0.5-1.4c-0.9-3-2.1-5.8-3.7-8.5c-1.1-1.8-2.6-3.3-4.5-4.5c-3.2-2-6.4-1.4-8.5,1.7c-1.9,2.7-2.8,5.7-3.6,8.9
				c-1.7,6.8-1.7,13.7-1.2,20.7c0.3,3.5,0.6,7.1,1.5,10.5c0.9,3.4,1.7,6.8,3.4,9.9c2.7,4.7,5.9,5.6,10.9,2.3
				c2.3-1.5,4.1-3.6,5.8-5.9c3.8-5,6.9-10.5,9.7-16.2c3.1-6.3,6-12.6,8.9-19c0.3-0.7,0.4-1.6,0.4-2.5c-0.1-5.8-0.2-11.7-0.2-17.5
				c0-2.4,0.4-4.8,0.6-7.2c0-0.5,0.1-1,0.1-1.6c-0.5,0-1,0-1.4,0c-5.6,0.5-11.2,0.1-16.8-0.4c-3.8-0.3-7.6-0.6-11.5-1
				c-3.8-0.4-7.5-0.8-11.3-1.3c-6.4-0.7-12.8-0.9-19.1,0.9c-1.6,0.5-3.1,1.4-4.7,2.1c-0.3,0.1-0.6,0.5-0.9,0.5
				c-0.5,0-1.1-0.1-1.4-0.4c-0.3-0.3-0.4-1-0.2-1.4c0.3-0.6,0.8-1.2,1.4-1.7c2.3-1.9,5-2.7,7.8-3.3c4.7-1,9.5-1.2,14.4-0.8
				c5.7,0.4,11.3,1,17,1.4c3.8,0.3,7.5,0.6,11.3,0.8c3.6,0.2,7.2,0.4,10.8,0.5c1.7,0.1,3.4-0.1,5.3-0.2c0.2-0.9,0.4-1.8,0.7-2.7
				c1.1-3.6,2.5-7.2,4.8-10.2c1.5-2,3.1-3.8,5.5-4.8c3.2-1.4,6.2-1.3,8.8,1.1c2.6,2.3,3.2,5.4,2.4,8.6c-0.9,3.7-3.4,6.2-6.6,8
				c-1.6,0.9-3.3,1.5-5,2.3c-1.6,7.8-0.5,34.1,0.7,38.8c0.6-1.8,1.2-3.6,1.8-5.3c2.2-5.8,5.1-11.3,9.3-16c2.5-2.8,5.3-5.2,8.8-6.8
				c1.6-0.7,3.3-1.2,5.2-0.9c3.3,0.6,5.2,2.7,6.1,5.8c1,3.7,0.5,7.3-0.6,10.8c-1.8,6.2-5.4,11.3-9.8,15.9c-3.8,4-8.4,7.1-13,10.1
				c-0.4,0.2-0.7,0.5-1.1,0.8c-0.1,0.1-0.1,0.2-0.2,0.3c3.5,2.5,5.5,6.2,7.7,9.8c1.9,3.1,3.9,6.2,6.5,8.9c3.5,3.5,8.3,4.2,12.4,1.5
				c4.6-3.1,7.4-7.4,8-13c0.2-1.5-0.2-3-1-4.3c-0.8-1.3-1.5-1.5-2.8-0.7c-0.8,0.5-1.5,1.1-2.2,1.7c-0.3,0.2-0.6,0.6-0.9,0.7
				c-0.5,0.1-1.1,0-1.4-0.2c-0.3-0.2-0.4-0.8-0.3-1.2c0.4-2.4,4.8-5.5,7.1-5.1c1.5,0.2,2.7,1,3.5,2.2c1.5,2.1,2.3,4.5,2.2,7.1
				c-0.3,7.7-3.3,13.9-10.2,17.7c-5.1,2.8-10.4,2.4-15.4-0.5c-4.3-2.5-7.2-6.3-9.8-10.4c-1.9-3-3.8-6-5.7-9c-0.4-0.6-0.8-1-1.3-1.5
				c-0.1,0-0.3,0.1-0.4,0.1c0,0.8,0.1,1.6,0.1,2.4c0.2,2.3,0.7,4.7,0.2,7c-0.4,2-1.6,3.4-3.5,3.8c-1.6,0.3-3.4-0.5-4.3-2.2
				c-0.5-0.9-1.1-1.9-1.4-2.9c-1-3.6-2.1-7.3-2.7-11c-0.9-4.8-1.4-9.6-2.1-14.4c-0.1-0.8-0.1-1.5-0.1-2.3
				C333.2,186.7,333.1,186.6,333,186.6z M346.2,200.5c0.2,0,0.3,0.1,0.5,0.1c3.7-2.4,7.3-4.9,10.5-8c5.8-5.7,9.9-12.4,12-20.3
				c0.6-2.1,0.9-4.2,0.6-6.3c-0.3-2-1.2-2.6-3.1-2.1c-1.3,0.4-2.6,0.9-3.8,1.6c-5,3.2-8.6,7.7-11.2,12.9c-3,5.8-4.6,12.1-5.3,18.6
				C346.3,198.3,346.3,199.4,346.2,200.5z M189.6,147.9c3-1,5.3-2.3,7.1-4.4c1.7-1.9,2.4-4.2,2.1-6.7c-0.3-2.8-1.7-4.8-4.4-5.9
				c-1.3-0.5-2.1-0.2-2.6,1.1c-0.4,0.9-0.8,1.9-0.9,2.9c-0.4,2.3-0.7,4.5-0.9,6.8C189.8,143.7,189.7,145.7,189.6,147.9z
				 M344.6,144.7c1.9-0.4,3.3-1.2,4.6-2.1c2.1-1.5,3.3-3.6,3.4-6.2c0-1.5-0.9-3-1.9-3.4c-1.1-0.4-2.3,0.2-3.2,1.7
				C345.6,137.7,344.9,141,344.6,144.7z"/>
			<path class="st0" d="M248.4,145.9c1.5,0,2.5,0.7,3,2.1c0.4,1,0.7,2.1,0.9,3.1c0.4,1.9-0.5,3.7-2.2,4.6c-1.5,0.7-3.5,0.2-4.7-1.4
				c-1.5-1.9-1.4-5.2,0.1-7.1C246.3,146.3,247.3,145.9,248.4,145.9z"/>
		</g>
		<g>
			<path class="st1" d="M307.4,236.4c-0.1-0.1-0.2-0.1-0.4-0.1c-0.1,0-0.2,0-0.3,0c-2.1,0.1-6.3-0.5-7,1.9c-0.6,1.8,0.7,2.6,2.3,2.7
				c-0.4,3.9-1.7,7.6-2.8,11.3c-1.2,4-2.4,8-3.7,12c-2.3,7.1-4.7,14.2-7.1,21.3c-4.8-14.6-9.5-29.1-13.3-43.9
				c1.2-0.3,2.1-1.1,1.9-2.5c-0.4-2.4-3.5-1.7-5.3-1.6c-1.8,0.1-4.1,0-4.3,2.2c-0.2,1.9,1.4,2.3,3,2.3c4.2,16.8,9.8,33.3,15.2,49.8
				c-1.2,0.2-2.2,0.9-2,2.4c0.3,2.4,3,2,4.8,1.9c1.8,0,4.5,0.3,4.8-1.9c0.2-1.5-0.7-2.2-1.9-2.4c3.1-8.7,6.2-17.4,8.9-26.2
				c1.4-4.5,2.8-9.1,4.1-13.7c1-3.7,2.1-7.3,2.5-11.1c1.3-0.2,2.4-0.6,2.6-2.1C309.4,237.4,308.5,236.6,307.4,236.4z"/>
			<path class="st1" d="M261.9,287.9c-1.2,0.6-1.3,1.8-1.3,3c-5.5,0.1-11,0.1-16.6,0.2c0-9.9,0.1-19.9,0.1-29.8c2.7,0,5.4-0.1,8-0.1
				c0.1,1.4,0.8,2.6,2.5,2.5c2.5-0.3,2.2-3,2.2-4.8c0-1.8,0.5-4.5-1.9-4.8c-1.8-0.3-2.5,1-2.7,2.5c-2.7,0-5.4,0.1-8.1,0.1
				c0-5.1,0-10.1,0-15.2c5.5-0.1,10.9-0.1,16.4-0.2c0,1.4,0.1,2.8,1.8,3.2c1.5,0.3,2.6-0.7,2.8-2c0,0,0,0,0,0c0-0.1,0-0.1,0-0.2
				c0-1.3,0.6-3.5-0.4-4.7c-1.2-1.5-3.9-0.9-5.5-0.9c-5.6,0.1-11.4-0.2-17,0.2c-3.9,0.3-2.9,3.9-3,7c0,5.6,0,11.2,0,16.9
				c0,5.7,0,11.4,0,17.2c0,2.8,0,5.5,0,8.3c0,2.4-0.5,5.4,0,7.7c0.2,0.9,0.6,1.6,1.4,2c2.1,0.9,5.8,0.1,8,0.1c2.8,0,5.5-0.1,8.3-0.1
				c1.8,0,5.3,0.6,7-0.4c1.8-1.1,2-5.8,0.5-7.1C263.9,287.5,262.8,287.4,261.9,287.9z"/>
			<path class="st1" d="M333.6,287.9c-1.2,0.6-1.3,1.8-1.3,3c-5.5,0.1-11,0.1-16.6,0.2c0-9.9,0.1-19.9,0.1-29.8c2.7,0,5.4-0.1,8-0.1
				c0.1,1.4,0.8,2.6,2.5,2.5c2.5-0.3,2.2-3,2.2-4.8c0-1.8,0.5-4.5-1.9-4.8c-1.8-0.3-2.5,1-2.7,2.5c-2.7,0-5.4,0.1-8.1,0.1
				c0-5.1,0-10.1,0-15.2c5.5-0.1,10.9-0.1,16.4-0.2c0,1.4,0.1,2.8,1.8,3.2c1.5,0.3,2.6-0.7,2.8-2c0,0,0,0,0,0c0-0.1,0-0.1,0-0.2
				c0-1.3,0.6-3.5-0.4-4.7c-1.2-1.5-3.9-0.9-5.5-0.9c-5.6,0.1-11.4-0.2-17,0.2c-3.9,0.3-2.9,3.9-3,7c0,5.6,0,11.2,0,16.9
				c0,5.7,0,11.4,0,17.2c0,2.8,0,5.5,0,8.3c0,2.4-0.5,5.4,0,7.7c0.2,0.9,0.6,1.6,1.4,2c2.1,0.9,5.8,0.1,8,0.1c2.8,0,5.5-0.1,8.3-0.1
				c1.8,0,5.3,0.6,7-0.4c1.8-1.1,2-5.8,0.5-7.1C335.6,287.5,334.5,287.4,333.6,287.9z"/>
			<path class="st1" d="M372.1,286.8c-1.6-0.2-2.2,0.8-2.4,2c-4.3-2.1-7.9-6.1-11-9.6c-3.1-3.5-6.1-7.1-8.9-10.9
				c8,1.2,17,0.6,22.8-5.6c5.2-6,7.7-16.4,2.7-23.3c-6.9-9.7-20.5-4.7-29.1,0c0-0.3,0-0.5,0-0.8c1.4-0.2,2.7-0.9,2.5-2.7
				c-0.3-2.5-3-2-4.8-1.9c-1.8,0.1-4.5-0.1-4.8,2.2c-0.3,1.8,1,2.5,2.5,2.6c0,17.5,0,35,0,52.5c-1.4,0.2-2.7,0.8-2.5,2.6
				c0.3,2.5,3,2,4.8,2c1.8-0.1,4.5,0.3,4.8-2.1c0.3-1.8-1-2.5-2.5-2.6c0-6.6,0-13.2,0-19.8c3.3,4.5,6.9,8.9,10.7,13
				c3.6,4,7.7,7.8,12.9,9.4c0.3,1.2,1.2,2.1,2.6,1.9c2.4-0.3,2-2.7,2-4.5C374.3,289.5,374.4,287,372.1,286.8z M346.2,262.7
				c0-4.7,0-9.5,0-14.2c0-0.8-0.3-2.6-0.1-3.2c0.2-0.4,0.3-0.5,0.9-0.8c0.8-0.6,1.9-1,2.8-1.5c4.5-2.2,9.7-4.3,14.8-4.2
				c6.9,0.1,9.7,6,8.5,12.4c-0.7,4.1-2.9,8.2-6.5,10.4c-3.5,2.2-7.8,2.4-11.9,2.3C351.8,263.8,349,263.4,346.2,262.7z"/>
		</g>
		<g>
			<path class="st2" d="M191,110.2c0.1-1.8-1.3-2.6-2.7-2.6c-0.1,0-0.2,0-0.3,0c-2,0.3-6.3-0.1-6.7,2.9c-0.2,1.7,0.9,2.5,2.2,2.7
				c-0.6,3.2-1.5,6.5-3.6,8.9c-3.4,3.9-8.7,2.9-12.2-0.2c-6.6-6-7.6-17.7-7.1-26.2c0.5-7.6,2.3-17.1,7.6-22.6
				c3-3.2,7.2-4.5,10.5-1.1c2.1,2.2,3.3,5.3,4.1,8.3c-1.3,0.1-2.5,0.5-2.5,2.3c0,2.6,2.5,2.6,4.3,2.7c1.8,0.1,4.8,0.9,5.3-1.7
				c0.3-1.8-0.8-2.7-2.2-3c-1.4-7-5.2-15.3-12.7-15.7c-8.2-0.5-13.2,7.9-15.9,15.1c-3.8,10.3-4.3,22.1-1.4,32.7
				c2.3,8.5,8,17.4,17.3,17c7.9-0.3,13-9.3,13.6-17C189.7,112.3,190.9,111.9,191,110.2z"/>
			<path class="st2" d="M267.6,66.7c-0.1,0-0.2-0.1-0.4-0.1c-5.8,0.1-11.5,0.3-17.3,0.4c-2.9,0.1-6.4-0.3-9.2,0.2
				c-0.5,0.1-0.9,0.1-1.3,0.4c-1.8,1.2-1.4,5.5,0.2,6.7c2.2,1.6,3.4-0.5,3.6-2.4c2.8-0.1,5.6-0.1,8.4-0.2c0,17.7,0,35.5,0,53.2
				c-1.4,0.2-2.7,0.9-2.5,2.6c0.3,2.5,3,2,4.8,2c1.8-0.1,4.5,0.2,4.8-2.1c0.3-1.8-1-2.5-2.5-2.6c0-17.7,0-35.4,0-53.2
				c2.8-0.1,5.6-0.1,8.4-0.2c-0.1,1,0.1,2,1.1,2.6c1,0.5,2.1,0.3,2.8-0.4c1-1,1.2-3.4,1-4.7C269.4,67.7,268.8,67,267.6,66.7z"/>
			<path class="st2" d="M376,66.7c-0.1,0-0.2-0.1-0.4-0.1c-5.8,0.1-11.5,0.3-17.3,0.4c-2.9,0.1-6.4-0.3-9.2,0.2
				c-0.5,0.1-0.9,0.1-1.3,0.4c-1.8,1.2-1.4,5.5,0.2,6.7c2.2,1.6,3.4-0.5,3.6-2.4c2.8-0.1,5.6-0.1,8.4-0.2c0,17.7,0,35.5,0,53.2
				c-1.4,0.2-2.7,0.9-2.5,2.6c0.3,2.5,3,2,4.8,2c1.8-0.1,4.5,0.2,4.8-2.1c0.3-1.8-1-2.5-2.5-2.6c0-17.7,0-35.4,0-53.2
				c2.8-0.1,5.6-0.1,8.4-0.2c-0.1,1,0.1,2,1.1,2.6c1,0.5,2.1,0.3,2.8-0.4c1-1,1.2-3.4,1-4.7C377.8,67.7,377.2,67,376,66.7z"/>
			<path class="st2" d="M328.7,92.7c-4.2-1.5-9.5-3.1-12-7.1c-2.9-4.4-0.3-10.4,3.8-13c6.1-3.9,15.1-1.7,18.3,4.8
				c-1.2,0.3-2.2,1-2,2.6c0.3,2.5,3,2,4.8,1.9c1.8-0.1,4.5,0.1,4.8-2.2c0.3-1.9-1.2-2.5-2.7-2.6c-1.5-6-7.8-9.9-13.5-10.7
				c-6.2-0.8-13.2,1.3-16.9,6.6c-4.5,6.4-2.9,14.5,3.2,19.1c3.4,2.5,7.5,4.1,11.6,5.4c5.5,1.8,12.8,3,14.3,9.8
				c1.4,6.6-2.5,15.4-9.2,17.3c-7.3,2.1-13.4-3.9-16.5-9.9c1-0.4,1.8-1.2,1.6-2.6c-0.4-2.6-3.5-1.8-5.3-1.7c-1.8,0.1-4.1,0-4.3,2.3
				c-0.2,2.1,1.5,2.5,3.1,2.5c2.8,6.4,7.9,12.5,14.9,14.1c7.1,1.7,13.7-1.9,17.4-7.9c3.3-5.5,4.8-13.6,1.2-19.2
				C341.7,96.4,334.5,94.7,328.7,92.7z"/>
			<path class="st2" d="M301.6,121c-1.2,0.7-1.3,1.9-1.3,3.2c-5.5,0.1-11,0.1-16.6,0.2c0-10.6,0.1-21.1,0.1-31.7
				c2.7,0,5.4-0.1,8-0.1c0.1,1.5,0.8,2.8,2.5,2.6c2.5-0.3,2.2-3.2,2.2-5.1c0-1.9,0.5-4.7-1.9-5.1c-1.8-0.3-2.5,1.1-2.7,2.7
				c-2.7,0.1-5.4,0.1-8.1,0.2c0-5.4,0-10.7,0-16.1c5.5-0.1,10.9-0.2,16.4-0.2c0,1.5,0.1,3,1.8,3.4c1.5,0.3,2.6-0.7,2.8-2.2
				c0,0,0,0,0,0c0-0.1,0-0.1,0-0.2c0-1.4,0.6-3.8-0.4-5c-1.2-1.6-3.9-1-5.5-0.9c-5.6,0.1-11.4-0.2-17,0.2c-3.9,0.3-2.9,4.2-3,7.4
				c0,6,0,11.9,0,17.9c0,6.1,0,12.2,0,18.2c0,2.9,0,5.9,0,8.8c0,2.5-0.5,5.7,0,8.2c0.2,0.9,0.6,1.7,1.4,2.1c2.1,1,5.8,0.1,8,0.1
				c2.8,0,5.5-0.1,8.3-0.1c1.8,0,5.3,0.7,7-0.4c1.8-1.1,2-6.2,0.5-7.6C303.6,120.6,302.5,120.5,301.6,121z"/>
			<path class="st2" d="M234.1,65.1C234.1,65.1,234.1,65.1,234.1,65.1c-0.1,0-0.2,0-0.2,0c-2-0.1-6.5-1.2-7.3,1.5
				c-0.6,1.9,0.8,2.8,2.3,3.1c0.5,10.6,1.5,21.1,0.8,31.7c-0.6,8.8-3.6,26.7-16.5,23.4c-9.5-2.4-11.2-15.2-12-23.3
				c-1-10.6-0.5-21.2-0.3-31.9c1.3-0.3,2.3-1.2,2.1-2.7c-0.4-2.6-3.5-1.8-5.3-1.7c-1.8,0.1-4.1,0-4.3,2.3c-0.2,2,1.3,2.4,2.9,2.4
				c-0.2,10.9-0.7,21.9,0.4,32.8c0.8,7.9,2.5,16.8,8.5,22.7c5,4.9,13.1,5.8,18.9,2c6.8-4.5,8.9-13.6,9.8-21.2
				c1.5-12.1,0.3-24.2-0.3-36.3c1.2-0.1,2.3-0.4,2.6-1.8C236.5,66.5,235.5,65.4,234.1,65.1z"/>
		</g>
	</g>
	<g>
		<path d="M212.8,333c-7.3-2.4-16.8-2.2-24.4-1.3c-0.1,0-0.1,0-0.2,0c-3.7-6.5-6.4-13.7-7.5-20.9c-0.3-2.1-3.3-1.7-3,0.5
			c1.2,7.9,4.2,15.9,8.4,23c-2.7,5-3.8,10.6-5.5,16c-0.6,2.1,2.2,3.4,2.8,1.3c1.4-4.8,2.4-9.8,4.6-14.2c3.1,4.7,6.7,8.9,10.6,12.3
			c1.5,1.4,3.4-1.3,1.9-2.7c-3.8-3.3-7.3-7.5-10.3-12.1c6.8-0.7,15.1-0.9,21.5,1.2C213.5,336.8,214.7,333.6,212.8,333z"/>
		<path d="M144.8,361.1c-2.8-1.1-5.6-2.3-7.6-4.9c-1.7-2.2-3-4.7-4.7-6.9c-0.1-0.1-0.2-0.2-0.3-0.3c1.9-7.6,3.4-15.2,5.1-22.9
			c0.5-2.1-2.6-2.5-3-0.4c-1.8,7.9-3.3,15.9-5.3,23.8c-6.4,2.4-12.4,2.6-19.3,1.8c-2-0.2-2.4,3.1-0.4,3.4c6.6,0.8,12.5,0.6,18.7-1.3
			c-1.1,3.9-2.3,7.7-3.7,11.5c-0.8,2,2.1,3.3,2.8,1.3c1.6-4.3,2.9-8.7,4.1-13.2c1.4,2,2.6,4.2,4.2,6c2.2,2.6,5.3,4,8.3,5.2
			C145.5,365,146.7,361.9,144.8,361.1z"/>
		<g>
			<path class="st2" d="M65.1,254.4c-7.3,3-14.4,8.2-22.3,13.3c-1.1,0.7-0.8,2.2,0.4,2.5c8.8,2.1,15.7,3.8,25.4,4.1L65.1,254.4z"/>
			<path class="st0" d="M192,266.8c3.5-6.7,6.7-15.3,12.3-22.3c-53.9,32.7-51.7-18.7-93.7-28.7c-27.7-7.6-49.3,16.8-47.6,39.9
				c0.1,1,0.2,2,0.4,3c0.9,5.4,2,10.6,3.3,15.5c9.7,36.6,31.8,59.6,66.9,56.7c20.7-1.8,34-6.8,43.7-13.8
				c19.3-13.9,24.7-35.5,46.5-55.1C215,261.3,200.2,263.5,192,266.8z"/>
		</g>
		<path d="M107.5,249.9c1.5,0.5,2.9,1,4.4,1.6c0.8,0.3,1.7,0,2-0.9c0.3-0.8,0-1.9-0.8-2.2c-1.3-0.5-2.6-0.9-3.8-1.4
			c0.7-1.4,1.2-3,1.5-4.7c1.2,0.2,2.4,0.3,3.6,0.2c0.8,0,1.4-1.1,1.3-1.9c-0.1-1-0.9-1.5-1.7-1.4c-1.5,0.1-2.9-0.2-4.4-0.5
			c-0.8-0.2-1.6,0.6-1.7,1.5c0,0.2,0,0.4,0,0.6c-1.6,12.6-16.5,17.3-24.1,7.7c-1.3-1.6-3.7,0.4-2.4,2.1
			C88.6,259.6,101.3,258.3,107.5,249.9z"/>
		<path class="st2" d="M119.8,281.1c-2.4,9.5,11.1,39.3,19.3,33.1c8.2-6.2,3.2-20.1,3.2-20.1s12.5,0.5,10.6-5.9
			c-1.9-6.4-5.2-10.6-5.2-10.6s13.8-0.7,10.1-8.4C149.5,252.2,122.5,270.6,119.8,281.1z"/>
	</g>
	<path d="M73.7,116.2c-0.2,2.3-0.1,4.6,0.4,6.8c-2.8,0.9-5.4,2.4-7.5,4.4c-8.3,7.8-9,20.3-3.9,30.1c3,5.7,7.6,9.6,12.4,13.6
		c4.7,3.9,11.4,10.4,7.4,17.4c-1.1,1.9-2.2-2.3-2.4-3.7c-0.3-1.8-0.3-4.4-1.2-6c-0.8-1.4-2.5-2.4-3.7-1c-0.8,1.1-0.6,4-0.7,5.3
		c-0.1,4,0.2,8,0.6,12c0.4,3.6,0.1,10.5,4.5,8.6c0,0,0,0,0,0c0,0,0.1,0,0.1,0c4.6-2.5,9.2-5.1,13.3-8.5c1.3-1.1,5.2-3.5,5.1-5.8
		c-0.4-6.7-14.7,8.1-11.8,0c1.7-4.7,0.8-10.2-2.2-14.5c-5.5-7.8-14.7-11.5-18.8-20.5c-3.7-8-2.8-18,3.9-24.2c1.7-1.6,3.8-2.8,6-3.5
		c1,2.2,2.4,4.1,4.4,5.7c3.3,2.6,10,6.6,14.1,3.6c3.6-2.7,1.4-6.5-1.2-9c-4-3.8-9.5-5.3-14.7-4.7c-0.4-1.8-0.5-3.6-0.4-5.4
		c1.6-0.3,3-1.3,3.8-2.7c1.2-2.1,0.7-5.1-1.3-6.6c0.6-1.2,1.3-2.3,2-3.3c2.5,1,5.6-0.1,7-2.5c0.7-1.3,0.8-2.8,0.4-4.2
		c1.1-0.6,2.3-1.2,3.6-1.6c0.3,0.9,0.9,1.6,1.7,2.1c2.6,1.5,6.1,0.5,7.6-2.2c0.2-0.3,0.3-0.7,0.5-1.1c1.5,0.1,2.9,0.4,4.4,0.8
		c-7.4,6.8-10.3,19.4-1.1,26c8.5,6.1,19,0.2,19.5-10c0.3-7.2-4.2-13-10.2-16.6c8.5-3.4,18.1-0.6,23.7,6.9c1.5,2,4.9,0.1,3.4-1.9
		c-7.4-9.9-20.7-13.3-31.4-7.1c-2.2-0.9-4.5-1.5-6.8-1.8c-0.6-0.1-1.2-0.1-1.8-0.2c-0.4-0.8-1-1.5-1.9-2c-2.6-1.5-5.4-1.2-7,1.6
		c-0.2,0.4-0.4,0.9-0.6,1.4c-2.1,0.6-4.1,1.5-6,2.7c-2.5-1.3-5.2-1-6.7,1.8c-0.8,1.3-1.1,3.2-0.7,4.8c-0.7,0.9-1.4,1.9-2,3
		c-0.4,0.7-0.8,1.4-1.1,2.2c-1.5,0.1-2.9,0.8-3.8,2.5C71.2,110.9,71.1,114.7,73.7,116.2z M111.5,96.9c2.7,1.3,5.1,3.1,7,5.5
		c3.3,4.1,4.6,10.1,1.2,14.5c-3.1,4-8.2,3.8-11.8,0.8C100.7,111.7,105.1,101.6,111.5,96.9z M79.3,125.9c0.6,0,1.2,0,1.8,0
		c2,0.2,4.1,0.7,5.9,1.6c1,0.5,4.5,2.5,4.6,3.9c0.1,3.5-7.7-1-8.6-1.6C81.3,128.8,80.1,127.4,79.3,125.9z"/>
	<g>
		<path class="st2" d="M227.3,310.9c44,0,88,0,132,0c6.2,0,12.5,0,18.7,0c2.2,0,2.2-3.4,0-3.4c-44,0-88,0-132,0
			c-6.2,0-12.5,0-18.7,0C225.1,307.5,225.1,310.9,227.3,310.9z"/>
		<path d="M378,316.8c-44,0-88,0-132,0c-6.2,0-12.5,0-18.7,0c-2.2,0-2.2,3.4,0,3.4c44,0,88,0,132,0c6.2,0,12.5,0,18.7,0
			C380.2,320.2,380.2,316.8,378,316.8z"/>
		<path class="st0" d="M378,326.2c-44,0-88,0-132,0c-6.2,0-12.5,0-18.7,0c-2.2,0-2.2,3.4,0,3.4c44,0,88,0,132,0c6.2,0,12.5,0,18.7,0
			C380.2,329.6,380.2,326.2,378,326.2z"/>
		<path class="st1" d="M378,335.6c-44,0-88,0-132,0c-6.2,0-12.5,0-18.7,0c-2.2,0-2.2,3.4,0,3.4c44,0,88,0,132,0c6.2,0,12.5,0,18.7,0
			C380.2,339,380.2,335.6,378,335.6z"/>
	</g>
</g>
</svg>
