<?xml version="1.0" encoding="utf-8"?>
<!-- Generator: Adobe Illustrator 21.1.0, SVG Export Plug-In . SVG Version: 6.00 Build 0)  -->
<svg version="1.1" id="Calque_1" xmlns="http://www.w3.org/2000/svg" xmlns:xlink="http://www.w3.org/1999/xlink" x="0px" y="0px"
	 viewBox="0 0 432 432" style="enable-background:new 0 0 432 432;" xml:space="preserve">
<style type="text/css">
	.st0{fill:#CCCCCC;}
	.st1{fill:#B3B3B3;}
	.st2{fill:#D06C5D;}
	.st3{fill:#961F21;}
	.st4{fill:#8AC640;}
	.st5{fill:#CCA1CC;}
	.st6{fill:#BCD601;}
	.st7{fill:#FFCB39;}
	.st8{fill:#FC8792;}
	.st9{fill:#F5CED3;}
	.st10{fill:#1A1A1A;}
	.st11{fill:#F9F1DA;}
	.st12{fill:#E6E6E6;}
	.st13{fill:#DDC2A8;}
	.st14{fill:#97B87F;}
	.st15{fill:#FAA821;}
	.st16{fill:#333333;}
	.st17{fill:#4EBEB8;}
	.st18{fill:#ABDFEC;}
	.st19{fill:#FAA74B;}
	.st20{fill:#8C6239;}
	.st21{fill:#F06386;}
	.st22{fill:#F8E7D6;}
	.st23{fill:#D3C7BE;}
	.st24{fill:#E2D2C3;}
	.st25{fill:#9294CD;}
	.st26{fill:#E66667;}
	.st27{fill:#FFD602;}
	.st28{fill:#B776BA;}
	.st29{fill:#C69C6D;}
	.st30{fill:#E49F90;}
	.st31{fill:#EAC0B4;}
	.st32{fill:#D3B1AF;}
	.st33{fill:#F2F2F2;}
	.st34{fill:#9CCCB2;}
	.st35{fill:#CDB48C;}
	.st36{fill:#73C977;}
	.st37{fill:none;}
	.st38{fill:#EFB156;}
	.st39{fill:#D7F5F3;}
	.st40{fill:#DA407B;}
	.st41{fill:#DA4147;}
	.st42{fill:#912D61;}
	.st43{fill:#BFB49D;}
	.st44{fill:#FFFFFF;}
	.st45{fill:#23B6DB;}
	.st46{fill:#D7DD50;}
	.st47{fill:#DA444C;}
	.st48{fill:#4D4D4D;}
	.st49{fill:#97857A;}
	.st50{fill:#84735F;}
	.st51{fill:#6E2521;}
	.st52{fill:#3F3C35;}
	.st53{fill:#A1B099;}
	.st54{fill:#D4CEB9;}
	.st55{fill:#854E4C;}
	.st56{fill:#B9986D;}
	.st57{fill:#BAAC91;}
	.st58{fill:#3F4650;}
	.st59{fill:#7B7B73;}
	.st60{fill:#5A5B60;}
	.st61{fill:#984831;}
	.st62{fill:#B1885C;}
	.st63{fill:#653F34;}
	.st64{fill:#DCC69D;}
	.st65{fill:#727D6D;}
	.st66{fill:#9B7455;}
	.st67{fill:#826D56;}
	.st68{fill:#C3A88B;}
	.st69{fill:#96967A;}
	.st70{fill:#9F6B56;}
</style>
<g>
	<path class="st21" d="M333.4,258.1c-0.5-0.3-0.6-0.7-0.6-1.2c0.1-2.7,0.1-5.4,0.2-8.1c0-2,0-4-0.1-6c-0.1-3.6-0.2-7.2-0.5-10.8
		c-0.5-6.1-1.2-12.2-1.8-18.3c-0.8-7-2-14-3.7-20.9c-3.5-14-8.3-27.5-15.3-40.1c-5.1-9.3-11.1-17.9-18.8-25.3
		c-7.9-7.6-16.4-14.2-25.6-20.1c-0.3-0.2-0.6-0.4-1-0.6c0.1-0.2,0.1-0.4,0.2-0.5c1.2-2.9,1.9-5.9,2-9c0.3-7-1.9-13-7.4-17.4
		c-6.4-5.2-13.7-6.8-21.8-4.8c-4.2,1-8,2.9-11.8,5.1c-4.8,2.8-9,6.2-13.1,9.8c-0.3,0.2-0.5,0.5-0.8,0.8c-0.2-0.3-0.4-0.6-0.6-0.9
		c-0.7-1.4-1.5-2.8-2.2-4.2c-1.4-2.8-2.8-5.6-4.3-8.3c-1.5-2.8-3.3-5.3-5.6-7.5c-1.8-1.7-3.8-3.2-6.1-4c-4.4-1.6-8.3-0.9-11.6,2.5
		c-1.2,1.2-2.1,2.6-3.1,4c-1.6,2.5-2.7,5.2-3.7,7.9c-1.9,5.3-3,10.8-3,16.4c0,2.4,0.5,4.6,1.6,6.7c0.2,0.5,0.5,1,0.7,1.5
		c-0.3,0.2-0.5,0.3-0.8,0.4c-1.2,0.7-2.4,1.3-3.6,2c-8.1,4.7-15.6,10.4-22.6,16.6c-11.1,9.7-20.4,21-27.8,33.8
		c-7.7,13.4-13,27.8-16.4,42.8c-3,13.2-4.7,26.5-5.6,40c-0.3,4.9-0.5,9.8-0.7,14.8c0,0.3-0.1,0.7-0.3,0.9c-1.1,1.2-1.2,2.6-0.7,4
		c0.5,1.2,1,2.3,1.6,3.4c1.7,2.9,3.5,5.7,5.3,8.5c0.5,0.8,1.1,1.6,1.6,2.4c4.6,8.3,9.2,16.6,13.7,24.9c3.1,5.6,6.1,11.3,9.1,17
		c5.9,10.9,12,21.8,18.4,32.4c2.1,3.6,4.4,7.1,6.7,10.6c1.9,2.9,4.6,4.8,8,5.7c0.6,0.2,1.2,0.3,1.8,0.5c5.3,1.1,10.6,1.6,15.9,1.6
		c5.8,0,11.5-0.2,17.3-0.3c6.9-0.1,13.8-0.3,20.7-0.3c11.3,0,22.7,0.1,34,0.1c6.4,0,12.7,0,19.1-0.2c3.7-0.1,6.7-1.6,9.1-4.4
		c0.8-1,1.6-2,2.4-3c5.8-8.3,11.4-16.8,16.1-25.8c6.7-12.8,13.3-25.7,20.1-38.5c4.9-9.3,9.9-18.4,14.8-27.7c0.8-1.6,1.5-3.2,2-4.9
		C335.4,260.5,334.9,259.1,333.4,258.1z M228.8,93.7c4.4-1.8,8.8-3.7,13.4-5.1c3.1-0.9,6.3-1.7,9.6-1.4c1,0.1,1.9,0.2,2.8,0.5
		c2.9,0.9,4.7,2.8,5.4,5.8c0.8,3.1,0.2,6.1-0.8,9.1c0,0.1-0.1,0.1-0.2,0.2c-9.6-4.8-19.8-7.8-30.7-8.7
		C228.6,93.8,228.7,93.7,228.8,93.7z M253.7,109.8c-2.9,1.4-5.6,1.7-8.5,1c-3.8-0.9-7.5-2.4-11-4.1c-2.4-1.2-4.7-2.4-7-3.6
		c-0.2-0.1-0.3-0.2-0.4-0.4C236.2,103.3,245.1,105.6,253.7,109.8z M182.3,84.2c0.2-0.4,0.6-0.9,0.9-1.3c1.9-2.3,4.6-3,7.4-2.1
		c1.5,0.5,2.8,1.3,3.9,2.4c1.5,1.4,3,2.9,4.4,4.5c2.1,2.3,4,4.8,6.3,6.9c0.1,0.1,0.1,0.2,0.3,0.4c-4,0.6-7.9,1.4-11.7,2.5
		c-3.8,1.1-7.6,2.4-11.3,4c-1.4-1.1-2.2-2.5-2.5-4.2C179.4,92.6,180.1,88.3,182.3,84.2z M161.3,328.4c-3.5,0.8-7,0.7-10.3-0.6
		c-2.9-1.1-4.9-3.1-6.1-6c-0.9-2.1-1.5-4.3-1.9-6.6c-0.9-4.6-1.3-9.2-1.4-13.8c-0.1-2.8-0.1-5.7,0-8.5c0.1-3,0.4-5.9,1.2-8.8
		c0.5-1.8,1.1-3.4,2.3-4.8c2.4-3,5.5-4.1,9.2-3.6c1.7,0.3,3.4,0.8,4.8,1.8c0.5,0.4,1,0.8,1.4,1.3c0.4,0.5,0.5,1.1,0.2,1.7
		c-0.4,0.6-0.9,0.7-1.5,0.6c-0.7-0.1-1.5-0.3-2.2-0.4c-0.6-0.1-1.1-0.2-1.7-0.3c-2.7-0.3-5.1,1-6.2,3.5c-0.3,0.7-0.5,1.4-0.7,2.1
		c-0.7,2.8-0.9,5.6-0.9,8.4c-0.1,4.6,0.1,9.3,0.5,13.9c0,0.2,0.1,0.3,0.1,0.6c1.7,0,3.3,0.1,4.9,0.1c0.9,0,1.8,0.1,2.7,0.2
		c1.1,0.1,2.1,0.6,3,1.1c1.5,0.9,1.3,3-0.2,3.7c-1.1,0.5-2.3,0.9-3.5,0.8c-1.7-0.1-3.5-0.2-5.2-0.3c-0.2,0-0.4,0-0.7,0
		c0,0.2,0,0.3,0,0.4c0.4,1.4,0.8,2.9,1.3,4.3c0.5,1.5,1.6,2.5,3.2,3c1.1,0.4,2.2,0.6,3.4,0.6c1.1,0,2.2,0,3.3,0
		c1.1-0.1,2.1,0.2,3,0.8c1.2,0.7,1.5,2.2,0.5,3.2C163,327.6,162.2,328.2,161.3,328.4z M188.3,363.4c-1,0.1-2.1,0-3.1-0.2
		c-1.3-0.2-2.1-1-2.5-2.2c-0.7-2-1-4-1.1-6c0-0.4-0.1-0.8-0.1-1.2c-2.6,0.1-5.1,0.1-7.8,0.2c0,0.6,0,1.3,0,1.9
		c0.1,1.6,0,3.1-0.3,4.7c-0.4,1.8-1.5,2.7-3.3,2.7c-0.4,0-0.8,0-1.3,0c-1.9-0.1-3.3-1-3.9-2.8c-0.4-1.3-0.8-2.6-1-3.9
		c-0.9-5.9-1.1-11.9-0.9-17.9c0-0.9,0.1-1.9,0.4-2.8c0.5-2.1,2.1-3.1,4.3-2.8c0.9,0.1,1.8,0.2,2.6,0.5c1.8,0.5,2.7,1.7,2.7,3.5
		c0.1,2.2,0.1,4.4,0.2,6.7c0.1,2.2,0.1,4.4,0.2,6.6c0,0.3,0.1,0.6,0.1,0.9c2.5-0.1,5-0.3,7.5-0.4c-0.1-1.1-0.2-2.1-0.2-3.1
		c-0.2-3.4-0.3-6.9-0.4-10.3c0-0.7,0.1-1.5,0.3-2.2c0.3-1.3,1.2-2.1,2.4-2.5c1.9-0.6,3.7-0.6,5.6-0.2c1.1,0.2,1.7,1,2,2
		c0.2,0.9,0.4,1.8,0.4,2.7c0.1,4,0.1,8,0.2,12.1c0.1,3.3,0.1,6.6,0.2,9.8c0,0.3,0,0.5,0,0.8C191.8,362.4,190.4,363.2,188.3,363.4z
		 M193.2,319.8c-0.4,1.5-1.1,2.9-2,4.1c-1.5,2-3.4,3.2-5.9,3.7c-1.4,0.2-2.7-0.1-4-0.6c-1.9-0.7-3.5-1.9-5-3.3
		c-3.4-3.3-5.6-7.3-6.9-11.8c-1.7-6.1-2.2-12.3-1.4-18.5c0.5-3.6,1.6-7,3.5-10c1.2-1.8,2.6-3.4,4.4-4.5c2.8-1.7,5.7-2,8.7-0.9
		c2.1,0.8,3.5,2.2,4.5,4.2c0.4,0.9,0.6,1.9,0.5,2.9c0,0.7-0.2,1.2-0.9,1.5c-0.6,0.2-1.1-0.1-1.5-0.4c-0.5-0.4-1-0.9-1.5-1.4
		c-1.2-1-2.7-1.5-4.3-1.6c-1.3,0-2.4,0.5-3.4,1.4c-1.2,1.1-2,2.4-2.7,3.9c-1.1,2.5-1.7,5.1-1.8,7.9c-0.3,5.1,0.1,10,1.7,14.9
		c1,3,2.5,5.8,4.8,8c0.9,0.9,1.9,1.7,3,2.2c1.6,0.7,2.8,0.4,3.6-1.1c0.6-1,1-2.1,1.4-3.2c0.5-1.9,0.8-3.8,0.9-5.8c0-0.3,0-0.7,0-1.1
		c-0.8-0.1-1.6-0.2-2.4-0.3c-0.8-0.1-1.6-0.1-2.4-0.1c-1,0-1.9-0.3-2.6-1c-1.1-1.2-1.1-2.7,0.1-3.8c0.6-0.6,1.3-0.9,2.1-0.9
		c2.3-0.1,4.6,0.1,6.9,0.9c2.5,0.8,3.7,2.6,3.7,5.2C194.4,313.4,194.1,316.6,193.2,319.8z M190.3,275.6c-1.1-0.5-2-1.3-2.8-2.2
		c-1.2-1.3-2.2-2.9-3-4.5c-1.8-3.7-3-7.6-3.5-11.6c-0.4-3.4-0.7-6.9-1-10.4c0-0.2,0-0.4-0.2-0.6c-0.1,0.2-0.2,0.4-0.2,0.6
		c-1.1,3.1-2.1,6.2-3.2,9.3c-0.7,2-1.7,4-3.1,5.7c-0.6,0.8-1.4,1.6-2.1,2.2c-2.4,2-5,2.3-7.9,1c-2.3-1-4-2.6-5.4-4.7
		c-1.6-2.3-2.5-4.9-3.2-7.5c-0.2-0.6-0.3-1.2-0.5-2c-0.2,0.3-0.3,0.5-0.5,0.7c-0.9,1.7-1.7,3.5-2.6,5.2c-0.9,1.7-1.9,3.2-3.2,4.6
		c-1.8,1.9-3.9,3.3-6.5,3.7c-2,0.3-3.9-0.1-5.7-1c-2.3-1-4.1-2.7-5.7-4.6c-3-3.4-4.8-7.4-5.6-11.9c-1.4-7.7-1.2-15.3,0.8-22.9
		c1-3.7,2.7-7,5.2-10c1.9-2.3,4.1-4.1,7-5c1.6-0.5,3.2-0.6,4.8-0.2c3.3,0.9,5,3.2,5.7,6.4c0.6,2.5,0.3,5-0.4,7.4
		c-1.2,4-3.4,7.3-6.4,10.2c-2.2,2.1-5,3.3-7.9,4.1c-0.3,0.1-0.5,0.2-0.9,0.3c0.1,1.7,0.1,3.3,0.3,4.9c0.4,3.8,1.4,7.4,2.7,10.9
		c0.7,2,1.7,3.8,3.1,5.3c0.3,0.4,0.6,0.7,1,1c1.4,1.1,2.9,1.4,4.5,0.7c1-0.4,1.9-1,2.7-1.7c1.3-1.2,2.3-2.6,3.1-4.1
		c1.4-2.5,2.7-5,4-7.6c0.2-0.4,0.2-0.9,0.2-1.3c-0.1-3.8,0.3-7.5,1.6-11c0.7-1.9,1.6-3.6,2.9-5.2c2-2.5,4.5-3.9,7.7-4
		c3-0.1,5.5,1,7.3,3.4c0.3,0.4,0.5,1,0.7,1.5c0.1,0.3,0.1,0.6,0.1,0.9c-0.1,0.9-0.7,1.2-1.6,0.9c-1.1-0.4-2.1-0.9-3.3-1.2
		c-2.2-0.6-3.8,0.2-4.9,2.2c-1.1,2-1.6,4.2-2,6.4c-0.7,4.6-0.8,9.2-0.2,13.8c0.2,1.6,0.6,3.2,1.2,4.8c0.5,1.2,1.1,2.2,2.1,2.9
		c1.2,0.9,2.4,1.1,3.8,0.3c1-0.5,1.8-1.3,2.5-2.1c1.3-1.6,2.3-3.3,3.2-5.2c2.1-4.3,3.6-8.8,4.7-13.4c0.3-1.2,0.2-2.6,0.2-3.8
		c0.1-3,0.3-6,1-8.9c0.2-0.7,0.4-1.5,0.7-2.2c0.9-2,3.2-2.2,4.5-0.4c0.8,1,1.2,2.2,1.5,3.4c0.5,2,0.6,4,0.7,6
		c0.1,3.1,0.1,6.1,0.2,9.2c0.2,5.2,0.8,10.3,1.6,15.5c0.4,2.6,0.9,5.2,1.7,7.7c0.4,1.2,0.8,2.4,1.5,3.6c0.3-0.4,0.7-0.8,0.9-1.2
		c0.6-1.4,1.2-2.8,1.6-4.2c0.5-2.1,0.8-4.3,1.2-6.5c0.3-2.2,0.5-4.3,0.9-6.5c0.1-0.8-0.1-1.3-0.6-1.8c-6.5-6.8-6.5-17.6-2.1-24.5
		c1.4-2.2,3.3-4,5.7-5c2.6-1,5.1-0.9,7.5,0.7c2.2,1.4,3.1,3.5,3.3,6c0,0.2,0,0.4,0,0.6c-0.1,0.4-0.3,0.7-0.7,0.9
		c-0.4,0.1-0.7-0.1-1-0.4c-0.2-0.2-0.3-0.5-0.5-0.7c-0.6-1.1-1.3-2.1-2.3-2.8c-1.8-1.5-3.6-1.5-5.5,0c-1.6,1.3-2.4,3.1-2.8,5.1
		c-1.1,5.5,0.1,10.5,4.1,14.6c1.3,1.4,2.8,2.6,4.2,3.8c1.8,1.5,3.7,3,5.5,4.5c0.2,0.1,0.3,0.3,0.5,0.4c0.1-0.1,0.2-0.1,0.2-0.2
		c2.5-3.7,5.4-7.1,8.2-10.6c0.5-0.6,0.6-1.1,0.6-1.8c-0.1-4.3,0.3-8.6,0.9-12.9c0.2-1.2,0.4-2.3,0.6-3.5c-0.7-0.3-1.3-0.5-1.9-0.8
		c-2.7-1.3-5.3-2.6-8-3.9c-6.2-3.2-12.4-6.5-18.6-9.6c-4.3-2.1-8.8-3.9-13.4-5.1c-3.7-1-7.5-1.4-11.4-1c-2.1,0.2-4.1,0.8-6,1.7
		c-1.7,0.9-3.1,2.1-4.1,3.7c-1,1.5-1.4,3-0.8,4.8c0.2,0.5,0.2,1,0.3,1.5c0.1,0.9-0.3,1.5-1,1.8c-0.7,0.3-1.5,0-2-0.8
		c-1.6-2.7-2.1-5.6-0.8-8.6c1-2.3,2.6-4.1,4.6-5.6c2.8-2.1,5.9-3.1,9.3-3.5c5.1-0.7,10.1,0.1,15.1,1.4c4.4,1.2,8.5,3,12.7,4.6
		c5.5,2.2,10.6,5.2,15.9,8c3.2,1.7,6.3,3.5,9.5,5.2c0.6,0.3,1.3,0.6,2.1,1c0.3-0.7,0.4-1.2,0.7-1.8c0.3-0.6,0.6-1.2,1-1.7
		c0.8-0.9,2-0.9,2.7,0.1c0.3,0.5,0.6,1.1,0.7,1.7c0.2,0.9,0.4,1.8,0.5,2.7c0.9,0.2,1.8,0,2.7-0.3c3.3-0.8,5.8-2.7,7.7-5.5
		c0.1-0.2,0.2-0.4,0.4-0.6c0.3-0.4,0.6-0.6,1.1-0.5c0.5,0.1,0.8,0.4,0.9,0.9c0.1,0.5,0.1,1,0,1.5c-0.5,2.5-1.8,4.4-3.7,5.9
		c-2.4,1.9-5.1,2.9-8.1,3.3c-0.2,0-0.3,0-0.5,0.1c-0.1,0-0.1,0.1-0.2,0.1c0,0.1-0.1,0.3-0.1,0.5c-0.2,4.3-0.5,8.6-0.7,12.8
		c-0.3,5.9-0.1,11.7,1.3,17.5c0.5,2,1.2,4,2.3,5.8c0.2,0.3,0.4,0.6,0.6,0.9c0.7,0.9,1.1,0.9,1.8-0.1c1-1.4,1.4-3.1,1.7-4.8
		c0.1-0.8,0.2-1.6,0.3-2.4c0.1-0.6,0-1.2-0.3-1.9c-2.8-6.6-3.3-13.3-1-20.1c0.5-1.6,1.3-3.2,2.3-4.5c1.5-1.9,3.3-3.3,5.7-3.7
		c2.5-0.5,4.6,0.4,6.2,2.4c1.2,1.5,1.3,3.2,0.7,4.9c-0.3,1-0.9,1.9-1.7,2.7c-1.7,1.7-3.7,2.8-6,3.4c-0.2,0.1-0.5,0.1-0.8,0.2
		c0,0.1-0.1,0.3-0.1,0.4c-0.1,4.8,0.6,9.5,2.8,13.9c0.6,1.2,1.3,2.4,2.2,3.4c1.2,1.3,2.2,1.5,3.7,0.5c0.9-0.6,1.7-1.3,2.4-2.1
		c1.8-2.1,2.9-4.6,4-7.1c2.1-5.3,3.4-10.7,3.9-16.4c0.3-3.4,0.3-6.9-0.2-10.3c0-0.1-0.1-0.2-0.1-0.4c-0.9,0.1-1.8,0.3-2.8,0.4
		c-2.7,0.3-5.1-0.3-7.2-2.2c-1.9-1.7-2.6-3.8-1.9-6.3c1-3.6,5.1-5.3,8.5-3.5c1,0.5,1.9,1.3,2.6,2.2c1.1,1.3,1.8,2.8,2.3,4.4
		c0.1,0.4,0.3,0.9,0.4,1.4c0.2,0,0.5-0.1,0.7-0.1c1.3-0.2,2.5-0.5,3.8-0.6c1.9-0.2,3.5,0.4,4.8,1.8c1.3,1.3,2.1,3,2.6,4.8
		c0.8,3.2,1,6.4,0.5,9.7c-0.6,3.9-1.3,7.7-1.9,11.6c-0.8,5.1-1.2,10.2-1.2,15.4c0,3,0.4,5.9,1.3,8.7c0.5,1.4,1.2,2.8,2.2,3.9
		c1.5,1.7,3.4,2.1,5.4,1c1.1-0.6,2-1.5,2.9-2.4c1.3-1.4,2.5-2.9,3.8-4.3c0.4-0.4,0.7-0.8,1.2-1.1c0.5-0.4,1.2-0.3,1.6,0.1
		c0.3,0.3,0.5,0.7,0.3,1.1c-0.1,0.2-0.2,0.4-0.3,0.6c-1.8,2.2-3.4,4.6-5.5,6.6c-1,1-2.1,1.9-3.4,2.5c-3,1.5-6,1.4-8.8-0.5
		c-2.4-1.6-4.1-3.8-5.4-6.3c-1.6-3.2-2.6-6.5-3.1-10c-0.6-4.3-0.4-8.7,0.1-13c0.8-6.6,2.1-13.2,3.8-19.6c0.5-1.8,0.6-3.6,0.5-5.5
		c-0.1-1.5-0.6-2-2.1-2c-1.2,0-2.1,0.1-3.1,0.5c0.1,0.6,0.1,1.2,0.2,1.8c0.7,9.4-0.9,18.5-4.2,27.3c-0.8,2.1-1.7,4.1-2.7,6.1
		c-0.8,1.7-2,3.2-3.3,4.6c-0.5,0.5-1.1,1.1-1.8,1.5c-2.1,1.4-4.3,1.7-6.7,0.9c-1.7-0.6-3.2-1.7-4.5-2.9c-0.3-0.3-0.7-0.6-1.1-1
		c0,0.2-0.1,0.4-0.2,0.6c-0.4,1.7-0.8,3.5-1.5,5.1c-0.5,1-1.1,1.9-2.2,2.5c-1.2,0.6-2.4,0.6-3.6,0.2c-1.1-0.4-2.1-1.2-2.9-2
		c-2-2.1-3.5-4.6-4.6-7.3c-1.3-3.3-2.1-6.7-2.5-10.2c0-0.4-0.1-0.7-0.1-1.1c0-0.2-0.1-0.3-0.1-0.7c-2.6,3.3-5,6.6-7.3,10
		c0.5,0.6,1.1,1.1,1.6,1.6c2.1,2.3,3.8,4.9,4.7,8c0.6,2.1,0.7,4.2,0.1,6.3c-1.1,3.6-4.8,5.9-8.4,5.3c-1.7-0.3-3-1.2-3.9-2.7
		c-1.1-1.8-1.5-3.7-1.4-5.8c0.1-2.5,0.8-4.9,1.7-7.3c0.1-0.3,0.2-0.6,0.4-0.9c-3.4-2.3-6.7-4.5-10.2-6.8c0,0.1-0.1,0.3-0.1,0.5
		c-0.4,4-0.7,8.1-1.6,12.1c-0.4,1.9-0.9,3.7-1.5,5.5c-0.3,0.9-0.8,1.7-1.3,2.4C194,276.1,192.2,276.5,190.3,275.6z M217.5,348.8
		c-0.5,2.6-1.3,5.2-2.3,7.6c-1.2,2.9-3.3,5-6.5,5.6c-3,0.6-5.7-0.2-7.8-2.4c-1.7-1.8-2.7-3.9-3.2-6.3c-0.8-3.7-1.6-7.4-1.9-11.2
		c-0.2-2.1-0.3-4.3-0.1-6.5c0.3-3.5,2.3-4.8,5.6-4.7c2.1,0.1,3.1,1,3.6,3.1c0.5,2.2,0.4,4.5,0.6,6.7c0.2,2.9,0.4,5.8,0.7,8.6
		c0.1,0.9,0.5,1.9,0.8,2.8c0.1,0.4,0.4,0.8,1,0.9c0.2-0.7,0.5-1.5,0.6-2.2c0.3-2.3,0.6-4.5,0.8-6.8c0.2-2.4,0.1-4.8,0.2-7.1
		c0-1.2,0.1-2.4,0.2-3.6c0-1,0.6-1.8,1.5-2.2c1.7-0.8,3.4-0.9,5.2-0.2c0.7,0.3,1.2,0.8,1.5,1.6c0.2,0.6,0.4,1.2,0.4,1.9
		C218.5,339.3,218.4,344.1,217.5,348.8z M218.2,324.1c-2.3,2.5-5,3.3-8.3,2.3c-3.1-0.9-5.7-2.7-7.7-5.3c-2.2-2.9-3.6-6.1-4.4-9.6
		c-1.1-4.6-1.7-9.3-1.5-14.1c0.1-3.5,0.7-7,1.9-10.3c1-2.8,2.6-5.3,5-7.2c1.3-1.1,2.8-1.8,4.5-2c3-0.4,6.8,2.1,7.6,5
		c0.1,0.3,0.1,0.6,0.1,0.9c0,1.1-0.8,1.7-1.8,1.4c-0.3-0.1-0.6-0.2-0.9-0.4c-0.3-0.2-0.5-0.3-0.8-0.5c-2.1-1.2-3.5-1.1-5.3,0.6
		c-1.3,1.2-2.1,2.7-2.7,4.3c-0.9,2.5-1.3,5-1.5,7.7c-0.3,4.8,0.2,9.6,1.5,14.2c0.6,2.1,1.4,4.1,2.7,6c1.2,1.7,2.7,3,4.7,3.7
		c1.5,0.5,2.1,0.3,2.9-1c0.9-1.3,1.4-2.8,1.7-4.4c0.3-1.7,0.5-3.5,0.7-5.2c0-0.2,0-0.4-0.1-0.8c-0.6,0-1.2,0-1.7,0
		c-0.9,0-1.7,0.2-2.6,0.1c-0.7-0.1-1.5-0.2-2.1-0.5c-1.8-0.8-2-3.1-0.5-4.3c0.5-0.4,1.2-0.8,1.9-0.9c2.2-0.4,4.4-0.5,6.6-0.1
		c2.5,0.5,4,2.2,4.4,4.7c0.3,1.8,0,3.7-0.2,5.5c-0.3,2.1-0.8,4.2-1.5,6.3C220,321.5,219.3,322.9,218.2,324.1z M247.1,356.9
		c0,1.2-0.2,2.4-0.4,3.6c-0.2,1.3-1.1,2.1-2.4,2.4c-1.9,0.5-3.7,0.3-5.1-1.3c-1-1.2-2.1-2.5-3-3.8c-1.7-2.6-3.3-5.3-5-7.9
		c-0.1-0.2-0.3-0.5-0.6-0.9c0.1,1.4,0.1,2.6,0.1,3.9c0.1,2.3,0.1,4.5,0.1,6.8c0,0.4,0,0.8-0.1,1.2c-0.1,1.1-0.8,1.8-1.8,2.2
		c-1.4,0.5-2.9,0.6-4.4,0.3c-1-0.2-1.8-0.9-2.1-2c-0.3-1.2-0.6-2.5-0.7-3.8c-0.2-3-0.4-6.1-0.4-9.2c0-3.7,0.1-7.5,0.2-11.2
		c0-1.1,0.2-2.2,0.3-3.3c0.4-3.1,3.8-4,6.1-2.4c0.9,0.7,1.8,1.4,2.4,2.4c1,1.6,2,3.2,2.8,4.8c1.9,3.7,3.6,7.5,5.5,11.3
		c0.1,0.3,0.3,0.5,0.5,0.9c0-2.4,0-4.5,0-6.7c-0.1-3.1-0.3-6.2-0.4-9.3c0-0.8,0-1.6,0.1-2.4c0.1-1.1,0.7-2,1.7-2.5
		c1.4-0.7,2.8-0.8,4.3-0.3c0.8,0.3,1.3,0.9,1.5,1.6c0.2,0.9,0.5,1.8,0.5,2.7c0.1,1.8,0.3,3.7,0.2,5.5
		C247.3,345.5,247.2,351.2,247.1,356.9z M270.1,335.6c-0.5,0.1-1,0.2-1.5,0.2c-0.7,0-1.5,0-2.3,0.1c0,0.5,0,0.8,0,1.2
		c0.1,6.6,0.1,13.1,0.2,19.7c0,0.6,0,1.3,0,1.9c-0.2,2.1-1.6,3.4-3.7,3.3c-0.7,0-1.5-0.1-2.2-0.3c-1.4-0.4-2.3-1.3-2.5-2.8
		c-0.1-0.5-0.1-1-0.1-1.4c0.1-5.2,0.1-10.4,0.2-15.5c0-1.6,0.1-3.3,0.1-4.9c0-0.3,0-0.6,0-1.1c-0.7,0-1.2,0-1.8,0
		c-1.9-0.1-3.3-1.2-3.7-3.1c-0.1-0.7-0.2-1.4-0.1-2.1c0.2-1.4,1.2-2.3,2.5-2.6c0.5-0.1,1-0.1,1.4-0.1c2.1,0,4.1,0.1,6.2,0.1
		c1.9,0,3.8,0.1,5.7,0.2c1.4,0,2.6,0.5,3.5,1.6C273.7,332.2,272.7,335,270.1,335.6z M290.8,308.2c-4.7,1.5-9.4,1.5-14.1,0.1
		c-4.3-1.2-8.3-3.3-12-5.8c-0.8-0.5-1.6-1.1-2.4-1.6c0,0-0.1,0.1-0.1,0.1c0.1,0.1,0.1,0.3,0.2,0.4c3.2,4.7,7,8.9,11.5,12.2
		c1.5,1.1,3.1,2.1,4.9,2.8c1.4,0.5,2.8,0.6,4.3,0.2c0.9-0.3,1.7-0.8,2.1-1.7c0.2-0.3,0.4-0.6,0.6-0.8c0.3-0.3,0.8-0.4,1.3-0.3
		c0.5,0.2,0.8,0.6,0.8,1.1c0,0.4,0,0.8-0.2,1.2c-0.7,2-2.3,3.3-4.2,4.1c-2.1,0.9-4.3,0.9-6.5,0.3c-2.9-0.8-5.4-2.2-7.8-3.9
		c-3.2-2.3-6-5-8.3-8.1c-2.3-3-4.5-6-6.7-9c-1.2-1.6-2.2-3.3-3.4-4.8c-1.7-2.3-3.8-4.1-6.4-5.5c-2.2-1.1-4.5-1.7-7-1.4
		c-2.5,0.3-4.5,1.5-5.7,3.8c-0.8,1.4-1.3,3-1.2,4.6c0.1,1.1,0.4,2,1,2.9c0.8,1.2,2,1.6,3.5,1.4c2.1-0.4,4.6-2.5,4.5-5
		c0-0.4,0.1-0.8,0.2-1.2c0.2-0.8,0.7-1.5,1.6-1.6c0.9-0.2,1.6,0.1,2.1,0.8c0.6,0.8,0.9,1.7,1.1,2.7c0.2,1.9-0.2,3.7-1.2,5.2
		c-2,3.1-4.9,4.7-8.6,5c-1.7,0.1-3.2-0.4-4.7-1.3c-2.6-1.7-4.1-4.2-4.7-7.3c-1.2-7,2.9-13.1,10-14.6c3.5-0.7,6.8-0.2,10.2,0.9
		c3.7,1.2,7,3.1,10.1,5.5c2.8,2.2,5.5,4.4,8.3,6.6c3.3,2.5,6.7,4.8,10.5,6.4c2.4,1,4.9,2,7.5,2.3c3.3,0.4,6.5,0.2,9.7-1.2
		c4.2-1.9,6.1-6.4,5.9-9.8c-0.1-2.7-1.9-4.7-4.5-5.2c-1.6-0.3-3.2,0.7-3.7,2.2c-0.1,0.3-0.2,0.6-0.3,0.8c-0.4,0.8-1.2,1.3-2,1.1
		c-0.7-0.2-1.4-1-1.3-1.8c0.2-2.3,1.1-4.3,3.3-5.3c2.4-1.1,4.8-0.9,7.1,0.3c3.1,1.7,4.7,4.4,4.8,7.9
		C301.2,299.6,298.4,305.8,290.8,308.2z M324.3,253.7c0,0.8-0.1,1.5-0.1,2.4c-13.7-0.9-27.3-1-41.1-0.6c0.1-0.7,0.2-1.3,0.3-1.9
		c0.9-5.1,1.4-10.3,1.6-15.5c0.4-10.1-0.4-20.1-2.8-30c-1.4-5.7-3.4-11.3-6.4-16.4c-2.5-4.3-5.6-8.1-9.4-11.3
		c-6-4.9-13-6.9-20.7-6.2c-7.5,0.6-14.3,3.2-20.6,7.2c-6.1,3.9-11.6,8.6-16,14.4c-0.7,0.9-1.4,2-2,2.9c-0.2,0.2-0.3,0.5-0.5,0.8
		c-0.3-0.4-0.6-0.7-0.9-1.1c-2.6-3.2-5.7-5.8-9.5-7.6c-5.6-2.7-11.4-2.9-17.3-1c-0.4,0.1-0.8,0.3-1.2,0.4c-0.2-0.2-0.4-0.4-0.6-0.6
		c-2.8-3.5-5.9-6.7-9.6-9.3c-4-2.9-8.4-4.8-13.3-5.3c-6.5-0.8-12.7,0.5-18.3,3.9c-4.5,2.8-8.2,6.5-11.4,10.7
		c-5,6.5-8.2,13.7-10.4,21.5c-1.4,5.2-2.3,10.6-2.8,16c-0.4,4.6-0.5,9.1-0.1,13.7c0.4,4.4,1.1,8.7,2.2,12.9c0.1,0.3,0.1,0.6,0.2,0.9
		c-0.8,0.3-5.7,0.3-6.8,0.1c0-0.6,0.1-1.1,0.1-1.7c0.2-4.1,0.4-8.3,0.7-12.4c0.8-12.6,2.4-25.1,5.2-37.5
		c3.2-14.2,8.1-27.9,15.3-40.6c6.8-11.9,15.3-22.4,25.5-31.5c7.4-6.6,15.3-12.6,24-17.4c1.5-0.8,3-1.6,4.5-2.4
		c0.3-0.1,0.7-0.2,1-0.2c2.6,0.8,5.2,0.6,7.8-0.1c3-0.8,5.9-1.9,8.8-3c1.5-0.6,3-1.2,4.5-1.8c0.2-0.1,0.3-0.1,0.7-0.2
		c-1,1.3-1.8,2.4-2.7,3.5c-1.4,1.7-2.7,3.3-4.1,5c-5.4,6.6-9.3,14-11.7,22.1c-1.6,5.4-3.3,10.8-5,16.1c-1.4,4.5-3.4,8.8-5.9,12.9
		c-0.4,0.6-0.7,1.2-1,1.8c-0.2,0.4-0.4,0.9-0.5,1.3c-0.5,1.8,0.8,3.3,2.6,3.1c0.4,0,0.9-0.2,1.3-0.3c0.9-0.2,1.7-0.5,2.6-0.8
		c0.8-0.2,1.7-0.5,2.6-0.8c0.3,0.4,0.6,0.8,0.8,1.2c0.7,1.1,1.4,2.1,2.4,2.8c0.4,0.3,0.9,0.6,1.4,0.7c1.1,0.2,2-0.4,2.4-1.6
		c0.6-2,1.1-4,1.7-6c1.7-6.1,2.7-12.3,3.7-18.5c1.2-7.1,3.1-14,6.4-20.4c1.2-2.4,2.7-4.7,4.3-6.9c0.1-0.1,0.2-0.2,0.4-0.5
		c0.1,0.4,0.1,0.7,0.1,1c0.3,4.6,1.5,9,3.6,13.1c4,7.7,10.3,12.3,18.7,14.3c2.5,0.6,5.1,0.8,7.7,1c3.3,0.2,6.6,0.2,9.8,0.4
		c6,0.4,12,1.2,17.5,3.8c6.4,3,11.6,7.3,15.1,13.5c1.6,2.8,2.6,5.8,3.4,8.9c0.3,1.3,0.8,2.5,1.1,3.8c0.1,0.3,0.3,0.7,0.4,1
		c0.9,1.5,2.7,1.8,4,0.6c0.5-0.5,0.8-1.1,1.2-1.7c0.2-0.4,0.4-0.8,0.6-1.3c0.6,0.3,1.1,0.7,1.7,1c0.9,0.5,1.9,0.9,2.9,0.9
		c2.2,0.1,3.7-1.1,3.6-3.4c0-1.5-0.2-3-0.5-4.5c-1-6-4.1-10.8-8.5-14.9c-5.2-4.8-11.1-8.3-17.7-10.7c-4.7-1.7-9.6-2.8-14.4-3.9
		c-7-1.5-14-3.2-20.8-5.6c-4-1.4-7.8-3.3-11.2-5.9c-4.8-3.7-8.1-8.3-9.2-14.4c-0.5-2.8-0.6-5.6-0.4-8.5c0-0.2,0.1-0.3,0.1-0.6
		c0.3,0.3,0.4,0.5,0.5,0.7c3.8,5,8.6,8.8,14.1,11.6c4.4,2.3,9.2,3.1,14.1,2.7c6.4-0.6,11.7-3.5,16-8.2c0.2-0.2,0.4-0.5,0.6-0.7
		c0.2-0.2,0.4-0.4,0.6-0.7c0.3,0.2,0.6,0.4,0.9,0.5c5.1,3.2,9.9,6.8,14.6,10.6c3.3,2.6,6.5,5.4,9.5,8.3c6.8,6.6,12.2,14.3,16.8,22.5
		c5.9,10.6,10.2,21.8,13.5,33.5c2.1,7.6,3.7,15.3,4.7,23.2c0.9,6.7,1.6,13.4,2.1,20.1C324.2,239.8,324.4,246.8,324.3,253.7z"/>
	<path class="st21" d="M140.7,231.7c2.1-2.1,3.3-4.8,4.1-7.6c0.5-1.6,0.7-3.3,0.6-5.1c-0.1-1.3-0.5-2.6-1.3-3.7
		c-1.1-1.4-2.6-1.8-4.2-1.1c-1,0.4-1.8,1.1-2.5,2c-1.3,1.6-2,3.4-2.6,5.2c-1,3.2-1.7,6.4-2.1,9.7c-0.2,1.5-0.3,3.1-0.5,4.9
		c1.4-0.5,2.7-0.9,3.9-1.3C137.9,234.1,139.4,233,140.7,231.7z"/>
	<path class="st21" d="M216,273.4c0.7-0.6,1.1-1.3,1.3-2.2c0.3-1.5,0-2.9-0.7-4.3c-1.1-1.8-2.5-3.3-4.3-4.6
		c-0.8,2.1-1.3,4.1-1.5,6.1c-0.1,1.5,0.1,2.9,0.9,4.2C212.7,274.2,214.4,274.5,216,273.4z"/>
	<path class="st21" d="M257,212.6c-1.2-0.5-2.6-0.1-3.4,0.8c-0.8,1-1,2.5-0.2,3.6c0.4,0.6,1,1.1,1.6,1.5c2,1.1,4,0.9,6.2,0.5
		c-0.6-2-1.3-3.9-2.8-5.4C258.1,213.2,257.5,212.8,257,212.6z"/>
	<path class="st21" d="M249,233.4c0.1-0.3,0.2-0.6,0.2-0.9c0.1-0.8-0.3-1.3-1-1.6c-1.1-0.5-2.2-0.2-2.9,0.9
		c-1.1,1.7-1.4,3.7-1.7,5.7C245.8,237.3,248.4,235.3,249,233.4z"/>
</g>
</svg>
