<?xml version="1.0" encoding="utf-8"?>
<!-- Generator: Adobe Illustrator 21.0.1, SVG Export Plug-In . SVG Version: 6.00 Build 0)  -->
<svg version="1.1" id="Calque_1" xmlns="http://www.w3.org/2000/svg" xmlns:xlink="http://www.w3.org/1999/xlink" x="0px" y="0px"
	 viewBox="0 0 432 432" style="enable-background:new 0 0 432 432;" xml:space="preserve">
<style type="text/css">
	.st0{fill:#39B54A;}
	.st1{fill:#009444;}
	.st2{fill:#EE314C;}
	.st3{fill:#C87B33;}
	.st4{fill-rule:evenodd;clip-rule:evenodd;fill:#39B54A;}
	.st5{fill:#EE2A7B;}
	.st6{fill:#F04A53;}
	.st7{fill:#BC8BBE;}
	.st8{fill:#F16883;}
	.st9{fill:#00A79D;}
	.st10{fill:#C37B3B;}
	.st11{fill:#DA1C5C;}
	.st12{fill-rule:evenodd;clip-rule:evenodd;fill:#DA1C5C;}
	.st13{fill-rule:evenodd;clip-rule:evenodd;fill:#C87B33;}
	.st14{fill:#CB7B29;}
	.st15{fill:#3D9043;}
	.st16{fill:#9E1F63;}
	.st17{fill:#F9A01B;}
	.st18{fill:#FFD847;}
	.st19{fill:#FFFFFF;}
	.st20{fill:#22B5B0;}
	.st21{fill:#3FA1C7;}
	.st22{fill:#52C4CC;}
</style>
<g>
	<g>
		<g>
			<path d="M156.1,84.8c-1.8,0.3-6,0.8-8.6,0.9l0.7-15.8c6.2-0.6,5.2-0.4,12.1-0.9c7-0.5,5.2-4.6,3.5-4.2c-4.4,1-27,1.6-27,2.5
				c-2.4,0.9-1.7,2.9,0.8,3.3c-1,11.5-0.7,24.4-2.2,65c-0.1,5.3,6.3,9.1,7.6,0c0.7-4,4.6-40.5,4.6-45.8c3.2-0.4,5.7-0.7,7.9-1.2
				C156.9,88.4,156.9,84.7,156.1,84.8z"/>
			<path d="M308.7,107.3c-6.4,18.2-14.8,38.1-19.6,34.8c-2.5-1.7,0.5-39.8,4.4-56.7c0.9-0.1,9-0.4,10.4-0.8c1.6-0.6,0.9-1.6,0.6-1.9
				c-3.4,0.2-6.3,0.4-10.5,0.5c0.7-3.3,1.2-5.3,2.3-10.4c1-4.4-4.6-3.2-5.8-1.5c-1.1,1-2.3,7.7-3.8,13l-7.5,0.4
				c-1,0.8-1.1,1.6-0.1,2.1l7.1-0.4c-0.3,1.8-2.9,13.2-4.4,25.5c-6.1,14.5-13,23.2-17.3,22.6c-4.3-0.5-3.6-10.4-3.6-19.4
				c8.2-2.3,13-18.3,4.5-18.4c-5.3-0.1-9,4.3-11,10.1c-4.7,2.9-12.1,8-14.7,9.9c0.9-7.4,1.1-13.9,0.8-17.2c-0.5-5.2-6.1-5.2-7.1-2.7
				l-0.4,0.8c-5-0.9-16.6,1.4-19,11.8c-0.4,1.5-0.4,3.1-0.2,4.5c-5.4,13.1-15.6,33.7-20.5,34.2c-4,0.4,5.4-25.5,6.6-30.7
				c-1.3-1.7-9.5-5.5-12.4-8.6c1.7-5.7,0.5-13.6-4.8-12.4c-5.1,1.2-3.3,7.9,1.1,13.6c-2,1.4-5,2.2-7.2,2c0.2-7-1.7-13.6-6-14.6
				c-15.2-3.7-24,28.3-6.9,32.5c7.7,1.9,12-7,12.8-16c2.9,0.1,5.9-0.5,8.5-2.5c2.1,2.4,4.6,4.5,7.1,5.8c-2,5.2-13.1,33.6,1.1,32.9
				c6.5-0.3,15.7-18.8,21.6-33.1c3.1,6,11.9,6.3,18.6-16.3c0.5,5.5-0.1,12.6-1.6,21.1c-6.4,6.1-11.1,10.8-14.1,16.3
				c-6.8,11.9-1.8,18.4,7.3,15.2c7.8-2.8,12.3-19.7,14.3-34.1c2.8-2.2,9.2-6.7,14.2-9.8c-2.9,11.6,0.3,27,10.3,27.4
				c4.6,0.2,11.3-6.5,17.1-18.7c-0.9,12.3-0.1,24,5.9,26.3c8.6,3.3,15.6-12.8,23.6-35.9C311.3,106.4,309.6,104.5,308.7,107.3z
				 M267.6,99.7c0.8,1.5-1.6,11.6-6.6,13.4C261.2,107.4,266.1,97.1,267.6,99.7z M166.1,127.4c-4.3-0.4-3.9-13.1-1-21
				c1.7,4,5.2,6.4,9,7.3C173.3,120.6,170.4,127.6,166.1,127.4z M174.3,111.6c-3.4-1.1-6.6-3.9-8-7.9c1.2-2.2,2.7-3.5,4.3-3.5
				C173.6,100.3,174.7,105.6,174.3,111.6z M185.2,106.7c-0.2,0.4-2.4-4.5-2.5-5.2C181.9,97.5,187.2,98.2,185.2,106.7z M220.9,117.9
				c-1.8-0.9,3.3-19.1,11.4-18.6C229.1,106.8,223.4,119.1,220.9,117.9z M224.1,148.7c-4.8,8.2-11.1,1.6-4.8-9.3
				c2.2-3.9,6.3-10.1,12-15C231,134.5,227.2,143.6,224.1,148.7z"/>
		</g>
		<g>
			<path d="M184.4,158.2c-1.5-0.2-3.4-0.4-5.6-0.5c-2.2-0.1-4.6-0.2-7.2-0.2c-2.6,0-5,0-7.2,0c-2.2,0-4.2,0-5.8,0.1
				c-1.6,0.1-2.6,0.1-2.9,0.2c-0.2,1.4-0.2,2.2,0,2.4c0.3,0.2,0.9,0.5,1.8,0.6c0.3,0.1,0.6,0.1,0.9,0c0.3,0,0.7,0,1.4,0.1l-0.5,9.5
				c0,1.8,0,3.6-0.1,5.3c-0.1,1.7-0.1,3.7-0.1,5.8c-0.6,0.1-1.1,0.2-1.4,0.1c-0.4,0-0.7-0.1-1-0.1c-0.3,0-0.6,0-0.9,0.1
				c-0.3,0.1-0.7,0.3-1.1,0.7c0.2,0.7,0.4,1.2,0.6,1.5c0.2,0.3,0.5,0.5,0.8,0.6c0.3,0.1,0.5,0.1,0.8,0.1c0.2,0,0.4,0,0.6,0
				c1,0.1,1.4,0.1,1.3,0.1c0,0,0,0-0.1,0c0,0,0.1,0,0.1,0c0.1,0.8,0.1,1.9,0.1,3.3c0,1.4,0,3,0,4.7c0,1.7-0.1,3.6-0.1,5.5
				c0,1.9-0.1,3.8-0.1,5.6c-0.1,1.8-0.1,3.4-0.1,4.9c0,1.5,0,2.7,0,3.6c-0.7,0.1-1.2,0.1-1.5,0c-0.3-0.1-0.6-0.1-0.9-0.1
				c-0.2,0-0.5,0.1-0.8,0.2c-0.3,0.2-0.6,0.5-1.1,0.9c-0.5,1.2,0.3,1.9,2.2,2l24.1-0.8c0.8,0.1,1.5,0.1,2,0.1c0.5,0,0.9,0,1.3-0.2
				c0.3-0.1,0.6-0.4,0.9-0.7c0.3-0.3,0.6-0.8,1.1-1.5c-1-0.6-2.3-1-4.1-1.1c-1.8-0.2-3.7-0.2-5.7-0.2c-2,0-4,0.1-5.8,0.1
				c-1.9,0.1-3.4,0-4.5-0.2c0-1,0-2,0-2.8c0-0.9,0-1.7,0-2.6c0-0.8,0-1.7,0-2.6c0-0.9,0.1-1.9,0.2-3.1c0.3-4,0.4-7,0.4-9
				c-0.1-2.1-0.1-3.6,0-4.5c0.1-0.9,0.3-1.4,0.8-1.4c0.5-0.1,1.4-0.1,2.8-0.1c0.8,0,2.1,0,3.7,0.1c1.6,0.1,3.3,0.1,4.9,0
				c1.7,0,3.2-0.1,4.6-0.2c1.4-0.1,2.3-0.3,2.8-0.6l0.1-1.3c-0.5-0.5-1.2-0.8-2-0.8c-0.8,0-1.7,0-2.7-0.1c-1.4-0.1-3-0.1-4.7,0
				c-1.7,0.1-3.2,0.1-4.7,0.1c-1.4,0-2.7-0.1-3.6-0.3c-1-0.2-1.5-0.6-1.6-1.3c0-0.2,0-0.8,0-1.6c0-0.8,0-1.7,0-2.7s0-1.9,0-2.8
				c0-0.9,0-1.5,0-1.9c0-1.9,0.1-3.7,0.2-5.2c0.1-1.6,0.2-3.3,0.4-5.2c3.8,0.4,7.4,0.5,10.8,0.3c3.4-0.2,6.2-0.1,8.5,0
				c0.5-0.3,0.8-0.6,1-1c0.2-0.4,0.1-0.9-0.4-1.4C186.9,158.7,186,158.4,184.4,158.2z"/>
			<path d="M216.6,185.2c-1.3,0.2-2.4,0.3-3.4,0.4c-0.9,0.1-1.8,0.1-2.6,0.2c-0.8,0-1.5,0.1-2.2,0.1c-0.7,0-1.4,0.1-2.2,0.1
				c-0.7,0.1-1.2,0.2-1.6,0.4c-0.3,0.2-0.6,0.4-0.7,0.7c-0.1,0.3-0.2,0.5-0.1,0.7c0,0.2,0,0.3,0,0.4c1,0.7,2.4,1,4.2,0.9
				c1.8-0.1,3.8-0.1,6.1,0c0.1,1.4,0.1,2.9,0.1,4.5c0,1.6-0.1,3.3-0.3,5.1s-0.5,3.4-0.8,5c-0.4,1.6-0.9,3-1.5,4.3
				c-0.6,1.2-1.4,2.2-2.4,3c-1,0.8-2.1,1.1-3.4,1c-2-0.1-3.6-0.9-4.8-2.7c-1.2-1.7-2.1-3.8-2.7-6.4c-0.6-2.6-0.9-5.4-1-8.4
				c-0.1-3-0.1-5.9,0-8.7c0.1-0.9,0.2-2.2,0.4-3.8c0.2-1.6,0.4-3.4,0.8-5.3c0.3-1.9,0.8-3.8,1.3-5.8c0.5-2,1.2-3.7,1.8-5.3
				c0.7-1.6,1.5-2.8,2.5-3.8c1-1,2-1.5,3.1-1.4c1.6,0.1,3,0.8,4.3,2.3c1.2,1.5,2.1,3,2.6,4.7c0.2,1,0.4,1.8,0.5,2.2
				c0.1,0.4,0.6,0.9,1.5,1.2c0.5-0.4,0.8-0.9,0.9-1.5c0.1-0.6,0.1-1.2,0-1.8c-0.1-1.1-0.4-2.3-0.9-3.6c-0.5-1.2-1.1-2.3-1.9-3.3
				c-0.8-1-1.8-1.8-2.9-2.4c-1.1-0.6-2.4-0.9-3.7-0.9c-2.3-0.1-4.3,0.4-6.1,1.3c-1.8,1-3.4,2.2-4.7,3.9c-1.3,1.6-2.4,3.4-3.4,5.4
				c-0.9,2-1.7,4.1-2.3,6.2c-0.6,2.1-1,4.1-1.3,6.1c-0.3,2-0.5,3.7-0.6,5.1c-0.2,3.2-0.2,6.6,0,10.2c0.2,3.5,0.8,6.8,1.9,9.7
				c1.1,2.9,2.9,5.3,5.3,7.2c2.4,1.9,5.7,2.9,9.9,2.9c2,0,3.7-0.5,5.1-1.5c1.4-1,2.5-2.3,3.4-4c0.9-1.6,1.6-3.5,2.1-5.5
				c0.5-2.1,0.9-4.1,1.1-6.2c0.2-2.1,0.4-4.1,0.5-6c0.1-1.9,0.1-3.6,0.2-4.9c-0.1-0.6-0.4-1-0.7-1.3
				C217.7,185.6,217.2,185.4,216.6,185.2z"/>
			<path d="M248,185.2c-1.3,0.2-2.4,0.3-3.4,0.4c-0.9,0.1-1.8,0.1-2.6,0.2c-0.8,0-1.5,0.1-2.2,0.1c-0.7,0-1.4,0.1-2.2,0.1
				c-0.7,0.1-1.2,0.2-1.6,0.4c-0.3,0.2-0.6,0.4-0.7,0.7c-0.1,0.3-0.2,0.5-0.1,0.7c0,0.2,0,0.3,0,0.4c1,0.7,2.4,1,4.2,0.9
				c1.8-0.1,3.8-0.1,6.1,0c0.1,1.4,0.1,2.9,0.1,4.5c0,1.6-0.1,3.3-0.3,5.1c-0.2,1.7-0.4,3.4-0.8,5c-0.4,1.6-0.9,3-1.5,4.3
				c-0.6,1.2-1.4,2.2-2.4,3c-1,0.8-2.1,1.1-3.4,1c-2-0.1-3.6-0.9-4.8-2.7c-1.2-1.7-2.1-3.8-2.7-6.4c-0.6-2.6-0.9-5.4-1-8.4
				c-0.1-3-0.1-5.9,0-8.7c0.1-0.9,0.2-2.2,0.4-3.8c0.2-1.6,0.4-3.4,0.8-5.3c0.3-1.9,0.8-3.8,1.3-5.8c0.5-2,1.2-3.7,1.8-5.3
				c0.7-1.6,1.5-2.8,2.5-3.8c1-1,2-1.5,3.1-1.4c1.6,0.1,3,0.8,4.3,2.3c1.2,1.5,2.1,3,2.6,4.7c0.2,1,0.4,1.8,0.4,2.2
				c0.1,0.4,0.6,0.9,1.5,1.2c0.5-0.4,0.8-0.9,0.9-1.5c0.1-0.6,0.1-1.2,0-1.8c-0.1-1.1-0.4-2.3-0.9-3.6c-0.5-1.2-1.1-2.3-1.9-3.3
				c-0.8-1-1.8-1.8-2.9-2.4c-1.1-0.6-2.4-0.9-3.7-0.9c-2.3-0.1-4.3,0.4-6.1,1.3c-1.8,1-3.4,2.2-4.7,3.9c-1.3,1.6-2.4,3.4-3.4,5.4
				c-0.9,2-1.7,4.1-2.3,6.2c-0.6,2.1-1,4.1-1.3,6.1c-0.3,2-0.5,3.7-0.6,5.1c-0.2,3.2-0.2,6.6,0,10.2c0.2,3.5,0.8,6.8,1.9,9.7
				c1.1,2.9,2.9,5.3,5.3,7.2c2.4,1.9,5.7,2.9,9.9,2.9c2,0,3.7-0.5,5.1-1.5c1.4-1,2.5-2.3,3.4-4c0.9-1.6,1.6-3.5,2.1-5.5
				c0.5-2.1,0.9-4.1,1.1-6.2c0.2-2.1,0.4-4.1,0.4-6c0.1-1.9,0.1-3.6,0.2-4.9c-0.1-0.6-0.4-1-0.7-1.3
				C249.1,185.6,248.6,185.4,248,185.2z"/>
			<path d="M276.1,190.9c-1.4-2.5-3-4.9-4.8-7.1c-1.8-2.2-3.5-4.4-5.1-6.6c-1.7-2.2-2.9-4.6-3.6-7.2c-0.4-1.1-0.5-2.3-0.5-3.4
				c0-1.1,0.2-2.1,0.6-3c0.4-0.9,1-1.6,1.8-2.2c0.8-0.6,1.9-0.9,3.2-0.9c0.9,0,1.7,0.2,2.3,0.6c0.7,0.4,1.2,0.9,1.7,1.6
				c0.5,0.7,0.9,1.4,1.1,2.2c0.3,0.8,0.5,1.6,0.6,2.3c0.1,0.4,0.2,0.8,0.5,1c0.3,0.3,0.7,0.4,1.1,0.5c0.4,0.1,0.8,0.1,1.2,0
				c0.4-0.1,0.7-0.4,0.9-0.8c0.1-1.4-0.2-2.8-0.7-4c-0.5-1.2-1.3-2.3-2.2-3.2c-0.9-0.9-1.9-1.6-3.1-2.2c-1.2-0.6-2.4-0.9-3.7-1
				c-1.9-0.2-3.5,0-4.9,0.7c-1.4,0.6-2.6,1.5-3.6,2.7c-1,1.2-1.7,2.5-2.2,4.1c-0.5,1.6-0.7,3.2-0.5,5c0.1,2.3,0.6,4.4,1.5,6.4
				c0.9,2,2,4,3.2,5.8c1.2,1.9,2.5,3.7,3.9,5.5c1.4,1.8,2.6,3.5,3.7,5.3c1.1,1.8,1.9,3.6,2.5,5.4c0.6,1.8,0.7,3.8,0.3,5.8
				c-0.3,1.9-1.2,3.5-2.6,4.9c-1.4,1.4-3,2.3-4.9,2.6c-1.7,0.3-3.1,0.1-4.1-0.7c-1.1-0.7-1.9-1.8-2.5-3c-0.6-1.3-0.9-2.7-1-4.2
				c-0.1-1.5-0.1-3,0.1-4.3c0.1-0.6,0.1-1.1,0.2-1.5c0.1-0.4,0.1-0.7,0.1-1c0-0.3-0.2-0.5-0.5-0.6c-0.3-0.1-0.7-0.3-1.3-0.4
				c-0.5,0.4-0.9,0.8-1.2,1.3c-0.3,0.5-0.5,1.2-0.7,1.9c-0.4,1.9-0.4,3.7-0.1,5.5c0.3,1.8,0.9,3.5,1.8,5c1,1.5,2.2,2.7,3.8,3.7
				c1.6,1,3.5,1.5,5.6,1.7c2.6,0.2,4.8-0.1,6.8-0.8c1.9-0.7,3.6-1.8,4.9-3.2c1.3-1.4,2.2-3.1,2.7-5c0.5-1.9,0.7-4.1,0.5-6.4
				C278.5,196.5,277.5,193.5,276.1,190.9z"/>
			<path d="M289,209.5c-0.1-0.3-0.1-0.5-0.2-0.7c-0.1-0.2-0.2-0.4-0.3-0.5c-0.6-1.1-1.5-1.7-2.8-1.7c-1.1,0-2.1,0.4-2.9,1.1
				c-0.8,0.7-1.3,1.7-1.5,2.8c-0.2,1,0,1.8,0.6,2.5c0.6,0.7,1.4,1,2.4,1.1c-0.2,0.3-0.3,0.6-0.6,1c-0.2,0.3-0.5,0.7-0.8,1.1
				c-0.2,0.4-0.2,0.7,0,1c0.2,0.3,0.4,0.5,0.7,0.7c0.3,0.2,0.7,0.2,1.1,0.2c0.4,0,0.8-0.2,1.3-0.4c0.8-1,1.5-1.9,1.9-2.6
				c0.4-0.8,0.8-1.5,0.9-2.1c0.2-0.6,0.3-1.2,0.2-1.7C289.3,210.7,289.2,210.2,289,209.5z"/>
		</g>
		<g>
			<path d="M134,223.5c-0.2,1.2-4.5,20.4-5,51.4c-0.1,8.6,7.2,9.5,6.7,3.4c-0.5-6.9,2.9-31.4,6.6-55.3
				C143.3,217.1,135.6,216.3,134,223.5z"/>
			<path d="M320.7,245.2c-6.4,19.1-14.8,40-19.6,36.5c-2.5-1.8,0.5-41.7,4.4-59.5c0.9-0.1,9-0.4,10.4-0.9c1.6-0.6,0.9-1.6,0.6-2
				c-3.4,0.2-6.3,0.4-10.5,0.5c0.7-3.5,1.2-5.6,2.3-10.9c1-4.6-4.6-3.4-5.8-1.6c-1.1,1.1-2.3,8.1-3.8,13.6l-7.5,0.4
				c-1,0.9-1.1,1.6-0.1,2.2l7.1-0.4c-0.3,1.6-2.2,10.6-3.7,21.2c-5.8,18.4-15.5,34.2-19.3,35.7c-6.1-0.4,11.7-46.3-1.1-50.9
				c-8-2.9-16.9,23.9-19.4,28.7c-0.2-1.1,3.8-26.8,3.9-27.3c0.3-5.5-6.9-5.4-8.2-1.7c-0.5,2.2-1.2,7.7-1.8,14.2
				c-5.1,9.2-12,30.7-17.6,34.1c-5.5,3.3,4.5-35.1,5.6-40.4c0-3.7-4.9-7.7-7.3-2.8c-12.9-5.1-20.8,5.8-21.6,16.2
				c-3.2,0.9-6.5,0.5-8-0.4c1.6-4.5,2.5-8.5,2-10.9c-0.7-4.4-8.4-4.7-8.8,3.2c-0.1,2.3,0.9,6,4,8.4c-6,19.6-8.6,25.4-11.7,25.8
				c-2.9-0.4,3.5-35.9,3.4-39.3c-0.2-5.3-4.6-4.2-5.2-3c-2.8,4.9-12.2,31.3-15,30.2c-1.1-0.4-1.7-9,0.2-28.7c0.3-3-5.7-4.9-7.1-0.2
				c-2.7,22.5-1,34.8,7.3,31.5c2.9-1.2,7.2-9.8,14.6-28c-7.5,28.6-2.8,39.5,1.1,39.5c3.6,0,6.1-0.5,14.3-26.5
				c1.8,0.8,5.1,1.5,8.7,0.6c0,5.4,2.1,10.3,6.4,12.3c2.9,1.4,10.5-14.6,14.4-23.7c-4.2,10.6-7,36.5,0.6,39.5
				c5.9,2.3,13.7-17.8,19.1-30.2c-0.3,4.1-0.4,8.2-0.4,11.8c0.1,2.2,4.5,7,6.9,3c9.9-26,15.6-33,16.8-33.6c2.7-1.4,3,2.9,2.7,4.8
				c-2.9,14-12.4,46.6,0.5,46.6c5.3,0,13.5-15.3,19-29.6c-1.3,14.1-0.9,28.3,5.6,30.9c8.6,3.4,15.6-13.5,23.6-37.7
				C323.3,244.2,321.6,242.2,320.7,245.2z M197.6,248.2c-2-2-2.7-4.5-2.7-5.3c-0.1-4.4,4.2-5.7,4.5-2.9
				C199.5,241.9,198.8,244.8,197.6,248.2z M213.8,257.9c0.7-6.1,7.1-25.4,13.9-21.4C225.2,242.7,212.3,271.4,213.8,257.9z"/>
		</g>
		<g>
			<path d="M148.6,330c-0.3,0-0.7,0.1-1,0.4c-0.4,0.3-0.6,0.7-0.6,1.3c-0.2,1.2-0.5,2.5-0.9,4c-0.4,1.5-1,2.9-1.7,4.3
				c-0.8,1.3-1.7,2.5-2.9,3.4c-1.2,0.9-2.6,1.3-4.3,1.3c-2.5,0-4.3-0.8-5.5-2.4c-1.2-1.6-2-3.5-2.5-5.8c-0.5-2.3-0.7-4.7-0.6-7.3
				c0-2.6,0-4.9,0-6.9c0-1.1,0.1-2.7,0.2-5c0.1-2.2,0.4-4.6,0.8-7.2c0.4-2.5,0.8-5.1,1.4-7.6c0.6-2.5,1.4-4.6,2.3-6.3
				c0.9-1.7,2.1-2.8,3.4-3.3c1.3-0.5,2.8,0,4.6,1.5c0.8,0.5,1.4,1.2,1.8,2c0.4,0.8,0.8,1.6,1.1,2.3c0.3,0.7,0.6,1.3,0.9,1.7
				c0.3,0.4,0.7,0.4,1.2,0.1c0.4-0.3,0.6-1,0.5-2.1c-0.1-1.1-0.4-2.2-1.1-3.4c-0.7-1.2-1.7-2.2-3-3.1c-1.3-0.9-3-1.4-5-1.5
				c-2.6-0.1-4.8,0.4-6.6,1.5c-1.8,1-3.4,2.5-4.6,4.3c-1.3,1.8-2.2,3.9-3,6.2c-0.7,2.3-1.3,4.7-1.7,7.1c-0.4,2.4-0.7,4.7-0.9,7
				c-0.2,2.3-0.3,4.3-0.4,6c-0.2,2.9-0.1,5.8,0.2,8.9c0.3,3,1.1,5.8,2.2,8.3c1.2,2.5,2.9,4.5,5.2,6.1c2.3,1.6,5.3,2.4,9.1,2.3
				c2.3-0.1,4.2-0.6,5.6-1.6c1.4-1,2.5-2.3,3.4-3.8c0.8-1.5,1.5-3.2,2-5c0.5-1.8,0.9-3.6,1.3-5.2c0.2-0.8,0.2-1.3,0-1.7
				C149.2,330.2,148.9,330,148.6,330z"/>
			<path d="M185.8,337.5c-0.2-2-0.4-4.5-0.7-7.3c-0.2-1.6-0.3-3.6-0.4-5.8c-0.1-2.2-0.2-4.6-0.4-7.2c-0.1-2.5-0.4-5.1-0.6-7.7
				c-0.3-2.6-0.7-5-1.2-7.2c-0.5-2.2-1.2-4.2-2-6c-0.8-1.7-1.8-3-3-3.8c-0.6-0.4-1.1-0.7-1.6-0.9c-0.4-0.3-0.9-0.5-1.4-0.6
				c-0.5-0.1-1-0.3-1.5-0.3c-0.5-0.1-1.2-0.1-1.9-0.1c-0.8,0-1.6,0.1-2.2,0.4c-0.6,0.3-1.2,0.6-1.8,0.9c-1.2,0.7-2.4,2-3.5,4.1
				c-1.1,2.1-2.2,4.5-3.2,7.2c-1,2.8-1.9,5.7-2.8,8.9c-0.8,3.2-1.6,6.2-2.2,9.1c-0.6,2.9-1.1,5.5-1.5,7.7c-0.4,2.3-0.5,3.9-0.5,4.9
				c0,0.9-0.1,1.8-0.2,2.6c-0.1,0.8-0.3,1.8-0.4,2.8c-0.1,1-0.3,2.2-0.4,3.5c-0.1,1.3-0.1,2.9-0.1,4.7c0.1,0.4,0.5,0.6,1.2,0.6
				c0.7,0,1.1-0.4,1.4-1.1l1.8-15.9c0.2-1.6,1-2.6,2.2-3s3-0.5,5.2-0.3l13.2,0.2c0,1.2,0.1,2.7,0.2,4.4c0.1,1.7,0.3,3.5,0.5,5.3
				c0.2,1.8,0.5,3.5,0.8,5.1c0.3,1.6,0.7,2.8,1.1,3.7c0.4,0.8,0.9,1.3,1.7,1.5c0.8,0.2,1.5,0.1,2.3-0.2c0.7-0.3,1.4-0.9,1.9-1.8
				c0.5-0.9,0.7-2,0.5-3.4C186.1,341.2,185.9,339.5,185.8,337.5z M176.9,324.9c-2.8,0.1-5.8,0.2-9.1,0.3c-3.3,0.2-6.5,0.2-9.5,0.2
				c-0.1-0.3,0.1-1.4,0.4-3.2c0.3-1.8,0.8-4,1.4-6.5c0.6-2.5,1.4-5.2,2.2-8c0.8-2.8,1.8-5.3,2.8-7.5c1-2.2,2.1-3.9,3.3-5
				c1.1-1.2,2.3-1.4,3.5-0.7c0.5,0.3,0.9,1.1,1.4,2.5c0.4,1.3,0.9,3,1.3,5c0.4,2,0.7,4.1,1.1,6.4c0.3,2.3,0.6,4.5,0.8,6.7
				c0.2,2.1,0.4,4.1,0.4,5.8C177,322.8,177,324.1,176.9,324.9z"/>
			<path d="M218,344.9c-0.6-0.1-1.2-0.5-1.8-1.2c-0.3-0.2-0.9-0.9-1.9-2.2c-1-1.3-2-2.7-3.1-4.2c-1.1-1.5-2.2-3-3.2-4.4
				c-1-1.4-1.7-2.4-2.1-2.8c4.4-2.2,7.5-4.9,9.4-8c1.9-3.1,2.9-6.9,3-11.4c0.1-5.8-1.6-10.5-5.1-14c-3.4-3.5-8.2-5.6-14.4-6.3
				c-0.1,0-0.5,0-1.3,0c-0.8,0-1.7,0-2.7,0c-1,0-2,0-3.1,0c-1,0-1.8,0.1-2.3,0.1c-0.4,0.7-0.3,1.3,0.3,1.8c0.6,0.6,1.4,0.8,2.4,0.8
				c-0.1,1.2-0.1,2.1,0,2.8c0,0.7,0,1.5,0,2.6c0,3.5,0,7.3,0,11.2c0,3.9,0,7.9-0.1,11.9c-0.1,4-0.2,7.9-0.3,11.8
				c-0.1,3.9-0.3,7.6-0.5,11.1c0.1,0.5,0.3,0.9,0.4,1.2c0.2,0.3,0.4,0.5,0.6,0.7c0.2,0.2,0.4,0.4,0.7,0.6c0.2,0.2,0.5,0.5,0.7,0.9
				c0.8,0,1.5,0,2.2,0.1c0.7,0.1,1.3,0.2,1.8,0.2c0.5,0.1,0.9,0,1.2-0.1c0.3-0.1,0.5-0.5,0.5-0.9c0.1-2.1,0.1-4.5,0.1-7.1
				c0-2.6,0.1-5.6,0.2-9c1.4,0.1,2.4,0.4,3.2,1c0.7,0.5,1.5,1.3,2.3,2.2c0.8,0.9,1.6,1.9,2.3,3c0.7,1.1,1.4,2.2,2.2,3.3
				c0.8,1.1,1.6,2.2,2.4,3.2c0.8,1,1.8,2,2.9,2.7c0.5,0.3,1,0.6,1.4,0.9c0.5,0.3,0.9,0.4,1.3,0.4c0.4,0,0.7-0.1,0.9-0.4
				c0.2-0.3,0.2-0.8,0.2-1.6C218.8,345.3,218.5,345,218,344.9z M199.5,327.4c0-5,0.1-10.1,0.2-15.1c0.1-5,0.2-10.1,0.2-15.1
				c0-1.3,0.2-2.2,0.5-2.6c0.3-0.4,1-0.5,2.2-0.2c1.9,0.5,3.6,1.1,5.1,1.8c1.5,0.8,2.9,1.7,4,3c1.1,1.2,2,2.8,2.7,4.6
				c0.6,1.8,1,4,1.1,6.5c0.1,2.6-0.3,4.9-1.1,7.1c-0.9,2.1-2.1,4-3.6,5.5c-1.5,1.5-3.2,2.7-5.2,3.5
				C203.5,327.2,201.5,327.5,199.5,327.4z"/>
			<path d="M254.5,337.5c-0.2-2-0.4-4.5-0.7-7.3c-0.2-1.6-0.3-3.6-0.4-5.8c-0.1-2.2-0.2-4.6-0.4-7.2c-0.2-2.5-0.4-5.1-0.6-7.7
				c-0.3-2.6-0.7-5-1.2-7.2c-0.5-2.2-1.2-4.2-2-6c-0.8-1.7-1.8-3-3-3.8c-0.6-0.4-1.1-0.7-1.6-0.9c-0.4-0.3-0.9-0.5-1.4-0.6
				c-0.5-0.1-1-0.3-1.5-0.3c-0.5-0.1-1.2-0.1-1.9-0.1c-0.8,0-1.6,0.1-2.2,0.4c-0.6,0.3-1.2,0.6-1.8,0.9c-1.2,0.7-2.4,2-3.5,4.1
				c-1.1,2.1-2.2,4.5-3.2,7.2c-1,2.8-1.9,5.7-2.8,8.9c-0.8,3.2-1.6,6.2-2.2,9.1c-0.6,2.9-1.1,5.5-1.5,7.7c-0.4,2.3-0.5,3.9-0.5,4.9
				c0,0.9-0.1,1.8-0.2,2.6c-0.1,0.8-0.3,1.8-0.4,2.8c-0.1,1-0.3,2.2-0.4,3.5c-0.1,1.3-0.1,2.9-0.1,4.7c0.1,0.4,0.5,0.6,1.2,0.6
				c0.7,0,1.1-0.4,1.4-1.1l1.8-15.9c0.2-1.6,1-2.6,2.2-3c1.2-0.4,3-0.5,5.2-0.3l13.2,0.2c0,1.2,0.1,2.7,0.2,4.4
				c0.1,1.7,0.3,3.5,0.5,5.3c0.2,1.8,0.5,3.5,0.8,5.1c0.3,1.6,0.7,2.8,1.1,3.7c0.4,0.8,0.9,1.3,1.7,1.5c0.8,0.2,1.5,0.1,2.3-0.2
				c0.7-0.3,1.4-0.9,1.9-1.8c0.5-0.9,0.7-2,0.5-3.4C254.8,341.2,254.6,339.5,254.5,337.5z M245.6,324.9c-2.8,0.1-5.8,0.2-9.1,0.3
				c-3.3,0.2-6.5,0.2-9.5,0.2c-0.1-0.3,0.1-1.4,0.4-3.2c0.3-1.8,0.8-4,1.4-6.5c0.6-2.5,1.4-5.2,2.2-8c0.8-2.8,1.8-5.3,2.8-7.5
				c1-2.2,2.1-3.9,3.3-5c1.1-1.2,2.3-1.4,3.5-0.7c0.5,0.3,0.9,1.1,1.4,2.5c0.4,1.3,0.9,3,1.3,5c0.4,2,0.8,4.1,1.1,6.4
				c0.3,2.3,0.6,4.5,0.8,6.7c0.2,2.1,0.4,4.1,0.4,5.8C245.6,322.8,245.7,324.1,245.6,324.9z"/>
			<path d="M288.3,290.7c-0.5-0.1-1.1-0.2-1.7-0.2c-0.6,0-1.2,0-1.8,0c-3.4,0.1-6.7,0.1-10.1,0c-3.4-0.1-6.8-0.2-10.2-0.3
				c-1.1-0.1-2.3-0.2-3.6-0.1c-1.2,0-2.3,0.2-3.3,0.6c-0.3,1-0.1,1.7,0.5,2.1c0.6,0.4,1.5,0.6,2.6,0.6c1.1,0.1,2.3,0,3.6,0
				c1.3-0.1,2.4-0.1,3.3,0c1,0.1,1.6,0.3,1.9,0.4c0.3,0.2,0.5,0.6,0.5,1.3c0,0.7-0.1,1.8-0.2,3.3c-0.1,1.5-0.1,3.6,0,6.4
				c0,2.6,0,5.7-0.1,9.1c-0.1,3.4-0.2,7-0.3,10.6c-0.1,3.6-0.2,7.2-0.2,10.8c-0.1,3.6-0.1,6.7-0.1,9.5c0.6,0.5,1.2,1.1,1.8,1.6
				c0.6,0.5,1.3,0.9,1.9,1.2c0.7,0.3,1.3,0.3,2,0.2c0.7-0.2,1.4-0.7,2.2-1.6c-0.1-0.3-0.2-1.3-0.2-3c0-1.7,0-3.7,0-6.2
				c0-2.5,0-5.1,0.1-8c0.1-2.8,0.1-5.6,0.2-8.3c0.1-2.7,0.1-5,0.1-7.1c0-2.1,0-3.6,0-4.5l0.5-14.6c0.1,0,0.1-0.1,0-0.2
				c0-0.1,0-0.3,0-0.4c1.8-0.4,3.6-0.5,5.3-0.5s3.6,0.1,5.3,0.2c0.7-0.1,1.1-0.5,1.3-1c0.1-0.6-0.1-1-0.4-1.3
				C289.2,291.1,288.8,290.8,288.3,290.7z"/>
			<path d="M316,323.7c-1.4-2.5-3-4.9-4.8-7.1c-1.8-2.2-3.5-4.4-5.1-6.6c-1.6-2.2-2.9-4.6-3.6-7.2c-0.4-1.1-0.5-2.3-0.5-3.4
				c0-1.1,0.2-2.1,0.6-3c0.4-0.9,1-1.6,1.8-2.2c0.8-0.6,1.9-0.9,3.2-0.9c0.9,0,1.7,0.2,2.3,0.6c0.7,0.4,1.2,0.9,1.7,1.6
				c0.5,0.7,0.9,1.4,1.1,2.2c0.3,0.8,0.5,1.6,0.6,2.3c0.1,0.4,0.2,0.8,0.5,1c0.3,0.3,0.7,0.4,1.1,0.5c0.4,0.1,0.8,0.1,1.2,0
				c0.4-0.1,0.7-0.4,0.9-0.8c0.1-1.4-0.2-2.8-0.7-4c-0.5-1.2-1.3-2.3-2.2-3.2c-0.9-0.9-1.9-1.6-3.1-2.2c-1.2-0.6-2.4-0.9-3.7-1
				c-1.9-0.2-3.5,0-4.9,0.7c-1.4,0.6-2.6,1.5-3.6,2.7c-1,1.2-1.7,2.5-2.2,4.1c-0.5,1.6-0.7,3.2-0.5,5c0.1,2.3,0.6,4.4,1.5,6.4
				c0.9,2,2,4,3.2,5.8c1.2,1.9,2.5,3.7,3.9,5.5c1.4,1.8,2.6,3.5,3.7,5.3c1.1,1.8,1.9,3.6,2.5,5.4c0.6,1.8,0.7,3.8,0.3,5.8
				c-0.3,1.9-1.2,3.5-2.6,4.9c-1.4,1.4-3,2.3-4.9,2.6c-1.7,0.3-3.1,0.1-4.1-0.7c-1.1-0.7-1.9-1.8-2.5-3c-0.6-1.3-0.9-2.7-1-4.2
				c-0.1-1.5-0.1-3,0.1-4.3c0.1-0.6,0.1-1.1,0.2-1.5c0.1-0.4,0.1-0.7,0.1-1c0-0.3-0.2-0.5-0.5-0.6c-0.3-0.1-0.7-0.3-1.3-0.4
				c-0.5,0.4-0.9,0.8-1.2,1.3c-0.3,0.5-0.5,1.2-0.7,1.9c-0.4,1.9-0.4,3.7-0.1,5.5c0.3,1.8,0.9,3.5,1.8,5c1,1.5,2.2,2.7,3.8,3.7
				c1.6,1,3.5,1.5,5.6,1.7c2.6,0.2,4.8-0.1,6.8-0.8c1.9-0.7,3.6-1.8,4.9-3.2c1.3-1.4,2.2-3.1,2.7-5c0.5-1.9,0.7-4.1,0.5-6.4
				C318.4,329.2,317.4,326.2,316,323.7z"/>
			<circle cx="327.2" cy="344" r="4.1"/>
		</g>
	</g>
	<g>
		<path class="st3" d="M317.2,161.1c3.7,1,7.6,3.8,11,5.5c-2.2,2.4-7.3,6.2-10.3,7.6C317.7,170.1,316.7,165.1,317.2,161.1z"/>
		<path class="st3" d="M329.5,168.8c1.5,4.1,1.7,9.5,2.4,13.8c-3.7-1-9.6-4.1-12.6-6.3C322.4,174,325.9,170.4,329.5,168.8z"/>
		<path class="st3" d="M303.4,168.5c2.9-3,7.8-5.2,11.2-7.5c0.9,3.4,1.3,10.1,0.8,13.5C311.7,172.6,306.7,171,303.4,168.5z"/>
		<path class="st3" d="M286.9,160.3c3.3-2.7,8.6-4.5,12.5-6.5c0.7,3.1,0.8,9.6,0.2,12.7C295.7,164.7,290.3,163,286.9,160.3z"/>
		<path class="st3" d="M301.9,170.6c4.2,0.8,9,4.5,12.8,6.4c-5.7,6.1-11.4,12.2-17.1,18.4C299,187.1,300.4,178.8,301.9,170.6z"/>
		<path class="st3" d="M299.5,169.4c-1.1,8-2.2,16-3.3,24c-3.4-10.2-6.7-20.5-10.1-30.7C290.4,164.8,295.7,166.5,299.5,169.4z"/>
		<path class="st3" d="M317.2,178.1c-5.8,5.7-11.6,11.3-17.3,17c10.2-3.4,20.4-6.8,30.7-10.2C326.2,182.7,321.7,179.5,317.2,178.1z"
			/>
		<path class="st3" d="M301.9,153.6c3.7,1,7.6,3.8,11,5.5c-2.4,2.4-7.7,6-10.9,7.3C302.1,162.3,301.2,157.5,301.9,153.6z"/>
	</g>
	<g>
		<path class="st3" d="M138.6,174.9c-1,1.7-2,3.5-3,5.2c2.5-0.3,4.9-0.7,7.4-1C141.7,177.5,140.2,176.1,138.6,174.9z"/>
		<path class="st3" d="M146.8,178.5c-0.1-0.7-0.2-1.3-0.3-1.9c-0.4,0.7-0.8,1.4-1.2,2.1C145.8,178.7,146.3,178.6,146.8,178.5z"/>
		<path class="st3" d="M129.2,176.6c-1,1.5-1.9,3.1-2.8,4.7c2.1-0.3,4.3-0.6,6.4-0.9C131.6,179.1,130.4,177.8,129.2,176.6z"/>
		<path class="st3" d="M134.1,179.4c1-1.7,2-3.4,3-5.2c-2.3,0.4-4.6,0.7-6.8,1.1C131.6,176.6,132.8,178,134.1,179.4z"/>
		<path class="st3" d="M105,185.9c-1.6,0.2-3.1,0.4-4.7,0.6c0.4,3.4,1.2,7.3,2.9,11c0.7,0.3,1.3,0.5,2,0.6c1.3,0,2.7-0.5,4.3-1.7
			c0.5-0.4,1.1-0.8,1.6-1.2c0.8-0.7,1.7-1.4,2.7-2c3.6-2.2,8.3-2.3,11.8-0.4c0.4,0.2,0.8,0.5,1.1,0.7c0.5,0.3,0.9,0.6,1.3,0.8
			c2.1,1.1,4.8,1,6.9-0.3c1.3-0.8,2.3-1.9,3.4-3c1.2-1.3,2.4-2.6,4-3.5c1.5-0.8,3.3-1.2,5-1c0-2.2-0.1-4.4-0.3-6.4
			c-13.8,1.9-27.5,3.7-41.3,5.6C105.5,185.9,105.3,185.9,105,185.9z"/>
		<path class="st3" d="M142.1,164.7c-1.5,0.6-3.3,0.5-5.4-0.2c-0.6-0.2-1.2-0.5-1.8-0.7c-0.9-0.4-1.8-0.8-2.7-1
			c-3.3-0.8-6.8,0.3-8.9,2.8c-0.3,0.3-0.5,0.6-0.7,1c-0.3,0.4-0.7,0.9-1.1,1.3c-1.5,1.7-3.8,2.6-6.1,2.6c-0.6,0-1.1-0.1-1.7-0.2
			c-1.6-0.4-3-1.2-4.3-2c-1.3-0.8-2.6-1.6-4-1.9c-1-0.2-2.1-0.1-3,0.2c-1.2,4.1-1.9,8.2-2.1,12.2c15-2.4,29.9-4.9,44.9-7.3
			c-0.7-2.3-1.7-4.5-2.7-6.7C142.3,164.6,142.2,164.6,142.1,164.7z"/>
		<path class="st3" d="M117.9,182.5c1.9-0.3,3.8-0.5,5.7-0.8c-1-1.3-2-2.6-3.1-3.7C119.6,179.4,118.7,181,117.9,182.5z"/>
		<path class="st3" d="M105.7,164.6c1.7,0.3,3.1,1.2,4.5,2.1c1.3,0.8,2.5,1.5,3.8,1.8c2.2,0.5,4.6-0.2,6.1-1.9
			c0.3-0.4,0.6-0.8,0.9-1.2c0.3-0.4,0.5-0.7,0.8-1c2.5-3,6.8-4.3,10.6-3.3c1,0.3,2,0.7,2.9,1.1c0.6,0.3,1.2,0.5,1.7,0.7
			c1.7,0.6,3.1,0.7,4.2,0.3c0,0,0.1-0.1,0.1-0.1c-0.7-1.3-1.4-2.6-2.2-3.9c-0.2-0.4-0.5-0.8-0.7-1.2c-1.1,0-2.2-0.2-3.5-0.6
			c-0.6-0.2-1.2-0.5-1.8-0.7c-0.9-0.4-1.8-0.8-2.7-1c-3.2-0.8-6.8,0.3-8.9,2.8c-0.3,0.3-0.5,0.6-0.7,1c-0.3,0.4-0.7,0.9-1.1,1.3
			c-1.5,1.7-3.8,2.6-6.1,2.6c-0.6,0-1.1-0.1-1.7-0.2c-1.6-0.4-3-1.2-4.3-2c-1-0.6-2-1.2-3-1.6c-0.8,1.7-1.4,3.4-1.9,4.8
			c0,0.1-0.1,0.2-0.1,0.3C103.8,164.4,104.8,164.4,105.7,164.6z M136.5,159.4c1.1,0,1,1.7,0,1.6C135.4,161,135.4,159.3,136.5,159.4z
			 M132.5,157.9c1.1,0,1,1.7,0,1.6C131.4,159.5,131.5,157.9,132.5,157.9z M129,157.1c1.1,0,1,1.7,0,1.6
			C127.9,158.8,127.9,157.1,129,157.1z M125.2,158c1.1,0,1,1.7,0,1.6C124.2,159.7,124.2,158,125.2,158z M122.1,160.5
			c1.1,0,1,1.7,0,1.7C121.1,162.1,121.1,160.4,122.1,160.5z M119.5,163c1.1,0,1,1.7,0,1.6C118.4,164.6,118.4,163,119.5,163z
			 M115.9,165c1.1,0,1,1.7,0,1.6C114.9,166.6,114.9,165,115.9,165z M112.2,164.8c1.1,0,1,1.7,0,1.6
			C111.1,166.4,111.2,164.8,112.2,164.8z M108.6,162.9c1.1,0,1,1.7,0,1.6C107.5,164.5,107.6,162.8,108.6,162.9z M105.6,161.6
			c1.1,0,1,1.7,0,1.6C104.5,163.2,104.5,161.5,105.6,161.6z"/>
		<path class="st3" d="M143.1,189c-1.4,0.8-2.4,1.9-3.5,3.1c-1.1,1.2-2.3,2.5-3.8,3.4c-2.6,1.5-5.9,1.6-8.5,0.3
			c-0.5-0.3-1-0.6-1.5-0.9c-0.3-0.2-0.7-0.5-1-0.7c-2.9-1.7-7-1.5-10.1,0.3c-0.9,0.5-1.6,1.2-2.5,1.9c-0.5,0.4-1.1,0.9-1.6,1.3
			c-1.8,1.4-3.6,2-5.3,2c0,0-0.1,0-0.1,0c-0.3,0-0.5,0-0.8-0.1c0.2,0.4,0.5,0.8,0.7,1.1c1,1.5,2.1,2.7,3.4,3.9
			c0.5-0.3,1.1-0.6,1.6-1c0.5-0.4,1.1-0.8,1.6-1.2c0.8-0.7,1.7-1.4,2.7-2c3.6-2.2,8.3-2.3,11.8-0.4c0.4,0.2,0.8,0.5,1.1,0.7
			c0.5,0.3,0.9,0.6,1.3,0.8c2.1,1.1,4.8,1,6.9-0.3c1.3-0.8,2.3-1.9,3.4-3c1.2-1.3,2.4-2.6,4-3.5c1.1-0.6,2.3-0.9,3.5-1
			c0.5-1.8,0.7-3.7,0.8-5.6C145.9,188,144.4,188.3,143.1,189z M107.9,203.2c-1.1,0-1-1.7,0-1.6C109,201.5,109,203.2,107.9,203.2z
			 M110.1,201.6c-1.1,0-1-1.7,0-1.6C111.2,200,111.2,201.6,110.1,201.6z M113.7,198.9c-1.1,0-1-1.7,0-1.6
			C114.8,197.3,114.8,198.9,113.7,198.9z M117.1,197c-1.1,0-1-1.7,0-1.7C118.2,195.4,118.1,197,117.1,197z M121.2,196.6
			c-1.1,0-1-1.7,0-1.6C122.3,195,122.3,196.7,121.2,196.6z M125.1,197.9c-1.1,0-1-1.7,0-1.6C126.2,196.3,126.2,197.9,125.1,197.9z
			 M128.6,199.4c-1.1,0-1-1.7,0-1.6C129.7,197.8,129.7,199.5,128.6,199.4z M132.8,200.2c-1.1,0-1-1.7,0-1.6
			C133.9,198.6,133.9,200.2,132.8,200.2z M136.5,198.8c-1.1,0-1-1.7,0-1.6C137.6,197.1,137.6,198.8,136.5,198.8z M139.6,195.7
			c-1.1,0-1-1.7,0-1.6C140.7,194.1,140.7,195.7,139.6,195.7z M142.4,193.5c-1.1,0-1-1.7,0-1.6C143.5,191.8,143.4,193.5,142.4,193.5z
			 M145.1,191.9c-1.1,0-1-1.7,0-1.6C146.2,190.3,146.1,192,145.1,191.9z"/>
		<path class="st3" d="M107.3,183.9c2.5-0.3,5-0.7,7.5-1c-1.2-1.2-2.4-2.4-3.7-3.7C109.8,180.8,108.5,182.3,107.3,183.9z"/>
		<path class="st3" d="M140.2,199.3c-1.1,1.2-2.3,2.5-3.8,3.4c-2.6,1.5-5.9,1.6-8.5,0.3c-0.5-0.3-1-0.6-1.5-0.9
			c-0.3-0.2-0.7-0.5-1-0.7c-2.9-1.7-7-1.5-10.1,0.3c-0.9,0.5-1.6,1.2-2.5,1.9c-0.5,0.4-1.1,0.9-1.6,1.3c-0.4,0.3-0.8,0.6-1.2,0.8
			c2.1,1.5,4.4,2.6,7.1,3.4c5.2,1.5,11.6,0.9,17.5-1.4c4.8-1.9,8.4-5.4,10.6-10c0.3-0.7,0.6-1.4,0.9-2.2c-0.8,0.1-1.6,0.4-2.2,0.7
			C142.3,196.9,141.3,198.1,140.2,199.3z"/>
		<path class="st3" d="M144,177.7c0.7-1.1,1.3-2.3,2-3.4c-0.1-0.5-0.3-1-0.4-1.4c-1.9,0.3-3.8,0.6-5.7,0.9
			C141.3,174.9,142.7,176.3,144,177.7z"/>
		<path class="st3" d="M100.1,181c0,0.7,0,1.4,0,2.1c0,0.6,0,1.2,0.1,1.8c1.1-0.2,2.2-0.3,3.3-0.5
			C102.4,183.3,101.3,182.1,100.1,181z"/>
		<path class="st3" d="M112.5,161.4c2.2,0.5,4.6-0.2,6.1-1.9c0.3-0.4,0.6-0.8,0.9-1.2c0.3-0.4,0.5-0.7,0.8-1c2.5-3,6.8-4.3,10.6-3.3
			c1,0.3,2,0.7,2.9,1.1c0.6,0.3,1.2,0.5,1.7,0.7c0.6,0.2,1.2,0.4,1.7,0.5c-2.5-3.4-6.1-7.1-10.6-9.1c-1.7-0.7-3.4-1.1-5.2-1.1
			c-3.4-0.1-6.8,1.1-9.6,3.5c-2.8,2.3-4.9,5.4-6.5,8.4c1.1,0.4,2.1,1.1,3.1,1.7C110,160.4,111.2,161.1,112.5,161.4z"/>
		<path class="st3" d="M127.8,175.7c-2.1,0.3-4.1,0.7-6.2,1c1.2,1.3,2.2,2.6,3.3,3.9C125.7,178.9,126.7,177.3,127.8,175.7z"/>
		<path class="st3" d="M109.4,178.7c-2.7,0.4-5.3,0.9-8,1.3c1.3,1.3,2.6,2.5,3.8,3.8C106.6,182.1,108,180.4,109.4,178.7z"/>
		<path class="st3" d="M119.1,177.1c-2.2,0.4-4.4,0.7-6.7,1.1c1.3,1.3,2.5,2.5,3.8,3.8C117.2,180.4,118.1,178.7,119.1,177.1z"/>
	</g>
	<path class="st3" d="M284.8,367.2c-1.4-0.2-2.6-0.5-3.8-0.7c-2.6-0.5-5.1-1-7.7-1.4c-2.9-0.5-5.8-1-8.7-1.5
		c-2.1-0.3-4.3-0.6-6.4-0.9c-3-0.4-6-0.7-9-1.1c-2-0.2-4-0.5-6-0.6c-6.6-0.6-13.1-1.2-19.7-1.3c-4.1-0.1-8.1-0.2-12.2-0.1
		c-4.6,0.1-9.2,0.3-13.8,0.7c-6.2,0.4-12.4,1.2-18.5,2.3c-3.4,0.6-6.8,1.4-10.3,2.1c-1.2,0.2-2.4,0.3-3.7,0.4
		c-0.3,0-0.6-0.1-0.9-0.2c-0.8-0.4-0.8-0.9-0.2-1.6c0.3-0.3,0.7-0.6,1.1-0.8c1.5-0.7,3-1.4,4.6-2c3.8-1.4,7.7-2.3,11.6-3
		c3.5-0.6,6.9-1.1,10.4-1.6c2.6-0.3,5.1-0.6,7.7-0.7c4.1-0.3,8.2-0.5,12.3-0.7c7.7-0.3,15.4,0,23,0.5c3.9,0.3,7.9,0.7,11.8,1.1
		c2.6,0.3,5.2,0.6,7.8,0.9c3,0.4,5.9,1,8.8,1.5c2.2,0.4,4.4,0.7,6.5,1.1c2.6,0.5,5.2,0.9,7.7,1.4c2.3,0.5,4.7,1,7,1.6
		c0.9,0.2,1.8,0.7,2.7,1.1c0.5,0.2,1,0.6,1,1.5c-0.1,0.8-0.6,1.1-1.2,1.3C286.2,367,285.4,367.1,284.8,367.2z"/>
</g>
</svg>
