<?xml version="1.0" encoding="utf-8"?>
<!-- Generator: Adobe Illustrator 21.0.1, SVG Export Plug-In . SVG Version: 6.00 Build 0)  -->
<svg version="1.1" id="Calque_1" xmlns="http://www.w3.org/2000/svg" xmlns:xlink="http://www.w3.org/1999/xlink" x="0px" y="0px"
	 viewBox="0 0 432 432" style="enable-background:new 0 0 432 432;" xml:space="preserve">
<style type="text/css">
	.st0{fill:#C87B33;}
	.st1{fill:#00A79D;}
	.st2{fill:#DA1C5C;}
	.st3{fill:#C77B32;}
	.st4{fill:#231F20;}
	.st5{fill:#65C8D0;}
	.st6{fill:#1D71B8;}
	.st7{fill:#9E6081;}
	.st8{fill:#333333;}
	.st9{fill:#F7B0B1;}
	.st10{fill:#A6A8AB;}
	.st11{fill:#65C5C0;}
	.st12{fill:#DB648C;}
	.st13{fill:#39B54A;}
</style>
<g>
	<g>
		<g>
			<path class="st7" d="M237.1,367.6c-1.2-1.2-2.5-2.4-3.7-3.6c-2.6-2.7-5.3-5.4-7.4-8.6c-2.6-3.9-4.3-8.1-3.9-12.9
				c0.2-3,1.3-5.7,4-7.4c2.1-1.4,4.3-1.4,6.5-0.4c2.9,1.2,4.7,3.5,6.1,6.2c2.3,4.1,2.8,8.6,2.7,13.2c0,2-0.2,4-0.4,6
				c0,0.6,0.1,1.1,0.5,1.5c1,0.9,2,1.9,2.9,2.9c2.2,2.5,4.5,5,6.7,7.5c0.2,0.2,0.4,0.4,0.6,0.7c0.5-0.6,1-1.1,1.5-1.6
				c3.4-3.2,6.8-6.5,10.3-9.7c0.6-0.6,1.1-1.2,1.4-2c0.5-1.2,1.2-2.5,1.9-3.6c0.6-0.9,1.5-1.4,2.6-1.5c1.7-0.3,3,0.9,2.9,2.6
				c-0.1,1.4-0.3,2.8-0.6,4.2c-0.4,2.4-0.8,4.9-0.7,7.4c0,5.7,1.7,10.9,4.8,15.6c0.9,1.3,1.8,2.6,2.9,3.8c2.6,2.7,5.7,3.1,8.9,1.1
				c2.3-1.4,4.1-3.2,5.5-5.4c3.9-6.3,6.1-13.1,6-20.5c0-2.5-0.5-5-1.3-7.4c0-0.1-0.1-0.3-0.2-0.5c-1.1,0.3-2.2,0.6-3.3,1
				c-2.9,0.9-5.9,1.3-8.9,1.1c-3.5-0.2-6.6-1.6-9.1-4.1c-2-2-2.5-4.6-2-7.3c0.5-2.8,2-5,4.6-6.4c1.8-0.9,3.8-1,5.7-0.6
				c5.4,1.3,9.5,4.5,12.4,9.1c0.8,1.3,1.5,2.7,2.3,4.2c2.1-0.6,4.3-1.2,6.5-1.8c-0.1-1.2-0.2-2.3-0.1-3.4c0-1,0.2-2,0.5-2.9
				c0.2-0.6,0.7-1.2,1.2-1.6c1.3-1.1,2.9-0.8,3.9,0.6c0.7,1,1,2.1,1.2,3.2c0.4,2.6,0.8,5.2,1.3,7.8c0.5,3,1,5.9,1.5,8.8
				c0.2,1,0.3,2,0.5,3c0.1,0.5,0.2,0.9,0.6,1.4c0.1-0.4,0.3-0.8,0.4-1.2c2.4-7.2,6.2-13.5,11.7-18.7c2.4-2.2,5-4.1,8-5.5
				c2.1-1,4.2-1.3,6.4-0.6c2,0.6,3.3,2,4.4,3.7c1,1.7,1.4,3.6,1.6,5.5c0.3,3.4,0.2,6.9-0.3,10.3c-0.7,4.9-1.5,9.7-2.2,14.6
				c-0.4,3.1-0.7,6.3-1,9.4c-0.4,4.2-0.6,8.4-0.9,12.7c-0.1,1.6,0,3.3-0.1,4.9c0,0.2,0.1,0.3,0.1,0.5c0.6,0,1.1-0.4,1.4-0.8
				c1.5-1.5,3-2.9,4.4-4.4c4.5-5.1,8.9-10.3,13.3-15.4c0.7-0.8,1.4-1.4,2.1-2.2c0.1-0.1,0.3-0.3,0.5-0.4c0.4-0.3,0.8-0.3,1.2,0.1
				c0.4,0.3,0.5,0.8,0.3,1.2c-0.2,0.3-0.4,0.6-0.6,0.9c-2.2,2.7-4.4,5.5-6.6,8.2c-3,3.7-5.9,7.4-8.9,11.1c-1.3,1.6-2.6,3.1-4.3,4.3
				c-0.6,0.4-1.2,0.9-1.9,1.2c-1.8,0.9-3.4,0.6-4.8-0.8c-1-1-1.5-2.4-1.9-3.7c-0.8-2.5-1-5.1-1.2-7.7c-0.3-4.4,0.1-8.7,0.6-13
				c0.6-4.6,1.2-9.1,1.8-13.7c0.5-3.5,1.1-7,1.5-10.5c0.3-2.6,0.2-5.2,0.3-7.8c0-0.7-0.2-1.3-0.3-2c-0.3-1.7-1.2-2.3-2.9-2.2
				c-1.5,0.1-3,0.6-4.3,1.3c-3.3,1.7-5.9,4.2-8.1,7.2c-4.5,6-7.2,12.8-8.2,20.2c-0.1,0.6-0.1,1.2,0,1.8c0.3,1.7,0.6,3.4,0.9,5.1
				c0.2,1.1,0.3,2.1,0.4,3.2c0.1,1.5-0.8,2.8-2.1,3.1c-1.4,0.3-2.7-0.3-3.4-1.6c-0.5-1.1-1-2.3-1.3-3.5c-0.7-2-1.4-4-1.9-6.1
				c-0.7-3.1-1.4-6.2-1.9-9.3c-0.5-2.7-0.9-5.4-1.3-8c-0.3-2-0.6-4-1-6.2c-2,0.6-3.9,1.2-6,1.9c0.2,0.7,0.4,1.4,0.6,2.1
				c1.2,4.8,1.3,9.6,0.6,14.5c-0.6,3.9-1.6,7.7-3.2,11.4c-1.9,4.4-4.6,8.3-8.6,11.2c-3.3,2.4-6.9,3.4-11,2.1c-1.9-0.6-3.6-1.6-5-2.9
				c-3.8-3.5-6.4-7.7-8.1-12.6c-1.7-5-2.4-10.1-1.7-15.4c0-0.1,0-0.2-0.1-0.5c-3.8,3.4-7.2,6.9-10.6,10.6c0.7,1.3,1.5,2.4,2.1,3.7
				c1.6,3.1,2.5,6.4,2.5,9.9c0,2.6-0.7,5-2.7,6.9c-2.2,2.1-5.4,2.1-7.5-0.1c-1.8-1.9-2.6-4.3-2.7-6.9c-0.1-2.7,0.5-5.3,1.7-7.7
				c0.4-0.8,0.4-1.3-0.1-2.1c-2.1-3-4.5-5.6-7-8.2c-0.1-0.1-0.2-0.1-0.4-0.3c-0.5,1.3-0.9,2.6-1.4,3.8c-2.8,6.8-6.1,13.3-10.8,19
				c-1.4,1.7-2.9,3.4-4.8,4.7c-0.4,0.3-0.8,0.5-1.2,0.7c-2.1,1-4.1,0.5-5.7-1.4c-1.2-1.4-2.2-3.1-2.9-4.8c-1.3-3.2-2.2-6.6-2.8-10
				c-0.2-1.5-0.4-2.9-0.5-4.4c-0.3-3.4-0.6-6.8-0.8-10.2c0-0.5-0.1-1-0.2-1.5c-0.1-0.5-0.2-0.9-0.3-1.5c-1.7,1.1-3.1,2.3-4.4,3.7
				c-3,3.1-5.6,6.6-8.2,10c-1.7,2.1-3.4,4.3-5.1,6.4c-0.6,0.7-1.2,1.3-1.9,1.9c-3,2.6-6.4,2.5-9.2-0.3c-2-2.1-3.4-4.5-4.3-7.3
				c-0.6-1.8-1-3.7-1.5-5.5c-0.1-0.2-0.2-0.4-0.3-0.8c-0.3,0.4-0.6,0.6-0.9,0.9c-4.1,4.8-8.2,9.7-12.4,14.5
				c-1.6,1.8-3.3,3.5-5.2,4.9c-1.4,1-2.9,1.7-4.6,2c-2.3,0.4-4.3-0.4-6.2-1.6c-3.6-2.3-6.2-5.4-8.2-9.1c-1.4-2.6-2.7-5.1-3.7-7.9
				c-0.9-2.8-1.7-5.6-2.2-8.4c-0.1-0.4-0.2-0.8-0.3-1.3c-6.3,3.5-12.7,6.7-18.7,10.6c0.5,0.9,0.9,1.7,1.3,2.5
				c1.8,3.7,3.1,7.5,3.3,11.7c0.2,3.9-0.8,7.4-3.3,10.5c-4.1,5.1-11.4,4.4-14.4-1.4c-1.2-2.3-1.3-4.7-0.9-7.1
				c0.5-3.4,1.9-6.4,3.8-9.1c1-1.4,2-2.7,3.1-4.1c-0.2-0.3-0.4-0.8-0.6-1.1c-1.8-2.4-3.5-4.8-5.3-7.1c-1.4-1.8-2.9-3.6-4.4-5.4
				c-0.8-1-1.6-2-2.4-3c-0.2-0.3-0.5-0.5-0.8-0.8c-2,0.6-3.9,1.2-5.8,1.9c-4.2,1.4-8.5,2.9-12.5,5c-1.3,0.7-2.5,1.5-3.7,2.4
				c-0.6,0.4-1,1.1-1.5,1.7c-0.5,0.7-0.9,0.9-1.4,0.7c-0.6-0.2-0.8-0.8-0.5-1.6c0.4-1.4,1.4-2.5,2.5-3.5c1.9-1.7,4.1-3,6.4-4
				c4.3-2,8.9-3.4,13.4-4.8c0.4-0.1,0.8-0.2,1.3-0.4c-0.2-0.5-0.3-0.9-0.6-1.3c-2.5-3.8-3.8-8.1-4.2-12.6c-0.3-4.3,0.3-8.4,2.8-12
				c1.7-2.5,3.8-4.4,6.8-5c1.2-0.2,2.5-0.2,3.7-0.1c7.9,0.6,13.7,7.9,13.3,14.8c-0.2,4.3-2,7.8-5.1,10.8c-1.9,1.8-4.2,3.2-6.5,4.5
				c-0.3,0.1-0.5,0.3-0.9,0.5c4,5.1,8.5,9.9,12,15.5c6.3-4.2,13.1-7.4,19.7-10.9c-0.1-1.4-0.1-2.8-0.2-4.2c-0.3-3.2,0-6.4,0.7-9.5
				c0.5-2.5,1.3-4.9,2.5-7.2c1.2-2.2,2.6-4.3,4.6-5.9c3.3-2.6,6.9-3,10.8-1.6c5.1,1.8,8.1,6.5,7.6,11.9c-0.3,3.2-1.8,5.8-3.9,8.2
				c-1.8,2.1-4,3.7-6.4,5c-2.6,1.4-5.2,2.6-8,4c0.1,0.6,0.3,1.5,0.4,2.3c0.5,3,1.5,5.9,2.6,8.7c1.5,3.8,3.4,7.3,5.5,10.7
				c0.6,1,1.4,1.9,2.2,2.7c1.3,1.3,2.6,1.5,4.4,0.7c1.4-0.6,2.6-1.5,3.7-2.6c3.1-3.2,6.1-6.3,9.1-9.5c2.5-2.7,4.9-5.4,7.3-8.1
				c0.5-0.5,0.7-1,0.6-1.7c-0.2-3-0.1-6,0.4-9c0.7-4.1,1.8-8.1,4-11.7c2-3.4,4.7-6.1,8.6-7.3c5.7-1.8,12.1-0.7,16.3,4.7
				c0.4,0.5,0.6,1.1,0.8,1.7c0.2,0.6,0,1.1-0.5,1.5c-0.5,0.4-1,0.3-1.6,0c-1.4-0.8-2.8-1.8-4.3-2.4c-4-1.5-7.8-1.1-11.1,1.8
				c-1.2,1.1-2,2.5-2.6,4c-1.2,2.8-2,5.8-2.3,8.9c-0.3,2.9-0.6,5.7-0.5,8.6c0.1,3.1,0.6,6.1,1,9.2c0.2,1.6,0.7,3.2,1.2,4.7
				c1,2.8,2.7,3.2,5,1.3c1.6-1.3,2.8-2.9,4.1-4.6c3.7-4.8,7.3-9.7,11-14.6c1.1-1.5,2.2-3,3.5-4.4c0.7-0.8,1.6-1.5,2.6-2.1
				c1.2-0.8,3.3-0.4,4.5,0.6c1,0.8,1.7,1.9,2,3.1c0.4,1.4,0.8,2.8,0.9,4.2c0.4,3.2,0.5,6.5,0.8,9.7c0.3,2.7,0.6,5.4,1,8.1
				c0.3,2.9,0.7,5.7,1,8.6c0.1,0.9,0.3,1.7,0.5,2.6c0.2,0.8,0.5,0.9,1.3,0.6c0.8-0.3,1.5-0.8,2.1-1.3c2.7-2.2,4.9-4.9,6.8-7.9
				C232.3,381.1,235.8,373.2,237.1,367.6z M95.3,357.2c0.8-0.4,1.6-0.8,2.3-1.2c2.8-1.5,5.3-3.3,7-6c2.2-3.5,2.8-7.2,1.4-11.1
				c-1.5-4-5.5-6.7-9.6-6.5c-1.7,0.1-3.2,0.7-4.1,2.1c-0.6,0.9-1.1,2-1.4,3c-0.7,2.6-0.8,5.3-0.5,8C91,349.9,92.6,353.7,95.3,357.2z
				 M136.1,360.3c3.7-1.5,7.4-3,10.6-5.3c2.2-1.6,3.9-3.7,4.7-6.4c1.1-4-0.5-7.7-4.2-9.4c-2.6-1.2-5.8-0.7-7.5,2.1
				c-0.6,1-1.2,2-1.6,3.1c-1.8,4.9-2.3,10.1-2.2,15.3C135.9,359.9,136,360,136.1,360.3z M296.8,352.7c-0.7-2-1.9-3.9-3.5-5.6
				c-2.4-2.6-5.2-4.5-8.7-5.1c-1.6-0.3-3.1-0.1-4.3,1.2c-1.9,2-2.7,5.7,0.3,8.2c1.4,1.2,3.1,2,4.9,2.3c2.4,0.4,4.8,0.2,7.2-0.1
				C293.9,353.3,295.3,353,296.8,352.7z M104.7,382.3c-1.1,1.3-2.1,2.5-2.9,3.8c-1.6,2.5-2.9,5.1-3.2,8.2c-0.3,2.4,0.2,4.5,1.8,6.4
				c2.1,2.5,5.8,2.4,7.8-0.2c1.3-1.7,1.6-3.7,1.3-5.8c-0.3-2.4-1.1-4.7-2-6.9C106.5,386,105.6,384.2,104.7,382.3z M238.4,358.5
				c0.1,0,0.2-0.1,0.3-0.1c0-0.9,0.1-1.9,0.1-2.8c0.1-3.8-0.3-7.5-1.6-11.1c-0.9-2.5-2.1-4.8-4.5-6.1c-0.6-0.3-1.4-0.5-2.2-0.6
				c-1.5-0.1-2.5,0.8-2.6,2.4c0,1.3,0,2.6,0.3,3.8c0.6,2.4,1.7,4.6,3.2,6.6c1.5,2,3.1,3.8,4.7,5.7
				C236.9,357.1,237.7,357.8,238.4,358.5z M248.7,382.2c-1.7,3.2-1.4,7.6,0.3,9.8c0.2,0.3,0.4,0.6,0.7,0.8c0.8,0.7,1.6,0.5,1.8-0.6
				c0.1-0.7,0.1-1.5,0-2.1c-0.4-1.7-0.9-3.3-1.4-4.9C249.7,384.2,249.2,383.2,248.7,382.2z"/>
		</g>
		<g>
			<path class="st8" d="M87.5,306.3H63.3c-0.1,0.7-0.1,1.4-0.2,2v10.1c0,2.4-1.6,3.4-3.2,3.4c-2,0.2-4,0.1-6.1,0.1h-1.1
				c-1.2,0.1-1.9-0.2-2.3-1.4c-0.4-1-0.6-2.2-0.7-3.3c-0.4-3.1-0.7-6.3-0.9-9.4c-0.5-5.1-1-10-1.4-15.1c-0.2-4.5-0.4-9.1-0.5-13.6
				c-0.1-6.4-0.2-12.8-0.1-19.3c0-3.5,0.2-7.2,0.4-10.7c0-0.5,0.2-0.9,0.3-1.3c0.3-1.3,1.2-2,2.5-2.2c2.1-0.4,4.3-0.4,6.6-0.3
				c1.5,0.2,2.6,1,3.1,2.4c0.7,2.1,1.4,4.2,1.8,6.4c1.2,6.5,1.3,13.1,1.4,19.7c0.1,6,0,11.9,0,17.9c0,2.5,0.2,5.2,0.2,7.7
				c0.1,1.4,0,2.8,0,4.4h12.1c4,0,8,0.1,12.1,0.1c0-0.3,0.1-0.7,0.1-1.1c-0.2-5.4-0.4-10.7-0.5-16.1c0-4.1,0-8.3,0.2-12.4
				c0.2-5.6,0.4-11,0.8-16.5c0.2-3,0.6-6.1,1.1-9c0.1-0.8,0.6-1.7,1.1-2.3c0.9-1.2,2.7-0.9,3.1,0.5c0.3,1.3,0.6,2.5,0.5,3.8
				c0,5-0.2,10-0.3,15c-0.1,3.1-0.3,6.3-0.4,9.3c-0.2,2.7-0.3,5.4-0.4,8c-0.1,4.1-0.1,8.4-0.2,12.5c-0.2,5.1-0.3,10.1-0.4,15.3
				c-0.1,2-0.1,4.1-0.1,6.3c-0.1,0.9-0.2,1.8-0.4,2.7s-0.7,1.3-1.5,1.3c-0.7,0.1-1.3-0.2-1.6-1.1c-0.3-0.9-0.5-1.9-0.5-2.8
				C87.7,313.7,87.7,310,87.5,306.3z"/>
			<path class="st8" d="M119.6,315.1c1,0.2,2.1-0.4,3.4-2.3c1.7-2.5,2.5-5.4,3.3-8.2c1.7-6.5,2.5-13.1,2.7-19.8
				c0.3-6,0.6-11.8,0.6-17.8c0.1-6-0.3-11.9-0.5-17.8v-0.8c0.2-0.6,0.5-1,1.1-1.1c0.6,0,1,0.2,1.3,0.7c0.1,0.3,0.2,0.8,0.2,1.1
				c0.4,4.3,0.7,8.7,1,12.9c0.4,6.5,0.3,12.9-0.3,19.4c-0.3,3.6-0.5,7.3-0.9,10.9c-0.5,5.2-1.4,10.3-2.8,15.4
				c-1.1,3.9-2.8,7.5-6,10.3c-2,1.9-4.4,3.3-7.2,4c-4.4,1-7.7-0.4-10.3-3.9c-2.8-4-4.4-8.6-5.9-13.3c-1.1-4-1.9-8.2-2.4-12.4
				c-0.3-3-0.5-6.1-0.6-9.1c-0.2-4.9-0.3-9.7-0.2-14.6c0.1-5.7,0.5-11.2,0.8-16.8c0.1-1.5,0.3-3,1.1-4.3c0.5-0.9,1.2-1.4,2.2-1.4
				c2.1-0.1,4.2-0.3,6.5-0.2c3,0,4.2,0.9,5.3,3.9c0.5,1.4,0.7,2.9,0.8,4.4c0.1,5.6,0.1,11.2,0.3,16.8c0.1,7.3,0.3,14.6,0.6,21.8
				c0.2,5.2,0.7,10.3,1.9,15.4C116.4,311,117.7,314.7,119.6,315.1z"/>
			<path class="st8" d="M191.2,311.7c0-3.4-0.1-6.9-0.2-10.3c-0.1-11.3-0.3-22.6-0.4-34c0-5.7,0.2-11.4,0.3-17.1
				c0.1-0.6,0-1.2,0.1-1.7c0-1.1,0.4-1.7,1.5-1.9c1.4-0.3,2.8-0.4,4.2-0.5c0.9,0,1.6,0.6,1.9,1.4c0.2,0.6,0.3,1.1,0.4,1.7
				c0.7,4.4,0.8,9,0.8,13.5c0.1,5.3,0.1,10.6-0.1,15.9c-0.1,3.8-0.5,7.8-0.7,11.6c-0.2,4.8-0.3,9.5-0.4,14.3c-0.1,4.3,0,8.7,0,13
				c0,2.7-2.3,4.2-5.2,3.4c-1.2-0.3-2.1-1-2.7-2.1c-2-3.6-4.1-7.1-6.4-10.6c-3.5-6-7.2-11.8-10.7-17.7c-4.9-8-9.6-16.1-14.4-24.1
				c-1.4-2.3-2.7-4.8-4.1-7.1c-0.1-0.2-0.3-0.5-0.7-0.7v1c0.1,6.2,0.3,12.3,0.3,18.4c0.1,6.4,0,12.8-0.2,19.1
				c-0.1,4.1-0.4,8.3-0.5,12.3c-0.1,1.8-0.1,3.5-0.1,5.4l-0.3,3.8c-0.1,1-0.7,1.5-1.8,1.7c-3.6,0.6-7.3,0.6-10.9,0.5h-0.7
				c-1.7,0-2-0.1-2.4-1.8c-0.3-1.3-0.6-2.7-0.7-4c-0.2-6.6-0.4-13.2-0.7-19.9l-0.6-20.2c-0.1-6-0.2-11.9-0.2-17.9
				c0-2.5,0.2-5.1,0.5-7.6c0.1-0.8,0.4-1.7,0.8-2.5c0.3-0.7,0.9-1.2,1.8-1.1h3.2c1.9,0,3.8-0.1,5.8,0c1.5,0,2.9,0.2,4.1,0.9
				c2.1,1.3,3.6,3.4,4.8,5.6c1,1.7,1.9,3.6,2.8,5.5c3.2,6.7,6.9,12.8,10.8,19.2c3.1,5.1,6.3,10.2,9.3,15.5c2.2,3.6,4.3,7.3,6.5,10.9
				c1.5,2.6,3.1,5.3,4.7,7.8l0.3,0.5C191.1,311.7,191.1,311.7,191.2,311.7z"/>
			<path class="st8" d="M229.4,249.2l0.6,5.5c0.2,1.8,0.3,3.5,0.4,5.4l0.6,15c0,3.4,0,6.9-0.1,10.3c0,2.5,0.1,5.1,0,7.6
				c0,2.9,0,6-0.1,9c0,3.7-0.1,7.5-0.1,11.3c-0.1,1.7,0.5,7.1-1.7,7.9c-0.3,0.2-0.7,0.2-1,0.2c-3.8,0.1-7.7,0-11.5-0.3
				c-0.4,0-0.9,0-1.3-0.2c-1.1-0.6-0.9-3.3-0.9-4.3c-0.3-5.1-0.5-10.2-0.6-15.3c-0.4-10.5-0.8-21.1-0.9-31.7
				c-0.1-6.2,0.2-12.3,0.4-18.5v-1.2c-1.1,0-2.2,0.1-3.2,0c-1.8-0.2-3.7-0.5-5.6-0.7l-1-0.3c-0.6-0.2-0.8-0.6-0.8-1.2
				c0-0.6,0.4-1,1-1.1c0.5-0.1,1-0.1,1.6-0.1c8.3,0,16.6-0.1,24.9,0c2.9,0,6,0.1,8.9,0.2c0.4,0,0.8,0.1,1.1,0.3
				c0.5,0.2,0.7,0.7,0.6,1.3c-0.1,0.6-0.4,0.9-1,0.9c-0.4,0.1-0.7,0.1-1.1,0.1h-8.2C230,249.1,229.7,249.1,229.4,249.2z"/>
			<path class="st8" d="M268.1,248.9c0,0.7-0.1,1.1-0.1,1.6c-0.2,5.6-0.3,11.1-0.5,16.7c-0.3,6.1-0.8,12-1,18.1
				c-0.3,5.5-0.4,11-0.5,16.5c-0.1,4.9-0.4,9.7-1.2,14.6c-0.1,0.3-0.1,0.6-0.1,1c0.3,0,0.6,0.1,0.9,0.1c2.1,0,4.3,0,6.5,0.1
				c0.5,0,1,0.1,1.5,0.2c0.5,0.2,0.7,0.6,0.7,1.2c0,0.5-0.3,0.9-0.9,1.1c-0.3,0-0.6,0.1-0.9,0.1c-6,0.3-11.8,0.6-17.8,0.8
				c-2.1,0.1-4.2-0.1-6.4-0.2c-0.7,0-1.3-0.2-1.9-0.3c-0.5-0.2-0.9-0.5-0.9-1.1c0-0.6,0.3-1,0.8-1.1c0.7-0.2,1.5-0.4,2.2-0.5
				c1.1-0.1,2.2-0.1,3.4-0.2c0-0.6,0.1-1.2,0-1.8c-0.4-5-0.9-10-1.1-15.1c-0.2-4.8-0.2-9.5-0.2-14.3s0.1-9.5,0.1-14.2
				c0.1-3.1,0.3-6.4,0.4-9.5c0-1.7,0-3.4,0.1-5.3c0-2.7,0.1-5.6,0.2-8.5c-0.4,0-0.9-0.1-1.4-0.1c-1.7,0-3.4,0.1-5.2,0
				c-1.2,0-1.7-0.4-1.7-1c-0.1-0.6,0.4-1.1,1.5-1.2c1.7-0.2,3.4-0.4,5.3-0.4c6.2,0,12.3,0,18.5,0h4.9c0.4,0,0.7,0.1,1.1,0.1
				c0.8,0.2,1.1,0.5,1.1,1.1c0,0.6-0.3,1.1-1.1,1.2c-1.6,0.1-3.2,0.2-4.9,0.2C269.1,249,268.7,248.9,268.1,248.9z"/>
			<path class="st8" d="M333.6,311.7c0-3.4-0.1-6.9-0.2-10.3c-0.1-11.3-0.3-22.6-0.4-34c0-5.7,0.2-11.4,0.3-17.1
				c0.1-0.6,0-1.2,0.1-1.7c0-1.1,0.4-1.7,1.5-1.9c1.4-0.3,2.8-0.4,4.2-0.5c0.9,0,1.6,0.6,1.9,1.4c0.2,0.6,0.3,1.1,0.4,1.7
				c0.7,4.4,0.8,9,0.8,13.5c0.1,5.3,0.1,10.6-0.1,15.9c-0.1,3.8-0.5,7.8-0.7,11.6c-0.2,4.8-0.3,9.5-0.4,14.3c-0.1,4.3,0,8.7,0,13
				c0,2.7-2.3,4.2-5.2,3.4c-1.2-0.3-2.1-1-2.7-2.1c-2-3.6-4.1-7.1-6.4-10.6c-3.5-6-7.2-11.8-10.7-17.7c-4.9-8-9.6-16.1-14.4-24.1
				c-1.4-2.3-2.7-4.8-4.1-7.1c-0.1-0.2-0.3-0.5-0.7-0.7v1c0.1,6.2,0.3,12.3,0.3,18.4c0.1,6.4,0,12.8-0.2,19.1
				c-0.1,4.1-0.4,8.3-0.5,12.3c-0.1,1.8-0.1,3.5-0.1,5.4l-0.3,3.8c-0.1,1-0.7,1.5-1.8,1.7c-3.6,0.6-7.3,0.6-10.9,0.5h-0.7
				c-1.7,0-2-0.1-2.4-1.8c-0.3-1.3-0.6-2.7-0.7-4c-0.2-6.6-0.4-13.2-0.7-19.9l-0.6-20.2c-0.1-6-0.2-11.9-0.2-17.9
				c0-2.5,0.2-5.1,0.5-7.6c0.1-0.8,0.4-1.7,0.8-2.5c0.3-0.7,0.9-1.2,1.8-1.1h3.2c1.9,0,3.8-0.1,5.8,0c1.5,0,2.9,0.2,4.1,0.9
				c2.1,1.3,3.6,3.4,4.8,5.6c1,1.7,1.9,3.6,2.8,5.5c3.2,6.7,6.9,12.8,10.8,19.2c3.1,5.1,6.3,10.2,9.3,15.5c2.2,3.6,4.3,7.3,6.5,10.9
				c1.5,2.6,3.1,5.3,4.7,7.8l0.3,0.5C333.5,311.7,333.5,311.7,333.6,311.7z"/>
			<path class="st8" d="M373.2,253.4c-3.6,0.5-5.8,8.8-6.8,11.6c-1.6,4.6-2.8,9.4-3.3,14.4c-0.5,4-0.9,8.2-1,12.3
				c-0.1,5.8,0.7,11.4,2.8,16.9c0.9,2.2,3,6.2,6.2,5.3c3.7-1.3,4.5-7,4.9-10.2c0.2-1.7,0.3-3.5,0.4-5.5c-1.5-0.1-2.9-0.1-4.2-0.2
				c-0.6,0-1.1-0.1-1.6-0.1c-0.6-0.1-1-0.5-1-1.1c-0.1-0.6,0.4-1,0.9-1.1c0.6-0.1,1.1-0.1,1.7-0.1c2.1,0,4.2,0.1,6.5,0.1
				c1.2-0.1,2.5-0.2,3.8-0.2c0.5-0.1,1-0.1,1.6-0.1c0.8,0,1.3,0.5,1.3,1.1c0,0.5-0.4,1.1-1.1,1.3c-0.7,0.1-1.5,0.1-2.2,0.2
				c-0.6,0.1-1.3,0.1-2.1,0.2v0.8c0.6,4.5,0.1,8.9-1.5,13.1c-1.8,4.5-5.1,7.7-10.1,8.8c-3.9,0.8-7.8,0.2-11.4-1.7
				c-3.5-1.9-6-4.9-7.8-8.3c-2-4.1-3-8.4-3.5-12.8c-1-7.3-0.6-14.5,0.8-21.5c0.9-5,2.4-9.8,4.5-14.4c1.9-4.1,4.2-8.1,7.4-11.4
				c1.5-1.5,3-3,5.2-3.9c3.1-1.3,6.2-1.3,9.1,0.5c3.2,1.9,5.2,4.8,6.3,8.1c0.2,0.6,0.3,1.2,0.2,1.8c0,0.4-0.3,0.8-0.7,1
				c-0.5,0.2-0.9-0.1-1.2-0.6l-0.5-0.9C375.8,255.4,375.4,253.2,373.2,253.4z"/>
		</g>
	</g>
	<g>
		<path class="st9" d="M300,165.5c3.4-2.9,4.4-7.8,4.8-12c1.1,1.3,1.7,2.9,1.7,4.7C306.6,162,303.7,165.1,300,165.5z"/>
		<path class="st10" d="M214,234.5c-30.4,0-53.6-4.6-69-31.6c-7.9-13.9-11.5-27.9-13.1-35.4h4.9h1h1.1h1.1h6.1h9.3h9.3h9.3h9.3h5.7
			h1.1h1.1h1.5h9.3h6.9h2.4h3.9h2.6h2.8h3.6h5.7h8.2h1.1h0h1.2h8.1h9.3h9.3h9.3h8.9h0.4h0.8h1.2h8.7c-1.5,7.5-5.2,21.5-13.1,35.4
			C267.6,229.9,244.4,234.5,214,234.5z"/>
		<path class="st9" d="M121.4,158.2c0-3.3,2.2-6.1,5.2-7c-0.3,3.5-1.8,6.8-4.6,9.9C121.6,160.2,121.4,159.2,121.4,158.2z"/>
		<path class="st10" d="M298,148.9h-3.2h-4.7h-1h-1h-1.4c-0.4-1.5-1.2-5.1-2.6-10.2c-0.3-1.2-0.7-2.5-1.1-3.9
			c-0.3-1-0.6-2.1-0.9-3.3c-3.1-10.5-7.7-24.4-13.6-38.2C252,55.7,233.8,36.6,214,36.6c-19.8,0-38,19.1-54.3,56.8
			c-7,16.3-12.1,32.6-15.1,43.5c-0.3,1.1-0.6,2.2-0.9,3.2c-0.4,1.5-0.7,2.8-1,3.9c-0.6,2.3-1,3.9-1.2,4.8h-1h-1.1h-1.1H137H130
			c3.3-13,32.9-123.8,84-123.8C265,25.1,294.7,135.9,298,148.9z"/>
		<path class="st9" d="M134,163.1c0.3-0.3,0.5-0.7,0.7-1c0.2-0.3,0.4-0.7,0.6-1c0.4-0.8,0.8-1.6,1.1-2.4c0.9-2.5,1.4-5.2,1.5-7.7
			h0.7h1.1h5.5c-0.2,4.7-1.4,8-2.9,10.2c-0.3,0.4-0.5,0.7-0.8,1c-0.3,0.4-0.6,0.7-1,1c-0.5,0.5-1,0.9-1.5,1.2
			c-0.3,0.2-0.6,0.4-0.9,0.6c-0.4,0.2-0.7,0.4-0.9,0.5c-0.2,0.1-0.4,0.2-0.5,0.2h-5.1C132.5,164.8,133.3,164,134,163.1z"/>
		<path class="st11" d="M146.3,138.3c0.2-0.6,0.4-1.2,0.8-1.7c7.4-11,18.5-21.7,27.6-21.7c1,0,2,0.1,3,0.4c5.4,1.6,9.1,8,11.3,15.9
			c0.2,0.9,0.5,1.8,0.7,2.7c0.3,1.3,0.6,2.7,0.8,4.1c0.5,3,0.8,6,0.9,9.1c0,0.6,0,1.1,0.1,1.7h-0.6h-1.1h-6.2h-9.3h-9.3h-9.3h-9.3
			h-2.7C143.9,147.1,144.9,143.3,146.3,138.3z"/>
		<path class="st9" d="M290,162.1c-0.2,0.3-0.5,0.5-0.7,0.8c-0.1,0.1-0.2,0.2-0.3,0.3c-0.4,0.4-0.9,0.8-1.3,1.1
			c-0.6,0.4-1.1,0.7-1.5,0.9c-0.5,0.2-0.9,0.4-1,0.4h-5.1c0.8-0.6,1.6-1.4,2.4-2.4c0.3-0.3,0.5-0.7,0.7-1c0.2-0.3,0.4-0.7,0.6-1
			c1.4-2.4,2.4-5.7,2.6-10.2h1.9h1h1h3.3c-0.2,4.7-1.4,8-2.9,10.2C290.5,161.5,290.2,161.8,290,162.1z"/>
		<path class="st10" d="M270.8,165.5c0.8-0.6,1.6-1.4,2.4-2.4c0.3-0.3,0.5-0.7,0.7-1c0.2-0.3,0.4-0.7,0.6-1
			c1.4-2.4,2.4-5.7,2.6-10.2h7.2c-0.2,4.7-1.4,8-2.9,10.2c-0.3,0.4-0.5,0.7-0.8,1c-0.3,0.4-0.6,0.7-1,1c-1.7,1.6-3.4,2.3-3.8,2.4
			H270.8z"/>
		<path class="st9" d="M261.5,165.5c0.8-0.6,1.6-1.4,2.4-2.4c0.3-0.3,0.5-0.7,0.7-1c0.2-0.3,0.4-0.7,0.6-1c1.4-2.4,2.4-5.7,2.6-10.2
			h7.2c-0.2,4.7-1.4,8-2.9,10.2c-0.3,0.4-0.5,0.7-0.8,1c-0.3,0.4-0.6,0.7-1,1c-1.7,1.6-3.4,2.3-3.8,2.4H261.5z"/>
		<path class="st10" d="M252.2,165.5c0.8-0.6,1.6-1.4,2.4-2.4c0.3-0.3,0.5-0.7,0.7-1c0.2-0.3,0.4-0.7,0.6-1
			c1.4-2.4,2.4-5.7,2.6-10.2h7.2c-0.2,4.7-1.4,8-2.9,10.2c-0.3,0.4-0.5,0.7-0.8,1c-0.3,0.4-0.6,0.7-1,1c-1.7,1.6-3.4,2.3-3.8,2.4
			H252.2z"/>
		<path class="st9" d="M242.9,165.5c0.8-0.6,1.6-1.4,2.4-2.4c0.3-0.3,0.5-0.7,0.7-1c0.2-0.3,0.4-0.7,0.6-1c1.4-2.4,2.4-5.7,2.6-10.2
			h7.2c-0.2,4.7-1.4,8-2.9,10.2c-0.3,0.4-0.5,0.7-0.8,1c-0.3,0.4-0.6,0.7-1,1c-1.7,1.6-3.4,2.3-3.8,2.4H242.9z"/>
		<path class="st9" d="M229.2,165.5h-2.4h-2.3c0.2-0.1,0.3-0.2,0.5-0.4c0.7-0.6,1.3-1.2,2-2c0.3-0.3,0.5-0.7,0.7-1
			c0.2-0.3,0.4-0.7,0.6-1c1.4-2.4,2.4-5.7,2.6-10.2h3.1h1h1h2.1c-0.1,1.9-0.3,3.6-0.7,5c-0.2,0.7-0.4,1.3-0.6,2
			c-0.1,0.3-0.2,0.6-0.3,0.8c-0.1,0.3-0.2,0.5-0.4,0.8c-0.2,0.5-0.5,0.9-0.8,1.3c-0.1,0.1-0.1,0.2-0.2,0.3c-0.3,0.4-0.5,0.7-0.8,1
			c0,0,0,0.1-0.1,0.1c-0.3,0.3-0.6,0.7-0.9,0.9c-1.7,1.6-3.4,2.3-3.8,2.4H229.2z"/>
		<path class="st10" d="M196.5,165.5c0.8-0.6,1.6-1.4,2.4-2.4c0.1-0.1,0.2-0.2,0.3-0.3c0.2-0.2,0.3-0.4,0.5-0.7
			c0-0.1,0.1-0.1,0.1-0.2c0.2-0.3,0.4-0.6,0.5-0.9c0,0,0,0,0,0c1.4-2.4,2.4-5.7,2.6-10.2h7.2c-0.2,4.7-1.4,8-2.9,10.2
			c-0.3,0.4-0.5,0.7-0.8,1c-0.3,0.4-0.6,0.7-1,1c-0.3,0.3-0.5,0.5-0.8,0.7c-0.3,0.3-0.6,0.5-0.9,0.7c-0.4,0.2-0.7,0.4-1,0.6
			c-0.5,0.2-0.9,0.4-1.1,0.4H196.5z"/>
		<path class="st9" d="M191.7,165.5h-1.1h-1.1h-2.3c0.8-0.6,1.6-1.4,2.4-2.4c0.2-0.3,0.4-0.6,0.6-0.9c0,0,0.1-0.1,0.1-0.1
			c0.2-0.3,0.4-0.7,0.6-1c0.2-0.4,0.5-0.8,0.7-1.3c0.5-1.1,0.9-2.3,1.3-3.7c0-0.1,0.1-0.3,0.1-0.4c0.1-0.3,0.1-0.7,0.2-1
			c0.1-0.5,0.2-1.1,0.2-1.6c0.1-0.7,0.1-1.4,0.1-2.1h7.2c-0.1,3.8-1,6.7-2.1,8.8c-0.2,0.3-0.3,0.6-0.5,0.9c-0.1,0.2-0.2,0.3-0.3,0.5
			c-0.1,0.1-0.2,0.3-0.3,0.4c-0.2,0.2-0.3,0.4-0.5,0.6c-0.3,0.4-0.6,0.7-1,1c-1.7,1.6-3.4,2.3-3.8,2.4H191.7z"/>
		<path class="st10" d="M178,165.5c0.8-0.6,1.6-1.4,2.4-2.4c0.3-0.3,0.5-0.7,0.7-1c0.2-0.3,0.4-0.7,0.6-1c1.4-2.4,2.4-5.7,2.6-10.2
			h5.9h1h0.1h0.2c0,0.2,0,0.3,0,0.5c0,0.7-0.1,1.4-0.2,2c-0.1,0.5-0.1,1-0.2,1.4c-0.5,2.7-1.5,4.7-2.5,6.2c-0.3,0.4-0.5,0.7-0.8,1
			c-0.3,0.4-0.6,0.7-1,1c-1.7,1.6-3.4,2.3-3.8,2.4H178z"/>
		<path class="st9" d="M168.7,165.5c0.8-0.6,1.6-1.4,2.4-2.4c0.3-0.3,0.5-0.7,0.7-1c0.2-0.3,0.4-0.7,0.6-1c1.4-2.4,2.4-5.7,2.6-10.2
			h7.2c-0.2,4.7-1.4,8-2.9,10.2c-0.3,0.4-0.5,0.7-0.8,1c-0.3,0.4-0.6,0.7-1,1c-1.7,1.6-3.4,2.3-3.8,2.4H168.7z"/>
		<path class="st10" d="M159.4,165.5c0.8-0.6,1.6-1.4,2.4-2.4c0.3-0.3,0.5-0.7,0.7-1c0.2-0.3,0.4-0.7,0.6-1
			c1.4-2.4,2.4-5.7,2.6-10.2h7.2c-0.2,4.7-1.4,8-2.9,10.2c-0.3,0.4-0.5,0.7-0.8,1c-0.3,0.4-0.6,0.7-1,1c-1.7,1.6-3.4,2.3-3.8,2.4
			H159.4z"/>
		<path class="st9" d="M150.1,165.5c0.8-0.6,1.6-1.4,2.4-2.4c0.3-0.3,0.5-0.7,0.7-1c0.2-0.3,0.4-0.7,0.6-1c1.4-2.4,2.4-5.7,2.6-10.2
			h7.2c-0.2,4.7-1.4,8-2.9,10.2c-0.3,0.4-0.5,0.7-0.8,1c-0.3,0.4-0.6,0.7-1,1c-1.7,1.6-3.4,2.3-3.8,2.4H150.1z"/>
		<path class="st10" d="M140.8,165.5c0.8-0.6,1.6-1.4,2.4-2.4c0.3-0.3,0.5-0.7,0.7-1c0.2-0.3,0.4-0.7,0.6-1
			c1.4-2.4,2.4-5.7,2.6-10.2h7.2c-0.2,4.7-1.4,8-2.9,10.2c-0.3,0.4-0.5,0.7-0.8,1c-0.3,0.4-0.6,0.7-1,1c-1.7,1.6-3.4,2.3-3.8,2.4
			H140.8z"/>
		<path class="st9" d="M233.8,148.9h-4.1h-9.3h-9.3h-9.3h-8.7c-0.1-5.5-0.8-11.3-2-16.6c-0.2-0.8-0.3-1.6-0.1-2.5
			c2.2-15.1,9.4-32.9,19.7-34.2c0.4-0.1,0.8-0.1,1.2-0.1c7.9,0,15.2,9.1,18.9,14.7c2,3,3.9,6.3,5.5,9.7c0.7,1.5,0.9,3.2,0.4,4.8
			c-0.8,2.7-1.4,5.2-1.8,7.4C234.1,137.5,233.7,143.4,233.8,148.9z"/>
		<path class="st9" d="M205.9,165.5c0.3-0.2,0.6-0.5,0.9-0.7c0.5-0.5,1-1,1.5-1.6c0.3-0.3,0.5-0.7,0.7-1c0.2-0.3,0.4-0.7,0.6-1
			c1.4-2.4,2.4-5.7,2.6-10.2h7.2c-0.2,4.7-1.4,8-2.9,10.2c-0.3,0.4-0.5,0.7-0.8,1c-0.3,0.4-0.6,0.7-1,1c-1.7,1.6-3.4,2.3-3.8,2.4h-2
			h-3L205.9,165.5C205.8,165.5,205.9,165.5,205.9,165.5z"/>
		<path class="st10" d="M217.5,163.1c0.3-0.3,0.5-0.7,0.7-1c0.2-0.3,0.4-0.7,0.6-1c1.4-2.4,2.4-5.7,2.6-10.2h7.2
			c-0.2,4.7-1.4,8-2.9,10.2c-0.3,0.4-0.5,0.7-0.8,1c-0.3,0.4-0.6,0.7-1,1c-1.7,1.6-3.4,2.3-3.8,2.4h-5.1
			C215.9,164.9,216.7,164.1,217.5,163.1z"/>
		<path class="st10" d="M236,163.2c0,0,0.1-0.1,0.1-0.1c0.2-0.3,0.4-0.6,0.6-0.9c0-0.1,0.1-0.1,0.1-0.2c0.2-0.3,0.4-0.6,0.6-1
			c0,0,0,0,0,0c0.7-1.2,1.3-2.6,1.7-4.3c0.2-0.9,0.4-1.8,0.6-2.8c0.1-0.9,0.2-1.8,0.3-2.7c0-0.1,0-0.3,0-0.4h0.2h1.1h1.1h4.9
			c-0.2,4.7-1.4,8-2.9,10.2c-0.3,0.4-0.5,0.7-0.8,1c-0.3,0.4-0.6,0.7-1,1c-1.5,1.4-2.9,2.1-3.6,2.3c-0.1,0-0.2,0.1-0.2,0.1H238h-1.1
			h-3.2C234.4,164.9,235.2,164.2,236,163.2z"/>
		<path class="st7" d="M276.2,148.9h-9.3h-9.3h-9.3h-5.2h-1.1H241h-2h-3.2c-0.2-5.3,0.2-11.1,1.2-16.5c0.4-2.1,0.9-4.6,1.7-7.2
			c0.2-0.5,0.3-1,0.5-1.5c0.2-0.4,0.3-0.9,0.5-1.3c2-5.2,5.1-10.1,9.9-11.5c0.9-0.3,1.9-0.4,2.9-0.4c8.8,0,19.5,10.1,26.9,20.8
			c0.3,0.5,0.6,1,0.7,1.6c2.3,7.8,3.7,13.6,4.3,16H276.2z"/>
		<path class="st10" d="M296.5,165.3c-0.2,0.1-0.4,0.1-0.6,0.2h-6.5c0.8-0.6,1.6-1.4,2.4-2.4c0.3-0.3,0.5-0.7,0.7-1
			c0.2-0.3,0.4-0.7,0.6-1c1.4-2.4,2.4-5.7,2.6-10.2h3.5c1.3,0,2.6,0.4,3.7,1c-0.4,5.9-1.7,9.8-4.1,12c-0.4,0.3-0.8,0.6-1.2,0.9
			C297.2,164.9,296.9,165.1,296.5,165.3z"/>
		<path class="st10" d="M128.6,150.9C128.7,150.9,128.7,150.9,128.6,150.9L128.6,150.9l7.3,0c-0.1,3.5-1,7.2-3,10.2
			c-0.2,0.4-0.5,0.7-0.7,1c-0.3,0.4-0.6,0.7-0.9,1c0,0-0.1,0-0.1,0.1c-0.3,0.3-0.6,0.5-0.9,0.8c-0.3,0.2-0.6,0.4-0.9,0.6
			c-0.5,0.3-1.1,0.6-1.7,0.8c-1.8-0.3-3.4-1.2-4.5-2.5C126.6,159.2,128.4,155.2,128.6,150.9z"/>
	</g>
	<g>
		<path class="st11" d="M108.4,84.7c0.8,1.9,2.9,3.8,4.3,5.3c1.1,1.2,3.7,3.9,1.6,4.7c-8.1,0-16,0.2-23.6,3.3
			c-14.1,5.8-24.5,19.7-22.7,35.4c0.5,4.1,1.9,8,4.1,11.4c-2.4,1.9-4.6,4.3-6.5,6.9c-4-0.7-7.3,3.4-7.9,6.9
			c-0.5,2.6,0.3,4.7,1.8,6.1c-0.3,1.1-0.5,2.2-0.7,3.3c-0.3,1.7-0.4,3.3-0.5,5c-1.8,1.4-3.1,3.7-3.5,5.7c-0.8,4.3,1.7,7.1,5.5,7.9
			c1,2.9,2.4,5.6,4,8.2c-0.3,0.7-0.5,1.4-0.7,2.1c-0.8,4.5,1.9,7.3,6,8c1.3,0.2,2.6,0.1,3.7-0.4c0.7,0.5,1.3,1,2,1.4
			c2.6,1.7,5.6,3.1,8.8,4.2c5.8,16.1,23,24.4,39.7,20.5c3.4-0.8,1.5-5.9-1.8-5.1c-12.5,3-25.3-2.7-31.2-13.8
			c9.5,1.5,19.5-0.6,25.6-8.5c8.6-11.2,2.7-26.8-11.7-27.9c-15.7-1.2-23.8,14.8-22.1,28.5c-1.8-0.9-3.6-1.9-5.3-3.1
			c0.2-0.5,0.4-1,0.5-1.6c0.8-4.1-2.1-8.4-6.2-9.1c-1.3-0.2-2.6,0.1-3.7,0.7c-0.9-1.6-1.7-3.2-2.4-4.9c1.7-1.1,3-2.8,3.3-4.8
			c0.7-3.8-1.7-7.7-5.2-8.9c0.1-1.8,0.4-3.6,0.8-5.3c3.5,0.2,6.7-2.5,7.3-5.9c0.4-2.3-0.3-4.6-1.6-6.3c1.5-2,3.2-3.9,5.2-5.4
			c5,5.3,12.1,8.6,19.8,8.1c4.9-0.3,10.7-2.4,9.3-8.5c-1.6-6.9-12.4-8.6-18.1-8.8c-3.5-0.1-6.8,0.6-9.8,2.1c-1.7-2.7-2.8-5.8-3.2-9
			c-1.5-12.5,6.4-23.9,17.5-29.1c7.6-3.6,15.5-3.4,23.3-3.5c-0.2,2.6-15,4-10.5,8.3c1.9,1.8,6.8,0.2,8.6-0.2
			c5.8-1.1,11.3-3.1,16.7-5.3c0,0,0.1,0,0.1-0.1c0,0,0,0,0.1,0c4.8-2.4-1.3-7-4.1-9.9c-3.1-3.3-6.3-6.4-9.8-9.1
			c-1.2-0.9-3.5-3.2-5-3.2C108.1,80.8,107.7,83,108.4,84.7z M103.1,180.5c6.6,0,12.1,4.4,11.8,11.4c-0.3,7.8-7,12.9-14.2,14.3
			c-4.1,0.8-8.4,0.6-12.4-0.4C85.8,195,90.2,180.5,103.1,180.5z M97.9,151.3c-1.3,1.4-6.7,0.4-8.3,0c-2.7-0.6-5.4-1.9-7.7-3.5
			c-0.7-0.5-1.3-1-1.9-1.5c2.3-0.9,4.8-1.2,7.4-1C88.9,145.5,101.2,147.7,97.9,151.3z"/>
		<path class="st11" d="M323.6,227.7c-0.8-1.9-2.9-3.8-4.3-5.3c-1.1-1.2-3.7-3.9-1.6-4.7c8.1,0,16-0.2,23.6-3.3
			c14.1-5.8,24.5-19.7,22.7-35.4c-0.5-4.1-1.9-8-4.1-11.4c2.4-1.9,4.6-4.3,6.5-6.9c4,0.7,7.3-3.4,7.9-6.9c0.5-2.6-0.3-4.7-1.8-6.1
			c0.3-1.1,0.5-2.2,0.7-3.3c0.3-1.7,0.4-3.3,0.5-5c1.8-1.4,3.1-3.7,3.5-5.7c0.8-4.3-1.7-7.1-5.5-7.9c-1-2.9-2.4-5.6-4-8.2
			c0.3-0.7,0.5-1.4,0.7-2.1c0.8-4.5-1.9-7.3-6-8c-1.3-0.2-2.6-0.1-3.7,0.4c-0.7-0.5-1.3-1-2-1.4c-2.6-1.7-5.6-3.1-8.8-4.2
			c-5.8-16.1-23-24.4-39.7-20.5c-3.4,0.8-1.5,5.9,1.8,5.1c12.5-3,25.3,2.7,31.2,13.8c-9.5-1.5-19.5,0.6-25.6,8.5
			c-8.6,11.2-2.7,26.8,11.7,27.9c15.7,1.2,23.8-14.8,22.1-28.5c1.8,0.9,3.6,1.9,5.3,3.1c-0.2,0.5-0.4,1-0.5,1.6
			c-0.8,4.1,2.1,8.4,6.2,9.1c1.3,0.2,2.6-0.1,3.7-0.7c0.9,1.6,1.7,3.2,2.4,4.9c-1.7,1.1-3,2.8-3.3,4.8c-0.7,3.8,1.7,7.7,5.2,8.9
			c-0.1,1.8-0.4,3.6-0.8,5.3c-3.5-0.2-6.7,2.5-7.3,5.9c-0.4,2.3,0.3,4.6,1.6,6.3c-1.5,2-3.2,3.9-5.2,5.4c-5-5.3-12.1-8.6-19.8-8.1
			c-4.9,0.3-10.7,2.4-9.3,8.5c1.6,6.9,12.4,8.6,18.1,8.8c3.5,0.1,6.8-0.6,9.8-2.1c1.7,2.7,2.8,5.8,3.2,9
			c1.5,12.5-6.4,23.9-17.5,29.1c-7.6,3.6-15.5,3.4-23.3,3.5c0.2-2.6,15-4,10.5-8.3c-1.9-1.8-6.8-0.2-8.6,0.2
			c-5.8,1.1-11.3,3.1-16.7,5.3c0,0-0.1,0-0.1,0.1c0,0,0,0-0.1,0c-4.8,2.4,1.3,7,4.1,9.9c3.1,3.3,6.3,6.4,9.8,9.1
			c1.2,0.9,3.5,3.2,5,3.2C323.9,231.6,324.3,229.3,323.6,227.7z M328.9,131.8c-6.6,0-12.1-4.4-11.8-11.4c0.3-7.8,7-12.9,14.2-14.3
			c4.1-0.8,8.4-0.6,12.4,0.4C346.2,117.3,341.8,131.9,328.9,131.8z M334.1,161c1.3-1.4,6.7-0.4,8.3,0c2.7,0.6,5.4,1.9,7.7,3.5
			c0.7,0.5,1.3,1,1.9,1.5c-2.3,0.9-4.8,1.2-7.4,1C343.1,166.8,330.8,164.6,334.1,161z"/>
	</g>
</g>
</svg>
