<?xml version="1.0" encoding="utf-8"?>
<!-- Generator: Adobe Illustrator 21.1.0, SVG Export Plug-In . SVG Version: 6.00 Build 0)  -->
<svg version="1.1" id="Calque_1" xmlns="http://www.w3.org/2000/svg" xmlns:xlink="http://www.w3.org/1999/xlink" x="0px" y="0px"
	 viewBox="0 0 432 432" style="enable-background:new 0 0 432 432;" xml:space="preserve">
<style type="text/css">
	.st0{fill:#CCCCCC;}
	.st1{fill:#B3B3B3;}
	.st2{fill:#D06C5D;}
	.st3{fill:#961F21;}
	.st4{fill:#8AC640;}
	.st5{fill:#CCA1CC;}
	.st6{fill:#BCD601;}
	.st7{fill:#FFCB39;}
	.st8{fill:#FC8792;}
	.st9{fill:#F5CED3;}
	.st10{fill:#1A1A1A;}
	.st11{fill:#F9F1DA;}
	.st12{fill:#E6E6E6;}
	.st13{fill:#DDC2A8;}
	.st14{fill:#97B87F;}
	.st15{fill:#FAA821;}
	.st16{fill:#333333;}
	.st17{fill:#4EBEB8;}
	.st18{fill:#ABDFEC;}
	.st19{fill:#FAA74B;}
	.st20{fill:#8C6239;}
	.st21{fill:#F06386;}
	.st22{fill:#F8E7D6;}
	.st23{fill:#D3C7BE;}
	.st24{fill:#E2D2C3;}
	.st25{fill:#9294CD;}
	.st26{fill:#E66667;}
	.st27{fill:#FFD602;}
	.st28{fill:#B776BA;}
	.st29{fill:#C69C6D;}
	.st30{fill:#E49F90;}
	.st31{fill:#EAC0B4;}
	.st32{fill:#D3B1AF;}
	.st33{fill:#F2F2F2;}
	.st34{fill:#9CCCB2;}
	.st35{fill:#CDB48C;}
	.st36{fill:#73C977;}
	.st37{fill:none;}
	.st38{fill:#EFB156;}
	.st39{fill:#D7F5F3;}
	.st40{fill:#DA407B;}
	.st41{fill:#DA4147;}
	.st42{fill:#912D61;}
	.st43{fill:#BFB49D;}
	.st44{fill:#FFFFFF;}
	.st45{fill:#23B6DB;}
	.st46{fill:#D7DD50;}
	.st47{fill:#DA444C;}
	.st48{fill:#4D4D4D;}
	.st49{fill:#97857A;}
	.st50{fill:#84735F;}
	.st51{fill:#6E2521;}
	.st52{fill:#3F3C35;}
	.st53{fill:#A1B099;}
	.st54{fill:#D4CEB9;}
	.st55{fill:#854E4C;}
	.st56{fill:#B9986D;}
	.st57{fill:#BAAC91;}
	.st58{fill:#3F4650;}
	.st59{fill:#7B7B73;}
	.st60{fill:#5A5B60;}
	.st61{fill:#984831;}
	.st62{fill:#B1885C;}
	.st63{fill:#653F34;}
	.st64{fill:#DCC69D;}
	.st65{fill:#727D6D;}
	.st66{fill:#9B7455;}
	.st67{fill:#826D56;}
	.st68{fill:#C3A88B;}
	.st69{fill:#96967A;}
	.st70{fill:#9F6B56;}
</style>
<g>
	<g>
		<g>
			<path class="st5" d="M156.9,356.9c-0.3-0.3-0.5-0.5-0.7-0.6c-2.1-1.8-4.2-3.5-6.4-5.3c-0.4-0.4-0.8-0.8-1.2-1.2
				c-0.3-0.4-0.6-0.7-0.4-1.3c0.2-0.5,0.7-0.5,1.1-0.5c1.6-0.1,3.2-0.2,4.7-0.2c4.2,0.1,8.4,0.2,12.5,0.3c1.5,0,3,0.1,4.4,0.1
				c0.5,0,1.1,0.1,1.6,0.2c0.7,0.1,1.2,0.5,1.7,1c1.7,1.9,3.5,3.8,5.2,5.6c0.2,0.2,0.5,0.3,0.8,0.3c0.3,0.1,0.6,0,0.9,0
				c5.1,0,27.6,0.1,32.7,0.1c6,0,12,0.1,18,0.1c0.4,0,0.7,0,1.2-0.1c-0.3-0.4-0.4-0.6-0.6-0.8c-1.7-2.6-0.2-5.8,3-6
				c0.9-0.1,1.8,0.1,2.6,0.3c1.2,0.4,2.4,0.9,3.5,1.6c2.3,1.4,4.6,3,6.9,4.4c0.6,0.4,1.3,0.8,2,1.2c0.9,0.6,1,1.2,0.4,2
				c-0.1,0.2-0.2,0.3-0.4,0.5c-3.6,3.5-7.8,6-12.8,7c-1,0.2-2.1,0.2-3.1-0.1c-2.7-0.7-4-3.3-2.8-5.8c0.1-0.2,0.2-0.5,0.4-0.8
				c-1.1,0-2,0-2.9,0c-4,0-8.1-0.1-12.1-0.2c-6.4-0.1-30.1-0.2-36.5-0.3c-0.5,0-0.8,0.2-1.2,0.5c-2,1.8-4,3.7-6,5.5
				c-0.6,0.5-1.2,0.9-2,0.9c-1.9,0.1-3.8,0.3-5.7,0.3c-5.2,0.1-10.4,0-15.7,0.1c-0.2,0-0.5,0-0.7-0.1c-0.6-0.2-0.8-0.7-0.5-1.3
				c0.2-0.3,0.3-0.5,0.6-0.7c1.6-1.6,3.3-3.1,4.9-4.7C155.3,358.3,156.1,357.6,156.9,356.9z"/>
			<path class="st5" d="M247.5,219.7c0.3-0.3,0.5-0.5,0.7-0.6c2.1-1.8,4.2-3.5,6.4-5.3c0.4-0.4,0.8-0.8,1.2-1.2
				c0.3-0.4,0.6-0.7,0.4-1.3c-0.2-0.5-0.7-0.5-1.1-0.5c-1.6-0.1-3.2-0.2-4.7-0.2c-4.2,0.1-8.4,0.2-12.5,0.3c-1.5,0-3,0.1-4.4,0.1
				c-0.5,0-1.1,0.1-1.6,0.2c-0.7,0.1-1.2,0.5-1.7,1c-1.7,1.9-3.5,3.8-5.2,5.6c-0.2,0.2-0.5,0.3-0.8,0.3c-0.3,0.1-0.6,0-0.9,0
				c-5.1,0-27.6,0.1-32.7,0.1c-6,0-12,0.1-18,0.1c-0.4,0-0.7,0-1.2-0.1c0.3-0.4,0.4-0.6,0.6-0.8c1.7-2.6,0.2-5.8-3-6
				c-0.9-0.1-1.8,0.1-2.6,0.3c-1.2,0.4-2.4,0.9-3.5,1.6c-2.3,1.4-4.6,3-6.9,4.4c-0.6,0.4-1.3,0.8-2,1.2c-0.9,0.6-1,1.2-0.4,2
				c0.1,0.2,0.2,0.3,0.4,0.5c3.6,3.5,7.8,6,12.8,7c1,0.2,2.1,0.2,3.1-0.1c2.7-0.7,4-3.3,2.8-5.8c-0.1-0.2-0.2-0.5-0.4-0.8
				c1.1,0,2,0,2.9,0c4,0,8.1-0.1,12.1-0.2c6.4-0.1,30.1-0.2,36.5-0.3c0.5,0,0.8,0.2,1.2,0.5c2,1.8,4,3.7,6,5.5
				c0.6,0.5,1.2,0.9,2,0.9c1.9,0.1,3.8,0.3,5.7,0.3c5.2,0.1,10.4,0,15.7,0.1c0.2,0,0.5,0,0.7-0.1c0.6-0.2,0.8-0.7,0.5-1.3
				c-0.2-0.3-0.3-0.5-0.6-0.7c-1.6-1.6-3.3-3.1-4.9-4.7C249.2,221.1,248.4,220.4,247.5,219.7z"/>
		</g>
		<g>
			<path class="st5" d="M303,296.7c6.2-1.7,12.8-2.9,19.6-2.8c2.2,0,4.4,0.2,6.5,0.8c5.3,1.4,8.7,6,8.3,11.5
				c-0.2,2.4-0.9,4.6-1.9,6.7c-2.1,4.4-4.4,8.7-7.5,12.6c-5.5,7-12,12.7-19.8,16.9c-3.9,2.1-8,3.3-12.5,3.4
				c-6.8,0.1-12.1-2.8-16-8.4c-6.6-9.5-4.7-20.6,1.9-28.1c3-3.5,6.7-6.1,10.8-8.2C295.7,299.3,299.1,297.8,303,296.7z"/>
			<path class="st14" d="M305.4,301.2c-1.5-4.7-3.8-9-6.3-13.2c-1.2-2-2.7-3.9-4.6-5.3c-4.4-3.4-10.1-3.2-14.1,0.5
				c-1.6,1.5-3,3.2-4.3,5c-3.8,5.6-6.5,11.8-8.5,17.9c-1.2,3.9-2,7.5-2.3,11.2c-0.5,4.6-0.3,9.1,0.9,13.5
				c2.7,9.6,10.8,17.3,22.4,17.2c6.8-0.1,12.1-2.9,15.8-8.7c2.4-3.7,3.7-7.9,4.1-12.3C309.3,318.2,308.1,309.6,305.4,301.2z"/>
			<path class="st7" d="M96.6,325.9c1.8-6.1,4.3-12.4,7.9-18.1c1.2-1.9,2.5-3.6,4.1-5.1c4-3.8,9.6-4.2,14.1-1
				c1.9,1.4,3.5,3.2,4.7,5.2c2.6,4.1,5.1,8.4,6.7,13c3,8.3,4.4,16.9,3.9,25.8c-0.3,4.4-1.4,8.6-3.7,12.4c-3.5,5.9-8.8,8.8-15.5,9.1
				c-11.6,0.5-20-6.9-22.9-16.4c-1.4-4.4-1.6-8.9-1.3-13.5C94.9,333.5,95.5,329.9,96.6,325.9z"/>
		</g>
	</g>
	<g>
		<g>
			<g>
				<path class="st16" d="M143.4,77.7c-0.4,0.7-1.2,0.3-1.7,0.7c-0.5,0.4-0.5,1.2-0.6,1.7c-1,4-2.2,7.9-3.3,11.9
					c-1.1,4.1-2.2,8.2-3.1,12.4c-0.1,0.5-0.5,1.4-0.2,1.8c0.2,0.3,0.5,0.2,0.7,0.4c0.3,0.3,0.4,0.8,0.2,1.2
					c-0.2,0.7-0.8,0.8-1.4,0.9c-0.9,0.2-1.7,0.4-2.6,0.3c-1,0-2.8-0.3-2.1-1.8c0.1-0.3,0.6-0.6,0.6-0.8c0-0.3-0.4-1-0.5-1.3
					c-0.3-0.9-0.6-1.7-0.9-2.6c-0.7-2-1.3-4-1.9-6c-0.3-1.1-0.7-2.1-1.1-3.2c-0.1-0.3-0.2-0.6-0.3-0.8c-0.3-0.7-0.1-0.3-0.2-0.3
					c-0.1,0-0.2,1.1-0.2,1.2c-0.8,4-1.2,8.1-2,12.2c0,0.2-0.1,0.4-0.1,0.6c0,0,0,0.1,0,0.1c0.2,0.1,0.6,0.2,0.7,0.2
					c0.5,0.1,1.1,0,1.3,0.6c0.6,1.5-1.4,1.8-2.4,2c-1,0.1-2.1,0.1-3.1,0c-0.5,0-0.9-0.1-1.2-0.5c-0.3-0.4-0.3-1.1,0-1.5
					c0.3-0.4,0.7-0.5,1.1-0.6c-0.2-0.8-0.7-1.8-1-2.5c-0.3-0.9-0.7-1.9-1-2.8c-0.6-1.8-1.3-3.5-1.9-5.3c-1.2-3.4-2.4-6.8-3.4-10.2
					c-0.3-0.9-0.6-1.8-0.8-2.7c-0.1-0.4-0.2-1.3-0.5-1.5c-0.4-0.2-1.3,0-1.7,0.1c-0.5,0-0.9,0-1.1-0.4c-0.6-1,0.3-1.9,1.2-2.3
					c1.5-0.5,3.2-0.5,4.8-0.7c1-0.1,2.4-0.4,2.2,1.1c-0.1,0.5-0.5,0.7-0.9,0.9c-0.6,0.2-1.3,0.4-1.9,0.6c3.2,7.4,5.8,15.1,8.4,22.7
					c1-4.7,1.9-9.4,2.5-14.2c-0.4-0.2-0.9-0.1-1.3-0.3c-0.3-0.2-0.4-0.5-0.5-0.8c-0.1-0.9,0.4-1.4,1.1-1.6c1-0.3,5.6-1.1,4.6,1.2
					c-0.1,0.2-0.2,0.3-0.3,0.5c-0.2,0.4,0,0.7,0.2,1.1c0.2,0.7,0.5,1.3,0.7,2c0.5,1.5,1,2.9,1.5,4.4s1,2.9,1.5,4.4
					c0.4,1.2,0.7,2.5,1.3,3.6c1.2-4.2,2.4-8.5,3.5-12.7c1.1-4.2,2-8.5,3.2-12.6c-1.2,0-3,0.1-2.5-1.6c0.2-0.6,0.6-0.8,1.2-0.9
					c1-0.2,2.1-0.4,3.2-0.3c0.5,0,1.1,0.1,1.6,0.2c0.3,0,0.6,0,0.9,0.3C143.7,76.6,143.7,77.3,143.4,77.7z"/>
				<path class="st16" d="M151.5,78.7c-0.4,0.7-1.4,0.3-1.7,1c-0.4,0.6-0.2,1.9-0.2,2.5c-0.1,2.4-0.1,4.9-0.1,7.3c0,2.4,0,4.7,0,7.1
					c0,2.1,0.1,4.2,0,6.3c1,0.1,2,0.2,1.9,1.5c-0.1,1.3-1.5,1.3-2.5,1.4c-1,0.1-2.1,0.1-3.1,0c-0.5-0.1-1-0.3-1.3-0.9
					c-0.6-1.5,0.9-1.7,2-2c-0.2-2.4-0.1-4.8-0.2-7.1c0-2.7,0-5.5,0-8.2c0.1-2.3,0.1-4.7,0.4-7c0-0.3,0.1-0.8-0.2-1
					c-0.2-0.1-0.6-0.1-0.7-0.1c-0.3-0.1-0.7-0.1-1-0.4c-0.4-0.3-0.4-1-0.3-1.4c0.2-0.7,1-0.9,1.7-1c1.1-0.1,2.1-0.2,3.2-0.1
					c0.7,0,1.7,0,2.2,0.8C151.8,77.7,151.7,78.3,151.5,78.7z M144.6,71.9c0-1.7,1.1-3.6,2.9-3.8c1.9-0.2,3.3,1.7,3.3,3.4
					c0,0,0,0,0,0.1c0,0,0,0,0,0.1c-0.1,1.7-1.2,3.2-3.1,3.3C146,75,144.6,73.7,144.6,71.9z"/>
				<path class="st16" d="M162.2,107.4c-0.3,0.7-1,0.8-1.7,0.8c-1.1,0-2.2,0-3.4,0c-1.2,0-2.5,0-3.6-0.3c-0.6-0.1-1-0.5-1.1-1.1
					c-0.1-0.6,0.1-1.2,0.7-1.4c0.4-0.1,0.8-0.1,1-0.5c0.2-0.3,0.1-0.7,0.1-1c-0.3-4.7-0.3-9.3-0.2-14c-0.1-5.3,0-10.6,0.4-15.9
					c0.1-1.3,0.2-2.6,0.3-3.9c0.1-0.6,0.2-1.2,0.3-1.8c0.1-0.7-0.1-0.7-0.8-0.8c-0.6-0.1-1.1-0.1-1.4-0.7c-0.2-0.5-0.1-1.2,0.3-1.6
					c0.4-0.4,1.1-0.3,1.6-0.3c1.1,0,2.3-0.1,3.4,0.1c0.6,0.1,1.7,0.1,2.1,0.7c0.3,0.4,0.2,1.1-0.1,1.5c-0.5,0.6-1.4,0.5-2.1,0.6
					c-0.7,0.1-0.6,0.3-0.6,1c0,0.5,0,1,0,1.4c0,2.3-0.1,4.7-0.2,7c-0.1,4.9-0.1,9.8-0.2,14.6c0,2.4-0.1,4.7-0.2,7.1
					c0,1.3,0,2.6,0,3.9c0,0.5-0.1,1.5,0.1,1.9c0.2,0.3,0.7,0.2,1,0.3c0.4,0,0.7,0.1,1.1,0.1c0.6,0.1,1.2,0.2,1.3-0.5
					c0.1-0.5-0.1-1.3,0.5-1.5c0.6-0.2,1,0.4,1.2,0.8C162.5,104.8,162.7,106.4,162.2,107.4z"/>
				<path class="st16" d="M173,107.4c-0.3,0.7-1,0.8-1.7,0.8c-1.1,0-2.2,0-3.4,0c-1.2,0-2.5,0-3.6-0.3c-0.6-0.1-1-0.5-1.1-1.1
					c-0.1-0.6,0.1-1.2,0.7-1.4c0.4-0.1,0.8-0.1,1-0.5c0.2-0.3,0.1-0.7,0.1-1c-0.3-4.7-0.3-9.3-0.2-14c-0.1-5.3,0-10.6,0.4-15.9
					c0.1-1.3,0.2-2.6,0.3-3.9c0.1-0.6,0.2-1.2,0.3-1.8c0.1-0.7-0.1-0.7-0.8-0.8c-0.6-0.1-1.1-0.1-1.4-0.7c-0.2-0.5-0.1-1.2,0.3-1.6
					c0.4-0.4,1.1-0.3,1.6-0.3c1.1,0,2.3-0.1,3.4,0.1c0.6,0.1,1.7,0.1,2.1,0.7c0.3,0.4,0.2,1.1-0.1,1.5c-0.5,0.6-1.4,0.5-2.1,0.6
					c-0.7,0.1-0.6,0.3-0.6,1c0,0.5,0,1,0,1.4c0,2.3-0.1,4.7-0.2,7c-0.1,4.9-0.1,9.8-0.2,14.6c0,2.4-0.1,4.7-0.2,7.1
					c0,1.3,0,2.6,0,3.9c0,0.5-0.1,1.5,0.1,1.9c0.2,0.3,0.7,0.2,1,0.3c0.4,0,0.7,0.1,1.1,0.1c0.6,0.1,1.2,0.2,1.3-0.5
					c0.1-0.5-0.1-1.3,0.5-1.5c0.6-0.2,1,0.4,1.2,0.8C173.3,104.8,173.5,106.4,173,107.4z"/>
			</g>
			<g>
				<path class="st16" d="M206.7,83c-0.3,0.7-1.1,1.1-1.8,0.6c-0.6-0.5-0.8-1.5-0.9-2.2c-0.1-1-0.8-0.8-1.6-0.7
					c-0.6,0-1.3,0-1.9,0.1c-0.5,0.1-0.4,0.5-0.4,1c0,0.7,0,1.5,0,2.2c0,2.8,0,5.7,0,8.5c0,0,0,0,0,0c0,0,0,0,0,0c0,0,0,0,0,0
					c0,0,0,0,0,0.1c0,0,0,0,0,0c0,0,0,0,0,0c0,0.1,0.1,0.2,0,0.4c0.1,1.5,0.1,2.9,0.2,4.4c0.1,1.5,0.1,2.9,0.2,4.4
					c0,0.8,0.1,1.6,0.1,2.4c0,0.3-0.1,0.9,0.2,1.1c0.3,0.2,1,0.1,1.3,0.2c0.4,0,0.9,0,1.2,0.2c0.5,0.4,0.5,1.3,0.1,1.8
					c-0.6,0.7-2.4,0.8-3.3,0.9c-0.8,0.1-1.5,0.1-2.3,0.1c-0.4,0-0.9,0-1.2-0.2c-0.6-0.3-0.6-1.3-0.3-1.8c0.2-0.4,0.6-0.4,0.9-0.6
					c0.7-0.3,0.4-1.2,0.3-1.8c-0.5-5.9-0.6-11.9-0.7-17.8c0-1.5,0-2.9-0.1-4.4c0-0.7,0.1-0.8-0.7-0.8c-1.1,0.1-2.2,0.1-3.2,0.3
					c-0.8,0.2-0.6,1.2-1.1,1.7c-1.3,1.2-2.3-2.3-2.1-3.2c0.5-1.9,3.9-1.6,5.3-1.7c0.7,0,1.7,0.2,1.9-0.6c0.2-0.7,0.1-1.5,0.1-2.2
					c0.1-1.5,0.2-2.9,0.3-4.4c0-0.3,0.2-1-0.1-1.2c-0.1-0.1-0.5,0-0.7,0c-0.5,0-1,0-1.4-0.2c-0.6-0.3-0.7-1.3-0.3-1.8
					c0.5-0.8,1.9-0.8,2.7-0.8c0.8-0.1,1.5-0.1,2.3-0.2c0.6-0.1,1.3-0.2,1.9,0c0.7,0.2,1.2,0.6,1.1,1.4c-0.1,0.8-0.6,1.1-1.3,1.3
					c-0.3,0.1-0.7,0-1,0.2c-0.3,0.2-0.3,0.7-0.3,1.1c0,0.7-0.1,1.5-0.1,2.2c-0.1,1.5-0.2,3.1-0.2,4.6c0,0.5,0,0.5,0.5,0.5
					c0.6,0,1.3,0,1.9-0.1c0.9-0.1,2.2-0.4,3,0.1c0.7,0.4,1,1.4,1.1,2.1C206.8,81,207,82.1,206.7,83z"/>
				<path class="st16" d="M229.6,86.6c-0.2,0.8-1.2,1.1-1.8,1.4c-0.8,0.3-2.3,0.7-3,0c-0.4-0.4-0.3-1-0.1-1.5
					c0.2-0.4,0.5-0.8,0.4-1.3c0-0.3-0.1-0.6-0.2-0.9c-0.2-0.7-0.4-1.3-0.6-2c-0.3-0.8-0.8-1.8-1.8-1.8c-1.1,0.1-2.2,1.2-2.9,1.9
					c-0.8,0.9-1.5,1.9-2.2,2.9c-2.7,4.3-4.3,9.6-4.2,14.7c0,0.8,0,1.7,0.1,2.5c0,0.3,0,0.7,0,1c0,0.3,0,0.5,0.2,0.7
					c0.1,0,0.2,0,0.3,0.1c0.8,0.3,1.6,0,1.8,1.1c0.2,0.9-0.3,1.4-1.1,1.6c-1.2,0.4-2.4,0.5-3.7,0.4c-0.8,0-1.7,0-1.9-1
					c-0.1-0.6,0.1-1.2,0.7-1.6c0.2-0.1,0.7-0.2,0.8-0.4c0.1-0.2,0-0.5,0-0.7c-0.1-0.7-0.2-1.3-0.3-2c-0.2-1.3-0.3-2.7-0.4-4
					c-0.2-2.8-0.3-5.6-0.4-8.4c0-1.4-0.1-2.8-0.1-4.2c0-0.7,0-1.4,0-2c0-0.6,0.1-1.4,0-2c-0.2-0.8-0.7-0.5-1.2-0.8
					c-0.3-0.2-0.4-0.5-0.5-0.8c-0.1-0.6,0.1-1.2,0.7-1.6c0.9-0.6,2.4-0.8,3.4-0.6c0.8,0.1,1.6,0.3,1.8,1.2c0.1,0.3,0,0.8-0.2,1
					c-0.3,0.4-0.9,0.3-1,0.9c-0.1,0.5,0.1,1.3,0.1,1.8c0,0.7,0.1,1.3,0.1,2c0.1,2.5,0.2,5,0.3,7.4c0.2-0.4,0.3-1,0.4-1.3
					c0.2-0.6,0.4-1.3,0.7-1.9c0.5-1.2,1-2.4,1.6-3.5c1.2-2.3,2.8-4.7,4.8-6.3c1.6-1.3,3.7-2,5.4-0.5c0.9,0.8,1.5,2,1.9,3.1
					c0.2,0.6,0.4,1.2,0.6,1.9c0.1,0.5,0.1,1.4,0.4,1.8c0.3,0.4,0.8,0.3,1.1,0.7C229.6,86,229.6,86.4,229.6,86.6z"/>
				<path class="st16" d="M256.1,108.6c-1.3,0.5-2.4,0.5-3.8,0.5c-0.9,0-1.7,0-1.8-1.1c0-0.3,0-0.7,0.2-1c0.2-0.4,0.5-0.4,0.8-0.6
					c0.7-0.5,0.3-1.5,0.2-2.3c-0.1-0.7-0.2-1.5-0.3-2.2c-0.2-1.5-0.3-3.1-0.4-4.6c-0.1-0.8-0.1-1.6-0.2-2.4c0-0.4,0-0.8-0.1-1.1
					c-1.5,4.4-4.1,9.1-8.5,11.1c-3.9,1.8-8.1,0.1-10.2-3.5c-2.3-3.8-2.3-9.2-0.8-13.3c1.5-3.9,4.6-6.9,8.6-8.1
					c1.9-0.6,3.9-0.7,5.9-0.3c1.1,0.2,2.2,0.6,3.2,1.2c0.4,0.3,0.9,0.6,1.2,0.9c0.3,0.3,0.5,0.5,0.8,0.7c0-0.7,0-1.3,0-2
					c0-0.5,0.1-0.7-0.4-0.9c-0.2-0.1-0.4-0.1-0.6-0.2c-0.8-0.3-1.1-1.3-0.7-2.1c0.5-0.9,2.2-0.9,3.1-1c0.7-0.1,1.5-0.1,2.2-0.2
					c0.6,0,1.3-0.4,1.8-0.3c0.7,0.2,0.9,1.2,0.7,1.8c-0.3,1-1.3,1.3-2.2,1.6c-0.4,0.1-0.7,0.2-0.8,0.6c-0.1,0.3,0,0.6,0,0.9
					c0,0.7,0,1.5,0,2.2c0,1.5,0,3.1,0,4.6c0,3.1,0,6.3,0.2,9.4c0.1,1.5,0.3,3,0.4,4.6c0.1,0.8,0.2,1.6,0.3,2.4
					c0.1,0.5,0,1.4,0.5,1.7c0.4,0.3,1,0.1,1.4,0.4c0.3,0.2,0.4,0.5,0.5,0.8C257.5,107.8,256.9,108.3,256.1,108.6z M250.7,86.8
					c0-0.7-0.3-1.1-0.7-1.6c-0.6-0.7-1.2-1.3-2-1.8c-2.9-1.7-6.6-1.3-9.4,0.4c-3.4,2-5.2,6.1-5,10c0,0,0,0.1,0,0.1c0,0,0,0,0,0
					c0,2.3,0.3,4.6,1.8,6.5c1.3,1.7,3.1,2.6,5.2,2.2c3.8-0.7,6.5-4.4,7.9-7.8c0.8-2,1.4-4.1,1.8-6.2C250.5,88,250.7,87.4,250.7,86.8
					z"/>
				<path class="st16" d="M282.3,104.2c-0.1,0.8-0.6,1.1-1.3,1.3c-1.1,0.4-4.5,1-4.2-1c0.1-0.5,0.5-0.7,0.6-1.2
					c0.1-0.5-0.1-1.1-0.2-1.6c-0.1-0.9-0.3-1.9-0.4-2.8c-2.2,3.3-4.7,6.6-8.7,7.9c-3.4,1.1-6.6-0.3-8.3-3.4c-1-1.9-1.5-4.1-1.6-6.2
					c-0.2-2.2,0-4.4,0.5-6.6c0.9-3.6,3.3-6.8,6.7-8.4c1.7-0.8,3.7-1.1,5.6-0.9c1.7,0.3,3.2,1,4.7,2c0.1-4.8-0.1-9.6,0.8-14.3
					c-0.2-0.2-0.7-0.2-0.9-0.4c-0.3-0.3-0.4-0.6-0.3-1c0-1.1,1.1-1.4,2.1-1.6c1.3-0.3,2.6-0.3,3.9-0.3c0.8,0,1.2,0.6,1,1.4
					c-0.2,0.8-1.2,1.2-1.9,1.4c-0.5,0.1-1.1,0-1.2,0.7c-0.1,0.7,0,1.4,0,2c0,2.7-0.1,5.5-0.2,8.2c-0.1,5.5,0.2,11,0.7,16.5
					c0.1,1.5,0.3,2.9,0.5,4.4c0.1,0.8,0,2.7,1,2.8c0.4,0.1,0.7-0.1,1,0.3C282.3,103.5,282.3,103.9,282.3,104.2z M276.2,93.5
					c0-0.4-0.1-0.9-0.1-1.3c-0.1-1.1-0.2-2.1-0.2-3.2c0-1,0-1.9-0.6-2.7c-0.5-0.6-1.2-1.1-1.9-1.4c-3.2-1.7-6.8-0.7-9.2,1.9
					c-2.3,2.5-2.9,5.9-3,9.2c-0.1,2,0.5,4.6,1.8,6.2c0.6,0.7,1.3,1.4,2.2,1.7c1.1,0.4,2.2,0,3.2-0.4c3.4-1.4,5.8-4.7,7.3-7.9
					C276.1,94.9,276.3,94.3,276.2,93.5z"/>
				<path class="st16" d="M305.7,96.5c-0.4,0.3-1-0.1-1.3,0.5c-0.2,0.4-0.2,0.9-0.3,1.4c-0.3,1.1-0.6,2.2-1.1,3.2
					c-0.9,1.9-2.2,3.6-3.9,4.8c-1.7,1.2-3.9,2-6.1,1.8c-2.2-0.2-4.1-1.4-5.7-2.9c-3.2-3.1-4.4-7.6-4.4-11.9c0-4.6,1.4-9.8,5.5-12.4
					c1.8-1.2,4-1.7,6.2-1.6c2.3,0.1,4.3,1.2,5.8,2.8c1.5,1.6,2.5,3.7,3.1,5.8c0.4,1.5,0.2,2.9-1.5,3.3c-2.6,0.6-5.4,0.6-8.1,0.7
					c-1.4,0.1-2.8,0.2-4.3,0.3c-0.7,0.1-1.3,0.1-2,0.2c-0.3,0-1.1,0-1.4,0.2c-0.3,0.3-0.1,1.4-0.1,1.7c0,0.7,0.1,1.3,0.2,2
					c0.2,1.3,0.6,2.5,1.2,3.6c1.1,2.1,3,4.1,5.4,4.6c2.1,0.5,4.3-0.4,5.8-1.8c0.9-0.9,1.7-1.9,2.2-3.1c0.2-0.5,0.4-1,0.6-1.5
					c0.2-0.7,0.5-1.3,0-1.8c-0.5-0.4-0.8-1-0.5-1.7c0.4-0.8,1.5-0.8,2.3-0.7c0.7,0.1,2.3,0.3,2.6,1.1
					C306.3,95.4,306.2,96.2,305.7,96.5z M286.7,90.1c4.9-0.9,9.9-1,14.9-1.5c-0.5-2-1.5-4-3.2-5.3c-1.6-1.3-3.8-1.6-5.7-1
					C289.2,83.3,287,86.7,286.7,90.1z"/>
			</g>
		</g>
		<g>
			<path class="st16" d="M137.5,261c0.1,0.8,0.2,1.5,0.8,2.1c0.4,0.4,0.8,0.7,1.3,0.6c0.6-0.1,1.2-0.2,1.8-0.4
				c0.4-0.1,0.7-0.2,1.1-0.4c1.3-0.3,2.5,0.2,2.9,1.6c0.6,1.8,0.6,3.7-0.1,5.4c-0.4,1-1.3,1.3-2.2,1.3c-0.9,0.1-1.7-0.1-2.5-0.2
				c-0.4-0.1-0.8-0.1-1.2-0.2c-0.9-0.1-1.6,0.5-1.7,1.3c-0.2,1,0.2,1.7,1.2,1.9c0.9,0.2,1.8,0.1,2.6-0.1c0.9-0.2,1.7-0.5,2.4-0.7
				c0.3-0.1,0.7-0.2,1-0.2c1-0.1,1.8,0.2,2.3,1.1c0.9,1.5,0.6,4.2-0.7,5.5c-0.9,0.9-2.1,1.3-3.4,1.2c-1.3-0.1-2.7-0.2-4-0.4
				c-1.7-0.2-3.3-0.1-5,0.1c-0.6,0.1-1.1,0.1-1.7,0.1c-0.7,0.1-1.3-0.1-2-0.4c-1.1-0.5-1.8-1.4-1.8-2.7c0-1.5,0.1-2.9,0.2-4.3
				c0.6-5,1-9.9,0.9-14.9c-0.1-2.8-0.1-5.6-0.1-8.3c0-2.3-0.3-4.5-0.6-6.7c-0.1-1.1-0.2-2.2-0.1-3.3c0.1-1.7,1-2.8,2.7-3
				c1.7-0.2,3.3-0.2,5,0.1c2.8,0.4,5.6,0.6,8.4,0.6c1.2,0,1.7,0.4,1.8,1.6c0.1,0.8,0.1,1.7-0.1,2.5c-0.3,1.7-1.4,2.6-3.1,2.7
				c-0.8,0-1.7-0.1-2.5-0.2c-0.6-0.1-1.3-0.2-2-0.2c-1,0-1.4,0.4-1.6,1.3c-0.2,0.9-0.3,2-0.3,2.9c-0.1,2-0.1,6.2-0.1,6.2
				C137.3,256.6,137.5,258.8,137.5,261z M134.1,255.1c-0.1-1.2-0.1-2.3-0.2-3.5c0-0.2-0.1-0.4-0.2-0.6c-0.1-0.2-0.3-0.5-0.6-0.4
				c-0.2,0.1-0.4,0.2-0.5,0.4c-0.1,0.2-0.1,0.4-0.1,0.5c-0.1,0.4-0.1,0.9-0.1,1.2c0,3.2-0.1,6.4-0.1,9.7c0,1.5-0.2,3.1-0.2,4.6
				c-0.1,0.6-0.1,1.2-0.1,1.8c0,0.3,0.2,0.6,0.6,0.6c0.3,0.1,0.6-0.1,0.6-0.4c0.1-0.4,0.2-0.8,0.3-1.2c0.4-3.3,0.6-6.7,0.6-10
				C134.1,256.9,134.2,256,134.1,255.1z"/>
			<path class="st16" d="M160.6,278.5c-0.1,1.2-0.6,1.8-1.7,2c-1.9,0.4-3.9,0.7-5.8,0c-1.2-0.4-1.8-1.1-1.9-2.3
				c-0.1-1.1,0.1-2.3,0.2-3.4c0.8-4.9,1.3-9.8,1.9-14.7c0.6-4.7,1.3-9.4,2.6-14c0.5-1.8,1-3.5,1.9-5.2c0.3-0.6,0.6-1.2,1-1.7
				c1.4-2.1,3.3-2.8,5.7-2.3c3.5,0.7,5.2,2.9,5.9,6.2c0.3,1.6,0.6,3.2,0.7,4.8c0.2,2.2,0.5,4.4,0.7,6.7c0.2,2,0.4,4,0.7,6
				c0.2,2.4,0.5,4.7,0.8,7c0.3,2.6,0.6,5.1,0.9,7.6c0.1,1,0.2,2,0.3,2.9c0.1,0.4,0,0.7-0.1,1.1c-0.1,0.9-0.6,1.4-1.5,1.5
				c-1.9,0.2-3.7,0.4-5.6,0.1c-1.6-0.2-2.2-1.2-1.9-2.8c0.2-0.8,0.4-1.6,0.7-2.4c0.1-0.6,0.2-1.3,0.4-1.9c0-0.2,0-0.4,0-0.5
				c-0.1-1-0.2-1.3-1.2-1.6c-1.2-0.4-2.4-0.2-3.7,0c-0.4,0.1-0.6,0.4-0.7,0.7c-0.1,0.6-0.2,1.3-0.3,2c0,0.6,0,1.2,0,1.8
				c0.1,0,0,0,0,0C160.4,277,160.6,277.8,160.6,278.5z M155.9,263.8c0,1.1,0,2.2,0,3.2c0,0.3,0.1,0.7,0.2,0.9
				c0.1,0.2,0.3,0.3,0.5,0.4c0.2,0,0.4-0.2,0.5-0.4c0.1-0.2,0.1-0.5,0.1-0.7c0.1-0.7,0-1.5,0.1-2.2c0.2-4.2,0.5-8.3,0.8-12.5
				c0.1-0.9,0.1-1.8,0.1-2.6c0.1-0.3-0.1-0.5-0.4-0.6c-0.3,0-0.4,0.2-0.5,0.4c-0.2,0.5-0.3,1-0.4,1.5c-0.2,1.8-0.4,3.6-0.6,5.4
				C156.2,259,156,261.4,155.9,263.8C155.9,263.8,155.9,263.8,155.9,263.8z M160.1,262.1c0,0.8,0.1,1.6,0.2,2.4
				c0.1,0.9,0.6,1.5,1.6,1.6c1,0.2,2,0.1,3.1,0.1c0.8-0.1,1.3-0.6,1.5-1.3c0.1-0.3,0.2-0.7,0.2-1c-0.1-2.4-0.2-4.8-0.4-7.2
				c-0.2-2.4-0.4-5-0.7-7.4c-0.2-1.8-0.6-3.6-1-5.4c-0.1-0.6-0.4-1.2-0.7-1.7c-0.4-0.7-1-0.6-1.4,0.1c-0.2,0.5-0.4,1-0.6,1.6
				c-0.7,2-1,4.1-1.2,6.2c-0.3,3-0.6,6.1-0.5,9.1C160.1,260.1,160,261.1,160.1,262.1z"/>
			<path class="st16" d="M192.1,239c0.6,0.5,1.2,1,1.8,1.5c0.4,0.4,0.7,0.9,0.9,1.3c0.5,0.8,0.4,1.6-0.1,2.3
				c-0.6,0.7-1.1,1.5-1.7,2.1c-0.7,0.7-1.4,1.2-2.1,1.8c-0.2,0.2-0.4,0.3-0.7,0.4c-0.6,0.3-0.9,0.3-1.3-0.2
				c-0.5-0.6-0.9-1.3-1.4-1.9c-0.4-0.5-0.9-1-1.3-1.5c-0.4-0.4-0.9-0.7-1.5-0.4c-0.6,0.3-0.7,0.9-0.6,1.5c0.1,0.6,0.2,1.2,0.5,1.8
				c0.7,1.7,1.8,3.2,2.9,4.8c1,1.5,2.3,2.8,3.5,4.1c2.3,2.5,4.2,5.3,5.6,8.4c1,2.5,1.7,5.1,1.5,7.8c-0.4,4.5-4.2,8.3-8.7,8.6
				c-2.5,0.2-4.7-0.5-6.6-2.1c-1-0.8-2-1.5-2.8-2.5c-0.2-0.2-0.4-0.5-0.5-0.7c-0.9-1.2-0.9-2.5-0.1-3.8c0.7-1,1.6-1.9,2.7-2.6
				c0.2-0.1,0.5-0.2,0.7-0.3c1.2-0.4,1.7-0.2,2.4,0.7c1.1,1.5,2.4,2.8,3.7,4.1c0.4,0.4,0.9,0.7,1.4,1c0.9,0.5,1.7,0.1,1.8-0.9
				c0-0.5-0.1-1-0.3-1.5c-0.6-1.4-1.3-2.8-2.3-4c-1-1.3-1.9-2.8-2.9-4.1c-2.1-2.9-4-6.1-6-9.2c-0.3-0.5-0.6-1-0.9-1.5
				c-1.4-2.3-1.8-4.8-1.7-7.5c0.1-1.9,0.7-3.7,1.7-5.4c1-1.8,2.4-3.1,4.5-3.6c0.7-0.2,1.5-0.2,2.3-0.4
				C188.5,236.9,190.4,237.7,192.1,239z M181.3,250.9c0.7,1.2,1.3,2.5,2,3.7c2.6,3.9,5.1,7.7,7.7,11.6c0.2,0.3,0.4,0.6,0.6,0.9
				c0.1,0.1,0.2,0.2,0.3,0.3c0.2,0.1,0.4,0.2,0.6,0c0.1-0.1,0.2-0.4,0.2-0.6c-0.1-0.2-0.2-0.5-0.3-0.7c-1.2-2-2.4-3.9-3.7-5.9
				c-1.5-2.3-3-4.5-4.5-6.7c-0.8-1.1-1.5-2.3-2.3-3.4c-0.1-0.2-0.3-0.4-0.4-0.5c-0.1-0.1-0.4-0.1-0.5-0.1c-0.1,0.1-0.2,0.2-0.2,0.4
				C181,250.3,181.1,250.7,181.3,250.9z"/>
			<path class="st16" d="M209.2,246.8c0-1.2-0.6-1.8-1.7-2c-1-0.1-2,0-2.9,0.1c-0.3,0-0.6,0.1-0.9,0.1c-1.1,0.1-1.8-0.4-2.1-1.5
				c-0.3-1-0.4-2-0.2-3c0.1-0.7,0.4-1.4,0.7-2c0.6-1.1,1.6-1.7,2.8-1.8c0.6,0,1.2,0,1.7,0.1c2.9,0.6,5.7,0.6,8.7,0.2
				c1.1-0.2,2.2-0.3,3.3-0.4c0.3-0.1,0.7-0.1,1-0.1c1.7,0.1,2.9,1,3.3,2.6c0.3,1.1,0.5,2.3,0.2,3.4c-0.6,2-1.7,2.7-3.7,2.6
				c-0.6,0-1.1-0.1-1.7-0.2c-1.1-0.1-1.8,0.3-2,1.4c-0.2,1.1-0.3,2.2-0.4,3.3c-0.4,3.7-0.4,7.3-0.2,11.1c0.1,1.8,0.2,3.5,0.4,5.3
				c0.2,2.1,0.3,4.2,0.5,6.4c0.1,1.1,0.2,2.2,0.6,3.2c0.2,0.6,0.3,1.3,0.4,2c0.1,1.2-0.9,2.4-2.2,2.6c-1.5,0.3-3.1,0.4-4.6,0.2
				c-0.4,0-0.8-0.1-1.2-0.2c-0.7-0.3-1.2-0.9-1.3-1.7c-0.1-0.7-0.1-1.3-0.1-2c0.2-2.1,0.5-4.3,0.7-6.4c0.2-2.8,0.4-5.6,0.6-8.3
				c0.1-1.5,0.2-4.6,0.2-4.6C209.1,253.8,209.1,250.3,209.2,246.8z M210.7,269.1c0,0.3,0.1,0.7,0.1,1c0.1,0.4,0.2,0.6,0.7,0.6
				c0.3,0,0.6-0.2,0.7-0.7c0.1-0.4,0.1-0.9,0.1-1.3c0.2-4.5,0.3-8.9,0.5-13.4c0-1.5,0.1-2.9,0.1-4.3c0-0.4-0.1-0.9-0.2-1.3
				c0-0.2-0.3-0.4-0.4-0.4c-0.2,0-0.4,0.1-0.5,0.3c-0.2,0.3-0.3,0.6-0.3,1c-0.1,1.3-0.2,2.7-0.3,4c-0.2,3.2-0.3,6.4-0.4,9.2
				C210.7,265.7,210.7,267.4,210.7,269.1z"/>
			<path class="st16" d="M235.3,261c0.1,0.8,0.2,1.5,0.8,2.1c0.4,0.4,0.8,0.7,1.3,0.6c0.6-0.1,1.2-0.2,1.8-0.4
				c0.4-0.1,0.7-0.2,1.1-0.4c1.3-0.3,2.5,0.2,2.9,1.6c0.6,1.8,0.6,3.7-0.1,5.4c-0.4,1-1.3,1.3-2.2,1.3c-0.9,0.1-1.7-0.1-2.5-0.2
				c-0.4-0.1-0.8-0.1-1.2-0.2c-0.9-0.1-1.6,0.5-1.7,1.3c-0.2,1,0.2,1.7,1.2,1.9c0.9,0.2,1.8,0.1,2.6-0.1c0.9-0.2,1.7-0.5,2.4-0.7
				c0.3-0.1,0.7-0.2,1-0.2c1-0.1,1.8,0.2,2.3,1.1c0.9,1.5,0.6,4.2-0.7,5.5c-0.9,0.9-2.1,1.3-3.4,1.2c-1.3-0.1-2.7-0.2-4-0.4
				c-1.7-0.2-3.3-0.1-5,0.1c-0.6,0.1-1.1,0.1-1.7,0.1c-0.7,0.1-1.3-0.1-2-0.4c-1.1-0.5-1.8-1.4-1.8-2.7c0-1.5,0.1-2.9,0.2-4.3
				c0.6-5,1-9.9,0.9-14.9c-0.1-2.8-0.1-5.6-0.1-8.3c0-2.3-0.3-4.5-0.6-6.7c-0.1-1.1-0.2-2.2-0.1-3.3c0.1-1.7,1-2.8,2.7-3
				c1.7-0.2,3.3-0.2,5,0.1c2.8,0.4,5.6,0.6,8.4,0.6c1.2,0,1.7,0.4,1.8,1.6c0.1,0.8,0.1,1.7-0.1,2.5c-0.3,1.7-1.4,2.6-3.1,2.7
				c-0.8,0-1.7-0.1-2.5-0.2c-0.6-0.1-1.3-0.2-2-0.2c-1,0-1.4,0.4-1.6,1.3c-0.2,0.9-0.3,2-0.3,2.9c-0.1,2-0.1,6.2-0.1,6.2
				C235.2,256.6,235.3,258.8,235.3,261z M232,255.1c-0.1-1.2-0.1-2.3-0.2-3.5c0-0.2-0.1-0.4-0.2-0.6c-0.1-0.2-0.3-0.5-0.6-0.4
				c-0.2,0.1-0.4,0.2-0.5,0.4c-0.1,0.2-0.1,0.4-0.1,0.5c-0.1,0.4-0.1,0.9-0.1,1.2c0,3.2-0.1,6.4-0.1,9.7c0,1.5-0.2,3.1-0.2,4.6
				c-0.1,0.6-0.1,1.2-0.1,1.8c0,0.3,0.2,0.6,0.6,0.6c0.3,0.1,0.6-0.1,0.6-0.4c0.1-0.4,0.2-0.8,0.3-1.2c0.4-3.3,0.6-6.7,0.6-10
				C232,256.9,232,256,232,255.1z"/>
			<path class="st16" d="M249.5,244.4c0.1-1.1,0.1-2.1,0.2-3.2c0-0.3,0.1-0.6,0.1-0.9c0.1-1,0.7-1.8,1.7-2.3
				c0.9-0.4,1.9-0.7,2.9-0.9c2.1-0.4,4.3-0.4,6.5,0.2c1.8,0.6,3.5,1.4,5,2.5c2.3,1.6,3.5,3.9,4.1,6.4c1.2,5.1,1,10.2-1,15.2
				c-0.6,1.5-1.3,2.8-2.3,4c-1.1,1.4-1.3,2.9-0.4,4.5c0.6,0.9,1.2,1.8,1.8,2.7c0.7,1,1.5,2,2.3,2.9c0.8,0.9,0.9,1.8,0.4,2.9
				c-0.5,1-1.1,1.7-2.1,2c-0.7,0.2-1.3,0.6-2.1,0.7c-1.4,0.3-2.3-0.2-2.8-1.5c-0.8-2-1.5-3.9-2.2-5.8c-0.3-0.7-0.6-1.4-0.9-2.1
				c-0.3-0.6-0.7-1.1-1.3-1.4c-0.9-0.5-1.7-0.2-2,0.8c-0.4,1.3-0.4,2.7-0.1,4c0.2,1.3,0.5,2.6,0.7,4c0.2,1-0.3,1.8-1.3,2
				c-1.5,0.2-3.1,0.4-4.7,0.2c-1.9-0.2-2.7-1.1-2.9-3c-0.2-2.8-0.1-5.5-0.1-8.3c0-2.3-0.1-4.5-0.1-6.8c0,0-0.1-5-0.1-7.5
				C249,251.9,249.2,248.2,249.5,244.4z M253.2,254c0-1-0.1-2.1-0.1-3.1c0-0.4-0.1-0.7-0.2-1.1c0-0.2-0.2-0.4-0.4-0.4
				c-0.1-0.1-0.3,0.2-0.4,0.3c-0.1,0.2-0.1,0.4-0.1,0.6c-0.1,1.2-0.2,2.4-0.2,3.5c0,3.2,0.1,6.4,0.1,9.7c0,2,0.1,3.9,0.1,5.9
				c0,0.2,0,0.4,0.1,0.6c0.1,0.2,0.2,0.4,0.6,0.4c0.3,0,0.5-0.2,0.6-0.4c0.1-0.4,0.1-0.7,0.1-1.1c0-2.9,0-5.9,0-8.8
				C253.3,260,253.2,256,253.2,254z M256.9,261.3c0.1,0.6,0.3,1.2,0.6,1.7c0.2,0.6,0.8,0.8,1.5,0.9c1,0.1,1.7-0.4,2.1-1.2
				c0.6-1,1-2.1,1.2-3.3c0.9-4.1,0.8-8.1-0.2-12.2c-0.2-1-0.6-2-1.2-3c-0.2-0.4-0.6-0.9-1-1.1c-0.6-0.3-1-0.2-1.3,0.4
				c-0.3,0.5-0.6,1-0.8,1.7c-0.5,1.4-0.7,2.8-0.8,4.3c-0.1,2.2-0.3,4.5-0.5,7C256.6,257.9,256.8,259.6,256.9,261.3z"/>
			<path class="st16" d="M157.7,319.5c0.1,0.8,0.2,1.5,0.8,2.1c0.4,0.4,0.8,0.7,1.3,0.6c0.6-0.1,1.2-0.2,1.8-0.4
				c0.4-0.1,0.7-0.2,1.1-0.4c1.3-0.3,2.5,0.2,2.9,1.6c0.6,1.8,0.6,3.7-0.1,5.4c-0.4,1-1.3,1.3-2.2,1.3c-0.9,0.1-1.7-0.1-2.5-0.2
				c-0.4-0.1-0.8-0.1-1.2-0.2c-0.9-0.1-1.6,0.5-1.7,1.3c-0.2,1,0.2,1.7,1.2,1.9c0.9,0.2,1.8,0.1,2.6-0.1c0.9-0.2,1.7-0.5,2.4-0.7
				c0.3-0.1,0.7-0.2,1-0.2c1-0.1,1.8,0.2,2.3,1.1c0.9,1.5,0.6,4.2-0.7,5.5c-0.9,0.9-2.1,1.3-3.4,1.2c-1.3-0.1-2.7-0.2-4-0.4
				c-1.7-0.2-3.3-0.1-5,0.1c-0.6,0.1-1.1,0.1-1.7,0.1c-0.7,0.1-1.3-0.1-2-0.4c-1.1-0.5-1.8-1.4-1.8-2.7c0-1.5,0.1-2.9,0.2-4.3
				c0.6-5,1-9.9,0.9-14.9c-0.1-2.8-0.1-5.6-0.1-8.3c0-2.3-0.3-4.5-0.6-6.7c-0.1-1.1-0.2-2.2-0.1-3.3c0.1-1.7,1-2.8,2.7-3
				s3.3-0.2,5,0.1c2.8,0.4,5.6,0.6,8.4,0.6c1.2,0,1.7,0.4,1.8,1.6c0.1,0.8,0.1,1.7-0.1,2.5c-0.3,1.7-1.4,2.6-3.1,2.7
				c-0.8,0-1.7-0.1-2.5-0.2c-0.6-0.1-1.3-0.2-2-0.2c-1,0-1.4,0.4-1.6,1.3c-0.2,0.9-0.3,2-0.3,2.9c-0.1,2-0.1,6.2-0.1,6.2
				C157.6,315.2,157.7,317.4,157.7,319.5z M154.4,313.7c-0.1-1.2-0.1-2.3-0.2-3.5c0-0.2-0.1-0.4-0.2-0.6c-0.1-0.2-0.3-0.5-0.6-0.4
				c-0.2,0.1-0.4,0.2-0.5,0.4c-0.1,0.2-0.1,0.4-0.1,0.5c-0.1,0.4-0.1,0.9-0.1,1.2c0,3.2-0.1,6.4-0.1,9.7c0,1.5-0.2,3.1-0.2,4.6
				c-0.1,0.6-0.1,1.2-0.1,1.8c0,0.3,0.2,0.6,0.6,0.6c0.3,0.1,0.6-0.1,0.6-0.4c0.1-0.4,0.2-0.8,0.3-1.2c0.4-3.3,0.6-6.7,0.6-10
				C154.4,315.4,154.4,314.6,154.4,313.7z"/>
			<path class="st16" d="M179.5,325.2c0.2,0.9,0.4,1.8,0.7,2.7c0.4,1.3,1.1,2.4,2.1,3.4c1.3,1.3,2.9,1.7,4.8,1.2
				c1.2-0.3,2-1.3,2-2.6c0-1.2-0.7-1.8-1.8-1.7c-0.6,0.1-1,0.2-1.6,0.4c-0.3,0.1-0.6,0.3-0.9,0.4c-0.7,0.2-1.3,0.1-1.7-0.6
				c-0.2-0.4-0.4-0.9-0.5-1.3c-0.2-0.9-0.2-1.8-0.3-2.8c-0.1-0.7,0.2-1.3,0.7-2c0.5-0.7,1.2-1,2-0.7c1.7,0.6,3.4,0.5,5.1,0.2
				c0.6-0.1,1.1-0.2,1.7-0.2c0.6,0,1.2,0.1,1.7,0.2c0.7,0.2,1.2,0.8,1.6,1.5c0.4,0.9,0.6,1.8,0.6,2.8c0.4,4-1,7.5-3.8,10.3
				c-1.9,2-4.4,3.3-7.3,3.1c-2.8-0.2-5.4-1.3-7.5-3.4c-2.2-2.2-3.7-4.8-4.6-7.9c-1.1-3.5-1.3-7.1-1-10.8c0.3-4.2,1.3-8.1,3.1-11.9
				c1.5-3.1,3.5-5.8,6.1-8.1c2.2-2,4.8-2.7,7.7-2.2c1.3,0.2,2.4,0.8,3.4,1.7c0.9,0.7,1.2,1.6,1,2.6c-0.2,1.3-0.6,2.5-1.1,3.7
				c-0.7,1.7-1.9,2.3-3.7,2.2c-0.6-0.1-1.1-0.1-1.7-0.2c-1.5-0.1-2.6,0.4-3.6,1.5c-1,1-1.8,2.3-2.3,3.7c-0.7,1.9-1.1,4-1.2,6.1
				c0,0.9,0,1.7,0,2.6C179,321.2,179.1,323.3,179.5,325.2z M177,308.8c-0.4,0.7-0.7,1.3-1,2c-1.5,4.2-1.9,8.6-1,13
				c0.2,1.2,0.6,2.5,1.2,3.6c0.2,0.4,0.5,0.5,0.7,0.4c0.4-0.2,0.4-0.4,0.3-0.7c-0.1-0.6-0.2-1-0.4-1.6c-1.1-4-1-8.1-0.1-12.2
				c0.3-1.3,0.8-2.6,1.2-3.9c0.1-0.4,0.2-0.7,0-1.2C177.4,308.2,177.2,308.5,177,308.8z"/>
			<path class="st16" d="M207.2,325.2c0.2,0.9,0.4,1.8,0.7,2.7c0.4,1.3,1.1,2.4,2.1,3.4c1.3,1.3,2.9,1.7,4.8,1.2
				c1.2-0.3,2-1.3,2-2.6c0-1.2-0.7-1.8-1.8-1.7c-0.6,0.1-1,0.2-1.6,0.4c-0.3,0.1-0.6,0.3-0.9,0.4c-0.7,0.2-1.3,0.1-1.7-0.6
				c-0.2-0.4-0.4-0.9-0.5-1.3c-0.2-0.9-0.2-1.8-0.3-2.8c-0.1-0.7,0.2-1.3,0.7-2c0.5-0.7,1.2-1,2-0.7c1.7,0.6,3.4,0.5,5.1,0.2
				c0.6-0.1,1.1-0.2,1.7-0.2c0.6,0,1.2,0.1,1.7,0.2c0.7,0.2,1.2,0.8,1.6,1.5c0.4,0.9,0.6,1.8,0.6,2.8c0.4,4-1,7.5-3.8,10.3
				c-1.9,2-4.4,3.3-7.3,3.1c-2.8-0.2-5.4-1.3-7.5-3.4c-2.2-2.2-3.7-4.8-4.6-7.9c-1.1-3.5-1.3-7.1-1-10.8c0.3-4.2,1.3-8.1,3.1-11.9
				c1.5-3.1,3.5-5.8,6.1-8.1c2.2-2,4.8-2.7,7.7-2.2c1.3,0.2,2.4,0.8,3.4,1.7c0.9,0.7,1.2,1.6,1,2.6c-0.2,1.3-0.6,2.5-1.1,3.7
				c-0.7,1.7-1.9,2.3-3.7,2.2c-0.6-0.1-1.1-0.1-1.7-0.2c-1.5-0.1-2.6,0.4-3.6,1.5c-1,1-1.8,2.3-2.3,3.7c-0.7,1.9-1.1,4-1.2,6.1
				c0,0.9,0,1.7,0,2.6C206.7,321.2,206.8,323.3,207.2,325.2z M204.7,308.8c-0.4,0.7-0.7,1.3-1,2c-1.5,4.2-1.9,8.6-1,13
				c0.2,1.2,0.6,2.5,1.2,3.6c0.2,0.4,0.5,0.5,0.7,0.4c0.4-0.2,0.4-0.4,0.3-0.7c-0.1-0.6-0.2-1-0.4-1.6c-1.1-4-1-8.1-0.1-12.2
				c0.3-1.3,0.8-2.6,1.2-3.9c0.1-0.4,0.2-0.7,0-1.2C205.1,308.2,204.9,308.5,204.7,308.8z"/>
			<path class="st16" d="M241,297.6c0.6,0.5,1.2,1,1.8,1.5c0.4,0.4,0.7,0.9,0.9,1.3c0.5,0.8,0.4,1.6-0.1,2.3
				c-0.6,0.7-1.1,1.5-1.7,2.1c-0.7,0.7-1.4,1.2-2.1,1.8c-0.2,0.2-0.4,0.3-0.7,0.4c-0.6,0.3-0.9,0.3-1.3-0.2
				c-0.5-0.6-0.9-1.3-1.4-1.9c-0.4-0.5-0.9-1-1.3-1.5c-0.4-0.4-0.9-0.7-1.5-0.4c-0.6,0.3-0.7,0.9-0.6,1.5c0.1,0.6,0.2,1.2,0.5,1.8
				c0.7,1.7,1.8,3.2,2.9,4.8c1,1.5,2.3,2.8,3.5,4.1c2.3,2.5,4.2,5.3,5.6,8.4c1,2.5,1.7,5.1,1.5,7.8c-0.4,4.5-4.2,8.3-8.7,8.6
				c-2.5,0.2-4.7-0.5-6.6-2.1c-1-0.8-2-1.5-2.8-2.5c-0.2-0.2-0.4-0.5-0.5-0.7c-0.9-1.2-0.9-2.5-0.1-3.8c0.7-1,1.6-1.9,2.7-2.6
				c0.2-0.1,0.5-0.2,0.7-0.3c1.2-0.4,1.7-0.2,2.4,0.7c1.1,1.5,2.4,2.8,3.7,4.1c0.4,0.4,0.9,0.7,1.4,1c0.9,0.5,1.7,0.1,1.8-0.9
				c0-0.5-0.1-1-0.3-1.5c-0.6-1.4-1.3-2.8-2.3-4c-1-1.3-1.9-2.8-2.9-4.1c-2.1-2.9-4-6.1-6-9.2c-0.3-0.5-0.6-1-0.9-1.5
				c-1.4-2.3-1.8-4.8-1.7-7.5c0.1-1.9,0.7-3.7,1.7-5.4c1-1.8,2.4-3.1,4.5-3.6c0.7-0.2,1.5-0.2,2.3-0.4
				C237.4,295.4,239.3,296.2,241,297.6z M230.2,309.5c0.7,1.2,1.3,2.5,2,3.7c2.6,3.9,5.1,7.7,7.7,11.6c0.2,0.3,0.4,0.6,0.6,0.9
				c0.1,0.1,0.2,0.2,0.3,0.3c0.2,0.1,0.4,0.2,0.6,0c0.1-0.1,0.2-0.4,0.2-0.6c-0.1-0.2-0.2-0.5-0.3-0.7c-1.2-2-2.4-3.9-3.7-5.9
				c-1.5-2.3-3-4.5-4.5-6.7c-0.8-1.1-1.5-2.3-2.3-3.4c-0.1-0.2-0.3-0.4-0.4-0.5c-0.1-0.1-0.4-0.1-0.5-0.1c-0.1,0.1-0.2,0.2-0.2,0.4
				C229.9,308.9,230,309.3,230.2,309.5z"/>
		</g>
		<g>
			<path class="st16" d="M183,195.5c0-4.1,0.2-7.4,0.6-10.8c0.1-0.4,0.1-0.8,0.3-1.2c0.3-1.2,1.1-1.7,2.4-1.9c1.7-0.2,3.4-0.1,5,0.2
				c0.4,0.1,0.8,0.1,1.3,0.2c0.6,0.2,0.9,0.6,0.8,1.1c-0.1,0.5-0.5,0.9-1.1,0.8c-0.9-0.1-1.7-0.2-2.5-0.3c-0.5-0.1-0.5-0.1-0.5,0.4
				c-0.4,3.1-0.7,6.2-0.7,9.3c0,2.4,0.1,4.8,0.3,7.2c0.1,0.6,0.1,0.6,0.7,0.6c0.3,0,0.6,0.1,0.8,0.1c0.6,0.1,0.9,0.6,0.8,1.1
				c-0.1,0.5-0.5,0.8-1.1,0.9c-0.3,0-0.6-0.2-0.8,0.1c-0.1,0.2,0,0.5,0.1,0.8c0.1,1,0.3,1.9,0.4,2.9c0.1,1.1-0.2,1.6-1.4,1.9
				c-0.5,0.2-1,0.3-1.5,0.5c-1.1,0.3-1.7-0.1-2-1c-0.6-1.7-0.9-3.5-1.1-5.2C183.1,200.3,183,197.5,183,195.5z"/>
			<path class="st16" d="M194.7,195.4c0-3.3,0.5-6.1,1.6-8.8c2.5-6.2,8.4-6.9,10.4-1.7c1,2.6,1.5,5.3,1.7,8.1
				c0.3,3.4,0,6.8-0.8,10.1c-0.3,1.1-0.7,2.2-1.2,3.3c-0.5,1-1.2,1.7-2.1,2.3c-2,1.4-4.2,0.8-5.6-0.6c-0.6-0.6-1-1.2-1.4-2
				c-1.3-2.4-2-5-2.4-7.7C194.7,197.3,194.7,196.2,194.7,195.4z M203.7,184.4c-0.7,0.5-1.8,3.5-2.2,4.8c-0.9,3.4-1.1,6.9-0.9,10.5
				c0.2,2.2,0.8,4.2,1.7,6.1c0.5,1.1,0.8,1.1,1.6,0.2c0.7-0.8,1-1.7,1.3-2.7c0.6-2,0.9-4.1,1-6.2c0-1.5,0-3-0.1-4.6
				C205.8,189.8,204.9,185.5,203.7,184.4z"/>
			<path class="st16" d="M215.6,185.8c0.4-0.2,0.5-0.5,0.6-0.7c0.9-1.3,2-2.3,3.5-2.8c1.2-0.3,2.2-0.1,3.1,0.8
				c0.9,0.8,1.4,1.9,1.7,3.2c1.3,5-0.6,12.9-7.2,15.2c-0.4,0.1-0.8,0.3-1.2,0.4c0.1,0.3,0.3,0.4,0.5,0.5c1.3,0.8,2.7,1.5,4.1,2
				c0.3,0.1,0.7,0.2,1,0.2c0.8,0.1,1.3,0.8,1.1,1.7c-0.1,0.8-0.8,1.2-1.5,0.9c-1.6-0.5-3.1-1.2-4.6-2c-0.2-0.1-0.5-0.3-0.8-0.3
				c0,0.8,0.1,1.6,0.2,2.4c0.1,1.6-0.7,2.1-1.7,2.1c-0.3,0-0.5,0-0.8,0.1c-1.1,0.2-1.9-0.4-2.2-1.5c-0.4-1.4-0.7-2.9-0.9-4.4
				c-0.5-4.2-0.8-8.4-0.6-12.7c0.1-2.5,0.3-5.1,0.9-7.6c0.3-1.3,0.7-1.6,1.9-1.8c0.6-0.1,1.2,0,1.7,0c1.1,0.1,1.7,0.9,1.5,2.1
				C215.8,184.4,215.7,185,215.6,185.8z M215,193.9c0,1.9,0.1,3.4,0.3,5c0,0.5,0.1,0.6,0.5,0.5c1.6-0.5,3.1-1.1,4.3-2.5
				c2-2.5,2.9-5.4,2.5-8.7c-0.1-0.8-0.3-1.6-0.7-2.3c-0.6-1.1-1.4-1.3-2.4-0.7c-0.2,0.2-0.5,0.3-0.7,0.5c-0.5,0.5-0.9,1-1.3,1.6
				c-0.8,1.2-1.3,2.5-1.9,3.8C215.2,192,214.9,193,215,193.9z"/>
		</g>
		<g>
			<g>
				<g>
					<path class="st7" d="M124.9,146.3c2.1,0.1,4.5,0.2,6.8,0.6c0.2,0,0.5,0.1,0.7,0.2c0.7,0.3,0.9,1.1,0.3,1.6
						c-0.2,0.2-0.6,0.4-0.9,0.5c-1.6,0.7-3.2,1.1-4.9,1.3c-2.1,0.3-4.2,0.5-6.4,0.5c-0.8,0-1.7-0.1-2.5-0.4c-0.4-0.1-0.7-0.3-1-0.6
						c-0.9-0.8-0.9-2,0.1-2.7c0.4-0.3,0.9-0.5,1.4-0.7c1.3-0.4,2.6-0.5,3.9-0.5C123.1,146.3,123.9,146.3,124.9,146.3z"/>
					<path class="st7" d="M123.1,161.4c-0.2,0-0.5,0-0.7-0.1c-0.9-0.3-1.4-1.1-1.1-2.1c0.2-0.5,0.5-1,0.8-1.4
						c0.4-0.5,0.9-0.9,1.4-1.3c2.2-1.8,4.4-3.4,7-4.5c0.6-0.2,1.1-0.5,1.7-0.6c0.3-0.1,0.6-0.1,0.9-0.1c0.7,0,1.1,0.7,0.8,1.3
						c-0.1,0.2-0.2,0.3-0.3,0.4c-1.7,2.3-3.7,4.5-6,6.3c-1,0.7-2,1.4-3.1,1.8C124.1,161.2,123.6,161.3,123.1,161.4
						C123.1,161.4,123.1,161.4,123.1,161.4z"/>
					<path class="st7" d="M122.3,136.3c0.7,0.2,1.6,0.4,2.5,0.7c1.2,0.4,2.2,1,3.2,1.7c1.7,1.2,3.3,2.4,5,3.7
						c0.2,0.1,0.3,0.3,0.5,0.4c0.4,0.5,0.1,1.2-0.5,1.4c-0.2,0.1-0.5,0.1-0.7,0c-0.4-0.1-0.8-0.1-1.2-0.2c-1.4-0.4-2.7-0.7-4.1-1.1
						c-1.7-0.5-3.3-1.2-4.8-2.1c-0.7-0.4-1.3-0.9-1.8-1.6c-0.4-0.6-0.6-1.3-0.2-2C120.5,136.6,121.2,136.3,122.3,136.3z"/>
				</g>
				<g>
					<path class="st7" d="M291.6,146.3c-2.1,0.1-4.5,0.2-6.8,0.6c-0.2,0-0.5,0.1-0.7,0.2c-0.7,0.3-0.9,1.1-0.3,1.6
						c0.2,0.2,0.6,0.4,0.9,0.5c1.6,0.7,3.2,1.1,4.9,1.3c2.1,0.3,4.2,0.5,6.4,0.5c0.8,0,1.7-0.1,2.5-0.4c0.4-0.1,0.7-0.3,1-0.6
						c0.9-0.8,0.9-2-0.1-2.7c-0.4-0.3-0.9-0.5-1.4-0.7c-1.3-0.4-2.6-0.5-3.9-0.5C293.3,146.3,292.5,146.3,291.6,146.3z"/>
					<path class="st7" d="M293.4,161.4c0.2,0,0.5,0,0.7-0.1c0.9-0.3,1.4-1.1,1.1-2.1c-0.2-0.5-0.5-1-0.8-1.4
						c-0.4-0.5-0.9-0.9-1.4-1.3c-2.2-1.8-4.4-3.4-7-4.5c-0.6-0.2-1.1-0.5-1.7-0.6c-0.3-0.1-0.6-0.1-0.9-0.1c-0.7,0-1.1,0.7-0.8,1.3
						c0.1,0.2,0.2,0.3,0.3,0.4c1.7,2.3,3.7,4.5,6,6.3c1,0.7,2,1.4,3.1,1.8C292.3,161.2,292.8,161.3,293.4,161.4
						C293.3,161.4,293.4,161.4,293.4,161.4z"/>
					<path class="st7" d="M294.1,136.3c-0.7,0.2-1.6,0.4-2.5,0.7c-1.2,0.4-2.2,1-3.2,1.7c-1.7,1.2-3.3,2.4-5,3.7
						c-0.2,0.1-0.3,0.3-0.5,0.4c-0.4,0.5-0.1,1.2,0.5,1.4c0.2,0.1,0.5,0.1,0.7,0c0.4-0.1,0.8-0.1,1.2-0.2c1.4-0.4,2.7-0.7,4.1-1.1
						c1.7-0.5,3.3-1.2,4.8-2.1c0.7-0.4,1.3-0.9,1.8-1.6c0.4-0.6,0.6-1.3,0.2-2C295.9,136.6,295.2,136.3,294.1,136.3z"/>
				</g>
			</g>
			<g>
				<path class="st16" d="M200.7,148.7c3.1-1.7,6.3-3,9.4-4.4c0.3-3.5,0.5-7,0.8-10.5c-0.2,0.1-0.4,0.1-0.6,0.2
					c-2.2,0.9-4.5,1.4-6.9,1.6c-1.4,0.1-2.8,0-4.1-0.5c-3.2-1.1-5.1-3.3-5.5-6.7c-0.2-1.5,0.1-3,0.9-4.3c0.4-0.7,1-1.3,1.8-1.5
					c0.2-0.1,0.5-0.1,0.7,0c0.6,0.1,0.9,0.7,0.6,1.3c-0.1,0.1-0.2,0.3-0.2,0.4c-1,1.5-1,3.1-0.2,4.7c0.7,1.5,2,2.3,3.7,2.4
					c3,0.2,5.8-0.5,8.5-1.7c0.4-0.2,0.8-0.4,1.1-0.5c0.4-0.1,0.5-0.4,0.5-0.8c0-1.6,0.2-3.2,0.6-4.7c0.2-0.8,0.4-1.6,0.8-2.3
					c0.2-0.5,0.6-0.9,1-1.3c1-0.8,2.4-0.6,3.1,0.6c0.4,0.7,0.6,1.4,0.7,2.2c0.1,0.8,0.1,1.6,0.1,2.5c0.2-0.1,0.4-0.2,0.6-0.4
					c3-1.7,5.9-3.5,8.9-5.2c2.8-1.6,5.7-2.9,8.7-3.8c1.8-0.5,3.7-0.8,5.5-0.8c1.8,0,3.5,0.4,5.1,1.3c1.2,0.6,2.1,1.4,2.9,2.5
					c1,1.4,1.4,3,1,4.7c-0.2,0.8-0.4,1.6-0.6,2.4c0,0.2-0.1,0.4-0.2,0.5c-0.5,0.7-1.5,0.7-1.9-0.1c-0.1-0.3-0.2-0.6-0.3-0.9
					c-0.2-0.9-0.3-1.9-0.7-2.8c-1-2.2-2.8-3.2-5.1-3.3c-2.1-0.1-4,0.4-5.9,1.1c-2.3,0.8-4.5,1.8-6.6,3.1c-3.4,2-6.8,4-10.1,5.9
					c-0.4,0.2-0.8,0.5-1.2,0.7c-0.3,0.1-0.4,0.3-0.4,0.6c-0.2,2.7-0.3,5.4-0.5,8.1c-0.2,3.7-0.4,7.4-0.3,11.1c0,2.4,0.1,4.9,0.6,7.3
					c0.2,0.9,0.5,1.7,0.8,2.6c0.1,0.4,0.3,0.7,0.6,1c0.3,0.4,0.5,0.4,0.9,0.1c0.3-0.2,0.6-0.5,0.8-0.8c0.4-0.7,0.9-1.3,1.2-2.1
					c0.5-1,1-2.1,1.4-3.2c0.1-0.2,0.1-0.5,0.1-0.7c-0.4-2.5-0.2-5,0.2-7.5c0.4-2.3,1.1-4.5,2.2-6.5c0.8-1.5,1.9-2.9,3.2-4.1
					c1.1-0.9,2.4-1.6,3.8-1.8c2.9-0.4,5,1.5,5.9,3.6c0.6,1.5,0.7,3,0.2,4.6c-1.2,3.7-3.6,6-7.3,7.1c-0.6,0.2-1.2,0.3-1.8,0.5
					c0,0.1-0.1,0.3,0,0.4c0,2.1,0.5,4.2,1.5,6.1c0.7,1.4,1.7,2.6,3,3.4c0.8,0.5,1.6,0.8,2.6,1c1.1,0.2,2,0,3-0.5
					c1.2-0.7,2.2-1.6,3.1-2.6c1.5-1.8,2.5-3.8,3.3-6c1.3-3.7,2.4-7.4,3-11.3c0.1-0.8,0.2-1.7,0.3-2.6c-0.4,0-0.8,0-1.1,0
					c-0.9,0-1.9-0.1-2.7-0.5c-1.6-0.6-2.7-1.7-3-3.5c-0.3-1.9,0.9-4,2.7-4.7c0.9-0.3,1.7-0.2,2.5,0.2c1.6,0.7,2.6,1.9,3.3,3.5
					c0.1,0.2,0.2,0.4,0.3,0.7c0.3-0.1,0.5-0.2,0.8-0.3c2.9-1,5.8-1.7,8.9-1.9c1.3-0.1,2.6,0,3.8,0.3c2.2,0.6,3.5,2.1,4,4.3
					c0.3,1.4,0.3,2.8,0.2,4.3c-0.3,4.2-1.1,8.4-1.9,12.5c-0.4,2.2-0.9,4.5-1,6.7c-0.1,1-0.1,2,0.2,3c0.1,0.5,0.4,0.7,0.9,0.7
					c0.5,0,0.9-0.2,1.3-0.6c0.5-0.4,0.9-0.9,1.3-1.4c1.2-1.4,2.1-3,3-4.6c1.1-2.1,2.3-4.1,3.4-6.2c0.2-0.3,0.4-0.6,0.7-0.9
					c0.3-0.3,0.7-0.4,1.1-0.3c0.5,0.2,0.7,0.5,0.7,1c0,0.3,0,0.6-0.1,0.9c-0.5,2-1.4,3.9-2.3,5.7c-0.8,1.6-1.6,3.2-2.4,4.8
					c-0.6,1.2-1.3,2.4-2,3.6c-0.6,1-1.4,1.8-2.3,2.4c-1.7,1.2-3.5,1.7-5.5,1.1c-1.2-0.4-2.1-1.1-2.9-2.1c-1.1-1.3-1.6-2.9-2-4.5
					c-0.4-2.1-0.5-4.3-0.4-6.4c0.1-3.2,0.7-6.4,1.2-9.6c0.4-2.5,0.9-4.9,1.3-7.4c0.1-0.8,0.2-1.7,0.2-2.5c0-0.7-0.3-1.1-1-1.1
					c-0.6,0-1.1,0.1-1.7,0.2c-1.1,0.3-2.2,0.6-3.3,0.9c-1.2,0.4-2.5,0.7-3.8,1.1c0,0.4-0.1,0.9-0.1,1.3c-0.2,3.1-1,6-2,8.9
					c-1,3.2-2.2,6.3-3.7,9.3c-1.2,2.4-2.7,4.7-4.6,6.6c-1.2,1.2-2.5,2-4.2,2.4c-1.8,0.4-3.6,0.2-5.3-0.5c-3.7-1.5-6.3-4.2-7.8-7.9
					c-0.1-0.2-0.2-0.5-0.4-0.8c-0.1,0.3-0.2,0.4-0.2,0.5c-0.4,1.2-0.8,2.4-1.3,3.6c-0.3,0.8-0.7,1.5-1.1,2.2c-0.2,0.4-0.5,0.7-0.8,1
					c-1.5,1.5-3.6,1.5-5.2,0.1c-0.8-0.7-1.3-1.5-1.8-2.4c-0.9-1.7-1.5-3.5-1.9-5.4c-0.7-3-0.9-6.1-0.9-9.2c0-0.2,0-0.3,0-0.5
					c0,0,0-0.1-0.1-0.1c-1,0.1-7.1,3.1-8.1,4c0.1,0.2,0.2,0.4,0.3,0.6c0.7,1.6,1.4,3.2,1.6,5c0.5,3.9-0.6,7.3-3.8,9.7
					c-1.2,0.9-2.5,1.4-4,1.4c-2.1,0-3.7-0.9-4.8-2.7c-1.3-2.1-1.5-4.2-0.7-6.5c0.9-2.6,2.6-4.6,4.8-6.2c0.3-0.2,0.7-0.4,1.1-0.7
					c-0.1-0.2-0.2-0.3-0.4-0.4c-1.1-1.1-2.2-2-3.5-2.9c-1.9-1.3-3.8-2.5-5.7-3.8c-0.1,0.2-0.1,0.3-0.2,0.5
					c-1.5,4.9-2.8,9.8-4.5,14.5c-0.5,1.3-1.1,2.5-1.6,3.7c-0.5,1-1.1,1.9-1.8,2.6c-1.9,1.9-4.5,2.1-6.6,0.5c-1-0.7-1.7-1.7-2.3-2.8
					c-0.9-1.6-1.3-3.3-1.7-5.1c-0.5-2.9-0.4-5.7-0.3-8.6c0.1-2,0.1-4,0.2-6c0-0.2,0-0.4,0-0.7c-0.2,0.1-0.4,0.1-0.6,0.2
					c-0.7,0.4-1.4,0.7-2.1,1.2c-1.7,1.2-3.4,2.3-5.2,3.4c-0.2,0.1-0.3,0.2-0.5,0.3c0.4,0.9,0.8,1.8,1.2,2.8
					c1.5,4.3,1.3,8.4-0.8,12.4c-0.9,1.7-2.1,3-3.6,4.1c-2.9,1.9-5.9,2.1-9,0.6c-1.2-0.6-2.2-1.3-3.1-2.4c-1.5-1.8-1.9-3.9-1.2-6.1
					c0.5-1.6,1.4-3,2.6-4.2c1-1.1,2.2-1.9,3.4-2.7c1-0.6,2-1.2,3-1.8c0.2-0.1,0.4-0.2,0.6-0.4c-0.2-0.2-0.3-0.4-0.5-0.6
					c-1-1.1-2-2.2-3-3.3c-1.5-1.7-3-3.4-4.1-5.4c-0.5,0.1-1,0.2-1.5,0.2c-2.4,0.3-4.7,0.3-7.1-0.4c-0.3-0.1-0.6-0.2-0.9-0.4
					c-0.4-0.3-0.6-0.7-0.5-1.1c0.1-0.4,0.5-0.8,1-0.8c0.7,0,1.4,0.1,2.1,0.2c1.7,0.2,3.4,0.3,5.1,0c0.2,0,0.4-0.1,0.6-0.1
					c-0.1-0.2-0.1-0.4-0.2-0.5c-0.7-2.2-1.1-4.5-0.8-6.8c0.3-2.5,1.5-4.6,3.3-6.3c1.2-1.1,2.5-1.9,4-2.3c1.8-0.4,3.4-0.1,4.9,0.8
					c1.4,0.9,2,2.3,2.4,3.8c0.3,1.4,0,2.8-0.5,4.1c-0.9,2.5-2.5,4.5-4.6,6.2c-0.2,0.1-0.3,0.3-0.5,0.4c2.3,2.8,4.5,5.6,6.8,8.4
					c0.1-0.1,0.2-0.1,0.4-0.2c2.2-1.4,4.3-3,6.4-4.6c1-0.7,2-1.4,3-2.1c0.6-0.4,1.4-0.7,2.1-0.7c1.2-0.1,2.2,0.4,2.9,1.4
					c0.5,0.8,0.8,1.6,0.9,2.5c0.1,1.3,0.2,2.6,0.2,4c0,2.2,0,4.4,0,6.6c0,2.2,0.1,4.4,0.5,6.6c0.2,0.9,0.3,1.8,1,2.5
					c0,0,0.1,0.1,0.2,0.2c0.3-0.3,0.7-0.6,1-1c0.7-0.9,1.3-1.8,1.9-2.7c1.8-3,3.1-6.3,4.3-9.6c0.6-1.7,1.2-3.4,1.8-5.1
					c0.1-0.2,0.1-0.5,0.2-0.7c-0.3-0.2-0.6-0.4-0.8-0.6c-1.5-1-2.9-2.2-4.2-3.5c-1.1-1.1-1.9-2.3-2.4-3.8c-0.6-2.1-0.2-4,1.3-5.6
					c1.3-1.4,3-2.2,5-2.1c0.4,0,0.8,0.1,1.2,0.2c3,0.9,4.8,2.9,5.6,5.9c0.1,0.3,0,0.8-0.1,1.1c0,0.2-0.3,0.4-0.5,0.5
					c-0.2,0.1-0.4-0.1-0.5-0.3c-0.2-0.4-0.5-0.8-0.7-1.2c-0.8-1.2-1.7-2.2-2.9-2.9c-0.7-0.4-1.5-0.6-2.3-0.5
					c-0.4,0.1-0.8,0.2-1.1,0.6c-0.8,1-0.7,2.5,0.1,3.5c0.6,0.7,1.4,1.2,2.1,1.8c2,1.4,4.1,2.7,6.1,4.1c1.7,1.2,3.3,2.4,5,3.7
					c1.6,1.2,2.9,2.7,4.1,4.3C200.5,148.5,200.6,148.6,200.7,148.7z M153.7,151.6c-0.1,0.1-0.2,0.1-0.3,0.1
					c-1.2,0.9-2.5,1.7-3.7,2.6c-0.9,0.7-1.8,1.5-2.5,2.4c-0.6,0.7-1.1,1.5-1.4,2.4c-0.7,1.9,0,3.6,1.8,4.6c0.2,0.1,0.3,0.2,0.5,0.2
					c2.1,0.8,4.1,0.7,6-0.6c0.3-0.2,0.6-0.6,0.9-0.9c0.6-1,0.9-2.1,0.9-3.3c0.1-1.6-0.2-3.1-0.7-4.6
					C154.8,153.5,154.3,152.5,153.7,151.6z M198,153.5c-1.4,0.9-3.5,3.2-4.3,4.6c-0.2,0.4-0.3,0.8-0.5,1.2c-0.2,0.6-0.2,1.2-0.1,1.7
					c0.3,1.5,1.5,2.3,2.9,2c1.3-0.2,2.2-1,2.9-2.2C200,158.8,200,156.1,198,153.5z M150.5,135.5c0.7-0.4,1.9-1.4,2.6-2.3
					c0.7-0.9,1.3-1.8,1.6-2.9c0.3-1,0.4-2,0-3c-0.4-1.2-1.2-1.5-2.3-1c-0.7,0.3-1.2,0.8-1.5,1.5c-0.4,0.7-0.7,1.5-0.9,2.3
					C149.4,132,149.7,133.8,150.5,135.5z M229.6,147.9c1.2-0.3,2.3-0.7,3.3-1.3c1.1-0.7,2-1.7,2.6-2.9c0.4-0.8,0.6-1.7,0.5-2.6
					c0-0.7-0.3-1.3-1-1.6c-0.6-0.3-1.2-0.1-1.7,0.4c-0.4,0.4-0.9,0.9-1.2,1.4c-1,1.7-1.7,3.5-2.2,5.4
					C229.8,147,229.7,147.4,229.6,147.9z M248.4,134.5c-0.5-1.1-1.2-1.9-2.4-2.2c-0.5-0.1-0.7,0-0.9,0.4c-0.2,0.4-0.1,0.7,0.3,1.1
					C246.3,134.6,247.3,134.6,248.4,134.5z"/>
				<path class="st16" d="M169.5,135.8c-1.9,0-3.4-1.6-3.3-3.5c0-0.7,0.2-1.5,0.6-2.1c1.1-1.6,3.4-1.9,4.9-0.6c1.1,1,1.5,2.5,1,4
					C172.2,134.9,170.9,135.8,169.5,135.8z"/>
			</g>
		</g>
	</g>
</g>
</svg>
